<svg width="424" height="621" viewBox="0 0 424 621" fill="none" xmlns="http://www.w3.org/2000/svg">
<g clip-path="url(#clip0_109_6609)">
<g opacity="0.8">
<path opacity="0.8" d="M516.249 536.02C512.911 534.873 509.974 532.805 507.76 530.034L152.808 85.556C149.695 81.6612 148.286 76.782 148.841 71.8133C149.396 66.8447 151.842 62.3843 155.73 59.2563L599.623 -297.88C604.637 -301.915 611.266 -303.081 617.345 -300.997C620.683 -299.85 623.62 -297.782 625.834 -295.011L980.786 149.467C983.899 153.362 985.308 158.241 984.753 163.21C984.204 168.18 981.752 172.639 977.864 175.767L533.966 532.895C528.952 536.93 522.329 538.098 516.249 536.02ZM616.848 -299.588C611.255 -301.502 605.155 -300.429 600.544 -296.715L156.652 60.4216C153.071 63.2963 150.819 67.4011 150.313 71.9713C149.806 76.5414 151.103 81.0299 153.966 84.6102L508.916 529.095C510.954 531.648 513.651 533.55 516.722 534.598C522.321 536.513 528.416 535.438 533.03 531.732L976.917 174.594C980.499 171.713 982.743 167.613 983.258 163.038C983.764 158.468 982.467 153.979 979.606 150.393L624.655 -294.086C622.623 -296.637 619.92 -298.54 616.848 -299.588Z" fill="#DA4067"/>
<path opacity="0.8" d="M498.247 533.317C494.914 532.178 492.002 530.097 489.824 527.296L149.348 89.6355C146.361 85.7987 145.048 81.0164 145.647 76.1777C146.246 71.3391 148.687 67.0146 152.525 64.0094L589.584 -278.586C594.451 -282.403 600.85 -283.485 606.694 -281.491C610.025 -280.346 612.946 -278.269 615.124 -275.468L955.599 162.193C961.767 170.116 960.341 181.618 952.429 187.821L515.362 530.421C510.494 534.238 504.094 535.326 498.247 533.317ZM606.206 -280.066C600.839 -281.906 594.967 -280.91 590.493 -277.404L153.441 65.1938C149.923 67.9493 147.677 71.9181 147.126 76.3583C146.574 80.8049 147.783 85.1921 150.525 88.7162L491.001 526.376C493 528.946 495.674 530.854 498.732 531.905C504.099 533.745 509.97 532.749 514.438 529.241L951.503 186.647C958.765 180.948 960.077 170.396 954.418 163.125L613.943 -274.536C611.944 -277.105 609.271 -279.02 606.206 -280.066Z" fill="#DA4067"/>
<path opacity="0.8" d="M480.248 530.629C476.914 529.49 474.02 527.393 471.885 524.563L145.891 93.7231C139.98 85.9095 141.522 74.7164 149.317 68.7687L579.542 -259.286C584.265 -262.891 590.433 -263.89 596.044 -261.971C599.378 -260.832 602.272 -258.735 604.409 -255.912L930.403 174.929C933.266 178.715 934.487 183.395 933.835 188.108C933.19 192.823 930.751 197.003 926.977 199.883L496.748 527.951C492.027 531.549 485.858 532.554 480.248 530.629ZM595.563 -260.544C590.426 -262.303 584.77 -261.387 580.448 -258.091L150.223 69.9639C143.077 75.4079 141.674 85.6648 147.084 92.822L473.078 523.662C475.036 526.254 477.686 528.176 480.738 529.218C485.875 530.977 491.524 530.06 495.849 526.757L926.078 198.71C929.541 196.07 931.767 192.239 932.364 187.923C932.961 183.606 931.838 179.32 929.217 175.852L603.224 -254.988C601.265 -257.58 598.616 -259.501 595.563 -260.544Z" fill="#DA4067"/>
<path opacity="0.8" d="M462.248 527.94C458.915 526.801 456.046 524.691 453.947 521.831L142.433 97.8168C139.697 94.088 138.57 89.5119 139.266 84.9286C139.961 80.3454 142.395 76.3009 146.119 73.5442L569.516 -239.968C574.092 -243.355 580.031 -244.276 585.404 -242.434C588.736 -241.289 591.607 -239.185 593.706 -236.325L905.224 187.697C910.875 195.393 909.229 206.287 901.545 211.972L478.137 525.474C473.567 528.862 467.628 529.784 462.248 527.94ZM584.922 -241.028C580.009 -242.708 574.581 -241.863 570.401 -238.772L147.004 74.7401C143.603 77.2618 141.376 80.9543 140.742 85.1428C140.107 89.3312 141.137 93.5141 143.638 96.9194L455.155 520.948C457.074 523.556 459.693 525.489 462.739 526.53C467.652 528.209 473.079 527.37 477.26 524.274L900.657 210.761C907.676 205.562 909.189 195.612 904.023 188.582L592.505 -235.44C590.588 -238.054 587.967 -239.981 584.922 -241.028Z" fill="#DA4067"/>
<path opacity="0.8" d="M444.248 525.258C440.917 524.112 438.066 521.987 436.008 519.105L138.978 101.904C136.362 98.2318 135.331 93.7525 136.077 89.3011C136.819 84.8415 139.251 80.9412 142.919 78.3056L559.48 -220.66C563.905 -223.836 569.615 -224.681 574.758 -222.92C578.092 -221.781 580.941 -219.649 582.999 -216.767L880.035 200.435C882.651 204.108 883.683 208.587 882.934 213.045C882.192 217.505 879.766 221.407 876.1 224.036L459.531 523.006C455.108 526.176 449.398 527.021 444.248 525.258ZM574.274 -221.508C569.581 -223.116 564.373 -222.343 560.341 -219.45L143.779 79.5148C140.435 81.9154 138.22 85.4739 137.547 89.5342C136.867 93.5991 137.809 97.6807 140.19 101.03L437.233 518.234C439.104 520.862 441.701 522.802 444.741 523.841C449.428 525.447 454.636 524.675 458.675 521.784L875.238 222.812C878.582 220.412 880.791 216.851 881.47 212.793C882.15 208.728 881.208 204.646 878.827 201.297L581.791 -215.905C579.911 -218.528 577.314 -220.469 574.274 -221.508Z" fill="#DA4067"/>
<path opacity="0.8" d="M426.245 522.582C422.905 521.441 420.082 519.29 418.075 516.374L135.515 105.99C130.373 98.527 132.259 88.2402 139.711 83.065L549.447 -201.364C553.714 -204.332 559.2 -205.091 564.113 -203.412C567.453 -202.271 570.277 -200.126 572.284 -197.21L854.836 213.178C857.331 216.794 858.261 221.175 857.469 225.503C856.675 229.837 854.254 233.603 850.64 236.103L440.919 520.529C436.645 523.496 431.164 524.263 426.245 522.582ZM563.635 -201.998C559.165 -203.526 554.18 -202.833 550.295 -200.137L140.559 84.2914C133.782 88.9976 132.069 98.3448 136.742 105.134L419.307 515.526C421.132 518.175 423.697 520.126 426.731 521.163C431.2 522.692 436.186 521.999 440.071 519.303L849.806 234.874C853.094 232.595 855.297 229.17 856.014 225.24C856.733 221.303 855.885 217.318 853.621 214.038L571.063 -196.352C569.24 -199.007 566.669 -200.961 563.635 -201.998Z" fill="#DA4067"/>
<path opacity="0.8" d="M408.244 519.9C404.904 518.759 402.106 516.594 400.137 513.641L132.059 110.078C129.693 106.513 128.855 102.242 129.693 98.0376C130.532 93.8334 132.959 90.2067 136.511 87.8259L539.412 -182.062C543.596 -184.863 548.72 -185.536 553.476 -183.909C556.822 -182.766 559.621 -180.602 561.581 -177.645L829.659 225.919C834.545 233.273 832.543 243.251 825.208 248.171L422.306 518.059C418.123 520.859 412.999 521.532 408.244 519.9ZM552.996 -182.489C548.683 -183.964 544.039 -183.356 540.248 -180.819L137.341 89.0676C134.115 91.2279 131.924 94.5183 131.161 98.3251C130.397 102.138 131.161 106.009 133.308 109.241L401.378 512.809C403.16 515.487 405.695 517.45 408.722 518.485C413.035 519.961 417.688 519.349 421.472 516.809L824.38 246.923C831.037 242.463 832.846 233.42 828.419 226.751L560.34 -176.813C558.565 -179.488 556.024 -181.453 552.996 -182.489Z" fill="#DA4067"/>
<path opacity="0.8" d="M390.239 517.23C386.893 516.087 384.117 513.894 382.201 510.902L128.603 114.165C126.364 110.658 125.621 106.484 126.51 102.412C127.401 98.333 129.821 94.8487 133.321 92.597L529.386 -162.744C533.414 -165.342 538.316 -165.936 542.842 -164.391C546.186 -163.242 548.966 -161.062 550.882 -158.07L804.477 238.68C806.723 242.182 807.465 246.363 806.576 250.435C805.681 254.506 803.265 257.998 799.765 260.25L403.695 515.582C399.667 518.181 394.764 518.781 390.239 517.23ZM542.36 -162.985C538.266 -164.389 533.832 -163.844 530.195 -161.501L134.122 93.844C130.952 95.8833 128.769 99.0313 127.964 102.723C127.162 106.408 127.831 110.182 129.859 113.351L383.455 510.095C385.188 512.799 387.698 514.776 390.726 515.811C394.819 517.215 399.253 516.669 402.89 514.327L798.962 258.988C802.125 256.947 804.31 253.793 805.119 250.11C805.928 246.426 805.251 242.657 803.23 239.483L549.628 -157.263C547.897 -159.973 545.381 -161.952 542.36 -162.985Z" fill="#DA4067"/>
<path opacity="0.8" d="M372.235 514.56C368.927 513.429 366.098 511.158 364.263 508.17L125.143 118.244C123.025 114.794 122.377 110.716 123.318 106.769C124.26 102.823 126.674 99.474 130.117 97.3434L519.355 -143.455C523.219 -145.847 527.902 -146.375 532.203 -144.903C535.511 -143.771 538.34 -141.501 540.175 -138.512L779.295 251.413C781.406 254.862 782.057 258.933 781.12 262.888C780.178 266.835 777.764 270.183 774.32 272.314L385.076 513.11C381.212 515.502 376.529 516.03 372.235 514.56ZM531.717 -143.484C527.841 -144.811 523.619 -144.333 520.134 -142.18L130.895 98.6246C127.788 100.545 125.616 103.559 124.768 107.12C123.921 110.675 124.503 114.348 126.41 117.462L365.537 507.389C367.19 510.083 369.742 512.128 372.719 513.148C376.595 514.474 380.817 513.996 384.302 511.843L773.541 271.039C776.642 269.117 778.82 266.105 779.668 262.543C780.515 258.988 779.933 255.316 778.026 252.202L538.905 -137.723C537.252 -140.418 534.702 -142.469 531.717 -143.484Z" fill="#DA4067"/>
<path opacity="0.8" d="M354.226 511.904C350.912 510.77 348.105 508.472 346.325 505.438L121.686 122.332C119.696 118.94 119.141 114.965 120.135 111.144C121.12 107.327 123.535 104.116 126.921 102.113L509.327 -124.15C513.037 -126.347 517.493 -126.804 521.57 -125.412C524.884 -124.278 527.691 -121.98 529.471 -118.946L754.11 264.16C758.217 271.167 755.871 280.239 748.875 284.379L366.469 510.642C362.759 512.839 358.297 513.294 354.226 511.904ZM521.083 -123.993C517.425 -125.242 513.416 -124.832 510.081 -122.862L127.675 103.402C124.631 105.202 122.463 108.087 121.577 111.52C120.69 114.954 121.185 118.525 122.974 121.576L347.614 504.675C349.21 507.401 351.729 509.463 354.712 510.485C358.371 511.734 362.38 511.324 365.715 509.354L748.12 283.09C754.408 279.375 756.519 271.218 752.827 264.924L528.182 -118.183C526.586 -120.909 524.067 -122.971 521.083 -123.993Z" fill="#DA4067"/>
<path opacity="0.8" d="M336.211 509.245C332.884 508.108 330.105 505.783 328.387 502.705L118.224 126.418C114.373 119.52 116.84 110.759 123.718 106.88L499.296 -104.841C502.845 -106.837 507.084 -107.234 510.934 -105.915C514.262 -104.778 517.047 -102.452 518.766 -99.3736L728.928 276.914C732.782 283.805 730.318 292.574 723.434 296.451L347.85 508.17C344.301 510.167 340.064 510.557 336.211 509.245ZM510.45 -104.503C507.005 -105.682 503.206 -105.334 500.028 -103.545L124.452 108.169C118.29 111.647 116.082 119.5 119.528 125.673L329.689 501.967C331.228 504.724 333.721 506.806 336.698 507.826C340.149 509.007 343.942 508.657 347.122 506.862L722.698 295.147C728.86 291.67 731.068 283.817 727.621 277.643L517.458 -98.6438C515.92 -101.401 513.427 -103.483 510.45 -104.503Z" fill="#DA4067"/>
<path opacity="0.8" d="M318.201 506.594C314.856 505.445 312.106 503.095 310.444 499.964L114.763 130.497C111.172 123.717 113.759 115.253 120.525 111.637L489.275 -85.5411C492.659 -87.3522 496.678 -87.6764 500.305 -86.4373C503.651 -85.2945 506.406 -82.9361 508.062 -79.8072L703.743 289.66C707.333 296.44 704.747 304.904 697.981 308.52L329.237 505.7C325.852 507.511 321.828 507.833 318.201 506.594ZM499.819 -85.0186C496.58 -86.1298 492.996 -85.8359 489.973 -84.2214L121.224 112.95C115.183 116.181 112.877 123.737 116.085 129.786L311.764 499.259C313.244 502.054 315.704 504.153 318.687 505.176C321.921 506.279 325.511 505.987 328.535 504.372L697.283 307.2C703.325 303.97 705.63 296.413 702.418 290.357L506.737 -79.1102C505.262 -81.8968 502.802 -83.9965 499.819 -85.0186Z" fill="#DA4067"/>
<path opacity="0.8" d="M300.189 503.95C296.826 502.795 294.106 500.413 292.515 497.227L111.309 134.578C109.698 131.345 109.431 127.676 110.572 124.242C111.707 120.806 114.112 118.026 117.333 116.394L479.247 -66.2375C482.516 -67.89 486.218 -68.1422 489.676 -66.9596C493.039 -65.805 495.766 -63.4205 497.357 -60.2351L678.556 302.412C681.886 309.074 679.182 317.235 672.534 320.59L310.618 503.228C307.351 504.874 303.647 505.132 300.189 503.95ZM489.192 -65.5474C486.114 -66.5975 482.826 -66.3747 479.914 -64.9064L118.004 117.733C115.141 119.175 113.003 121.655 111.988 124.707C110.973 127.758 111.207 131.026 112.643 133.897L293.84 496.551C295.258 499.39 297.68 501.505 300.675 502.531C303.747 503.58 307.041 503.359 309.947 501.888L671.863 319.251C677.778 316.265 680.18 309.012 677.22 303.078L496.014 -59.5707C494.607 -62.3995 492.18 -64.517 489.192 -65.5474Z" fill="#DA4067"/>
<path opacity="0.8" d="M282.175 501.312C278.793 500.152 276.092 497.727 274.574 494.48L107.849 138.658C104.781 132.107 107.6 124.255 114.139 121.157L469.221 -46.94C472.317 -48.4025 475.805 -48.6074 479.044 -47.4963C482.426 -46.336 485.127 -43.9109 486.647 -40.6708L653.375 315.166C656.442 321.717 653.617 329.567 647.079 332.665L291.999 500.756C288.901 502.224 285.414 502.423 282.175 501.312ZM478.558 -46.0778C475.687 -47.0601 472.598 -46.8821 469.853 -45.5847L114.77 122.512C108.975 125.258 106.475 132.213 109.191 138.02L275.922 493.845C277.268 496.717 279.659 498.866 282.661 499.893C285.526 500.874 288.622 500.698 291.367 499.4L646.447 331.31C652.243 328.564 654.741 321.615 652.021 315.8L485.297 -40.0291C483.951 -42.9018 481.56 -45.0499 478.558 -46.0778Z" fill="#DA4067"/>
<path opacity="0.8" d="M264.157 498.687C260.794 497.532 258.054 495.006 256.635 491.748L104.388 142.737C103.026 139.612 102.96 136.147 104.196 132.974C105.434 129.795 107.832 127.295 110.943 125.92L459.196 -27.6277C462.125 -28.9191 465.403 -29.0623 468.418 -28.0308C471.777 -26.8843 474.521 -24.3501 475.946 -21.0898L628.187 327.919C630.998 334.36 628.052 341.899 621.631 344.736L273.379 498.284C270.45 499.575 267.178 499.72 264.157 498.687ZM467.934 -26.6185C465.269 -27.5332 462.374 -27.4081 459.793 -26.269L111.544 127.287C108.798 128.495 106.684 130.707 105.592 133.509C104.497 136.317 104.553 139.374 105.755 142.128L258.001 491.145C259.256 494.025 261.679 496.252 264.643 497.268C267.308 498.183 270.196 498.056 272.784 496.919L621.039 343.365C626.707 340.864 629.305 334.205 626.828 328.523L474.586 -20.4854C473.325 -23.3673 470.898 -25.6019 467.934 -26.6185Z" fill="#DA4067"/>
<path opacity="0.8" d="M246.131 496.066C242.74 494.91 240.03 492.331 238.694 489.001L100.929 146.81C99.6946 143.743 99.7285 140.383 101.017 137.336C102.305 134.289 104.697 131.925 107.757 130.679L449.178 -8.33472C451.933 -9.4571 454.996 -9.54649 457.798 -8.5846C461.186 -7.42248 463.899 -4.84954 465.236 -1.52552L603.006 340.673C605.55 346.994 602.486 354.231 596.178 356.805L254.757 495.818C252.004 496.934 248.941 497.024 246.131 496.066ZM457.312 -7.16602C454.846 -8.00848 452.151 -7.93443 449.731 -6.94735L108.317 132.068C105.631 133.163 103.523 135.239 102.391 137.919C101.259 140.599 101.227 143.555 102.311 146.247L240.076 488.437C241.256 491.364 243.634 493.625 246.617 494.648C249.083 495.49 251.771 495.414 254.197 494.429L595.616 355.422C601.166 353.161 603.862 346.8 601.618 341.235L463.852 -0.955777C462.679 -3.88066 460.295 -6.14379 457.312 -7.16602Z" fill="#DA4067"/>
<path opacity="0.8" d="M228.109 493.454C224.683 492.28 222.006 489.656 220.754 486.254L97.4683 150.89C95.1868 144.681 98.3738 137.748 104.569 135.443L439.153 10.9773C441.731 10.0159 444.587 9.97568 447.176 10.868C450.602 12.0413 453.279 14.6656 454.531 18.0679L577.825 353.428C580.107 359.637 576.92 366.569 570.731 368.876L236.138 493.346C233.554 494.306 230.706 494.341 228.109 493.454ZM446.698 12.2821C444.426 11.5037 441.929 11.5393 439.67 12.3744L105.083 136.847C99.6603 138.863 96.8725 144.929 98.8706 150.373L222.156 485.738C223.252 488.715 225.598 491.015 228.594 492.041C230.865 492.82 233.357 492.782 235.623 491.943L570.21 367.47C575.633 365.454 578.421 359.388 576.421 353.95L453.131 18.5777C452.042 15.6018 449.694 13.3081 446.698 12.2821Z" fill="#DA4067"/>
<path opacity="0.8" d="M210.078 490.852C206.62 489.669 203.966 486.989 202.82 483.508L94.01 154.962C91.9911 148.865 95.2995 142.244 101.383 140.202L429.142 30.2719C431.58 29.4554 434.148 29.461 436.57 30.2905C440.034 31.4749 442.682 34.1525 443.837 37.6293L552.642 366.188C554.661 372.285 551.353 378.907 545.272 380.942L217.513 490.872C215.074 491.689 212.506 491.683 210.078 490.852ZM436.084 31.7091C433.975 30.9853 431.73 30.9784 429.611 31.6895L101.852 141.619C96.5478 143.395 93.6682 149.166 95.4283 154.485L204.236 483.038C205.24 486.071 207.549 488.401 210.564 489.433C212.673 490.157 214.912 490.162 217.039 489.446L544.796 379.523C550.1 377.747 552.98 371.976 551.22 366.657L442.412 38.1044C441.413 35.0793 439.099 32.7406 436.084 31.7091Z" fill="#DA4067"/>
<path opacity="0.8" d="M192.049 488.264C188.591 487.082 185.912 484.278 184.885 480.763L90.5513 159.036C88.7949 153.05 92.2249 146.739 98.1946 144.967L419.118 49.5841C421.376 48.9139 423.741 48.9561 425.955 49.7179C429.414 50.9005 432.092 53.7043 433.119 57.2191L527.453 378.947C529.203 384.931 525.78 391.243 519.81 393.016L198.885 488.405C196.629 489.068 194.264 489.026 192.049 488.264ZM425.471 51.1301C423.55 50.4685 421.5 50.4295 419.535 51.014L98.612 146.397C93.4329 147.934 90.4598 153.416 91.9837 158.604L186.309 480.336C187.205 483.386 189.533 485.818 192.529 486.844C194.452 487.499 196.502 487.538 198.459 486.958L519.388 391.578C524.561 390.038 527.538 384.565 526.016 379.37L431.691 57.638C430.801 54.5902 428.473 52.1579 425.471 51.1301Z" fill="#DA4067"/>
<path opacity="0.8" d="M174.01 485.688C170.497 484.482 167.856 481.621 166.944 478.016L87.0944 163.102C85.6068 157.23 89.1583 151.231 95.0144 149.727L409.11 68.8873C411.183 68.3554 413.345 68.4341 415.361 69.1237C418.874 70.3293 421.513 73.1972 422.427 76.7955L502.27 391.708C503.76 397.574 500.206 403.579 494.35 405.083L180.253 485.929C178.186 486.463 176.02 486.376 174.01 485.688ZM414.868 70.5404C413.133 69.9472 411.266 69.8725 409.474 70.3358L95.3783 151.176C90.3224 152.481 87.2531 157.659 88.5371 162.729L168.387 477.643C169.175 480.757 171.461 483.239 174.494 484.276C176.236 484.871 178.097 484.944 179.889 484.48L493.986 403.634C499.042 402.329 502.112 397.151 500.821 392.079L420.971 77.1652C420.184 74.0511 417.902 71.5775 414.868 70.5404Z" fill="#DA4067"/>
<path opacity="0.8" d="M155.966 483.131C152.446 481.923 149.779 478.916 149.004 475.269L83.6377 167.169C82.4172 161.417 86.092 155.722 91.8345 154.488L399.096 88.1886C400.988 87.7822 402.94 87.8956 404.756 88.5193C408.275 89.7268 410.941 92.74 411.718 96.3807L477.086 404.475C478.306 410.227 474.633 415.916 468.889 417.156L161.628 483.455C159.735 483.861 157.777 483.746 155.966 483.131ZM404.272 89.9316C402.711 89.3969 401.029 89.3008 399.408 89.6494L92.1385 155.953C87.2014 157.018 84.0448 161.909 85.0889 166.86L150.465 474.949C151.143 478.134 153.382 480.658 156.452 481.712C158.012 482.247 159.694 482.343 161.322 481.996L468.585 415.691C473.516 414.624 476.679 409.734 475.626 404.788L410.258 96.6942C409.581 93.5093 407.342 90.9862 404.272 89.9316Z" fill="#DA4067"/>
<path opacity="0.8" d="M137.911 480.584C134.322 479.356 131.701 476.26 131.065 472.516L80.1743 171.234C79.2227 165.595 83.0235 160.219 88.648 159.246L389.083 107.483C390.784 107.192 392.543 107.332 394.16 107.883C397.749 109.111 400.377 112.203 401.004 115.957L451.894 417.239C452.846 422.878 449.052 428.256 443.423 429.221L142.993 480.985C141.293 481.276 139.534 481.137 137.911 480.584ZM393.672 109.308C392.287 108.832 390.781 108.719 389.326 108.972L88.8984 160.73C84.0864 161.557 80.8361 166.159 81.6486 170.986L132.543 472.256C133.083 475.462 135.327 478.111 138.399 479.159C139.784 479.635 141.288 479.754 142.743 479.502L443.177 427.745C447.989 426.918 451.239 422.316 450.426 417.489L399.54 116.215C398.994 113.006 396.748 110.364 393.672 109.308Z" fill="#DA4067"/>
</g>
</g>
<defs>
<clipPath id="clip0_109_6609">
<rect width="885" height="638" fill="white" transform="translate(0 440.014) rotate(-73.6048)"/>
</clipPath>
</defs>
</svg>
