<svg width="890" height="1633" viewBox="0 0 890 1633" fill="none" xmlns="http://www.w3.org/2000/svg">
<g clip-path="url(#clip0_109_6750)">
<path opacity="0.8" d="M1300.89 990.859C1298.45 994.86 1294.93 998.079 1290.71 1000.16L613.551 1333.93C607.617 1336.86 600.894 1337.3 594.617 1335.16C588.339 1333.03 583.26 1328.59 580.32 1322.66L244.539 645.535C240.744 637.886 241.128 628.959 245.565 621.671C248.005 617.67 251.522 614.45 255.744 612.367L932.899 278.6C938.834 275.671 945.556 275.233 951.834 277.366C958.115 279.491 963.19 283.939 966.131 289.87L1301.9 966.999C1305.69 974.647 1305.31 983.566 1300.89 990.859ZM247.247 622.716C243.17 629.423 242.818 637.638 246.311 644.672L582.092 1321.8C584.793 1327.26 589.467 1331.34 595.242 1333.3C601.017 1335.26 607.201 1334.85 612.657 1332.16L1289.82 998.397C1293.71 996.481 1296.94 993.525 1299.18 989.84C1303.26 983.126 1303.61 974.918 1300.13 967.881L964.341 290.764C961.633 285.3 956.963 281.225 951.184 279.256C945.409 277.299 939.224 277.704 933.761 280.393L256.606 614.159C252.72 616.068 249.483 619.032 247.247 622.716Z" fill="#CC0033"/>
<path opacity="0.8" d="M1292.24 1013.43C1289.81 1017.43 1286.29 1020.61 1282.03 1022.64L617.847 1339.58C612.024 1342.36 605.454 1342.7 599.357 1340.55C593.261 1338.39 588.357 1334 585.561 1328.17L266.662 664.04C263.109 656.643 263.535 648.039 267.788 641.03C270.224 637.036 273.748 633.841 277.999 631.813L942.187 314.875C954.212 309.133 968.704 314.254 974.477 326.277L1293.38 990.416C1296.93 997.813 1296.51 1006.42 1292.24 1013.43ZM269.495 642.068C265.577 648.503 265.19 656.399 268.454 663.197L587.356 1327.32C589.921 1332.66 594.42 1336.7 600.014 1338.68C605.616 1340.66 611.644 1340.34 616.992 1337.79L1281.18 1020.85C1285.08 1018.99 1288.32 1016.06 1290.55 1012.4C1294.47 1005.97 1294.85 998.069 1291.59 991.279L972.693 327.144C967.386 316.107 954.092 311.404 943.057 316.672L278.869 633.61C274.969 635.471 271.726 638.391 269.495 642.068Z" fill="#CC0033"/>
<path opacity="0.8" d="M1283.62 1036C1281.19 1040 1277.65 1043.16 1273.37 1045.12L622.154 1345.22C610.344 1350.66 596.286 1345.48 590.809 1333.68L288.793 682.549C285.473 675.4 285.941 667.119 290.031 660.389C292.459 656.391 296.001 653.236 300.269 651.268L951.485 351.167C957.208 348.531 963.618 348.28 969.537 350.466C975.46 352.644 980.178 356.995 982.83 362.708L1284.86 1013.85C1288.17 1020.99 1287.71 1029.28 1283.62 1036ZM291.741 661.42C287.995 667.579 287.565 675.173 290.6 681.715L592.616 1332.84C597.626 1343.66 610.511 1348.4 621.328 1343.42L1272.54 1043.32C1276.46 1041.51 1279.71 1038.63 1281.93 1034.96C1285.68 1028.8 1286.1 1021.22 1283.06 1014.67L981.055 363.539C978.623 358.298 974.298 354.322 968.877 352.32C963.456 350.318 957.584 350.555 952.343 352.966L301.127 653.068C297.21 654.869 293.964 657.758 291.741 661.42Z" fill="#CC0033"/>
<path opacity="0.8" d="M1274.99 1058.57C1272.56 1062.57 1269.01 1065.69 1264.71 1067.6L626.469 1350.87C620.857 1353.36 614.608 1353.51 608.87 1351.31C603.132 1349.1 598.588 1344.8 596.082 1339.18L310.952 701.044C307.873 694.148 308.376 686.185 312.297 679.742C314.733 675.748 318.278 672.624 322.583 670.717L960.831 387.444C972.414 382.307 986.055 387.54 991.223 399.12L1276.34 1037.27C1279.42 1044.16 1278.92 1052.12 1274.99 1058.57ZM313.981 680.768C310.402 686.66 309.945 693.939 312.754 700.237L597.883 1338.38C600.178 1343.5 604.325 1347.44 609.569 1349.46C614.813 1351.47 620.525 1351.33 625.651 1349.05L1263.91 1065.78C1267.83 1064.04 1271.09 1061.19 1273.3 1057.54C1276.88 1051.64 1277.35 1044.37 1274.53 1038.07L989.402 399.926C984.672 389.347 972.216 384.556 961.634 389.254L323.385 672.526C319.452 674.268 316.207 677.118 313.981 680.768Z" fill="#CC0033"/>
<path opacity="0.8" d="M1266.37 1081.15C1263.94 1085.14 1260.37 1088.24 1256.05 1090.08L630.776 1356.51C625.271 1358.86 619.175 1358.92 613.622 1356.69C608.057 1354.46 603.7 1350.19 601.334 1344.69L333.094 719.549C330.244 712.909 330.782 705.265 334.532 699.098C336.96 695.1 340.535 692.012 344.857 690.164L970.133 423.728C975.638 421.381 981.735 421.318 987.295 423.556C992.86 425.787 997.221 430.042 999.58 435.543L1267.82 1060.69C1270.67 1067.33 1270.13 1074.97 1266.37 1081.15ZM336.223 700.127C332.799 705.755 332.311 712.727 334.907 718.778L603.146 1343.92C605.3 1348.94 609.276 1352.82 614.344 1354.85C619.415 1356.89 624.971 1356.83 629.989 1354.69L1255.27 1088.25C1259.21 1086.57 1262.46 1083.75 1264.68 1080.11C1268.1 1074.49 1268.59 1067.52 1265.99 1061.46L997.748 436.314C995.594 431.294 991.613 427.418 986.55 425.383C981.479 423.344 975.923 423.405 970.905 425.54L345.628 691.976C341.692 693.667 338.437 696.481 336.223 700.127Z" fill="#CC0033"/>
<path opacity="0.8" d="M1257.76 1103.73C1255.33 1107.74 1251.74 1110.78 1247.39 1112.56L635.079 1362.16C623.943 1366.71 611.157 1361.33 606.583 1350.2L355.222 738.047C352.597 731.67 353.181 724.341 356.76 718.449C359.192 714.443 362.777 711.391 367.127 709.618L979.44 460.023C984.837 457.817 990.777 457.857 996.157 460.116C1001.54 462.379 1005.73 466.588 1007.94 471.985L1259.3 1084.12C1261.92 1090.5 1261.35 1097.83 1257.76 1103.73ZM358.455 719.471C355.198 724.831 354.672 731.492 357.053 737.296L608.414 1349.45C612.573 1359.58 624.192 1364.46 634.321 1360.33L1246.64 1110.72C1250.59 1109.11 1253.86 1106.33 1256.07 1102.7C1259.32 1097.34 1259.85 1090.67 1257.47 1084.87L1006.11 472.717C1004.09 467.805 1000.29 463.975 995.401 461.927C990.506 459.876 985.103 459.841 980.207 461.843L367.89 711.446C363.93 713.054 360.665 715.832 358.455 719.471Z" fill="#CC0033"/>
<path opacity="0.8" d="M1249.15 1126.31C1246.71 1130.31 1243.11 1133.32 1238.72 1135.04L639.387 1367.81C634.093 1369.86 628.321 1369.73 623.115 1367.45C617.909 1365.17 613.905 1360.99 611.835 1355.71L377.357 756.548C374.925 750.328 375.517 743.493 378.983 737.788C381.42 733.775 385.023 730.763 389.414 729.062L988.751 496.291C999.672 492.049 1012.02 497.482 1016.3 508.393L1250.78 1107.55C1253.21 1113.77 1252.62 1120.61 1249.15 1126.31ZM380.686 738.814C377.543 743.987 377.003 750.182 379.207 755.818L613.681 1354.98C615.558 1359.78 619.194 1363.56 623.907 1365.63C628.628 1367.7 633.86 1367.81 638.66 1365.95L1238 1133.19C1241.98 1131.64 1245.25 1128.91 1247.45 1125.28C1250.59 1120.11 1251.13 1113.9 1248.92 1108.28L1014.45 509.112C1010.57 499.211 999.377 494.293 989.474 498.137L390.137 730.907C386.164 732.448 382.892 735.183 380.686 738.814Z" fill="#CC0033"/>
<path opacity="0.8" d="M1240.54 1148.89C1238.11 1152.9 1234.47 1155.88 1230.05 1157.51L643.694 1373.45C638.512 1375.36 632.892 1375.13 627.871 1372.82C622.842 1370.51 619.02 1366.38 617.104 1361.2L399.516 775.044C397.301 769.082 397.932 762.558 401.226 757.129C403.67 753.12 407.289 750.135 411.712 748.503L998.085 532.572C1003.26 530.656 1008.89 530.883 1013.91 533.195C1018.93 535.513 1022.76 539.639 1024.68 544.817L1242.25 1130.98C1244.47 1136.94 1243.85 1143.47 1240.54 1148.89ZM402.91 758.154C399.922 763.063 399.362 768.967 401.357 774.348L618.948 1360.52C620.684 1365.2 624.138 1368.93 628.689 1371.02C633.233 1373.11 638.313 1373.32 642.999 1371.59L1229.36 1155.66C1233.36 1154.18 1236.64 1151.49 1238.85 1147.86C1241.83 1142.95 1242.39 1137.04 1240.4 1131.66L1022.81 545.5C1021.07 540.818 1017.61 537.087 1013.07 534.991C1008.53 532.894 1003.46 532.7 998.768 534.416L412.399 750.358C408.393 751.831 405.112 754.531 402.91 758.154Z" fill="#CC0033"/>
<path opacity="0.8" d="M1231.94 1171.47C1229.53 1175.44 1225.78 1178.46 1221.39 1179.99L647.989 1379.1C642.914 1380.86 637.447 1380.54 632.604 1378.2C627.76 1375.86 624.113 1371.77 622.337 1366.7L421.636 793.536C419.641 787.846 420.295 781.624 423.431 776.467C425.842 772.499 429.59 769.477 433.986 767.949L1007.38 568.843C1012.45 567.087 1017.91 567.402 1022.77 569.742C1027.61 572.085 1031.26 576.168 1033.04 581.239L1233.73 1154.41C1235.73 1160.1 1235.07 1166.33 1231.94 1171.47ZM425.129 777.501C422.304 782.149 421.717 787.758 423.51 792.889L624.219 1366.06C625.818 1370.63 629.102 1374.31 633.472 1376.42C637.835 1378.53 642.759 1378.82 647.337 1377.23L1220.74 1178.12C1224.7 1176.74 1228.08 1174.01 1230.25 1170.45C1233.08 1165.8 1233.66 1160.19 1231.87 1155.06L1031.16 581.886C1029.56 577.32 1026.28 573.639 1021.91 571.526C1017.54 569.416 1012.62 569.126 1008.04 570.714L434.645 769.82C430.683 771.196 427.298 773.919 425.129 777.501Z" fill="#CC0033"/>
<path opacity="0.8" d="M1223.35 1194.07C1220.94 1198.04 1217.16 1201.03 1212.72 1202.47L652.296 1384.74C647.333 1386.36 642.026 1385.95 637.36 1383.57C632.698 1381.21 629.229 1377.16 627.601 1372.2L443.775 812.031C441.99 806.595 442.671 800.688 445.639 795.798C448.054 791.823 451.833 788.837 456.272 787.393L1016.7 605.124C1026.95 601.792 1038.03 607.414 1041.39 617.662L1225.22 1177.84C1227 1183.27 1226.32 1189.19 1223.35 1194.07ZM447.338 796.832C444.675 801.22 444.06 806.535 445.659 811.419L629.486 1371.59C630.949 1376.05 634.066 1379.68 638.26 1381.81C642.453 1383.93 647.221 1384.31 651.684 1382.86L1212.1 1200.58C1216.09 1199.29 1219.48 1196.61 1221.66 1193.03C1224.32 1188.65 1224.93 1183.33 1223.33 1178.45L1039.51 618.274C1036.49 609.066 1026.53 604.008 1017.32 607.005L456.892 789.282C452.905 790.575 449.514 793.255 447.338 796.832Z" fill="#CC0033"/>
<path opacity="0.8" d="M1214.76 1216.67C1212.34 1220.66 1208.54 1223.6 1204.06 1224.95L656.599 1390.39C646.564 1393.42 635.921 1387.73 632.862 1377.71L465.922 830.529C464.35 825.36 465.047 819.751 467.855 815.133C470.279 811.143 474.088 808.193 478.566 806.841L1026.02 641.4C1036.05 638.365 1046.71 644.053 1049.76 654.082L1216.7 1201.27C1218.27 1206.44 1217.56 1212.05 1214.76 1216.67ZM469.546 816.163C467.035 820.295 466.4 825.318 467.809 829.948L634.741 1377.13C637.485 1386.11 647.026 1391.2 656.008 1388.49L1203.47 1223.05C1207.48 1221.84 1210.89 1219.2 1213.07 1215.63C1215.58 1211.5 1216.21 1206.48 1214.79 1201.84L1047.86 654.665C1045.12 645.687 1035.58 640.591 1026.6 643.303L479.138 808.743C475.127 809.953 471.719 812.593 469.546 816.163Z" fill="#CC0033"/>
<path opacity="0.8" d="M1206.19 1239.27C1203.74 1243.27 1199.91 1246.17 1195.38 1247.44L660.895 1396.04C651.087 1398.77 640.862 1393.01 638.111 1383.2L488.059 849.011C486.679 844.108 487.408 838.806 490.049 834.455C492.485 830.442 496.327 827.541 500.853 826.284L1035.34 677.68C1045.15 674.953 1055.37 680.715 1058.12 690.516L1208.18 1224.7C1209.56 1229.61 1208.83 1234.92 1206.19 1239.27ZM491.748 835.489C489.383 839.372 488.74 844.102 489.967 848.482L640.012 1382.67C642.471 1391.42 651.6 1396.56 660.351 1394.12L1194.84 1245.52C1198.89 1244.4 1202.31 1241.81 1204.49 1238.23C1206.84 1234.35 1207.49 1229.61 1206.26 1225.23L1056.21 691.045C1053.76 682.293 1044.63 677.154 1035.86 679.596L501.378 828.2C497.347 829.32 493.924 831.912 491.748 835.489Z" fill="#CC0033"/>
<path opacity="0.8" d="M1197.61 1261.87C1195.16 1265.9 1191.29 1268.75 1186.71 1269.91L665.194 1401.68C660.547 1402.85 655.717 1402.15 651.595 1399.7C647.468 1397.25 644.554 1393.34 643.361 1388.7L510.198 867.505C508.991 862.797 509.722 857.925 512.242 853.778C514.699 849.746 518.566 846.889 523.147 845.732L1044.66 713.965C1054.24 711.542 1064.04 717.369 1066.49 726.943L1199.66 1248.14C1200.86 1252.84 1200.13 1257.72 1197.61 1261.87ZM513.933 854.808C511.693 858.5 511.043 862.826 512.113 867.019L645.287 1388.21C646.337 1392.33 648.938 1395.81 652.601 1397.99C656.264 1400.18 660.564 1400.8 664.694 1399.76L1186.22 1267.99C1190.3 1266.96 1193.73 1264.43 1195.92 1260.83C1198.15 1257.15 1198.81 1252.82 1197.73 1248.63L1064.56 727.432C1062.38 718.914 1053.68 713.737 1045.14 715.887L523.624 847.662C519.558 848.682 516.121 851.227 513.933 854.808Z" fill="#CC0033"/>
<path opacity="0.8" d="M1189.05 1284.47C1186.58 1288.53 1182.67 1291.34 1178.03 1292.38L669.49 1407.33C660.129 1409.44 650.763 1403.55 648.618 1394.19L532.33 885.995C531.32 881.564 532.051 876.983 534.416 873.1C536.885 869.045 540.798 866.233 545.429 865.184L1053.99 750.241C1063.35 748.128 1072.71 754.024 1074.86 763.382L1191.14 1271.58C1192.15 1276.01 1191.42 1280.59 1189.05 1284.47ZM536.114 874.134C534.021 877.577 533.37 881.633 534.266 885.561L650.554 1393.76C652.454 1402.06 660.75 1407.28 669.048 1405.41L1177.59 1290.46C1181.7 1289.53 1185.16 1287.04 1187.35 1283.44C1189.44 1280 1190.1 1275.94 1189.2 1272.01L1072.92 763.816C1071.02 755.521 1062.73 750.305 1054.42 752.178L545.875 867.116C541.769 868.045 538.303 870.534 536.114 874.134Z" fill="#CC0033"/>
<path opacity="0.8" d="M1180.5 1307.09C1178.05 1311.12 1173.99 1313.95 1169.36 1314.86L673.785 1412.98C669.349 1413.85 664.84 1412.95 661.084 1410.45C657.32 1407.94 654.767 1404.12 653.875 1399.69L554.481 904.485C553.645 900.32 554.396 896.029 556.593 892.414C559.038 888.385 563.105 885.548 567.735 884.628L1063.31 786.526C1072.46 784.713 1081.38 790.678 1083.22 799.809L1182.61 1295.02C1183.45 1299.18 1182.7 1303.46 1180.5 1307.09ZM558.284 893.443C556.338 896.638 555.673 900.427 556.411 904.098L655.817 1399.3C656.597 1403.21 658.858 1406.58 662.175 1408.79C665.5 1411.01 669.476 1411.8 673.387 1411.03L1168.97 1312.92C1173.06 1312.12 1176.64 1309.61 1178.8 1306.05C1180.75 1302.86 1181.41 1299.08 1180.68 1295.4L1081.28 800.188C1079.66 792.126 1071.77 786.864 1063.7 788.46L568.13 886.563C564.036 887.378 560.448 889.889 558.284 893.443Z" fill="#CC0033"/>
<path opacity="0.8" d="M1171.96 1329.71C1169.49 1333.78 1165.38 1336.56 1160.68 1337.34L678.073 1418.62C673.748 1419.35 669.404 1418.35 665.826 1415.81C662.247 1413.27 659.868 1409.5 659.128 1405.18L576.609 922.963C575.943 919.071 576.702 915.074 578.748 911.715C581.222 907.652 585.33 904.868 590.017 904.079L1072.64 822.802C1081.55 821.302 1090.05 827.333 1091.58 836.244L1174.1 1318.46C1174.76 1322.35 1174 1326.34 1171.96 1329.71ZM580.447 912.749C578.651 915.707 577.977 919.221 578.565 922.64L661.088 1404.85C661.739 1408.64 663.826 1411.96 666.974 1414.19C670.122 1416.42 673.941 1417.31 677.738 1416.67L1160.35 1335.39C1164.47 1334.7 1168.08 1332.26 1170.26 1328.68C1172.05 1325.72 1172.72 1322.21 1172.14 1318.79L1089.63 836.579C1088.29 828.74 1080.82 823.435 1072.97 824.762L590.36 906.035C586.236 906.724 582.624 909.172 580.447 912.749Z" fill="#CC0033"/>
<path opacity="0.8" d="M1163.42 1352.33C1160.93 1356.44 1156.76 1359.17 1152 1359.82L682.368 1424.27C673.674 1425.46 665.605 1419.35 664.389 1410.67L598.76 941.453C598.251 937.838 599.015 934.123 600.911 931.021C603.409 926.912 607.574 924.188 612.338 923.532L1081.96 859.079C1090.66 857.887 1098.73 863.991 1099.95 872.671L1165.58 1341.89C1166.08 1345.52 1165.32 1349.22 1163.42 1352.33ZM602.606 932.043C600.948 934.767 600.281 938.015 600.717 941.181L666.354 1410.4C667.416 1418 674.477 1423.34 682.1 1422.3L1151.73 1357.86C1155.9 1357.29 1159.55 1354.9 1161.73 1351.31C1163.39 1348.58 1164.05 1345.34 1163.61 1342.16L1097.98 872.947C1096.92 865.342 1089.85 860.002 1082.24 861.048L612.599 925.493C608.433 926.058 604.791 928.45 602.606 932.043Z" fill="#CC0033"/>
<path opacity="0.8" d="M1154.9 1374.97C1152.38 1379.12 1148.15 1381.8 1143.32 1382.3L686.656 1429.91C678.181 1430.79 670.549 1424.62 669.643 1416.15L620.893 959.924C620.532 956.529 621.273 953.202 623.039 950.298C625.563 946.143 629.788 943.472 634.621 942.964L1091.3 895.36C1099.77 894.477 1107.4 900.65 1108.3 909.114L1157.05 1365.34C1157.41 1368.73 1156.67 1372.06 1154.9 1374.97ZM624.738 951.332C623.198 953.861 622.547 956.769 622.863 959.719L671.613 1415.95C672.398 1423.33 679.05 1428.7 686.443 1427.93L1143.11 1380.33C1147.33 1379.89 1151.01 1377.56 1153.2 1373.94C1154.74 1371.41 1155.39 1368.51 1155.07 1365.55L1106.33 909.326C1105.54 901.944 1098.89 896.569 1091.5 897.338L634.83 944.946C630.626 945.381 626.935 947.716 624.738 951.332Z" fill="#CC0033"/>
<path opacity="0.8" d="M1146.4 1397.61C1143.88 1401.76 1139.48 1404.44 1134.64 1404.77L690.944 1435.55C682.688 1436.13 675.494 1429.88 674.904 1421.64L643.044 978.414C642.821 975.296 643.551 972.242 645.171 969.587C647.691 965.44 652.088 962.764 656.934 962.432L1100.63 931.648C1108.88 931.082 1116.08 937.316 1116.67 945.561L1148.53 1388.79C1148.75 1391.9 1148.02 1394.96 1146.4 1397.61ZM646.862 970.616C645.456 972.919 644.82 975.566 645.015 978.28L676.875 1421.51C677.387 1428.66 683.638 1434.07 690.794 1433.57L1134.49 1402.8C1138.7 1402.51 1142.51 1400.18 1144.7 1396.59C1146.09 1394.28 1146.73 1391.63 1146.54 1388.93L1114.68 945.698C1114.17 938.554 1107.93 933.136 1100.76 933.632L657.069 964.404C652.867 964.69 649.051 967.016 646.862 970.616Z" fill="#CC0033"/>
<path opacity="0.8" d="M1137.91 1420.27C1135.34 1424.48 1130.88 1427.09 1125.95 1427.25L695.224 1441.19C687.192 1441.45 680.436 1435.14 680.161 1427.12L665.188 996.881C665.092 994.042 665.811 991.262 667.281 988.844C669.846 984.631 674.315 982.025 679.237 981.865L1109.96 967.929C1117.98 967.667 1124.75 973.983 1125.02 982.003L1140 1412.24C1140.1 1415.07 1139.37 1417.86 1137.91 1420.27ZM668.975 989.885C667.711 991.966 667.08 994.366 667.169 996.821L682.142 1427.06C682.388 1433.98 688.219 1439.44 695.152 1439.21L1125.88 1425.27C1130.14 1425.14 1134.01 1422.88 1136.22 1419.24C1137.49 1417.15 1138.11 1414.76 1138.02 1412.3L1123.04 982.063C1122.8 975.136 1116.97 969.683 1110.03 969.914L679.3 983.857C675.041 983.992 671.185 986.247 668.975 989.885Z" fill="#CC0033"/>
<path opacity="0.8" d="M1129.44 1442.94C1126.87 1447.16 1122.21 1449.76 1117.27 1449.73L699.504 1446.83C691.704 1446.78 685.377 1440.39 685.419 1432.59L687.329 1015.36C687.343 1012.79 688.048 1010.29 689.374 1008.11C691.944 1003.89 696.608 1001.29 701.546 1001.32L1119.3 1004.21C1127.1 1004.27 1133.42 1010.65 1133.39 1018.45L1131.48 1435.69C1131.46 1438.26 1130.75 1440.76 1129.44 1442.94ZM691.065 1009.14C689.927 1011.01 689.322 1013.17 689.31 1015.37L687.404 1432.62C687.373 1439.32 692.807 1444.81 699.518 1444.86L1117.27 1447.74C1121.59 1447.77 1125.5 1445.58 1127.74 1441.9C1128.88 1440.03 1129.48 1437.88 1129.5 1435.67L1131.4 1018.43C1131.43 1011.73 1126 1006.24 1119.29 1006.2L701.535 1003.3C697.216 1003.27 693.308 1005.46 691.065 1009.14Z" fill="#CC0033"/>
<path opacity="0.8" d="M1120.98 1465.62C1118.37 1469.92 1113.61 1472.44 1108.58 1472.2L703.779 1452.48C696.203 1452.11 690.326 1445.65 690.672 1438.08L709.461 1033.83C709.57 1031.54 710.253 1029.3 711.429 1027.36C714.045 1023.05 718.801 1020.52 723.843 1020.78L1128.64 1040.51C1136.22 1040.88 1142.1 1047.33 1141.74 1054.9L1122.96 1459.15C1122.85 1461.43 1122.16 1463.67 1120.98 1465.62ZM713.135 1028.4C712.123 1030.06 711.546 1031.98 711.458 1033.93L692.666 1438.18C692.362 1444.65 697.395 1450.17 703.88 1450.49L1108.66 1470.21C1112.97 1470.42 1117.04 1468.27 1119.28 1464.58C1120.29 1462.92 1120.87 1461.01 1120.96 1459.05L1139.76 1054.8C1140.06 1048.32 1135.03 1042.8 1128.54 1042.48L723.759 1022.75C719.446 1022.55 715.383 1024.71 713.135 1028.4Z" fill="#CC0033"/>
</g>
<defs>
<clipPath id="clip0_109_6750">
<rect width="1173.56" height="1218.19" fill="white" transform="translate(1029.03 1632.89) rotate(-151.198)"/>
</clipPath>
</defs>
</svg>
