<svg width="787" height="1341" viewBox="0 0 787 1341" fill="none" xmlns="http://www.w3.org/2000/svg">
<g clip-path="url(#clip0_109_7110)">
<path opacity="0.8" d="M-98.1531 1028.11C-100.904 1025.58 -102.877 1022.34 -103.854 1018.72L-260.185 437.912C-261.558 432.821 -260.863 427.499 -258.226 422.922C-255.59 418.344 -251.335 415.06 -246.245 413.677L334.847 255.767C341.411 253.983 348.329 255.661 353.34 260.254C356.091 262.778 358.065 266.025 359.041 269.646L515.372 850.451C516.745 855.542 516.05 860.864 513.414 865.441C510.782 870.023 506.522 873.303 501.432 874.685L-79.6603 1032.59C-86.2244 1034.37 -93.1372 1032.7 -98.1531 1028.11ZM352.264 261.408C347.651 257.185 341.285 255.642 335.248 257.286L-245.844 415.196C-250.529 416.464 -254.445 419.486 -256.866 423.698C-259.287 427.91 -259.926 432.806 -258.663 437.486L-102.337 1018.3C-101.44 1021.63 -99.6282 1024.62 -97.0935 1026.93C-92.4755 1031.16 -86.1141 1032.7 -80.0763 1031.06L501.01 873.149C505.699 871.875 509.606 868.854 512.037 864.642C514.458 860.43 515.096 855.533 513.838 850.848L357.507 270.043C356.615 266.712 354.799 263.724 352.264 261.408Z" fill="#48917E"/>
<path opacity="0.8" d="M-114.46 1017.87C-117.21 1015.35 -119.154 1012.1 -120.082 1008.47L-265.261 440.397C-266.536 435.416 -265.789 430.228 -263.165 425.796C-260.54 421.363 -256.349 418.208 -251.359 416.923L316.968 270.202C323.297 268.567 329.957 270.228 334.779 274.635C337.524 277.155 339.478 280.403 340.406 284.039L485.585 852.11C488.217 862.395 481.977 872.932 471.688 875.588L-96.6482 1022.31C-102.978 1023.95 -109.642 1022.29 -114.46 1017.87ZM333.704 275.808C329.279 271.753 323.167 270.231 317.35 271.733L-250.971 418.458C-255.545 419.637 -259.398 422.53 -261.807 426.597C-264.221 430.67 -264.901 435.431 -263.732 440.005L-118.553 1008.08C-117.7 1011.41 -115.914 1014.39 -113.394 1016.7C-108.969 1020.76 -102.857 1022.28 -97.0453 1020.78L471.287 874.059C480.733 871.615 486.46 861.951 484.047 852.512L338.868 284.441C338.015 281.106 336.233 278.12 333.704 275.808Z" fill="#48917E"/>
<path opacity="0.8" d="M-130.771 1007.64C-133.521 1005.13 -135.441 1001.87 -136.316 998.226L-270.338 442.893C-272.767 432.822 -266.546 422.634 -256.478 420.175L299.084 284.643C305.183 283.151 311.584 284.796 316.213 289.031C318.963 291.546 320.882 294.802 321.761 298.442L455.784 853.775C456.96 858.655 456.167 863.704 453.545 867.993C450.928 872.286 446.798 875.302 441.924 876.493L-113.647 1012.04C-119.742 1013.52 -126.147 1011.88 -130.771 1007.64ZM315.143 290.209C310.907 286.33 305.038 284.822 299.457 286.184L-256.105 421.716C-265.331 423.962 -271.023 433.302 -268.801 442.525L-134.779 997.858C-133.976 1001.2 -132.219 1004.18 -129.7 1006.48C-125.464 1010.36 -119.601 1011.87 -114.014 1010.5L441.548 874.977C446.02 873.886 449.796 871.119 452.197 867.191C454.599 863.263 455.32 858.636 454.244 854.167L320.222 298.835C319.419 295.495 317.662 292.512 315.143 290.209Z" fill="#48917E"/>
<path opacity="0.8" d="M-147.082 997.415C-149.832 994.9 -151.722 991.641 -152.549 987.982L-275.419 445.393C-276.496 440.623 -275.656 435.714 -273.046 431.569C-270.436 427.425 -266.369 424.538 -261.595 423.446L281.207 299.107C287.072 297.765 293.218 299.387 297.648 303.447C300.394 305.967 302.289 309.221 303.115 312.88L425.986 855.479C428.213 865.325 422.016 875.179 412.168 877.431L-130.64 1001.76C-136.5 1003.1 -142.646 1001.48 -147.082 997.415ZM296.587 304.604C292.535 300.897 286.916 299.417 281.559 300.64L-261.242 424.979C-265.603 425.981 -269.321 428.614 -271.706 432.402C-274.09 436.19 -274.858 440.677 -273.871 445.034L-151.005 987.639C-150.246 990.977 -148.524 993.958 -146.011 996.257C-141.958 999.964 -136.344 1001.45 -130.983 1000.22L411.819 875.882C420.818 873.819 426.486 864.823 424.448 855.827L301.577 313.228C300.823 309.884 299.096 306.908 296.587 304.604Z" fill="#48917E"/>
<path opacity="0.8" d="M-163.397 987.194C-166.143 984.674 -168.009 981.408 -168.786 977.745L-280.495 447.889C-281.479 443.224 -280.587 438.449 -277.984 434.454C-275.381 430.448 -271.376 427.701 -266.708 426.702L263.324 313.557C268.954 312.354 274.846 313.955 279.087 317.838C281.838 320.353 283.699 323.624 284.476 327.288L396.19 857.148C397.174 861.813 396.283 866.588 393.675 870.589C391.072 874.594 387.073 877.346 382.409 878.34L-147.633 991.485C-153.259 992.682 -159.15 991.082 -163.397 987.194ZM278.022 319.001C274.152 315.456 268.777 313.998 263.647 315.093L-266.385 428.237C-270.64 429.146 -274.29 431.654 -276.657 435.302C-279.033 438.951 -279.844 443.303 -278.95 447.555L-167.231 977.42C-166.527 980.758 -164.829 983.737 -162.321 986.031C-158.457 989.571 -153.082 991.029 -147.947 989.939L382.089 876.789C386.345 875.88 389.989 873.367 392.361 869.724C394.738 866.075 395.548 861.723 394.655 857.471L282.941 327.611C282.227 324.273 280.53 321.295 278.022 319.001Z" fill="#48917E"/>
<path opacity="0.8" d="M-179.717 976.978C-182.473 974.459 -184.3 971.18 -185.014 967.506L-285.577 450.379C-287.408 440.973 -281.236 431.809 -271.827 429.953L245.449 327.996C250.839 326.928 256.477 328.516 260.53 332.223C263.285 334.743 265.117 338.016 265.831 341.69L366.384 858.818C367.275 863.377 366.326 868.014 363.73 871.87C361.13 875.731 357.193 878.354 352.634 879.245L-164.627 981.204C-170.022 982.268 -175.659 980.69 -179.717 976.978ZM259.469 333.391C255.783 330.018 250.657 328.578 245.754 329.543L-271.523 431.5C-280.08 433.187 -285.688 441.515 -284.025 450.07L-183.462 967.206C-182.812 970.544 -181.15 973.521 -178.647 975.81C-174.96 979.183 -169.835 980.623 -164.931 979.657L352.345 877.701C356.495 876.886 360.077 874.502 362.431 870.999C364.791 867.49 365.652 863.272 364.843 859.137L264.285 342.004C263.64 338.661 261.972 335.68 259.469 333.391Z" fill="#48917E"/>
<path opacity="0.8" d="M-196.033 966.757C-198.788 964.238 -200.586 960.956 -201.248 957.263L-290.653 452.875C-291.441 448.42 -290.45 443.928 -287.862 440.212C-285.273 436.495 -281.389 434.01 -276.941 433.209L227.57 342.441C232.808 341.501 238.059 343.019 241.983 346.608C244.744 349.132 246.542 352.414 247.193 356.108L336.599 860.496C338.228 869.687 332.074 878.503 322.886 880.162L-181.625 970.93C-186.863 971.87 -192.114 970.352 -196.033 966.757ZM240.918 347.781C237.36 344.525 232.602 343.147 227.856 344L-276.66 434.763C-280.699 435.489 -284.213 437.748 -286.56 441.112C-288.912 444.481 -289.806 448.554 -289.089 452.594L-199.693 956.983C-199.097 960.33 -197.47 963.305 -194.972 965.59C-191.415 968.846 -186.646 970.223 -181.906 969.366L322.61 878.603C330.946 877.103 336.519 869.11 335.044 860.777L245.639 356.388C245.048 353.045 243.415 350.066 240.918 347.781Z" fill="#48917E"/>
<path opacity="0.8" d="M-212.357 956.547C-215.118 954.023 -216.883 950.724 -217.476 947.014L-295.729 455.37C-296.418 451.026 -295.376 446.668 -292.794 443.1C-290.208 439.527 -286.391 437.177 -282.048 436.479L209.694 356.905C214.695 356.095 219.697 357.595 223.432 361.008C226.188 363.537 227.962 366.826 228.556 370.535L306.8 862.191C307.498 866.534 306.452 870.897 303.87 874.465C301.283 878.028 297.467 880.388 293.123 881.086L-198.619 960.65C-203.62 961.461 -208.627 959.966 -212.357 956.547ZM222.371 362.166C218.996 359.072 214.467 357.723 209.953 358.451L-281.798 438.026C-285.731 438.658 -289.177 440.783 -291.516 444.017C-293.85 447.246 -294.796 451.185 -294.168 455.114L-215.919 946.764C-215.382 950.117 -213.784 953.094 -211.287 955.379C-207.912 958.472 -203.383 959.821 -198.869 959.093L292.877 879.524C296.805 878.887 300.256 876.757 302.595 873.533C304.935 870.308 305.871 866.37 305.253 862.44L226.999 370.786C226.466 367.428 224.863 364.446 222.371 362.166Z" fill="#48917E"/>
<path opacity="0.8" d="M-228.681 946.337C-231.41 943.84 -233.193 940.443 -233.709 936.771L-300.806 457.855C-301.401 453.617 -300.308 449.393 -297.728 445.969C-295.149 442.545 -291.395 440.324 -287.157 439.719L191.825 371.339C196.58 370.659 201.342 372.131 204.889 375.378C207.618 377.875 209.401 381.271 209.917 384.943L277.014 863.859C277.604 868.093 276.515 872.311 273.937 875.745C271.357 879.169 267.603 881.39 263.365 881.995L-215.622 950.37C-220.377 951.051 -225.139 949.579 -228.681 946.337ZM203.819 376.546C200.622 373.62 196.328 372.295 192.041 372.904L-286.945 441.289C-290.767 441.833 -294.145 443.833 -296.471 446.922C-298.794 450.007 -299.781 453.811 -299.247 457.634L-232.144 936.555C-231.68 939.864 -230.07 942.925 -227.615 945.174C-224.418 948.1 -220.124 949.425 -215.838 948.815L263.148 880.43C266.966 879.882 270.349 877.887 272.675 874.797C274.997 871.712 275.985 867.909 275.45 864.085L208.353 385.169C207.889 381.86 206.283 378.794 203.819 376.546Z" fill="#48917E"/>
<path opacity="0.8" d="M-245.015 936.137C-247.749 933.635 -249.499 930.221 -249.943 926.528L-305.883 460.35C-306.38 456.222 -305.239 452.138 -302.662 448.857C-300.094 445.578 -296.398 443.491 -292.27 442.985L173.951 385.788C178.475 385.232 182.987 386.677 186.35 389.752C189.084 392.253 190.835 395.668 191.278 399.36L247.218 865.538C248.24 874.065 242.135 881.857 233.605 882.904L-232.615 940.1C-237.139 940.656 -241.657 939.207 -245.015 936.137ZM185.28 390.92C182.261 388.161 178.202 386.86 174.138 387.356L-292.083 444.552C-295.794 445.007 -299.114 446.882 -301.423 449.832C-303.732 452.782 -304.761 456.451 -304.316 460.163L-248.371 926.335C-247.976 929.651 -246.405 932.715 -243.945 934.969C-240.926 937.727 -236.867 939.028 -232.802 938.533L233.418 881.336C241.081 880.4 246.573 873.395 245.652 865.735L189.706 399.553C189.311 396.237 187.74 393.173 185.28 390.92Z" fill="#48917E"/>
<path opacity="0.8" d="M-261.353 925.933C-264.098 923.422 -265.81 919.994 -266.176 916.285L-310.965 462.841C-311.784 454.529 -305.693 447.09 -297.388 446.246L156.073 400.243C160.356 399.812 164.632 401.223 167.808 404.131C170.553 406.641 172.27 410.074 172.636 413.783L217.424 867.227C218.249 875.533 212.158 882.983 203.848 883.822L-249.619 929.821C-253.901 930.252 -258.173 928.835 -261.353 925.933ZM166.742 405.294C163.9 402.693 160.072 401.421 156.235 401.808L-297.221 447.805C-304.662 448.563 -310.119 455.234 -309.386 462.673L-264.602 916.122C-264.275 919.444 -262.738 922.516 -260.283 924.765C-257.436 927.37 -253.613 928.637 -249.772 928.245L203.684 882.248C211.126 881.49 216.582 874.819 215.849 867.38L171.06 413.936C170.734 410.614 169.197 407.543 166.742 405.294Z" fill="#48917E"/>
<path opacity="0.8" d="M-277.691 915.738C-280.447 913.209 -282.121 909.768 -282.41 906.032L-316.041 465.327C-316.658 457.239 -310.577 450.137 -302.491 449.501L138.21 414.691C142.255 414.37 146.287 415.758 149.279 418.494C152.04 421.018 153.714 424.469 153.998 428.2L187.629 868.906C188.246 876.993 182.165 884.095 174.079 884.732L-266.616 919.546C-270.661 919.867 -274.699 918.475 -277.691 915.738ZM148.209 419.662C145.539 417.215 141.941 415.982 138.328 416.265L-302.368 451.069C-309.588 451.639 -315.014 457.981 -314.459 465.197L-280.832 905.908C-280.578 909.241 -279.081 912.317 -276.621 914.57C-273.952 917.008 -270.349 918.246 -266.736 917.963L173.961 883.159C181.181 882.588 186.607 876.246 186.051 869.02L152.419 428.315C152.166 424.991 150.669 421.916 148.209 419.662Z" fill="#48917E"/>
<path opacity="0.8" d="M-294.034 905.55C-296.806 903.007 -298.436 899.547 -298.633 895.789L-321.114 467.817C-321.31 464.004 -320.019 460.337 -317.463 457.494C-314.912 454.646 -311.407 452.972 -307.595 452.756L120.336 429.141C124.202 428.925 127.897 430.248 130.749 432.858C133.522 435.401 135.158 438.865 135.355 442.624L157.829 870.591C158.244 878.453 152.176 885.213 144.315 885.646L-283.62 909.267C-287.482 909.478 -291.181 908.16 -294.034 905.55ZM129.684 434.021C127.144 431.7 123.863 430.523 120.42 430.712L-307.51 454.337C-310.894 454.521 -314.014 456.018 -316.287 458.543C-318.559 461.069 -319.712 464.333 -319.533 467.723L-297.063 895.695C-296.887 899.045 -295.434 902.119 -292.963 904.382C-290.429 906.698 -287.142 907.879 -283.705 907.686L144.231 884.065C151.225 883.678 156.616 877.671 156.253 870.67L133.772 442.698C133.603 439.363 132.144 436.284 129.684 434.021Z" fill="#48917E"/>
<path opacity="0.8" d="M-310.38 895.366C-313.169 892.81 -314.762 889.317 -314.863 885.53L-326.191 470.302C-326.397 462.659 -320.349 456.247 -312.703 456.016L102.468 443.584C106.086 443.479 109.554 444.758 112.224 447.206C115.012 449.762 116.606 453.254 116.711 457.036L128.035 872.279C128.242 879.922 122.188 886.329 114.542 886.561L-300.624 898.987C-304.247 899.098 -307.71 897.814 -310.38 895.366ZM111.154 448.374C108.786 446.206 105.716 445.07 102.508 445.164L-312.663 457.596C-319.44 457.801 -324.801 463.479 -324.621 470.253L-313.288 885.485C-313.196 888.838 -311.786 891.931 -309.31 894.198C-306.947 896.361 -303.872 897.501 -300.664 897.407L114.502 884.981C121.28 884.776 126.636 879.103 126.455 872.319L115.132 457.086C115.04 453.734 113.63 450.64 111.154 448.374Z" fill="#48917E"/>
<path opacity="0.8" d="M-326.735 885.193C-329.508 882.65 -331.097 879.043 -331.096 875.287L-331.267 472.787C-331.267 469.184 -329.867 465.8 -327.33 463.251C-324.788 460.696 -321.407 459.29 -317.81 459.276L84.5956 458.043C87.9799 458.033 91.2177 459.282 93.7043 461.558C96.4758 464.091 98.0658 467.708 98.0698 471.469L98.2361 873.964C98.2409 881.392 92.2006 887.446 84.7793 887.475L-317.627 888.708C-321.011 888.718 -324.243 887.473 -326.735 885.193ZM92.6385 462.721C90.4421 460.707 87.5834 459.602 84.5998 459.612L-317.805 460.854C-320.977 460.861 -323.961 462.108 -326.203 464.359C-328.449 466.616 -329.687 469.6 -329.685 472.777L-329.517 875.282C-329.517 878.603 -328.109 881.785 -325.665 884.025C-323.469 886.039 -320.615 887.139 -317.627 887.134L84.784 885.896C91.3348 885.874 96.6651 880.526 96.6632 873.973L96.4967 471.478C96.4914 468.153 95.0824 464.961 92.6385 462.721Z" fill="#48917E"/>
<path opacity="0.8" d="M-343.101 875.021C-345.899 872.465 -347.437 868.819 -347.325 865.028L-336.34 475.267C-336.241 471.775 -334.789 468.534 -332.254 466.128C-329.718 463.723 -326.401 462.446 -322.909 462.535L66.7367 472.486C69.8815 472.566 72.8882 473.777 75.1976 475.895C77.9914 478.455 79.5339 482.096 79.4262 485.882L68.442 875.652C68.2385 882.852 62.2127 888.563 55.0107 888.385L-334.635 878.434C-337.775 878.348 -340.782 877.138 -343.101 875.021ZM74.1273 477.063C72.093 475.203 69.4501 474.133 66.6874 474.064L-322.953 464.118C-326.018 464.041 -328.939 465.159 -331.168 467.275C-333.397 469.391 -334.676 472.241 -334.763 475.307L-345.748 865.068C-345.841 868.402 -344.49 871.599 -342.031 873.853C-339.996 875.713 -337.359 876.778 -334.591 876.851L55.0502 886.807C61.3845 886.968 66.6843 881.949 66.8594 875.608L77.8445 485.847C77.9427 482.518 76.5872 479.316 74.1273 477.063Z" fill="#48917E"/>
<path opacity="0.8" d="M-359.466 864.858C-362.292 862.271 -363.778 858.596 -363.555 854.77L-341.417 477.753C-341.007 470.773 -334.99 465.409 -328.012 465.8L48.864 486.945C51.7684 487.106 54.5538 488.276 56.686 490.237C59.5119 492.824 60.998 496.499 60.7751 500.325L38.6474 877.341C38.2365 884.321 32.2198 889.686 25.247 889.299L-351.638 868.154C-354.548 867.99 -357.324 866.818 -359.466 864.858ZM55.6256 491.404C53.7524 489.688 51.3165 488.665 48.7745 488.517L-328.106 467.377C-334.213 467.033 -339.478 471.727 -339.84 477.847L-361.978 854.864C-362.173 858.212 -360.871 861.433 -358.4 863.696C-356.527 865.412 -354.096 866.43 -351.544 866.577L25.3356 887.717C31.4435 888.061 36.7075 883.367 37.0658 877.253L59.2024 500.226C59.4033 496.882 58.0962 493.666 55.6256 491.404Z" fill="#48917E"/>
<path opacity="0.8" d="M-375.844 854.702C-378.697 852.092 -380.137 848.373 -379.779 844.516L-346.49 480.233C-345.872 473.472 -339.868 468.461 -333.109 469.059L31.0107 501.393C33.7194 501.634 36.2059 502.727 38.2029 504.556C41.0607 507.171 42.4959 510.885 42.147 514.741L8.84904 879.035C8.23082 885.796 2.22753 890.808 -4.52678 890.204L-368.647 857.87C-371.356 857.629 -373.842 856.536 -375.844 854.702ZM37.1326 505.724C35.3939 504.13 33.2211 503.173 30.8667 502.964L-333.253 470.631C-339.145 470.104 -344.373 474.474 -344.914 480.371L-378.207 844.66C-378.515 848.023 -377.261 851.258 -374.774 853.534C-373.035 855.128 -370.868 856.081 -368.504 856.289L-4.3882 888.628C1.50312 889.154 6.73136 884.785 7.272 878.887L40.5655 514.598C40.8745 511.245 39.6192 508 37.1326 505.724Z" fill="#48917E"/>
<path opacity="0.8" d="M-392.228 844.562C-395.08 841.952 -396.493 838.102 -396.004 834.263L-351.563 482.713C-350.738 476.172 -344.748 471.513 -338.213 472.324L13.1376 515.852C15.6095 516.159 17.8837 517.201 19.7088 518.877C22.5614 521.487 23.9738 525.337 23.4848 529.176L-20.9558 880.725C-21.7867 887.262 -27.7711 891.926 -34.3061 891.114L-385.661 847.592C-388.128 847.28 -390.403 846.237 -392.228 844.562ZM18.643 520.04C17.0601 518.585 15.0899 517.679 12.9383 517.413L-338.412 473.886C-344.081 473.181 -349.278 477.231 -349.993 482.902L-394.443 834.452C-394.863 837.785 -393.633 841.127 -391.163 843.389C-389.575 844.838 -387.605 845.744 -385.463 846.011L-34.1077 889.543C-28.4437 890.243 -23.2459 886.203 -22.5273 880.527L21.9231 528.977C22.3481 525.648 21.119 522.306 18.643 520.04Z" fill="#48917E"/>
<path opacity="0.8" d="M-408.624 834.427C-411.52 831.771 -412.872 827.881 -412.233 824.004L-356.631 485.188C-355.593 478.87 -349.616 474.564 -343.305 475.588L-4.71469 530.309C-2.4804 530.672 -0.418509 531.663 1.24457 533.185C4.14071 535.84 5.48787 539.736 4.85324 543.608L-50.754 882.419C-51.7878 888.732 -57.7684 893.043 -64.0796 892.019L-402.675 837.304C-404.904 836.945 -406.966 835.944 -408.624 834.427ZM0.168992 534.349C-1.26264 533.039 -3.04104 532.176 -4.97375 531.866L-343.564 477.145C-349.016 476.268 -354.178 479.983 -355.075 485.437L-410.677 824.253C-411.228 827.603 -410.061 830.975 -407.558 833.264C-406.121 834.578 -404.348 835.437 -402.416 835.747L-63.8206 890.462C-58.3686 891.339 -53.2066 887.624 -52.3155 882.166L3.2864 543.349C3.83823 540 2.67162 536.638 0.168992 534.349Z" fill="#48917E"/>
<path opacity="0.8" d="M-425.034 824.308C-427.935 821.648 -429.251 817.607 -428.462 813.746L-361.699 487.663C-360.452 481.574 -354.485 477.615 -348.398 478.852L-22.5724 544.762C-20.5667 545.169 -18.7225 546.106 -17.2259 547.479C-14.3245 550.139 -13.0135 554.186 -13.798 558.041L-80.5568 884.119C-81.8033 890.207 -87.7659 894.161 -93.8577 892.93L-419.683 827.02C-421.689 826.612 -423.538 825.671 -425.034 824.308ZM-18.2917 548.642C-19.5782 547.463 -21.1684 546.658 -22.8867 546.309L-348.722 480.4C-353.957 479.341 -359.083 482.741 -360.161 487.978L-426.91 814.055C-427.599 817.427 -426.494 820.819 -423.964 823.14C-422.677 824.319 -421.087 825.124 -419.363 825.478L-93.5336 891.382C-88.3035 892.437 -83.1728 889.041 -82.1038 883.805L-15.345 557.727C-14.6566 554.355 -15.7615 550.963 -18.2917 548.642Z" fill="#48917E"/>
<path opacity="0.8" d="M-441.459 814.196C-444.419 811.487 -445.652 807.378 -444.688 803.482L-366.773 490.133C-365.314 484.269 -359.359 480.672 -353.496 482.111L-40.4266 559.209C-38.6558 559.647 -37.0096 560.527 -35.675 561.746C-32.7147 564.455 -31.4727 568.563 -32.4511 572.465L-110.366 885.814C-111.825 891.679 -117.774 895.28 -123.638 893.831L-436.702 816.737C-438.473 816.299 -440.119 815.419 -441.459 814.196ZM-36.7498 562.92C-37.8911 561.872 -39.303 561.125 -40.8204 560.753L-353.88 483.654C-358.894 482.417 -363.988 485.498 -365.239 490.518L-443.145 803.857C-443.975 807.191 -442.919 810.706 -440.384 813.022C-439.243 814.07 -437.836 814.823 -436.318 815.194L-123.253 892.297C-118.239 893.534 -113.145 890.454 -111.894 885.434L-33.9784 572.094C-33.1534 568.755 -34.2142 565.245 -36.7498 562.92Z" fill="#48917E"/>
</g>
<defs>
<clipPath id="clip0_109_7110">
<rect width="934.992" height="970.551" fill="white" transform="translate(-558 716.499) rotate(-50.0242)"/>
</clipPath>
</defs>
</svg>
