<svg width="452" height="713" viewBox="0 0 452 713" fill="none" xmlns="http://www.w3.org/2000/svg">
<g clip-path="url(#clip0_109_7408)">
<path opacity="0.8" d="M63.2002 377.078C63.5355 374.565 64.575 372.205 66.2104 370.253L328.647 57.4108C330.946 54.6671 334.178 52.9845 337.75 52.6719C341.323 52.3593 344.805 53.45 347.554 55.7449L661.387 317.727C664.932 320.686 666.688 325.188 666.081 329.763C665.746 332.276 664.706 334.636 663.071 336.588L400.635 649.43C398.336 652.174 395.103 653.857 391.531 654.169C387.958 654.487 384.477 653.391 381.728 651.096L67.8998 389.11C64.3541 386.151 62.5977 381.653 63.2002 377.078ZM665.021 329.613C665.577 325.404 663.96 321.26 660.697 318.54L346.864 56.5585C344.337 54.4447 341.133 53.4402 337.847 53.7306C334.562 54.021 331.589 55.5696 329.475 58.092L67.0343 370.934C65.5266 372.731 64.5706 374.899 64.2672 377.21C63.7108 381.424 65.3279 385.562 68.5853 388.287L382.419 650.264C384.951 652.378 388.151 653.377 391.441 653.092C394.726 652.802 397.699 651.253 399.817 648.731L662.254 335.888C663.761 334.097 664.717 331.924 665.021 329.613Z" fill="#48917E"/>
<path opacity="0.8" d="M62.5603 364.021C62.8905 361.512 63.9428 359.167 65.6049 357.237L325.291 55.5519C327.567 52.9061 330.745 51.3042 334.232 51.0411C337.719 50.778 341.105 51.884 343.76 54.1611L646.403 313.39C649.774 316.276 651.439 320.628 650.862 325.025C650.527 327.533 649.479 329.883 647.817 331.813L388.131 633.499C383.43 638.963 375.14 639.587 369.661 634.894L67.014 375.661C63.6426 372.774 61.9731 368.422 62.5603 364.021ZM649.791 324.883C650.327 320.844 648.797 316.851 645.7 314.197L343.057 54.9735C340.622 52.8869 337.514 51.8671 334.314 52.108C331.109 52.3484 328.194 53.8214 326.104 56.2508L66.4177 357.936C64.8932 359.707 63.929 361.86 63.6218 364.162C63.0855 368.201 64.6155 372.194 67.7133 374.843L370.356 634.076C375.389 638.383 382.994 637.812 387.309 632.799L646.994 331.114C648.519 329.343 649.488 327.19 649.791 324.883Z" fill="#48917E"/>
<path opacity="0.8" d="M61.9079 350.967C62.2381 348.459 63.3038 346.124 64.9921 344.22L321.927 53.697C326.587 48.429 334.676 47.9296 339.959 52.5766L631.412 309.052C634.613 311.867 636.187 316.068 635.63 320.291C635.299 322.799 634.234 325.134 632.55 327.038L375.615 617.561C373.357 620.114 370.238 621.635 366.832 621.844C363.425 622.057 360.141 620.931 357.583 618.682L66.1214 362.206C62.9242 359.391 61.346 355.189 61.9079 350.967ZM634.558 320.154C635.07 316.288 633.627 312.435 630.699 309.859L339.247 53.3834C334.409 49.1226 326.998 49.5866 322.729 54.4092L65.7942 344.932C64.2482 346.678 63.2711 348.816 62.969 351.113C62.4575 354.978 63.9005 358.826 66.8335 361.403L358.281 617.883C360.627 619.948 363.635 620.973 366.754 620.782C369.874 620.591 372.73 619.193 374.798 616.857L631.733 326.334C633.279 324.589 634.256 322.451 634.558 320.154Z" fill="#48917E"/>
<path opacity="0.8" d="M61.2563 337.913C61.5865 335.405 62.6651 333.086 64.38 331.203L318.56 51.8418C320.795 49.3872 323.854 47.9459 327.175 47.787C330.497 47.6281 333.685 48.7689 336.149 51.0008L616.41 304.728C619.438 307.47 620.925 311.521 620.388 315.565C620.053 318.073 618.979 320.393 617.265 322.275L363.08 601.641C358.466 606.709 350.573 607.092 345.49 602.487L65.2343 348.751C62.2061 346.013 60.7192 341.962 61.2563 337.913ZM619.331 315.425C619.819 311.728 618.458 308.025 615.694 305.52L335.433 51.793C333.18 49.7556 330.268 48.7104 327.233 48.8565C324.198 49.0026 321.402 50.3198 319.361 52.5634L65.1715 331.929C63.6087 333.649 62.6191 335.767 62.3174 338.059C61.8303 341.756 63.1863 345.458 65.9546 347.964L346.216 601.691C350.863 605.897 358.074 605.553 362.288 600.92L616.473 321.555C618.04 319.835 619.025 317.716 619.331 315.425Z" fill="#48917E"/>
<path opacity="0.8" d="M60.601 324.859C60.9359 322.352 62.0278 320.043 63.7642 318.186L315.198 49.9874C317.411 47.6258 320.415 46.2653 323.651 46.1606C326.892 46.0516 329.978 47.212 332.35 49.4214L601.416 300.394C604.274 303.06 605.675 306.961 605.163 310.832C604.833 313.34 603.736 315.648 602 317.505L350.566 585.708C348.352 588.07 345.348 589.431 342.108 589.535C338.867 589.644 335.78 588.488 333.413 586.279L64.343 335.301C61.489 332.636 60.0886 328.735 60.601 324.859ZM604.101 310.691C604.569 307.158 603.291 303.601 600.687 301.171L331.621 50.1983C329.46 48.1833 326.645 47.1276 323.695 47.2289C320.74 47.325 318.003 48.5666 315.984 50.7172L64.5497 318.925C62.9658 320.615 61.968 322.718 61.6668 325.006C61.1993 328.533 62.4778 332.091 65.0813 334.525L334.152 585.498C336.313 587.513 339.128 588.564 342.078 588.468C345.033 588.372 347.77 587.13 349.789 584.979L601.223 316.776C602.802 315.081 603.8 312.978 604.101 310.691Z" fill="#48917E"/>
<path opacity="0.8" d="M59.9399 311.805C60.2705 309.291 61.3847 306.999 63.1517 305.173L311.835 48.1274C316.358 43.4507 323.858 43.3225 328.549 47.8365L586.429 296.062C589.119 298.646 590.428 302.401 589.941 306.098C589.61 308.611 588.501 310.903 586.734 312.729L338.046 569.77C335.855 572.039 332.906 573.314 329.751 573.369C326.591 573.423 323.6 572.252 321.332 570.061L63.4557 321.846C60.7661 319.257 59.4523 315.506 59.9399 311.805ZM588.879 305.962C589.323 302.598 588.131 299.186 585.687 296.832L327.807 48.6074C323.54 44.5015 316.725 44.6188 312.611 48.8705L63.9222 305.921C62.3172 307.58 61.3069 309.663 61.0061 311.946C60.5626 315.309 61.7541 318.721 64.1984 321.075L322.078 569.3C324.146 571.293 326.865 572.359 329.73 572.307C332.6 572.256 335.282 571.095 337.269 569.037L585.958 311.991C587.568 310.332 588.578 308.244 588.879 305.962Z" fill="#48917E"/>
<path opacity="0.8" d="M59.2829 298.751C59.6136 296.238 60.7407 293.961 62.539 292.157L308.472 46.2729C310.645 44.1026 313.53 42.9074 316.605 42.9026C319.679 42.8978 322.572 44.0935 324.748 46.2571L571.438 291.729C573.998 294.278 575.195 297.79 574.723 301.37C574.392 303.888 573.265 306.164 571.462 307.963L325.529 553.847C321.048 558.328 313.749 558.331 309.253 553.863L62.5632 308.391C60.0032 305.842 58.8062 302.33 59.2829 298.751ZM573.656 301.233C574.085 297.987 573.001 294.803 570.681 292.494L323.992 47.0174C322.018 45.052 319.394 43.9751 316.61 43.977C313.82 43.9784 311.206 45.0644 309.236 47.034L63.2992 292.913C61.668 294.546 60.6453 296.609 60.3449 298.887C59.9164 302.133 61.0041 305.322 63.3243 307.627L310.013 553.103C314.09 557.159 320.705 557.152 324.769 553.091L570.702 307.207C572.333 305.578 573.356 303.511 573.656 301.233Z" fill="#48917E"/>
<path opacity="0.8" d="M58.6195 285.696C58.9505 283.178 60.1004 280.913 61.9339 279.14L305.111 44.4181C307.261 42.3455 310.092 41.231 313.081 41.2805C316.075 41.3303 318.867 42.5408 320.945 44.6863L556.439 287.404C558.835 289.873 559.945 293.24 559.498 296.645C559.162 299.163 558.022 301.429 556.188 303.201L313.001 537.922C310.856 540 308.021 541.114 305.031 541.065C302.042 541.011 299.245 539.804 297.168 537.659L61.6784 294.937C59.2822 292.468 58.1675 289.101 58.6195 285.696ZM558.441 296.505C558.85 293.424 557.84 290.379 555.68 288.15L320.181 45.4269C318.299 43.484 315.777 42.3923 313.068 42.3485C310.363 42.3051 307.803 43.3104 305.861 45.1874L62.6787 279.909C61.0218 281.512 59.9861 283.559 59.6857 285.837C59.2765 288.918 60.2866 291.963 62.4473 294.192L297.941 536.914C299.823 538.853 302.35 539.945 305.054 539.993C307.759 540.041 310.314 539.03 312.261 537.159L555.443 302.432C557.105 300.83 558.141 298.778 558.441 296.505Z" fill="#48917E"/>
<path opacity="0.8" d="M57.9529 272.641C58.2814 270.152 59.4783 267.838 61.321 266.124L301.753 42.5595C303.88 40.58 306.656 39.5462 309.564 39.6503C312.473 39.7544 315.169 40.9802 317.153 43.1033L541.457 283.073C543.685 285.455 544.717 288.677 544.289 291.914C543.961 294.403 542.764 296.716 540.921 298.431L300.489 521.995C298.363 523.97 295.591 525.004 292.678 524.904C289.769 524.8 287.074 523.575 285.089 521.452L60.7861 281.477C58.5582 279.095 57.5257 275.873 57.9529 272.641ZM543.223 291.772C543.608 288.855 542.676 285.951 540.67 283.802L316.362 43.8319C314.573 41.9162 312.147 40.8139 309.523 40.7206C306.903 40.6277 304.402 41.5574 302.482 43.3413L62.05 266.91C60.3886 268.456 59.3115 270.542 59.0144 272.782C58.6292 275.699 59.5613 278.604 61.5675 280.753L285.876 520.723C287.665 522.634 290.091 523.741 292.715 523.834C295.335 523.927 297.835 522.997 299.755 521.213L540.187 297.649C541.849 296.104 542.93 294.018 543.223 291.772Z" fill="#48917E"/>
<path opacity="0.8" d="M57.2789 259.585C57.6079 257.091 58.8275 254.789 60.7101 253.106L298.391 40.7044C300.496 38.8227 303.212 37.8692 306.04 38.0279C308.863 38.1815 311.462 39.4273 313.349 41.5275L526.466 278.744C528.535 281.046 529.486 284.118 529.083 287.186C528.754 289.68 527.534 291.982 525.651 293.664L287.97 506.066C283.622 509.951 276.912 509.583 273.013 505.243L59.895 268.027C57.8263 265.725 56.8761 262.648 57.2789 259.585ZM528.016 287.044C528.378 284.292 527.523 281.527 525.667 279.458L312.549 42.2411C310.853 40.3526 308.519 39.2346 305.979 39.0965C303.439 38.9584 300.998 39.8125 299.105 41.5037L61.4285 253.906C59.7369 255.416 58.6427 257.481 58.3451 259.726C57.9839 262.479 58.8381 265.244 60.6944 267.313L273.812 504.53C277.313 508.43 283.347 508.762 287.251 505.271L524.933 292.865C526.625 291.355 527.719 289.289 528.016 287.044Z" fill="#48917E"/>
<path opacity="0.8" d="M56.6028 246.525C56.9326 244.021 58.1745 241.735 60.0967 240.089L295.027 38.8449C299.334 35.1566 305.843 35.6538 309.542 39.9474L511.469 274.416C513.374 276.631 514.252 279.56 513.868 282.458C513.539 284.962 512.296 287.252 510.374 288.898L275.443 490.142C271.141 493.831 264.627 493.338 260.929 489.04L59.0022 254.567C57.097 252.351 56.2239 249.423 56.6028 246.525ZM512.807 282.317C513.149 279.724 512.368 277.099 510.661 275.114L308.739 40.6465C305.424 36.8001 299.59 36.3575 295.735 39.658L60.7996 240.902C59.078 242.376 57.9661 244.426 57.669 246.666C57.3262 249.264 58.1075 251.884 59.8192 253.869L261.741 488.337C265.057 492.183 270.891 492.626 274.746 489.325L509.676 288.081C511.398 286.607 512.51 284.557 512.807 282.317Z" fill="#48917E"/>
<path opacity="0.8" d="M55.9243 233.468C56.2601 230.951 57.5244 228.682 59.4912 227.068L291.671 36.9858C295.932 33.4978 302.249 34.1207 305.748 38.3728L496.483 270.092C498.235 272.219 499.03 275.002 498.671 277.731C498.34 280.249 497.071 282.523 495.104 284.132L262.924 474.214C258.664 477.702 252.346 477.079 248.848 472.827L58.1118 241.112C56.3603 238.986 55.5652 236.198 55.9243 233.468ZM497.605 277.59C497.929 275.152 497.216 272.671 495.654 270.77L304.923 39.051C301.798 35.2546 296.159 34.701 292.358 37.8161L60.1736 227.898C58.4172 229.335 57.2881 231.365 56.9905 233.61C56.6717 236.043 57.3841 238.529 58.9464 240.43L249.678 472.149C252.803 475.945 258.442 476.499 262.247 473.38L494.427 283.297C496.178 281.864 497.308 279.835 497.605 277.59Z" fill="#48917E"/>
<path opacity="0.8" d="M55.2396 220.412C55.5766 217.88 56.8679 215.628 58.8832 214.056L288.313 35.1315C290.359 33.5392 292.901 32.8318 295.478 33.1489C298.054 33.4614 300.349 34.7612 301.951 36.7983L481.492 265.764C483.116 267.832 483.816 270.402 483.473 273.005C483.136 275.536 481.844 277.794 479.828 279.365L250.399 458.285C246.185 461.573 240.064 460.825 236.766 456.619L57.2202 227.652C55.6013 225.585 54.8963 223.014 55.2396 220.412ZM482.411 272.864C482.715 270.548 482.094 268.264 480.65 266.422L301.104 37.4602C299.686 35.6484 297.64 34.4941 295.351 34.2117C293.061 33.9293 290.797 34.5566 288.98 35.9743L59.546 214.894C57.75 216.294 56.6041 218.299 56.3058 220.553C56.0024 222.864 56.623 225.152 58.0673 226.99L237.613 455.957C240.548 459.698 245.987 460.363 249.742 457.438L479.172 278.513C480.962 277.122 482.108 275.113 482.411 272.864Z" fill="#48917E"/>
<path opacity="0.8" d="M54.551 207.355C54.8892 204.809 56.2131 202.564 58.2818 201.035L284.956 33.2722C289.129 30.1851 295.049 31.0581 298.151 35.2231L466.506 261.436C467.972 263.409 468.609 265.836 468.285 268.274C467.946 270.82 466.622 273.065 464.559 274.594L237.874 442.361C233.701 445.448 227.782 444.57 224.68 440.405L56.3294 214.192C54.8591 212.219 54.227 209.792 54.551 207.355ZM467.218 268.133C467.504 265.972 466.942 263.822 465.642 262.073L297.287 35.8598C294.538 32.1678 289.294 31.3923 285.594 34.1267L58.9189 201.895C57.0889 203.249 55.916 205.237 55.6172 207.496C55.3323 209.652 55.8933 211.806 57.1933 213.556L225.544 439.768C228.293 443.46 233.532 444.235 237.238 441.497L463.917 273.734C465.747 272.379 466.92 270.392 467.218 268.133Z" fill="#48917E"/>
<path opacity="0.8" d="M53.8521 194.297C54.1891 191.766 55.5785 189.479 57.6696 188.019L281.598 31.4135C283.603 30.0125 286.031 29.4756 288.437 29.8965C290.847 30.3178 292.944 31.6524 294.35 33.6485L451.51 257.113C452.831 258.992 453.395 261.28 453.095 263.549C452.763 266.076 451.369 268.367 449.277 269.832L225.349 426.432C221.217 429.323 215.499 428.316 212.597 424.197L55.4379 200.733C54.1161 198.854 53.5521 196.571 53.8521 194.297ZM452.034 263.408C452.301 261.402 451.804 259.382 450.638 257.725L293.474 34.2651C292.237 32.5025 290.382 31.3271 288.258 30.9547C286.129 30.5818 283.987 31.0537 282.219 32.2903L58.2862 188.895C56.438 190.186 55.2146 192.208 54.9183 194.439C54.6514 196.444 55.1486 198.46 56.3139 200.121L213.478 423.586C216.037 427.223 221.086 428.11 224.732 425.561L448.66 268.96C450.509 267.664 451.738 265.639 452.034 263.408Z" fill="#48917E"/>
<path opacity="0.8" d="M53.1501 181.234C53.484 178.683 54.915 176.41 57.0684 174.998L278.246 29.5548C280.228 28.2516 282.597 27.7997 284.921 28.2752C287.246 28.7508 289.246 30.1007 290.555 32.0787L436.528 252.79C437.707 254.571 438.202 256.715 437.921 258.824C437.583 261.374 436.156 263.649 434.008 265.061L212.825 410.508C208.739 413.194 203.217 412.062 200.516 407.984L54.5427 187.273C53.3691 185.492 52.8736 183.348 53.1501 181.234ZM436.855 258.683C437.099 256.827 436.667 254.941 435.631 253.376L289.657 32.6696C288.508 30.9338 286.75 29.743 284.705 29.3254C282.661 28.9077 280.578 29.304 278.838 30.448L57.6597 175.891C55.7681 177.136 54.5138 179.13 54.2163 181.376C53.9721 183.231 54.4051 185.113 55.4406 186.682L201.409 407.393C203.783 410.98 208.637 411.978 212.234 409.61L433.412 264.167C435.303 262.927 436.557 260.928 436.855 258.683Z" fill="#48917E"/>
<path opacity="0.8" d="M52.4422 168.175C52.7833 165.597 54.2508 163.34 56.4664 161.977L274.889 27.6956C278.933 25.2102 284.258 26.4727 286.754 30.5083L421.532 248.466C422.572 250.145 423.004 252.15 422.742 254.099C422.401 256.678 420.933 258.934 418.718 260.297L200.299 394.584C196.255 397.069 190.93 395.807 188.434 391.776L53.6516 173.813C52.6119 172.13 52.1845 170.129 52.4422 168.175ZM421.68 253.963C421.907 252.253 421.529 250.499 420.623 249.027L285.839 31.0693C283.656 27.5364 278.996 26.4323 275.45 28.6099L57.0274 162.891C55.0881 164.084 53.802 166.062 53.5037 168.316C53.2771 170.026 53.6553 171.775 54.5658 173.252L189.349 391.21C191.533 394.743 196.192 395.847 199.734 393.669L418.161 259.383C420.1 258.195 421.382 256.217 421.68 253.963Z" fill="#48917E"/>
<path opacity="0.8" d="M51.7258 155.111C52.069 152.509 53.5785 150.261 55.8646 148.961L271.537 25.8373C275.539 23.5525 280.663 24.9446 282.958 28.9387L406.55 244.148C407.469 245.75 407.827 247.559 407.586 249.381C407.242 251.988 405.733 254.231 403.451 255.537L187.77 378.66C183.767 380.944 178.644 379.552 176.354 375.559L52.7613 160.349C51.8427 158.747 51.4841 156.939 51.7258 155.111ZM406.52 249.24C406.731 247.652 406.419 246.071 405.619 244.679L282.027 29.4698C280.029 25.9865 275.565 24.776 272.072 26.7683L56.3956 149.892C54.4043 151.028 53.0916 152.984 52.792 155.253C52.5809 156.84 52.8934 158.417 53.6971 159.814L177.285 375.023C179.282 378.506 183.747 379.717 187.239 377.724L402.916 254.601C404.902 253.469 406.22 251.508 406.52 249.24Z" fill="#48917E"/>
<path opacity="0.8" d="M50.9982 142.051C51.3414 139.449 52.9348 137.165 55.2614 135.945L268.183 23.9784C272.144 21.8943 277.066 23.416 279.156 27.3682L391.553 239.824C392.343 241.319 392.647 242.99 392.425 244.658C392.081 247.26 390.488 249.543 388.161 250.764L175.24 362.73C171.279 364.809 166.356 363.292 164.267 359.34L51.865 146.884C51.0796 145.389 50.7753 143.718 50.9982 142.051ZM391.363 244.516C391.557 243.07 391.295 241.621 390.606 240.32L278.209 27.8646C276.397 24.4357 272.122 23.1183 268.689 24.9258L55.7629 136.887C53.7448 137.95 52.3632 139.933 52.0648 142.188C51.8756 143.634 52.1377 145.083 52.8219 146.379L165.219 358.839C167.032 362.264 171.301 363.585 174.739 361.778L387.665 249.817C389.683 248.759 391.064 246.776 391.363 244.516Z" fill="#48917E"/>
<path opacity="0.8" d="M50.2618 128.985C50.6135 126.341 52.2527 124.076 54.6588 122.924L264.835 22.1201C268.754 20.2415 273.474 21.8927 275.359 25.8031L376.565 235.511C377.232 236.895 377.482 238.428 377.281 239.945C376.93 242.59 375.286 244.854 372.884 246.006L162.709 346.805C158.794 348.685 154.069 347.033 152.185 343.123L50.9741 133.415C50.3068 132.035 50.062 130.497 50.2618 128.985ZM376.216 239.799C376.388 238.493 376.177 237.168 375.598 235.972L274.391 26.2644C272.759 22.8894 268.685 21.4613 265.301 23.0831L55.1252 123.887C53.0465 124.882 51.6241 126.843 51.3233 129.126C51.1508 130.437 51.3624 131.757 51.9413 132.953L153.152 342.661C154.784 346.036 158.859 347.464 162.243 345.838L372.419 245.034C374.497 244.039 375.915 242.082 376.216 239.799Z" fill="#48917E"/>
<path opacity="0.8" d="M49.5125 115.918C49.8646 113.269 51.6023 110.966 54.0575 109.904L261.487 20.2623C265.36 18.5886 269.884 20.3698 271.563 24.2384L361.578 231.193C362.131 232.467 362.327 233.858 362.145 235.225C361.793 237.874 360.051 240.177 357.6 241.239L150.175 330.881C146.302 332.555 141.783 330.774 140.1 326.905L50.084 119.951C49.531 118.676 49.3355 117.281 49.5125 115.918ZM361.084 235.084C361.239 233.909 361.069 232.711 360.595 231.619L270.575 24.6598C269.129 21.3345 265.243 19.8043 261.909 21.2404L54.4889 110.887C52.3448 111.815 50.8868 113.749 50.5787 116.06C50.423 117.234 50.5931 118.432 51.0667 119.529L141.087 326.483C142.534 329.804 146.419 331.339 149.748 329.898L357.173 240.256C359.317 239.328 360.776 237.394 361.084 235.084Z" fill="#48917E"/>
<path opacity="0.8" d="M48.7534 102.845C49.1101 100.144 50.9173 97.861 53.4602 96.8827L258.139 18.399C261.97 16.9307 266.288 18.8457 267.766 22.6681L346.596 226.874C347.04 228.03 347.191 229.288 347.031 230.505C346.675 233.206 344.872 235.494 342.32 236.467L137.641 314.951C133.81 316.419 129.492 314.509 128.019 310.682L49.1888 106.481C48.7441 105.325 48.5936 104.067 48.7534 102.845ZM345.961 230.363C346.1 229.32 345.967 228.244 345.583 227.255L266.758 23.0545C265.497 19.7835 261.802 18.1465 258.522 19.402L53.8517 97.8866C51.6731 98.7211 50.1277 100.676 49.8243 102.987C49.685 104.03 49.8136 105.105 50.1969 106.094L129.022 310.3C130.283 313.571 133.978 315.208 137.258 313.952L341.932 235.473C344.111 234.634 345.652 232.679 345.961 230.363Z" fill="#48917E"/>
</g>
<defs>
<clipPath id="clip0_109_7408">
<rect width="634.766" height="658.907" fill="white" transform="translate(57.8066) rotate(5.0331)"/>
</clipPath>
</defs>
</svg>
