<svg width="598" height="621" viewBox="0 0 598 621" fill="none" xmlns="http://www.w3.org/2000/svg">
<g clip-path="url(#clip0_109_7279)">
<g opacity="0.8">
<path opacity="0.8" d="M252.25 536.02C248.912 534.873 245.975 532.805 243.761 530.034L-111.191 85.556C-114.304 81.6612 -115.713 76.782 -115.158 71.8133C-114.603 66.8447 -112.157 62.3843 -108.269 59.2563L335.624 -297.88C340.638 -301.915 347.267 -303.081 353.346 -300.997C356.684 -299.85 359.62 -297.782 361.835 -295.011L716.787 149.467C719.9 153.362 721.309 158.241 720.754 163.21C720.205 168.18 717.753 172.639 713.865 175.767L269.967 532.895C264.953 536.93 258.33 538.098 252.25 536.02ZM352.849 -299.588C347.256 -301.502 341.156 -300.429 336.545 -296.715L-107.347 60.4216C-110.928 63.2963 -113.18 67.4011 -113.686 71.9713C-114.193 76.5414 -112.896 81.0299 -110.033 84.6102L244.916 529.095C246.955 531.648 249.652 533.55 252.723 534.598C258.322 536.513 264.417 535.438 269.031 531.732L712.918 174.594C716.5 171.713 718.744 167.613 719.259 163.038C719.765 158.468 718.468 153.979 715.607 150.393L360.656 -294.086C358.624 -296.637 355.921 -298.54 352.849 -299.588Z" fill="#DA4067"/>
<path opacity="0.8" d="M234.249 533.317C230.916 532.178 228.004 530.097 225.826 527.296L-114.65 89.6355C-117.637 85.7987 -118.95 81.0164 -118.351 76.1777C-117.752 71.3391 -115.311 67.0146 -111.473 64.0094L325.586 -278.586C330.453 -282.403 336.852 -283.485 342.696 -281.491C346.027 -280.346 348.948 -278.269 351.126 -275.468L691.601 162.193C697.769 170.116 696.343 181.618 688.431 187.821L251.364 530.421C246.496 534.238 240.096 535.326 234.249 533.317ZM342.208 -280.066C336.841 -281.906 330.969 -280.91 326.495 -277.404L-110.557 65.1938C-114.075 67.9493 -116.321 71.9181 -116.872 76.3583C-117.425 80.8049 -116.215 85.1921 -113.473 88.7162L227.003 526.376C229.002 528.946 231.676 530.854 234.734 531.905C240.101 533.745 245.972 532.749 250.44 529.241L687.505 186.647C694.767 180.948 696.079 170.396 690.42 163.125L349.945 -274.536C347.946 -277.105 345.273 -279.02 342.208 -280.066Z" fill="#DA4067"/>
<path opacity="0.8" d="M216.25 530.629C212.916 529.49 210.022 527.393 207.887 524.563L-118.107 93.7231C-124.018 85.9095 -122.476 74.7164 -114.681 68.7687L315.544 -259.286C320.267 -262.891 326.435 -263.89 332.046 -261.971C335.38 -260.832 338.274 -258.735 340.411 -255.912L666.405 174.929C669.268 178.715 670.489 183.395 669.837 188.108C669.192 192.823 666.753 197.003 662.979 199.883L232.75 527.951C228.029 531.549 221.86 532.554 216.25 530.629ZM331.565 -260.544C326.428 -262.303 320.772 -261.387 316.45 -258.091L-113.775 69.9639C-120.921 75.4079 -122.324 85.6648 -116.914 92.822L209.08 523.662C211.038 526.254 213.688 528.176 216.74 529.218C221.877 530.977 227.526 530.06 231.851 526.757L662.08 198.71C665.543 196.07 667.769 192.239 668.366 187.923C668.963 183.606 667.84 179.32 665.219 175.852L339.225 -254.988C337.267 -257.58 334.617 -259.501 331.565 -260.544Z" fill="#DA4067"/>
<path opacity="0.8" d="M198.25 527.94C194.917 526.801 192.048 524.691 189.949 521.831L-121.565 97.8168C-124.301 94.088 -125.428 89.5119 -124.732 84.9286C-124.037 80.3454 -121.603 76.3009 -117.879 73.5442L305.518 -239.968C310.094 -243.355 316.033 -244.276 321.406 -242.434C324.738 -241.289 327.609 -239.185 329.708 -236.325L641.226 187.697C646.876 195.393 645.231 206.287 637.547 211.972L214.139 525.474C209.569 528.862 203.63 529.784 198.25 527.94ZM320.924 -241.028C316.011 -242.708 310.582 -241.863 306.403 -238.772L-116.994 74.7401C-120.395 77.2618 -122.622 80.9543 -123.256 85.1428C-123.891 89.3312 -122.862 93.5141 -120.36 96.9194L191.157 520.948C193.076 523.556 195.695 525.489 198.741 526.53C203.654 528.209 209.081 527.37 213.262 524.274L636.659 210.761C643.678 205.562 645.191 195.612 640.025 188.582L328.507 -235.44C326.589 -238.054 323.969 -239.981 320.924 -241.028Z" fill="#DA4067"/>
<path opacity="0.8" d="M180.248 525.258C176.917 524.112 174.066 521.987 172.008 519.105L-125.022 101.904C-127.638 98.2318 -128.669 93.7525 -127.923 89.3011C-127.181 84.8415 -124.749 80.9412 -121.081 78.3056L295.48 -220.66C299.905 -223.836 305.615 -224.681 310.758 -222.92C314.092 -221.781 316.941 -219.649 318.999 -216.767L616.035 200.435C618.651 204.108 619.683 208.587 618.934 213.045C618.192 217.505 615.766 221.407 612.1 224.036L195.531 523.006C191.108 526.176 185.398 527.021 180.248 525.258ZM310.274 -221.508C305.581 -223.116 300.373 -222.343 296.341 -219.45L-120.221 79.5148C-123.565 81.9154 -125.78 85.4739 -126.453 89.5342C-127.133 93.5991 -126.191 97.6807 -123.81 101.03L173.233 518.234C175.104 520.862 177.701 522.802 180.741 523.841C185.428 525.447 190.636 524.675 194.675 521.784L611.238 222.812C614.582 220.412 616.791 216.851 617.47 212.793C618.15 208.728 617.208 204.646 614.827 201.297L317.791 -215.905C315.911 -218.528 313.314 -220.469 310.274 -221.508Z" fill="#DA4067"/>
<path opacity="0.8" d="M162.247 522.582C158.907 521.441 156.084 519.29 154.077 516.374L-128.483 105.99C-133.625 98.527 -131.739 88.2402 -124.287 83.065L285.448 -201.364C289.716 -204.332 295.202 -205.091 300.115 -203.412C303.454 -202.271 306.279 -200.126 308.286 -197.21L590.838 213.178C593.333 216.794 594.263 221.175 593.471 225.503C592.677 229.837 590.256 233.603 586.642 236.103L176.921 520.529C172.647 523.496 167.166 524.263 162.247 522.582ZM299.637 -201.998C295.167 -203.526 290.182 -202.833 286.297 -200.137L-123.439 84.2914C-130.216 88.9976 -131.929 98.3448 -127.256 105.134L155.309 515.526C157.134 518.175 159.699 520.126 162.733 521.163C167.202 522.692 172.188 521.999 176.073 519.303L585.808 234.874C589.096 232.595 591.299 229.17 592.016 225.24C592.735 221.303 591.887 217.318 589.623 214.038L307.065 -196.352C305.242 -199.007 302.67 -200.961 299.637 -201.998Z" fill="#DA4067"/>
<path opacity="0.8" d="M144.245 519.9C140.905 518.759 138.107 516.594 136.138 513.641L-131.94 110.078C-134.306 106.513 -135.144 102.242 -134.306 98.0376C-133.467 93.8334 -131.04 90.2067 -127.488 87.8259L275.413 -182.062C279.597 -184.863 284.721 -185.536 289.477 -183.909C292.823 -182.766 295.622 -180.602 297.582 -177.645L565.66 225.919C570.546 233.273 568.544 243.251 561.209 248.171L158.307 518.059C154.124 520.859 149 521.532 144.245 519.9ZM288.997 -182.489C284.684 -183.964 280.04 -183.356 276.249 -180.819L-126.658 89.0676C-129.884 91.2279 -132.075 94.5183 -132.838 98.3251C-133.602 102.138 -132.838 106.009 -130.691 109.241L137.379 512.809C139.161 515.487 141.696 517.45 144.723 518.485C149.036 519.961 153.689 519.349 157.473 516.809L560.381 246.923C567.038 242.463 568.847 233.42 564.42 226.751L296.341 -176.813C294.566 -179.488 292.025 -181.453 288.997 -182.489Z" fill="#DA4067"/>
<path opacity="0.8" d="M126.239 517.23C122.893 516.087 120.117 513.894 118.201 510.902L-135.397 114.165C-137.636 110.658 -138.379 106.484 -137.49 102.412C-136.599 98.333 -134.179 94.8487 -130.679 92.597L265.386 -162.744C269.414 -165.342 274.316 -165.936 278.842 -164.391C282.186 -163.242 284.966 -161.062 286.882 -158.07L540.477 238.68C542.723 242.182 543.465 246.363 542.576 250.435C541.681 254.506 539.265 257.998 535.765 260.25L139.695 515.582C135.667 518.181 130.764 518.781 126.239 517.23ZM278.36 -162.985C274.266 -164.389 269.832 -163.844 266.195 -161.501L-129.878 93.844C-133.048 95.8833 -135.231 99.0313 -136.036 102.723C-136.838 106.408 -136.169 110.182 -134.141 113.351L119.455 510.095C121.188 512.799 123.698 514.776 126.726 515.811C130.819 517.215 135.253 516.669 138.89 514.327L534.962 258.988C538.125 256.947 540.31 253.793 541.119 250.11C541.928 246.426 541.251 242.657 539.23 239.483L285.628 -157.263C283.897 -159.973 281.381 -161.952 278.36 -162.985Z" fill="#DA4067"/>
<path opacity="0.8" d="M108.236 514.56C104.928 513.429 102.099 511.158 100.264 508.17L-138.856 118.244C-140.974 114.794 -141.622 110.716 -140.681 106.769C-139.739 102.823 -137.325 99.474 -133.882 97.3434L255.356 -143.455C259.22 -145.847 263.903 -146.375 268.204 -144.903C271.512 -143.771 274.341 -141.501 276.176 -138.512L515.296 251.413C517.407 254.862 518.058 258.933 517.121 262.888C516.179 266.835 513.765 270.183 510.321 272.314L121.077 513.11C117.213 515.502 112.53 516.03 108.236 514.56ZM267.718 -143.484C263.842 -144.811 259.62 -144.333 256.135 -142.18L-133.104 98.6246C-136.211 100.545 -138.383 103.559 -139.231 107.12C-140.078 110.675 -139.496 114.348 -137.589 117.462L101.538 507.389C103.191 510.083 105.743 512.128 108.72 513.148C112.596 514.474 116.818 513.996 120.303 511.843L509.542 271.039C512.643 269.117 514.821 266.105 515.669 262.543C516.516 258.988 515.934 255.316 514.027 252.202L274.906 -137.723C273.253 -140.418 270.703 -142.469 267.718 -143.484Z" fill="#DA4067"/>
<path opacity="0.8" d="M90.2283 511.904C86.9137 510.77 84.1066 508.472 82.3269 505.438L-142.312 122.332C-144.302 118.94 -144.857 114.965 -143.863 111.144C-142.878 107.327 -140.463 104.116 -137.077 102.113L245.329 -124.15C249.039 -126.347 253.495 -126.804 257.571 -125.412C260.886 -124.278 263.693 -121.98 265.473 -118.946L490.111 264.16C494.219 271.167 491.873 280.239 484.877 284.379L102.471 510.642C98.7609 512.839 94.2987 513.294 90.2283 511.904ZM257.085 -123.993C253.427 -125.242 249.418 -124.832 246.083 -122.862L-136.323 103.402C-139.367 105.202 -141.535 108.087 -142.421 111.52C-143.308 114.954 -142.813 118.525 -141.024 121.576L83.6162 504.675C85.2119 507.401 87.7312 509.463 90.7144 510.485C94.373 511.734 98.3821 511.324 101.717 509.354L484.122 283.09C490.41 279.375 492.521 271.218 488.829 264.924L264.184 -118.183C262.588 -120.909 260.069 -122.971 257.085 -123.993Z" fill="#DA4067"/>
<path opacity="0.8" d="M72.2115 509.245C68.8842 508.108 66.1054 505.783 64.3868 502.705L-145.776 126.418C-149.627 119.52 -147.16 110.759 -140.282 106.88L235.296 -104.841C238.845 -106.837 243.084 -107.234 246.934 -105.915C250.262 -104.778 253.047 -102.452 254.766 -99.3736L464.928 276.914C468.782 283.805 466.318 292.574 459.434 296.451L83.8499 508.17C80.3014 510.167 76.0643 510.557 72.2115 509.245ZM246.45 -104.503C243.005 -105.682 239.206 -105.334 236.028 -103.545L-139.548 108.169C-145.71 111.647 -147.918 119.5 -144.472 125.673L65.6894 501.967C67.2278 504.724 69.7207 506.806 72.6976 507.826C76.1494 509.007 79.9416 508.657 83.1218 506.862L458.698 295.147C464.86 291.67 467.068 283.817 463.621 277.643L253.458 -98.6438C251.92 -101.401 249.427 -103.483 246.45 -104.503Z" fill="#DA4067"/>
<path opacity="0.8" d="M54.2008 506.594C50.8565 505.445 48.1059 503.095 46.4438 499.964L-149.237 130.497C-152.828 123.717 -150.241 115.253 -143.475 111.637L225.275 -85.5411C228.659 -87.3522 232.678 -87.6764 236.305 -86.4373C239.651 -85.2945 242.406 -82.9361 244.062 -79.8072L439.743 289.66C443.333 296.44 440.747 304.904 433.981 308.52L65.2365 505.7C61.8525 507.511 57.8279 507.833 54.2008 506.594ZM235.819 -85.0186C232.58 -86.1298 228.996 -85.8359 225.973 -84.2214L-142.776 112.95C-148.817 116.181 -151.123 123.737 -147.915 129.786L47.7643 499.259C49.2435 502.054 51.7036 504.153 54.6869 505.176C57.9212 506.279 61.511 505.987 64.5348 504.372L433.283 307.2C439.325 303.97 441.63 296.413 438.418 290.357L242.737 -79.1102C241.262 -81.8968 238.802 -83.9965 235.819 -85.0186Z" fill="#DA4067"/>
<path opacity="0.8" d="M36.1903 503.95C32.827 502.795 30.1066 500.413 28.5155 497.227L-152.69 134.578C-154.301 131.345 -154.568 127.676 -153.427 124.242C-152.292 120.806 -149.887 118.026 -146.666 116.394L215.248 -66.2375C218.517 -67.89 222.219 -68.1422 225.677 -66.9596C229.04 -65.805 231.767 -63.4205 233.358 -60.2351L414.557 302.412C417.887 309.074 415.183 317.235 408.535 320.59L46.6189 503.228C43.3521 504.874 39.6485 505.132 36.1903 503.95ZM225.193 -65.5474C222.115 -66.5975 218.827 -66.3747 215.915 -64.9064L-145.995 117.733C-148.858 119.175 -150.996 121.655 -152.011 124.707C-153.026 127.758 -152.792 131.026 -151.356 133.897L29.8412 496.551C31.2594 499.39 33.6805 501.505 36.6764 502.531C39.7481 503.58 43.0422 503.359 45.948 501.888L407.864 319.251C413.779 316.265 416.181 309.012 413.22 303.078L232.015 -59.5707C230.608 -62.3995 228.181 -64.517 225.193 -65.5474Z" fill="#DA4067"/>
<path opacity="0.8" d="M18.1762 501.312C14.7939 500.152 12.0929 497.727 10.5749 494.48L-156.15 138.658C-159.218 132.107 -156.399 124.255 -149.86 121.157L205.222 -46.94C208.318 -48.4025 211.806 -48.6074 215.045 -47.4963C218.427 -46.336 221.128 -43.9109 222.648 -40.6708L389.376 315.166C392.443 321.717 389.618 329.567 383.08 332.665L27.9995 500.756C24.9017 502.224 21.415 502.423 18.1762 501.312ZM214.559 -46.0778C211.688 -47.0601 208.599 -46.8821 205.854 -45.5847L-149.229 122.512C-155.024 125.258 -157.524 132.213 -154.808 138.02L11.9228 493.845C13.2693 496.717 15.6601 498.866 18.6623 499.893C21.5273 500.874 24.6226 500.698 27.3677 499.4L382.448 331.31C388.244 328.564 390.742 321.615 388.022 315.8L221.298 -40.0291C219.952 -42.9018 217.561 -45.0499 214.559 -46.0778Z" fill="#DA4067"/>
<path opacity="0.8" d="M0.157955 498.687C-3.20539 497.532 -5.94538 495.006 -7.36377 491.748L-159.611 142.737C-160.973 139.612 -161.039 136.147 -159.803 132.974C-158.565 129.795 -156.167 127.295 -153.056 125.92L195.197 -27.6277C198.126 -28.9191 201.404 -29.0623 204.419 -28.0308C207.778 -26.8843 210.522 -24.3501 211.947 -21.0898L364.188 327.919C366.999 334.36 364.053 341.899 357.632 344.736L9.37964 498.284C6.45079 499.575 3.17913 499.72 0.157955 498.687ZM203.935 -26.6185C201.27 -27.5332 198.375 -27.4081 195.794 -26.269L-152.455 127.287C-155.201 128.495 -157.315 130.707 -158.407 133.509C-159.502 136.317 -159.446 139.374 -158.244 142.128L-5.99796 491.145C-4.74307 494.025 -2.32022 496.252 0.644047 497.268C3.30852 498.183 6.19707 498.056 8.78511 496.919L357.04 343.365C362.708 340.864 365.306 334.205 362.829 328.523L210.587 -20.4854C209.326 -23.3673 206.899 -25.6019 203.935 -26.6185Z" fill="#DA4067"/>
<path opacity="0.8" d="M-17.8672 496.066C-21.2577 494.91 -23.9683 492.331 -25.3037 489.001L-163.069 146.81C-164.303 143.743 -164.27 140.383 -162.982 137.336C-161.693 134.289 -159.301 131.925 -156.241 130.679L185.179 -8.33472C187.935 -9.4571 190.998 -9.54649 193.8 -8.5846C197.188 -7.42248 199.901 -4.84954 201.238 -1.52552L339.008 340.673C341.552 346.994 338.488 354.231 332.18 356.805L-9.24076 495.818C-11.9943 496.934 -15.0573 497.024 -17.8672 496.066ZM193.314 -7.16602C190.848 -8.00848 188.153 -7.93443 185.733 -6.94735L-155.681 132.068C-158.367 133.163 -160.475 135.239 -161.607 137.919C-162.739 140.599 -162.771 143.555 -161.687 146.247L-23.9219 488.437C-22.7425 491.364 -20.3644 493.625 -17.3811 494.648C-14.9152 495.49 -12.2272 495.414 -9.80072 494.429L331.618 355.422C337.168 353.161 339.864 346.8 337.62 341.235L199.854 -0.955777C198.681 -3.88066 196.297 -6.14379 193.314 -7.16602Z" fill="#DA4067"/>
<path opacity="0.8" d="M-35.8897 493.454C-39.3162 492.28 -41.993 489.656 -43.2454 486.254L-166.531 150.89C-168.812 144.681 -165.625 137.748 -159.43 135.443L175.154 10.9773C177.732 10.0159 180.588 9.97568 183.177 10.868C186.603 12.0413 189.28 14.6656 190.532 18.0679L313.826 353.428C316.108 359.637 312.921 366.569 306.732 368.876L-27.8611 493.346C-30.4449 494.306 -33.2929 494.341 -35.8897 493.454ZM182.699 12.2821C180.427 11.5037 177.93 11.5393 175.671 12.3744L-158.916 136.847C-164.339 138.863 -167.127 144.929 -165.128 150.373L-41.8431 485.738C-40.7475 488.715 -38.4013 491.015 -35.4054 492.041C-33.1337 492.82 -30.6425 492.782 -28.3756 491.943L306.211 367.47C311.634 365.454 314.422 359.388 312.422 353.95L189.132 18.5777C188.043 15.6018 185.695 13.3081 182.699 12.2821Z" fill="#DA4067"/>
<path opacity="0.8" d="M-53.9208 490.852C-57.379 489.669 -60.0326 486.989 -61.1794 483.508L-169.989 154.962C-172.008 148.865 -168.699 142.244 -162.616 140.202L165.143 30.2719C167.581 29.4554 170.149 29.461 172.571 30.2905C176.035 31.4749 178.683 34.1525 179.838 37.6293L288.643 366.188C290.662 372.285 287.354 378.907 281.273 380.942L-46.4863 490.872C-48.925 491.689 -51.4929 491.683 -53.9208 490.852ZM172.085 31.7091C169.976 30.9853 167.731 30.9784 165.612 31.6895L-162.147 141.619C-167.451 143.395 -170.331 149.166 -168.571 154.485L-59.763 483.038C-58.7593 486.071 -56.4496 488.401 -53.4347 489.433C-51.3255 490.157 -49.0873 490.162 -46.96 489.446L280.797 379.523C286.101 377.747 288.981 371.976 287.221 366.657L178.413 38.1044C177.414 35.0793 175.1 32.7406 172.085 31.7091Z" fill="#DA4067"/>
<path opacity="0.8" d="M-71.9488 488.264C-75.407 487.082 -78.0859 484.278 -79.1128 480.763L-173.447 159.036C-175.203 153.05 -171.773 146.739 -165.803 144.967L155.12 49.5841C157.378 48.9139 159.743 48.9561 161.957 49.7179C165.416 50.9005 168.094 53.7043 169.121 57.2191L263.455 378.947C265.205 384.931 261.782 391.243 255.812 393.016L-65.1129 488.405C-67.3693 489.068 -69.734 489.026 -71.9488 488.264ZM161.473 51.1301C159.552 50.4685 157.502 50.4295 155.537 51.014L-165.386 146.397C-170.565 147.934 -173.538 153.416 -172.014 158.604L-77.6887 480.336C-76.7928 483.386 -74.4649 485.818 -71.469 486.844C-69.5458 487.499 -67.4962 487.538 -65.5393 486.958L255.39 391.578C260.563 390.038 263.54 384.565 262.018 379.37L167.693 57.638C166.803 54.5902 164.475 52.1579 161.473 51.1301Z" fill="#DA4067"/>
<path opacity="0.8" d="M-89.988 485.688C-93.5012 484.482 -96.1425 481.621 -97.0537 478.016L-176.904 163.102C-178.391 157.23 -174.84 151.231 -168.984 149.727L145.112 68.8873C147.185 68.3554 149.347 68.4341 151.363 69.1237C154.876 70.3293 157.515 73.1972 158.429 76.7955L238.272 391.708C239.762 397.574 236.208 403.579 230.352 405.083L-83.745 485.929C-85.812 486.463 -87.978 486.376 -89.988 485.688ZM150.87 70.5404C149.135 69.9472 147.268 69.8725 145.476 70.3358L-168.62 151.176C-173.676 152.481 -176.745 157.659 -175.461 162.729L-95.6109 477.643C-94.8234 480.757 -92.5375 483.239 -89.5037 484.276C-87.762 484.871 -85.901 484.944 -84.1089 484.48L229.988 403.634C235.044 402.329 238.114 397.151 236.823 392.079L156.973 77.1652C156.186 74.0511 153.904 71.5775 150.87 70.5404Z" fill="#DA4067"/>
<path opacity="0.8" d="M-108.033 483.131C-111.553 481.923 -114.22 478.916 -114.995 475.269L-180.361 167.169C-181.582 161.417 -177.907 155.722 -172.164 154.488L135.097 88.1886C136.989 87.7822 138.941 87.8956 140.757 88.5193C144.276 89.7268 146.942 92.74 147.719 96.3807L213.087 404.475C214.307 410.227 210.634 415.916 204.89 417.156L-102.371 483.455C-104.264 483.861 -106.222 483.746 -108.033 483.131ZM140.273 89.9316C138.712 89.3969 137.03 89.3008 135.409 89.6494L-171.86 155.953C-176.798 157.018 -179.954 161.909 -178.91 166.86L-113.534 474.949C-112.856 478.134 -110.617 480.658 -107.547 481.712C-105.987 482.247 -104.305 482.343 -102.677 481.996L204.586 415.691C209.517 414.624 212.68 409.734 211.627 404.788L146.259 96.6942C145.582 93.5093 143.343 90.9862 140.273 89.9316Z" fill="#DA4067"/>
<path opacity="0.8" d="M-126.088 480.584C-129.677 479.356 -132.298 476.26 -132.934 472.516L-183.825 171.234C-184.776 165.595 -180.976 160.219 -175.351 159.246L125.084 107.483C126.785 107.192 128.544 107.332 130.161 107.883C133.75 109.111 136.378 112.203 137.005 115.957L187.895 417.239C188.847 422.878 185.053 428.256 179.424 429.221L-121.006 480.985C-122.706 481.276 -124.465 481.137 -126.088 480.584ZM129.673 109.308C128.288 108.832 126.782 108.719 125.327 108.972L-175.101 160.73C-179.913 161.557 -183.163 166.159 -182.35 170.986L-131.456 472.256C-130.916 475.462 -128.672 478.111 -125.6 479.159C-124.215 479.635 -122.711 479.754 -121.256 479.502L179.178 427.745C183.99 426.918 187.24 422.316 186.427 417.489L135.541 116.215C134.995 113.006 132.749 110.364 129.673 109.308Z" fill="#DA4067"/>
</g>
</g>
<defs>
<clipPath id="clip0_109_7279">
<rect width="885" height="638" fill="white" transform="translate(-264 440.014) rotate(-73.6048)"/>
</clipPath>
</defs>
</svg>
