<svg width="1188" height="1392" viewBox="0 0 1188 1392" fill="none" xmlns="http://www.w3.org/2000/svg">
<g clip-path="url(#clip0_109_4639)">
<g opacity="0.8">
<path opacity="0.8" d="M-71.7603 792.54C-71.5203 787.19 -69.7703 782.03 -66.6903 777.62L427.61 70.62C431.94 64.42 438.43 60.28 445.89 58.96C453.35 57.64 460.88 59.29 467.09 63.61L1176.09 556.77C1184.1 562.34 1188.63 571.49 1188.2 581.23C1187.96 586.58 1186.21 591.74 1183.13 596.15L688.83 1303.15C684.5 1309.35 678.01 1313.49 670.55 1314.81C663.09 1316.14 655.56 1314.48 649.35 1310.16L-59.6403 816.99C-67.6503 811.42 -72.1803 802.28 -71.7603 792.54ZM1185.94 581.11C1186.33 572.15 1182.16 563.73 1174.79 558.61L465.79 65.4499C460.08 61.4699 453.15 59.9499 446.29 61.1699C439.43 62.3899 433.46 66.2 429.48 71.9L-64.8303 778.9C-67.6703 782.96 -69.2803 787.7 -69.4903 792.62C-69.8803 801.59 -65.7103 810 -58.3503 815.13L650.65 1308.28C656.37 1312.26 663.29 1313.77 670.16 1312.56C677.02 1311.34 682.99 1307.53 686.98 1301.83L1181.28 594.83C1184.12 590.78 1185.73 586.03 1185.94 581.11Z" fill="url(#paint0_linear_109_4639)"/>
<path opacity="0.8" d="M-75.5306 765.18C-75.3006 759.84 -73.5206 754.71 -70.3806 750.34L420.199 67.3303C424.499 61.3403 430.889 57.3803 438.179 56.1803C445.469 54.9803 452.799 56.6803 458.809 60.9803L1143.75 550.42C1151.38 555.87 1155.69 564.72 1155.29 574.08C1155.05 579.42 1153.28 584.56 1150.14 588.93L659.559 1271.94C650.679 1284.31 633.349 1287.16 620.949 1278.3L-64.0006 788.85C-71.6306 783.4 -75.9506 774.55 -75.5306 765.18ZM1153.01 573.98C1153.39 565.38 1149.43 557.26 1142.42 552.25L457.479 62.8203C451.969 58.8803 445.239 57.3103 438.549 58.4103C431.849 59.5103 425.989 63.1503 422.039 68.6503L-68.5406 751.66C-71.4206 755.67 -73.0506 760.38 -73.2706 765.28C-73.6506 773.88 -69.6906 782 -62.6806 787L622.259 1276.45C633.649 1284.58 649.549 1281.97 657.699 1270.62L1148.28 587.61C1151.16 583.6 1152.8 578.89 1153.01 573.98Z" fill="url(#paint1_linear_109_4639)"/>
<path opacity="0.8" d="M-79.3199 737.83C-79.0899 732.49 -77.2799 727.38 -74.0799 723.06L412.78 64.0502C421.61 52.1002 438.54 49.5502 450.52 58.3502L1111.4 544.07C1118.66 549.4 1122.75 557.95 1122.36 566.94C1122.13 572.28 1120.32 577.39 1117.13 581.71L630.27 1240.72C625.99 1246.51 619.71 1250.29 612.58 1251.36C605.45 1252.44 598.33 1250.68 592.53 1246.42L-68.3699 760.7C-75.6199 755.37 -79.7199 746.82 -79.3199 737.83ZM1120.08 566.85C1120.44 558.62 1116.69 550.78 1110.05 545.9L449.17 60.1802C438.2 52.1102 422.69 54.4602 414.6 65.4002L-72.2599 724.41C-75.1899 728.37 -76.8499 733.05 -77.0599 737.94C-77.4199 746.17 -73.6699 754 -67.0199 758.88L593.85 1244.61C599.17 1248.52 605.69 1250.12 612.22 1249.14C618.75 1248.16 624.5 1244.69 628.42 1239.39L1115.28 580.38C1118.21 576.42 1119.87 571.74 1120.08 566.85Z" fill="url(#paint2_linear_109_4639)"/>
<path opacity="0.8" d="M-83.1102 710.48C-82.8802 705.14 -81.0402 700.06 -77.7802 695.78L405.35 60.77C409.6 55.19 415.77 51.59 422.73 50.64C429.69 49.69 436.61 51.5 442.21 55.74L1079.03 537.75C1085.91 542.96 1089.79 551.21 1089.41 559.82C1089.17 565.16 1087.34 570.24 1084.08 574.52L600.94 1209.54C592.17 1221.06 575.63 1223.33 564.08 1214.58L-72.7302 732.55C-79.6102 727.35 -83.4902 719.1 -83.1102 710.48ZM1087.16 559.72C1087.5 551.85 1083.95 544.31 1077.67 539.55L440.85 57.54C435.73 53.67 429.41 52.01 423.05 52.88C416.69 53.75 411.05 57.04 407.17 62.14L-75.9802 697.16C-78.9502 701.07 -80.6402 705.71 -80.8502 710.59C-81.1902 718.46 -77.6502 726 -71.3602 730.76L565.46 1212.77C576.02 1220.76 591.13 1218.7 599.14 1208.17L1082.28 573.15C1085.26 569.24 1086.94 564.6 1087.16 559.72Z" fill="url(#paint3_linear_109_4639)"/>
<path opacity="0.8" d="M-86.9103 683.13C-86.6703 677.79 -84.8003 672.73 -81.4903 668.5L397.93 57.4904C402.15 52.1104 408.22 48.6904 415.01 47.8704C421.81 47.0404 428.52 48.9104 433.92 53.1204L1046.67 531.41C1053.18 536.49 1056.85 544.44 1056.49 552.68C1056.26 558.02 1054.38 563.08 1051.07 567.31L571.65 1178.33C567.43 1183.71 561.36 1187.13 554.56 1187.95C547.76 1188.78 541.05 1186.92 535.66 1182.71L-77.1003 704.41C-83.6003 699.33 -87.2703 691.38 -86.9103 683.13ZM1054.23 552.58C1054.56 545.06 1051.21 537.81 1045.28 533.18L432.53 54.8904C427.61 51.0504 421.49 49.3504 415.3 50.1104C409.1 50.8604 403.57 53.9804 399.72 58.8804L-79.7003 669.91C-82.7203 673.76 -84.4303 678.37 -84.6403 683.24C-84.9703 690.75 -81.6203 698 -75.6903 702.64L537.07 1180.93C541.99 1184.77 548.11 1186.46 554.3 1185.71C560.5 1184.96 566.03 1181.84 569.88 1176.94L1049.3 565.92C1052.31 562.06 1054.02 557.45 1054.23 552.58Z" fill="url(#paint4_linear_109_4639)"/>
<path opacity="0.8" d="M-90.7202 655.78C-90.4902 650.43 -88.5702 645.4 -85.1902 641.23L390.51 54.2002C399.16 43.5202 414.92 41.8602 425.63 50.4902L1014.33 525.07C1020.47 530.01 1023.92 537.67 1023.58 545.54C1023.35 550.89 1021.44 555.92 1018.06 560.09L542.35 1147.11C538.16 1152.29 532.19 1155.52 525.56 1156.22C518.92 1156.92 512.41 1155.01 507.23 1150.82L-81.4602 676.26C-87.6002 671.31 -91.0602 663.66 -90.7202 655.78ZM1021.32 545.45C1021.63 538.29 1018.49 531.33 1012.91 526.83L424.21 52.2502C414.47 44.4002 400.15 45.9102 392.28 55.6202L-83.4302 642.66C-86.5002 646.45 -88.2402 651.02 -88.4502 655.88C-88.7602 663.04 -85.6202 670 -80.0402 674.5L508.66 1149.08C513.38 1152.89 519.3 1154.63 525.32 1153.99C531.35 1153.35 536.78 1150.41 540.58 1145.71L1016.29 558.68C1019.37 554.89 1021.11 550.31 1021.32 545.45Z" fill="url(#paint5_linear_109_4639)"/>
<path opacity="0.8" d="M-94.5201 628.43C-94.2901 623.08 -92.3401 618.08 -88.8901 613.95L383.09 50.9203C387.26 45.9503 393.11 42.9003 399.58 42.3203C406.05 41.7403 412.36 43.7203 417.34 47.8703L981.98 518.73C987.84 523.62 991.01 530.79 990.68 538.41C990.45 543.77 988.5 548.77 985.04 552.89L513.06 1115.92C504.46 1126.18 489.1 1127.54 478.81 1118.97L-85.8301 648.11C-91.6901 643.22 -94.8601 636.05 -94.5201 628.43ZM988.41 538.32C988.71 531.41 985.84 524.91 980.53 520.48L415.89 49.6103C411.37 45.8403 405.65 44.0603 399.79 44.5803C393.92 45.1003 388.62 47.8703 384.84 52.3803L-87.1501 615.4C-90.2801 619.14 -92.0501 623.67 -92.2601 628.52C-92.5601 635.43 -89.6801 641.94 -84.3701 646.36L480.27 1117.23C489.6 1125.01 503.52 1123.77 511.32 1114.47L983.3 551.44C986.43 547.71 988.2 543.17 988.41 538.32Z" fill="url(#paint6_linear_109_4639)"/>
<path opacity="0.8" d="M-98.3398 601.08C-98.1098 595.72 -96.1099 590.74 -92.5799 586.67L375.67 47.6401C379.81 42.8801 385.56 40.0101 391.86 39.5601C398.17 39.1101 404.27 41.1401 409.04 45.2701L949.61 512.41C955.11 517.16 958.07 524.04 957.76 531.29C957.52 536.65 955.54 541.63 952.01 545.7L483.74 1084.73C479.61 1089.5 473.85 1092.37 467.55 1092.82C461.25 1093.26 455.14 1091.24 450.37 1087.11L-90.1898 619.96C-95.6898 615.21 -98.6598 608.33 -98.3398 601.08ZM955.51 531.19C955.8 524.63 953.11 518.41 948.15 514.12L407.57 46.9701C403.25 43.2301 397.74 41.4001 392.03 41.8101C386.33 42.2201 381.13 44.8101 377.39 49.1201L-90.8698 588.15C-94.0598 591.83 -95.8598 596.33 -96.0698 601.18C-96.3598 607.74 -93.6698 613.96 -88.7098 618.25L451.86 1085.4C456.18 1089.13 461.7 1090.96 467.4 1090.56C473.1 1090.16 478.29 1087.56 482.04 1083.26L950.3 544.22C953.5 540.54 955.3 536.03 955.51 531.19Z" fill="url(#paint7_linear_109_4639)"/>
<path opacity="0.8" d="M-102.161 573.73C-101.931 568.43 -99.8405 563.34 -96.2805 559.39L368.259 44.3502C372.369 39.7902 378.019 37.1002 384.159 36.7802C390.299 36.4602 396.199 38.5402 400.769 42.6402L917.279 506.07C922.409 510.67 925.18 517.26 924.88 524.15C924.65 529.45 922.559 534.54 918.999 538.49L454.459 1053.53C450.349 1058.08 444.709 1060.77 438.559 1061.1C432.419 1061.42 426.519 1059.34 421.949 1055.24L-94.5605 591.8C-99.6905 587.2 -102.461 580.61 -102.161 573.73ZM922.609 524.05C922.88 517.84 920.379 511.9 915.759 507.75L399.239 44.3202C395.119 40.6202 389.809 38.7502 384.269 39.0402C378.739 39.3302 373.649 41.7502 369.939 45.8602L-94.6005 560.91C-97.8105 564.47 -99.6905 569.06 -99.9005 573.83C-100.171 580.04 -97.6705 585.98 -93.0505 590.13L423.469 1053.56C427.589 1057.25 432.899 1059.13 438.439 1058.84C443.969 1058.55 449.059 1056.13 452.769 1052.02L917.31 536.98C920.52 533.42 922.41 528.83 922.609 524.05Z" fill="url(#paint8_linear_109_4639)"/>
<path opacity="0.8" d="M-106 546.38C-105.77 541.07 -103.63 536 -99.9798 532.11L360.84 41.0702C364.92 36.7202 370.46 34.2102 376.44 34.0202C382.41 33.8202 388.11 35.9602 392.47 40.0302L884.93 499.74C889.71 504.2 892.28 510.49 892 517.02C891.77 522.33 889.63 527.4 885.98 531.29L425.16 1022.33C416.73 1031.31 402.54 1031.78 393.53 1023.37L-98.9298 563.66C-103.71 559.2 -106.28 552.9 -106 546.38ZM889.73 516.92C889.98 511.06 887.67 505.4 883.38 501.39L390.92 41.6802C387 38.0202 381.88 36.1002 376.51 36.2802C371.14 36.4602 366.16 38.7102 362.49 42.6202L-98.3198 533.66C-101.6 537.15 -103.52 541.7 -103.73 546.48C-103.98 552.34 -101.67 558 -97.3798 562.01L395.08 1021.72C403.17 1029.28 415.93 1028.86 423.5 1020.79L884.32 529.74C887.6 526.25 889.52 521.7 889.73 516.92Z" fill="url(#paint9_linear_109_4639)"/>
<path opacity="0.8" d="M-109.84 519.02C-109.61 513.69 -107.42 508.65 -103.68 504.83L353.42 37.7802C361.8 29.2202 375.59 29.0602 384.17 37.4102L852.57 493.41C856.99 497.72 859.38 503.72 859.11 509.89C858.88 515.22 856.69 520.27 852.95 524.09L395.85 991.14C387.48 999.7 373.68 999.87 365.1 991.51L-103.3 535.5C-107.72 531.19 -110.1 525.19 -109.84 519.02ZM856.85 509.79C857.09 504.27 854.96 498.89 851 495.03L382.61 39.0302C374.92 31.5502 362.56 31.7003 355.06 39.3603L-102.05 506.41C-105.4 509.83 -107.36 514.35 -107.57 519.12C-107.81 524.65 -105.68 530.02 -101.71 533.88L366.68 989.88C374.37 997.36 386.73 997.21 394.23 989.55L851.33 522.5C854.68 519.08 856.64 514.56 856.85 509.79Z" fill="url(#paint10_linear_109_4639)"/>
<path opacity="0.8" d="M-113.69 491.67C-113.45 486.31 -111.21 481.3 -107.37 477.54L346.01 34.4903C354.33 26.3603 367.74 26.5003 375.89 34.8003L820.23 487.09C824.31 491.24 826.5 496.95 826.25 502.76C826.02 508.12 823.77 513.14 819.93 516.89L366.55 959.94C358.23 968.07 344.82 967.93 336.67 959.63L-107.67 507.35C-111.75 503.2 -113.94 497.48 -113.69 491.67ZM823.98 502.66C824.21 497.47 822.25 492.38 818.61 488.67L374.28 36.3803C367 28.9703 355.03 28.8503 347.61 36.1103L-105.78 479.16C-109.21 482.51 -111.21 486.99 -111.42 491.77C-111.64 496.95 -109.68 502.05 -106.04 505.76L338.29 958.05C345.57 965.46 357.54 965.58 364.97 958.31L818.35 515.26C821.77 511.92 823.77 507.44 823.98 502.66Z" fill="url(#paint11_linear_109_4639)"/>
<path opacity="0.8" d="M-117.551 464.32C-117.311 458.93 -115.011 453.95 -111.061 450.27L338.599 31.2104C342.609 27.4804 347.829 25.5204 353.309 25.7104C358.789 25.8904 363.859 28.2004 367.609 32.1904L787.879 480.76C791.679 484.81 793.629 490.09 793.389 495.63C793.149 501.02 790.849 506.01 786.899 509.69L337.239 928.74C328.979 936.44 315.959 936 308.239 927.76L-112.041 479.19C-115.831 475.14 -117.791 469.86 -117.551 464.32ZM791.129 495.53C791.339 490.6 789.609 485.91 786.229 482.3L365.949 33.7404C362.629 30.1904 358.109 28.1404 353.239 27.9704C348.369 27.8004 343.719 29.5404 340.159 32.8604L-109.511 451.91C-113.031 455.19 -115.071 459.62 -115.281 464.42C-115.491 469.34 -113.761 474.04 -110.381 477.64L309.899 926.21C316.769 933.54 328.339 933.93 335.699 927.08L785.359 508.02C788.869 504.76 790.909 500.32 791.129 495.53Z" fill="url(#paint12_linear_109_4639)"/>
<path opacity="0.8" d="M-121.42 436.97C-121.18 431.55 -118.81 426.58 -114.74 422.98L331.19 27.9204C339.4 20.6504 352.02 21.3904 359.32 29.5804L755.54 474.43C758.99 478.31 760.78 483.3 760.55 488.49C760.31 493.91 757.94 498.88 753.88 502.48L307.93 897.55C299.72 904.82 287.1 904.07 279.8 895.88L-116.41 451.03C-119.87 447.15 -121.65 442.16 -121.42 436.97ZM758.28 488.39C758.48 483.79 756.9 479.37 753.84 475.93L357.62 31.0804C351.15 23.8204 339.97 23.1604 332.69 29.6004L-113.24 424.67C-116.84 427.86 -118.94 432.26 -119.15 437.07C-119.35 441.66 -117.77 446.09 -114.71 449.53L281.5 894.38C287.97 901.64 299.14 902.3 306.43 895.85L752.37 500.79C755.97 497.6 758.07 493.2 758.28 488.39Z" fill="url(#paint13_linear_109_4639)"/>
<path opacity="0.8" d="M-125.31 409.62C-125.07 404.23 -122.57 399.16 -118.44 395.7L323.78 24.6304C327.74 21.3104 332.75 19.7304 337.89 20.1704C343.04 20.6104 347.7 23.0304 351.03 26.9704L723.18 468.11C726.31 471.82 727.92 476.53 727.71 481.36C727.48 486.74 724.97 491.82 720.84 495.29L278.62 866.35C270.46 873.2 258.24 872.14 251.37 864.01L-120.78 422.87C-123.91 419.16 -125.52 414.46 -125.31 409.62ZM725.45 481.26C725.64 476.99 724.22 472.83 721.46 469.56L349.3 28.4304C346.37 24.9504 342.25 22.8204 337.71 22.4304C333.16 22.0404 328.74 23.4304 325.25 26.3604L-116.98 397.43C-120.63 400.49 -122.83 404.97 -123.04 409.72C-123.23 413.99 -121.81 418.14 -119.05 421.42L253.11 862.56C259.17 869.74 269.96 870.67 277.16 864.63L719.38 493.57C723.03 490.5 725.24 486.01 725.45 481.26Z" fill="url(#paint14_linear_109_4639)"/>
<path opacity="0.8" d="M-129.21 382.26C-128.98 376.83 -126.39 371.78 -122.12 368.41L316.38 21.3402C320.31 18.2302 325.21 16.8402 330.19 17.4102C335.17 17.9802 339.63 20.4502 342.75 24.3702L690.85 461.79C693.66 465.32 695.1 469.74 694.9 474.23C694.66 479.66 692.08 484.71 687.82 488.08L249.31 835.16C241.21 841.57 229.38 840.21 222.94 832.13L-125.16 394.71C-127.96 391.18 -129.4 386.76 -129.21 382.26ZM692.63 474.13C692.8 470.18 691.54 466.29 689.07 463.19L340.97 25.7802C338.23 22.3402 334.31 20.1602 329.93 19.6602C325.55 19.1602 321.24 20.3802 317.79 23.1102L-120.71 370.18C-124.46 373.15 -126.73 377.58 -126.94 382.36C-127.11 386.31 -125.85 390.19 -123.38 393.3L224.71 830.72C230.37 837.83 240.77 839.03 247.9 833.38L686.4 486.31C690.15 483.35 692.42 478.91 692.63 474.13Z" fill="url(#paint15_linear_109_4639)"/>
<path opacity="0.8" d="M-133.12 354.91C-132.88 349.42 -130.21 344.4 -125.8 341.12L308.97 18.0504C317.02 12.0704 328.46 13.7404 334.46 21.7704L658.49 455.47C660.99 458.81 662.27 462.95 662.08 467.1C661.84 472.59 659.17 477.61 654.76 480.89L220 803.97C211.95 809.95 200.51 808.28 194.51 800.26L-129.53 366.55C-132.03 363.2 -133.3 359.07 -133.12 354.91ZM659.82 467.01C659.98 463.37 658.86 459.75 656.68 456.82L332.64 23.1204C327.39 16.0904 317.38 14.6304 310.32 19.8704L-124.45 342.94C-128.31 345.81 -130.65 350.21 -130.86 355.01C-131.02 358.65 -129.9 362.26 -127.71 365.2L196.33 798.9C201.58 805.93 211.59 807.39 218.64 802.15L653.42 479.07C657.28 476.21 659.61 471.81 659.82 467.01Z" fill="url(#paint16_linear_109_4639)"/>
<path opacity="0.8" d="M-137.05 327.55C-136.81 322.01 -134.05 317 -129.48 313.84L301.57 14.76C309.57 9.21005 320.61 11.19 326.18 19.17L626.16 449.16C628.39 452.36 629.48 456.1 629.31 459.98C629.07 465.53 626.31 470.53 621.75 473.7L190.68 772.78C182.68 778.33 171.64 776.35 166.08 768.37L-133.9 338.38C-136.13 335.18 -137.22 331.44 -137.05 327.55ZM627.04 459.88C627.19 456.5 626.24 453.23 624.3 450.45L324.32 20.46C319.47 13.5 309.85 11.78 302.87 16.62L-128.19 315.7C-132.17 318.46 -134.57 322.82 -134.78 327.65C-134.93 331.03 -133.98 334.29 -132.03 337.08L167.94 767.07C172.79 774.03 182.41 775.75 189.39 770.91L620.45 471.83C624.42 469.08 626.83 464.71 627.04 459.88Z" fill="url(#paint17_linear_109_4639)"/>
<path opacity="0.8" d="M-141 300.2C-140.76 294.66 -137.83 289.56 -133.16 286.56L294.17 11.47C302.12 6.34997 312.76 8.63996 317.89 16.57L593.8 442.84C595.74 445.84 596.69 449.3 596.53 452.85C596.29 458.39 593.36 463.49 588.69 466.49L161.36 741.58C153.41 746.69 142.77 744.41 137.64 736.48L-138.28 310.21C-140.21 307.21 -141.16 303.75 -141 300.2ZM594.27 452.75C594.41 449.67 593.59 446.67 591.9 444.06L315.99 17.79C311.54 10.91 302.3 8.92996 295.41 13.37L-131.93 288.45C-135.98 291.06 -138.52 295.49 -138.73 300.29C-138.86 303.37 -138.04 306.37 -136.36 308.97L139.55 735.25C144 742.12 153.23 744.11 160.13 739.67L587.47 464.59C591.52 461.99 594.06 457.56 594.27 452.75Z" fill="url(#paint18_linear_109_4639)"/>
<path opacity="0.8" d="M-144.97 272.84C-144.72 267.21 -141.69 262.14 -136.84 259.27L286.78 8.18022C294.68 3.50022 304.92 6.10022 309.61 13.9802L561.46 436.54C563.12 439.33 563.93 442.51 563.79 445.74C563.54 451.37 560.5 456.44 555.66 459.31L132.04 710.39C124.15 715.07 113.9 712.47 109.21 704.59L-142.65 282.03C-144.31 279.25 -145.11 276.06 -144.97 272.84ZM561.52 445.63C561.64 442.85 560.95 440.1 559.51 437.69L307.66 15.1302C303.6 8.33022 294.76 6.08022 287.94 10.1202L-135.68 261.21C-139.87 263.69 -142.5 268.08 -142.71 272.94C-142.83 275.73 -142.14 278.47 -140.7 280.88L111.16 703.44C115.22 710.24 124.06 712.49 130.88 708.44L554.5 457.35C558.69 454.87 561.31 450.49 561.52 445.63Z" fill="url(#paint19_linear_109_4639)"/>
<path opacity="0.8" d="M-148.97 245.48C-148.72 239.84 -145.49 234.67 -140.52 231.98L279.39 4.89024C287.23 0.650236 297.08 3.56024 301.33 11.3902L529.12 430.23C530.52 432.81 531.19 435.7 531.06 438.61C530.81 444.25 527.57 449.42 522.61 452.11L102.71 679.2C94.8703 683.44 85.0303 680.53 80.7703 672.7L-147.02 253.86C-148.42 251.28 -149.09 248.38 -148.97 245.48ZM528.8 438.51C528.91 436.01 528.33 433.52 527.13 431.31L299.33 12.4602C295.67 5.73024 287.21 3.23024 280.46 6.87024L-139.43 233.97C-143.77 236.32 -146.48 240.66 -146.7 245.58C-146.81 248.08 -146.23 250.57 -145.03 252.79L82.7703 671.63C86.4303 678.35 94.8903 680.86 101.63 677.21L521.53 450.12C525.87 447.77 528.58 443.43 528.8 438.51Z" fill="url(#paint20_linear_109_4639)"/>
<path opacity="0.8" d="M-152.99 218.11C-152.74 212.36 -149.36 207.22 -144.19 204.69L272 1.59019C279.79 -2.20981 289.23 1.02019 293.05 8.79019L496.79 423.92C497.94 426.27 498.49 428.89 498.38 431.48C498.13 437.23 494.76 442.38 489.57 444.9L73.3799 648C65.5899 651.8 56.1499 648.58 52.3399 640.8L-151.4 225.68C-152.55 223.33 -153.1 220.71 -152.99 218.11ZM496.1 431.38C496.2 429.16 495.72 426.92 494.73 424.91L291 9.79019C287.74 3.14019 279.66 0.380191 272.99 3.63019L-143.18 206.73C-147.61 208.89 -150.5 213.29 -150.71 218.21C-150.81 220.43 -150.34 222.67 -149.35 224.68L54.3799 639.81C57.6399 646.46 65.7199 649.22 72.3899 645.97L488.57 442.88C493 440.71 495.88 436.31 496.1 431.38Z" fill="url(#paint21_linear_109_4639)"/>
</g>
</g>
<defs>
<linearGradient id="paint0_linear_109_4639" x1="558.22" y1="58.5166" x2="558.22" y2="1315.26" gradientUnits="userSpaceOnUse">
<stop stop-color="#48917E"/>
<stop offset="1" stop-color="#48917E"/>
</linearGradient>
<linearGradient id="paint1_linear_109_4639" x1="539.878" y1="55.8052" x2="539.878" y2="1283.45" gradientUnits="userSpaceOnUse">
<stop stop-color="#48917E"/>
<stop offset="1" stop-color="#48917E"/>
</linearGradient>
<linearGradient id="paint2_linear_109_4639" x1="521.519" y1="53.1133" x2="521.519" y2="1251.67" gradientUnits="userSpaceOnUse">
<stop stop-color="#48917E"/>
<stop offset="1" stop-color="#48917E"/>
</linearGradient>
<linearGradient id="paint3_linear_109_4639" x1="503.15" y1="50.3931" x2="503.15" y2="1219.91" gradientUnits="userSpaceOnUse">
<stop stop-color="#48917E"/>
<stop offset="1" stop-color="#48917E"/>
</linearGradient>
<linearGradient id="paint4_linear_109_4639" x1="484.79" y1="47.6777" x2="484.79" y2="1188.14" gradientUnits="userSpaceOnUse">
<stop stop-color="#48917E"/>
<stop offset="1" stop-color="#48917E"/>
</linearGradient>
<linearGradient id="paint5_linear_109_4639" x1="466.43" y1="44.9644" x2="466.43" y2="1156.36" gradientUnits="userSpaceOnUse">
<stop stop-color="#48917E"/>
<stop offset="1" stop-color="#48917E"/>
</linearGradient>
<linearGradient id="paint6_linear_109_4639" x1="448.079" y1="42.2212" x2="448.079" y2="1124.6" gradientUnits="userSpaceOnUse">
<stop stop-color="#48917E"/>
<stop offset="1" stop-color="#48917E"/>
</linearGradient>
<linearGradient id="paint7_linear_109_4639" x1="429.709" y1="39.4985" x2="429.709" y2="1092.88" gradientUnits="userSpaceOnUse">
<stop stop-color="#48917E"/>
<stop offset="1" stop-color="#48917E"/>
</linearGradient>
<linearGradient id="paint8_linear_109_4639" x1="411.359" y1="36.748" x2="411.359" y2="1061.13" gradientUnits="userSpaceOnUse">
<stop stop-color="#48917E"/>
<stop offset="1" stop-color="#48917E"/>
</linearGradient>
<linearGradient id="paint9_linear_109_4639" x1="393" y1="34.0073" x2="393" y2="1029.38" gradientUnits="userSpaceOnUse">
<stop stop-color="#48917E"/>
<stop offset="1" stop-color="#48917E"/>
</linearGradient>
<linearGradient id="paint10_linear_109_4639" x1="374.636" y1="31.2524" x2="374.636" y2="997.672" gradientUnits="userSpaceOnUse">
<stop stop-color="#48917E"/>
<stop offset="1" stop-color="#48917E"/>
</linearGradient>
<linearGradient id="paint11_linear_109_4639" x1="356.28" y1="28.4829" x2="356.28" y2="965.948" gradientUnits="userSpaceOnUse">
<stop stop-color="#48917E"/>
<stop offset="1" stop-color="#48917E"/>
</linearGradient>
<linearGradient id="paint12_linear_109_4639" x1="337.919" y1="25.6978" x2="337.919" y2="934.24" gradientUnits="userSpaceOnUse">
<stop stop-color="#48917E"/>
<stop offset="1" stop-color="#48917E"/>
</linearGradient>
<linearGradient id="paint13_linear_109_4639" x1="319.565" y1="22.918" x2="319.565" y2="902.548" gradientUnits="userSpaceOnUse">
<stop stop-color="#48917E"/>
<stop offset="1" stop-color="#48917E"/>
</linearGradient>
<linearGradient id="paint14_linear_109_4639" x1="301.2" y1="20.0981" x2="301.2" y2="870.87" gradientUnits="userSpaceOnUse">
<stop stop-color="#48917E"/>
<stop offset="1" stop-color="#48917E"/>
</linearGradient>
<linearGradient id="paint15_linear_109_4639" x1="282.846" y1="17.2852" x2="282.846" y2="839.203" gradientUnits="userSpaceOnUse">
<stop stop-color="#48917E"/>
<stop offset="1" stop-color="#48917E"/>
</linearGradient>
<linearGradient id="paint16_linear_109_4639" x1="264.481" y1="14.4634" x2="264.481" y2="807.558" gradientUnits="userSpaceOnUse">
<stop stop-color="#48917E"/>
<stop offset="1" stop-color="#48917E"/>
</linearGradient>
<linearGradient id="paint17_linear_109_4639" x1="246.13" y1="11.6108" x2="246.13" y2="775.929" gradientUnits="userSpaceOnUse">
<stop stop-color="#48917E"/>
<stop offset="1" stop-color="#48917E"/>
</linearGradient>
<linearGradient id="paint18_linear_109_4639" x1="227.765" y1="8.73877" x2="227.765" y2="744.307" gradientUnits="userSpaceOnUse">
<stop stop-color="#48917E"/>
<stop offset="1" stop-color="#48917E"/>
</linearGradient>
<linearGradient id="paint19_linear_109_4639" x1="209.41" y1="5.85254" x2="209.41" y2="712.718" gradientUnits="userSpaceOnUse">
<stop stop-color="#48917E"/>
<stop offset="1" stop-color="#48917E"/>
</linearGradient>
<linearGradient id="paint20_linear_109_4639" x1="191.046" y1="2.94189" x2="191.046" y2="681.149" gradientUnits="userSpaceOnUse">
<stop stop-color="#48917E"/>
<stop offset="1" stop-color="#48917E"/>
</linearGradient>
<linearGradient id="paint21_linear_109_4639" x1="172.695" y1="-0.00341797" x2="172.695" y2="649.596" gradientUnits="userSpaceOnUse">
<stop stop-color="#48917E"/>
<stop offset="1" stop-color="#48917E"/>
</linearGradient>
<clipPath id="clip0_109_4639">
<rect width="1341" height="1392" fill="white" transform="translate(-153)"/>
</clipPath>
</defs>
</svg>
