<svg width="756" height="1982" viewBox="0 0 756 1982" fill="none" xmlns="http://www.w3.org/2000/svg">
<g clip-path="url(#clip0_109_7384)">
<g opacity="0.8">
<path opacity="0.8" d="M220.216 749.373C225.009 744.992 230.937 742.07 237.363 740.933L1268.06 559.094C1277.09 557.496 1286.21 559.518 1293.75 564.792C1301.29 570.065 1306.34 577.946 1307.97 586.982L1493.85 1618.65C1495.95 1630.31 1491.99 1642.04 1483.27 1650.03C1478.48 1654.41 1472.55 1657.33 1466.13 1658.47L435.433 1840.31C426.399 1841.9 417.276 1839.88 409.738 1834.61C402.193 1829.34 397.15 1821.45 395.523 1812.42L209.656 780.747C207.555 769.092 211.503 757.365 220.216 749.373ZM1481.44 1647.98C1489.45 1640.63 1493.09 1629.83 1491.16 1619.12L1305.27 587.444C1303.78 579.128 1299.13 571.874 1292.2 567.03C1285.26 562.186 1276.87 560.327 1268.56 561.798L237.862 743.627C231.942 744.67 226.495 747.352 222.096 751.391C214.069 758.748 210.438 769.541 212.359 780.259L398.251 1811.92C399.75 1820.25 404.397 1827.48 411.333 1832.34C418.27 1837.19 426.663 1839.05 434.977 1837.59L1465.67 1655.75C1471.58 1654.71 1477.04 1652.02 1481.44 1647.98Z" fill="url(#paint0_linear_109_7384)"/>
<path opacity="0.8" d="M240.44 722.675C245.216 718.293 251.144 715.422 257.587 714.371L1264.51 549.911C1273.34 548.466 1282.22 550.557 1289.51 555.788C1296.8 561.018 1301.64 568.77 1303.11 577.618L1471.53 1585.44C1473.4 1596.66 1469.52 1607.95 1461.15 1615.64C1456.36 1620.01 1450.43 1622.9 1443.99 1623.95L437.064 1788.41C418.831 1791.39 401.507 1778.96 398.457 1760.71L230.042 752.872C228.165 741.647 232.044 730.349 240.44 722.675ZM1459.27 1613.59C1466.97 1606.55 1470.54 1596.18 1468.81 1585.87L1300.39 578.053C1299.04 569.944 1294.61 562.819 1287.92 558.018C1281.22 553.208 1273.07 551.298 1264.96 552.622L258.035 717.083C252.124 718.049 246.685 720.688 242.295 724.701C234.594 731.749 231.031 742.113 232.762 752.419L401.169 1760.25C403.977 1777 419.868 1788.42 436.598 1785.68L1443.52 1621.22C1449.44 1620.25 1454.88 1617.62 1459.27 1613.59Z" fill="url(#paint1_linear_109_7384)"/>
<path opacity="0.8" d="M260.639 695.967C265.416 691.585 271.352 688.757 277.804 687.8L1260.96 540.726C1278.79 538.061 1295.51 550.411 1298.25 568.244L1449.2 1552.22C1450.86 1563.02 1447.04 1573.87 1438.99 1581.24C1434.22 1585.62 1428.28 1588.45 1421.84 1589.41L438.686 1736.49C430.046 1737.78 421.413 1735.63 414.373 1730.42C407.325 1725.23 402.72 1717.6 401.393 1708.97L250.43 724.98C248.775 714.185 252.587 703.332 260.639 695.967ZM1437.11 1579.2C1444.48 1572.46 1447.98 1562.51 1446.47 1552.63L1295.52 568.654C1293.02 552.314 1277.69 541.012 1261.36 543.447L278.209 690.521C272.298 691.401 266.859 693.989 262.486 698.002C255.119 704.75 251.625 714.684 253.15 724.579L404.079 1708.55C405.294 1716.47 409.52 1723.44 415.968 1728.21C422.415 1732.98 430.328 1734.94 438.238 1733.76L1421.39 1586.69C1427.3 1585.81 1432.74 1583.22 1437.11 1579.2Z" fill="url(#paint2_linear_109_7384)"/>
<path opacity="0.8" d="M280.839 669.259C285.616 664.877 291.552 662.101 298.021 661.23L1257.39 531.534C1265.82 530.398 1274.21 532.609 1281 537.77C1287.79 542.932 1292.18 550.426 1293.35 558.87L1426.82 1519C1428.26 1529.38 1424.52 1539.78 1416.81 1546.84C1412.02 1551.21 1406.1 1554 1399.63 1554.87L440.241 1684.57C422.832 1686.91 406.683 1674.66 404.269 1657.24L270.826 697.097C269.378 686.731 273.121 676.325 280.839 669.259ZM1414.96 1544.82C1422 1538.37 1425.42 1528.85 1424.11 1519.38L1290.64 559.246C1289.56 551.531 1285.56 544.681 1279.35 539.966C1273.15 535.251 1265.48 533.229 1257.78 534.271L298.383 663.959C292.48 664.762 287.05 667.29 282.685 671.294C275.645 677.751 272.218 687.256 273.538 696.739L407.006 1656.87C409.222 1672.79 423.962 1684 439.87 1681.85L1399.26 1552.15C1405.17 1551.36 1410.59 1548.82 1414.96 1544.82Z" fill="url(#paint3_linear_109_7384)"/>
<path opacity="0.8" d="M301.029 642.544C305.814 638.171 311.758 635.438 318.228 634.653L1253.83 522.351C1262.07 521.361 1270.21 523.64 1276.75 528.767C1283.3 533.894 1287.45 541.259 1288.48 549.506L1404.47 1485.78C1405.7 1495.73 1402.04 1505.7 1394.66 1512.45C1389.89 1516.83 1383.93 1519.56 1377.46 1520.34L441.853 1632.66C433.616 1633.64 425.472 1631.37 418.93 1626.23C412.379 1621.1 408.213 1613.75 407.195 1605.51L291.204 669.216C289.979 659.278 293.645 649.31 301.029 642.544ZM1392.81 1510.43C1399.54 1504.26 1402.88 1495.17 1401.76 1486.11L1285.77 549.831C1284.84 542.313 1281.04 535.6 1275.07 530.937C1269.11 526.257 1261.68 524.184 1254.18 525.08L318.556 637.399C312.661 638.107 307.24 640.592 302.883 644.588C296.16 650.744 292.819 659.838 293.932 668.908L409.932 1605.19C410.864 1612.71 414.669 1619.41 420.627 1624.09C426.594 1628.77 434.018 1630.84 441.526 1629.94L1377.14 1517.63C1383.03 1516.91 1388.45 1514.42 1392.81 1510.43Z" fill="url(#paint4_linear_109_7384)"/>
<path opacity="0.8" d="M321.211 615.818C325.996 611.428 331.958 608.764 338.436 608.09L1250.28 513.157C1266.87 511.426 1281.82 523.535 1283.62 540.132L1382.14 1452.58C1383.18 1462.08 1379.57 1471.61 1372.53 1478.07C1367.74 1482.46 1361.79 1485.13 1355.31 1485.81L443.467 1580.72C435.427 1581.57 427.531 1579.21 421.238 1574.12C414.937 1569.02 410.985 1561.79 410.13 1553.75L311.6 641.331C310.572 631.815 314.161 622.284 321.211 615.818ZM1370.67 1476.05C1377.07 1470.18 1380.34 1461.52 1379.41 1452.87L1280.89 540.421C1279.26 525.327 1265.67 514.326 1250.58 515.895L338.721 610.827C332.835 611.441 327.422 613.866 323.074 617.853C316.668 623.727 313.396 632.391 314.328 641.042L412.85 1553.49C413.636 1560.81 417.227 1567.38 422.945 1572C428.671 1576.63 435.855 1578.77 443.148 1578L1355 1483.08C1360.9 1482.47 1366.32 1480.04 1370.67 1476.05Z" fill="url(#paint5_linear_109_7384)"/>
<path opacity="0.8" d="M341.401 589.104C346.186 584.713 352.148 582.1 358.652 581.521L1246.72 503.975C1254.56 503.293 1262.2 505.701 1268.26 510.759C1274.31 515.817 1278.03 522.933 1278.75 530.768L1359.8 1419.36C1360.64 1428.59 1357.21 1437.46 1350.39 1443.71C1345.6 1448.11 1339.64 1450.72 1333.13 1451.28L445.063 1528.83C428.881 1530.24 414.526 1518.22 413.039 1502.04L331.986 613.441C331.148 604.216 334.575 595.346 341.401 589.104ZM1348.52 1441.68C1354.7 1436.01 1357.81 1427.98 1357.05 1419.62L1276.01 531.015C1275.36 523.901 1271.98 517.463 1266.5 512.877C1261.01 508.283 1254.09 506.108 1246.97 506.729L358.902 584.258C353.008 584.778 347.603 587.143 343.264 591.121C337.081 596.789 333.972 604.845 334.741 613.194L415.785 1501.8C417.125 1516.48 430.14 1527.37 444.813 1526.09L1332.88 1448.55C1338.77 1448.03 1344.18 1445.66 1348.52 1441.68Z" fill="url(#paint6_linear_109_7384)"/>
<path opacity="0.8" d="M361.574 562.371C366.368 557.972 372.355 555.419 378.877 554.96L1243.16 494.791C1250.8 494.264 1258.2 496.74 1263.99 501.764C1269.8 506.796 1273.29 513.774 1273.85 521.412L1337.42 1386.15C1338.07 1394.94 1334.72 1403.39 1328.23 1409.34C1323.43 1413.73 1317.46 1416.3 1310.94 1416.76L446.634 1476.91C438.997 1477.45 431.591 1474.97 425.795 1469.94C420.009 1464.91 416.494 1457.93 415.94 1450.3L352.382 585.558C351.733 576.763 355.082 568.313 361.574 562.371ZM1326.39 1407.32C1332.26 1401.94 1335.28 1394.3 1334.7 1386.36L1271.13 521.607C1270.63 514.691 1267.47 508.39 1262.21 503.839C1256.96 499.296 1250.28 497.053 1243.37 497.537L379.076 557.697C373.181 558.114 367.777 560.427 363.437 564.405C357.563 569.782 354.539 577.425 355.119 585.363L418.686 1450.11C419.197 1457.02 422.367 1463.33 427.604 1467.88C432.842 1472.43 439.528 1474.66 446.435 1474.19L1310.74 1414.02C1316.64 1413.61 1322.06 1411.29 1326.39 1407.32Z" fill="url(#paint7_linear_109_7384)"/>
<path opacity="0.8" d="M381.747 535.638C386.49 531.29 392.649 528.72 399.093 528.39L1239.62 485.608C1247.06 485.226 1254.22 487.771 1259.77 492.769C1265.31 497.766 1268.6 504.616 1269 512.056L1315.1 1352.95C1315.56 1361.3 1312.29 1369.33 1306.12 1374.98C1301.38 1379.33 1295.22 1381.9 1288.78 1382.23L448.248 1425.01C440.817 1425.39 433.668 1422.85 428.104 1417.85C422.558 1412.85 419.275 1406 418.867 1398.56L372.778 557.659C372.317 549.309 375.59 541.28 381.747 535.638ZM1304.26 1372.95C1309.82 1367.85 1312.76 1360.61 1312.36 1353.09L1266.25 512.183C1265.88 505.472 1262.93 499.309 1257.92 494.801C1252.93 490.302 1246.48 488.006 1239.77 488.345L399.232 531.136C393.423 531.432 387.873 533.754 383.602 537.664C378.045 542.757 375.098 549.998 375.506 557.523L421.613 1398.43C421.986 1405.13 424.933 1411.3 429.939 1415.81C434.936 1420.31 441.382 1422.61 448.092 1422.27L1288.62 1379.48C1294.43 1379.19 1299.99 1376.87 1304.26 1372.95Z" fill="url(#paint8_linear_109_7384)"/>
<path opacity="0.8" d="M401.903 508.887C406.654 504.531 412.839 502.021 419.308 501.819L1236.06 476.423C1243.3 476.196 1250.21 478.801 1255.5 483.772C1260.8 488.727 1263.86 495.456 1264.11 502.69L1292.75 1319.75C1293.03 1327.68 1289.84 1335.28 1284 1340.64C1279.25 1344.99 1273.07 1347.5 1266.6 1347.7L449.843 1373.1C434.905 1373.56 422.317 1361.78 421.793 1346.83L393.155 529.775C392.876 521.846 396.071 514.237 401.903 508.887ZM1282.14 1338.6C1287.38 1333.79 1290.25 1326.95 1290.01 1319.83L1261.37 502.774C1261.14 496.27 1258.39 490.227 1253.63 485.77C1248.86 481.314 1242.66 478.967 1236.15 479.169L419.405 504.574C413.596 504.75 408.045 507.003 403.766 510.922C398.526 515.732 395.656 522.569 395.901 529.691L424.539 1346.75C425.002 1360.18 436.319 1370.77 449.739 1370.35L1266.5 1344.95C1272.31 1344.77 1277.86 1342.52 1282.14 1338.6Z" fill="url(#paint9_linear_109_7384)"/>
<path opacity="0.8" d="M422.067 482.128C426.835 477.755 433.038 475.313 439.525 475.249L1232.51 467.231C1247.05 467.086 1259.03 478.789 1259.23 493.317L1270.39 1286.53C1270.49 1294.02 1267.4 1301.22 1261.88 1306.28C1257.11 1310.65 1250.9 1313.1 1244.41 1313.17L451.423 1321.19C436.895 1321.34 424.9 1309.64 424.702 1295.1L413.551 501.875C413.451 494.384 416.553 487.196 422.067 482.128ZM1260.02 1304.25C1264.96 1299.73 1267.75 1293.28 1267.66 1286.57L1256.51 493.367C1256.32 480.349 1245.58 469.865 1232.57 469.994L439.569 478.004C433.76 478.06 428.201 480.253 423.93 484.163C418.982 488.699 416.206 495.133 416.305 501.852L427.457 1295.06C427.645 1308.08 438.387 1318.56 451.395 1318.43L1244.38 1310.41C1250.19 1310.36 1255.75 1308.16 1260.02 1304.25Z" fill="url(#paint10_linear_109_7384)"/>
<path opacity="0.8" d="M442.215 455.369C447.017 450.979 453.236 448.606 459.758 448.679L1228.97 458.047C1243.09 458.219 1254.48 469.853 1254.36 483.969L1248.05 1253.34C1247.99 1260.41 1244.97 1267.18 1239.78 1271.95C1234.98 1276.35 1228.75 1278.72 1222.23 1278.64L453.019 1269.27C438.904 1269.1 427.509 1257.47 427.629 1243.35L433.938 473.984C433.993 466.922 437.018 460.136 442.215 455.369ZM1237.91 1269.92C1242.56 1265.66 1245.24 1259.62 1245.3 1253.31L1251.63 483.941C1251.73 471.336 1241.55 460.955 1228.96 460.81L459.734 451.433C453.916 451.361 448.357 453.485 444.078 457.404C439.447 461.657 436.757 467.713 436.701 474.02L430.375 1243.39C430.271 1255.99 440.446 1266.37 453.06 1266.52L1222.27 1275.89C1228.08 1275.96 1233.63 1273.83 1237.91 1269.92Z" fill="url(#paint11_linear_109_7384)"/>
<path opacity="0.8" d="M462.353 428.602C467.181 424.186 473.426 421.891 479.974 422.127L1225.42 448.873C1232.06 449.117 1238.23 451.919 1242.77 456.787C1247.32 461.647 1249.69 467.981 1249.49 474.622L1225.7 1220.14C1225.49 1226.88 1222.63 1233.08 1217.68 1237.62C1212.85 1242.04 1206.59 1244.34 1200.05 1244.11L454.607 1217.35C440.911 1216.86 430.109 1205.31 430.546 1191.61L454.333 446.085C454.551 439.357 457.396 433.147 462.353 428.602ZM1215.82 1235.6C1220.23 1231.55 1222.77 1226.04 1222.96 1220.04L1246.74 474.526C1246.93 468.631 1244.81 462.992 1240.77 458.665C1236.74 454.337 1231.25 451.837 1225.35 451.627L479.898 424.864C474.063 424.654 468.513 426.701 464.216 430.637C459.817 434.676 457.272 440.192 457.087 446.181L433.301 1191.71C432.914 1203.89 442.514 1214.16 454.708 1214.61L1200.16 1241.35C1205.97 1241.57 1211.52 1239.52 1215.82 1235.6Z" fill="url(#paint12_linear_109_7384)"/>
<path opacity="0.8" d="M482.483 401.826C487.337 397.385 493.634 395.158 500.215 395.565L1221.88 439.689C1235.16 440.504 1245.37 451.975 1244.61 465.266L1203.36 1186.94C1202.99 1193.23 1200.25 1199.05 1195.6 1203.3C1190.75 1207.74 1184.45 1209.97 1177.88 1209.57L456.186 1165.44C442.902 1164.62 432.709 1153.15 433.464 1139.85L474.728 418.185C475.084 411.887 477.835 406.079 482.483 401.826ZM1193.74 1201.27C1197.85 1197.5 1200.29 1192.35 1200.61 1186.77L1241.87 465.093C1242.54 453.312 1233.5 443.146 1221.73 442.418L500.054 398.303C494.228 397.947 488.651 399.917 484.346 403.861C480.239 407.625 477.797 412.781 477.474 418.358L436.21 1140.03C435.54 1151.81 444.565 1161.97 456.355 1162.69L1178.03 1206.83C1183.86 1207.18 1189.43 1205.21 1193.74 1201.27Z" fill="url(#paint13_linear_109_7384)"/>
<path opacity="0.8" d="M502.597 375.032C507.425 370.616 513.919 368.415 520.432 368.994L1218.34 430.504C1224.59 431.057 1230.24 434.004 1234.28 438.795C1238.33 443.594 1240.25 449.671 1239.73 455.909L1180.99 1153.74C1180.5 1159.61 1177.84 1165.03 1173.52 1168.99C1168.71 1173.41 1162.2 1175.61 1155.67 1175.04L457.774 1113.52C444.894 1112.39 435.31 1100.98 436.383 1088.11L495.124 390.284C495.618 384.415 498.266 379.002 502.597 375.032ZM1171.66 1166.96C1175.49 1163.47 1177.84 1158.68 1178.27 1153.5L1236.99 455.675C1237.46 450.175 1235.75 444.811 1232.19 440.578C1228.62 436.337 1223.63 433.734 1218.12 433.25L520.202 371.732C514.444 371.221 508.714 373.174 504.46 377.067C500.635 380.565 498.296 385.343 497.853 390.526L439.12 1088.36C438.166 1099.72 446.634 1109.79 457.995 1110.79L1155.89 1172.31C1161.66 1172.81 1167.41 1170.86 1171.66 1166.96Z" fill="url(#paint14_linear_109_7384)"/>
<path opacity="0.8" d="M522.71 348.221C527.563 343.763 534.118 341.656 540.674 342.433L1214.81 421.329C1220.85 422.036 1226.25 425.052 1230.04 429.816C1233.82 434.581 1235.53 440.529 1234.85 446.569L1158.65 1120.56C1158.04 1126 1155.48 1131.02 1151.46 1134.7C1146.6 1139.15 1140.05 1141.27 1133.5 1140.5L459.353 1061.6C446.901 1060.15 437.91 1048.82 439.309 1036.36L515.511 362.375C516.134 356.944 518.688 351.917 522.71 348.221ZM1149.6 1132.67C1153.13 1129.43 1155.38 1125.01 1155.92 1120.23L1232.11 446.25C1232.71 440.947 1231.21 435.712 1227.88 431.523C1224.55 427.333 1219.8 424.678 1214.5 424.057L540.367 345.161C534.6 344.488 528.852 346.338 524.573 350.256C521.04 353.497 518.795 357.907 518.248 362.694L442.038 1036.67C440.801 1047.63 448.702 1057.59 459.669 1058.87L1133.8 1137.76C1139.56 1138.45 1145.32 1136.59 1149.6 1132.67Z" fill="url(#paint15_linear_109_7384)"/>
<path opacity="0.8" d="M542.805 321.411C547.719 316.909 554.317 314.897 560.916 315.871L1211.27 412.145C1223.31 413.929 1231.7 425.184 1229.96 437.222L1136.28 1087.35C1135.57 1092.36 1133.11 1097.01 1129.39 1100.41C1124.48 1104.91 1117.88 1106.92 1111.28 1105.95L460.932 1009.69C448.892 1007.91 440.501 996.653 442.227 984.624L535.906 334.475C536.632 329.456 539.084 324.824 542.805 321.411ZM1127.53 1098.39C1130.79 1095.41 1132.93 1091.34 1133.57 1086.96L1227.24 436.816C1228.76 426.28 1221.42 416.433 1210.86 414.865L560.514 318.591C554.739 317.738 548.957 319.501 544.66 323.437C541.401 326.421 539.267 330.479 538.627 334.88L444.956 985.02C443.435 995.557 450.778 1005.4 461.325 1006.96L1111.69 1103.24C1117.46 1104.1 1123.23 1102.33 1127.53 1098.39Z" fill="url(#paint16_linear_109_7384)"/>
<path opacity="0.8" d="M562.893 294.576C567.85 290.031 574.516 288.105 581.149 289.319L1207.73 402.97C1219.36 405.08 1227.14 416.258 1225.08 427.883L1113.93 1054.18C1113.11 1058.84 1110.83 1062.99 1107.36 1066.17C1102.4 1070.72 1095.74 1072.64 1089.1 1071.44L462.503 957.771C450.875 955.661 443.093 944.484 445.162 932.867L556.311 306.567C557.14 301.908 559.411 297.765 562.893 294.576ZM1105.5 1064.13C1108.53 1061.36 1110.51 1057.74 1111.23 1053.69L1222.38 427.392C1224.18 417.26 1217.4 407.525 1207.26 405.682L580.662 292.022C574.878 290.971 569.078 292.649 564.756 296.61C561.729 299.38 559.749 302.991 559.031 307.058L447.874 933.349C446.07 943.482 452.855 953.217 462.999 955.06L1089.59 1068.72C1095.36 1069.77 1101.18 1068.09 1105.5 1064.13Z" fill="url(#paint17_linear_109_7384)"/>
<path opacity="0.8" d="M582.954 267.731C587.91 263.186 594.8 261.329 601.382 262.766L1204.2 393.795C1215.42 396.231 1222.59 407.331 1220.19 418.536L1091.57 1020.98C1090.66 1025.22 1088.51 1029 1085.33 1031.91C1080.37 1036.45 1073.48 1038.31 1066.9 1036.87L464.082 905.841C452.873 903.397 445.693 892.306 448.088 881.101L576.705 278.65C577.621 274.42 579.772 270.638 582.954 267.731ZM1083.47 1029.88C1086.23 1027.36 1088.1 1024.08 1088.89 1020.39L1217.52 417.95C1219.6 408.23 1213.36 398.598 1203.64 396.489L600.817 265.443C595.102 264.204 589.122 265.821 584.826 269.757C582.073 272.287 580.204 275.563 579.417 279.235L450.783 881.686C448.712 891.398 454.931 901.03 464.663 903.147L1067.48 1034.19C1073.19 1035.44 1079.17 1033.82 1083.47 1029.88Z" fill="url(#paint18_linear_109_7384)"/>
<path opacity="0.8" d="M603.006 240.86C608.049 236.247 614.998 234.501 621.623 236.204L1200.68 384.628C1211.47 387.399 1218.04 398.421 1215.31 409.205L1069.2 987.807C1068.23 991.625 1066.2 995.047 1063.31 997.697C1058.27 1002.31 1051.31 1004.05 1044.7 1002.35L465.652 853.92C454.864 851.158 448.292 840.128 451.022 829.343L597.118 250.733C598.076 246.924 600.125 243.501 603.006 240.86ZM1061.46 995.653C1063.95 993.372 1065.71 990.422 1066.54 987.119L1212.64 408.517C1214.99 399.199 1209.33 389.68 1200.01 387.288L620.956 238.864C615.231 237.393 609.209 238.899 604.861 242.886C602.365 245.176 600.608 248.118 599.778 251.421L453.683 830.032C451.338 839.349 456.999 848.869 466.328 851.252L1045.38 999.676C1051.1 1001.15 1057.11 999.64 1061.46 995.653Z" fill="url(#paint19_linear_109_7384)"/>
<path opacity="0.8" d="M623.034 213.964C628.085 209.342 635.292 207.682 641.866 209.643L1197.15 375.462C1207.52 378.558 1213.48 389.511 1210.42 399.874L1046.84 954.628C1045.83 958.042 1043.93 961.095 1041.32 963.479C1036.27 968.101 1029.06 969.752 1022.49 967.8L467.214 801.99C456.846 798.894 450.893 787.95 453.949 777.577L617.522 222.824C618.532 219.41 620.444 216.348 623.034 213.964ZM1039.47 961.453C1041.71 959.404 1043.34 956.77 1044.21 953.845L1207.78 399.075C1210.41 390.161 1205.29 380.753 1196.37 378.079L641.095 212.285C635.353 210.574 629.305 211.969 624.897 215.999C622.659 218.048 621.022 220.681 620.148 223.615L456.584 778.377C453.964 787.282 459.076 796.699 467.993 799.356L1023.27 965.166C1029.01 966.878 1035.06 965.483 1039.47 961.453Z" fill="url(#paint20_linear_109_7384)"/>
<path opacity="0.8" d="M643.053 187.042C648.198 182.326 655.508 180.82 662.117 183.09L1193.64 366.287C1203.58 369.717 1208.92 380.592 1205.54 390.535L1024.5 921.457C1023.47 924.459 1021.69 927.178 1019.38 929.305C1014.23 934.021 1006.92 935.543 1000.31 933.248L468.785 750.051C458.838 746.621 453.493 735.754 456.893 725.811L637.926 194.898C638.954 191.896 640.729 189.177 643.053 187.042ZM1017.51 927.261C1019.5 925.443 1021 923.11 1021.88 920.537L1202.92 389.632C1205.82 381.131 1201.25 371.826 1192.74 368.886L661.234 185.707C655.578 183.755 649.324 185.047 644.925 189.085C642.935 190.903 641.418 193.228 640.544 195.801L459.494 726.714C456.591 735.216 461.162 744.52 469.676 747.46L1001.18 930.657C1006.84 932.6 1013.09 931.3 1017.51 927.261Z" fill="url(#paint21_linear_109_7384)"/>
</g>
</g>
<defs>
<linearGradient id="paint0_linear_109_7384" x1="1390.58" y1="660.863" x2="312.904" y2="1738.54" gradientUnits="userSpaceOnUse">
<stop stop-color="#48917E"/>
<stop offset="1" stop-color="#48917E"/>
</linearGradient>
<linearGradient id="paint1_linear_109_7384" x1="1377.16" y1="642.789" x2="324.427" y2="1695.52" gradientUnits="userSpaceOnUse">
<stop stop-color="#48917E"/>
<stop offset="1" stop-color="#48917E"/>
</linearGradient>
<linearGradient id="paint2_linear_109_7384" x1="1363.7" y1="624.716" x2="335.918" y2="1652.5" gradientUnits="userSpaceOnUse">
<stop stop-color="#48917E"/>
<stop offset="1" stop-color="#48917E"/>
</linearGradient>
<linearGradient id="paint3_linear_109_7384" x1="1350.26" y1="606.611" x2="347.384" y2="1609.49" gradientUnits="userSpaceOnUse">
<stop stop-color="#48917E"/>
<stop offset="1" stop-color="#48917E"/>
</linearGradient>
<linearGradient id="paint4_linear_109_7384" x1="1336.83" y1="588.518" x2="358.857" y2="1566.49" gradientUnits="userSpaceOnUse">
<stop stop-color="#48917E"/>
<stop offset="1" stop-color="#48917E"/>
</linearGradient>
<linearGradient id="paint5_linear_109_7384" x1="1323.39" y1="570.426" x2="370.345" y2="1523.47" gradientUnits="userSpaceOnUse">
<stop stop-color="#48917E"/>
<stop offset="1" stop-color="#48917E"/>
</linearGradient>
<linearGradient id="paint6_linear_109_7384" x1="1309.98" y1="552.318" x2="381.822" y2="1480.48" gradientUnits="userSpaceOnUse">
<stop stop-color="#48917E"/>
<stop offset="1" stop-color="#48917E"/>
</linearGradient>
<linearGradient id="paint7_linear_109_7384" x1="1296.55" y1="534.21" x2="393.253" y2="1437.5" gradientUnits="userSpaceOnUse">
<stop stop-color="#48917E"/>
<stop offset="1" stop-color="#48917E"/>
</linearGradient>
<linearGradient id="paint8_linear_109_7384" x1="1283.15" y1="516.096" x2="404.721" y2="1394.52" gradientUnits="userSpaceOnUse">
<stop stop-color="#48917E"/>
<stop offset="1" stop-color="#48917E"/>
</linearGradient>
<linearGradient id="paint9_linear_109_7384" x1="1269.73" y1="497.98" x2="416.181" y2="1351.53" gradientUnits="userSpaceOnUse">
<stop stop-color="#48917E"/>
<stop offset="1" stop-color="#48917E"/>
</linearGradient>
<linearGradient id="paint10_linear_109_7384" x1="1256.33" y1="479.85" x2="427.606" y2="1308.57" gradientUnits="userSpaceOnUse">
<stop stop-color="#48917E"/>
<stop offset="1" stop-color="#48917E"/>
</linearGradient>
<linearGradient id="paint11_linear_109_7384" x1="1242.94" y1="461.713" x2="439.049" y2="1265.61" gradientUnits="userSpaceOnUse">
<stop stop-color="#48917E"/>
<stop offset="1" stop-color="#48917E"/>
</linearGradient>
<linearGradient id="paint12_linear_109_7384" x1="1229.57" y1="443.562" x2="450.475" y2="1222.65" gradientUnits="userSpaceOnUse">
<stop stop-color="#48917E"/>
<stop offset="1" stop-color="#48917E"/>
</linearGradient>
<linearGradient id="paint13_linear_109_7384" x1="1216.19" y1="425.417" x2="461.89" y2="1179.72" gradientUnits="userSpaceOnUse">
<stop stop-color="#48917E"/>
<stop offset="1" stop-color="#48917E"/>
</linearGradient>
<linearGradient id="paint14_linear_109_7384" x1="1202.84" y1="407.23" x2="473.286" y2="1136.78" gradientUnits="userSpaceOnUse">
<stop stop-color="#48917E"/>
<stop offset="1" stop-color="#48917E"/>
</linearGradient>
<linearGradient id="paint15_linear_109_7384" x1="1189.49" y1="389.057" x2="484.681" y2="1093.87" gradientUnits="userSpaceOnUse">
<stop stop-color="#48917E"/>
<stop offset="1" stop-color="#48917E"/>
</linearGradient>
<linearGradient id="paint16_linear_109_7384" x1="1176.14" y1="370.869" x2="496.049" y2="1050.96" gradientUnits="userSpaceOnUse">
<stop stop-color="#48917E"/>
<stop offset="1" stop-color="#48917E"/>
</linearGradient>
<linearGradient id="paint17_linear_109_7384" x1="1162.83" y1="352.667" x2="507.414" y2="1008.08" gradientUnits="userSpaceOnUse">
<stop stop-color="#48917E"/>
<stop offset="1" stop-color="#48917E"/>
</linearGradient>
<linearGradient id="paint18_linear_109_7384" x1="1149.52" y1="334.435" x2="518.761" y2="965.198" gradientUnits="userSpaceOnUse">
<stop stop-color="#48917E"/>
<stop offset="1" stop-color="#48917E"/>
</linearGradient>
<linearGradient id="paint19_linear_109_7384" x1="1136.24" y1="316.199" x2="530.089" y2="922.349" gradientUnits="userSpaceOnUse">
<stop stop-color="#48917E"/>
<stop offset="1" stop-color="#48917E"/>
</linearGradient>
<linearGradient id="paint20_linear_109_7384" x1="1122.97" y1="297.935" x2="541.392" y2="879.51" gradientUnits="userSpaceOnUse">
<stop stop-color="#48917E"/>
<stop offset="1" stop-color="#48917E"/>
</linearGradient>
<linearGradient id="paint21_linear_109_7384" x1="1109.74" y1="279.653" x2="552.693" y2="836.695" gradientUnits="userSpaceOnUse">
<stop stop-color="#48917E"/>
<stop offset="1" stop-color="#48917E"/>
</linearGradient>
<clipPath id="clip0_109_7384">
<rect width="1628.38" height="1173.91" fill="white" transform="translate(830.078) rotate(45)"/>
</clipPath>
</defs>
</svg>
