<svg width="295" height="679" viewBox="0 0 295 679" fill="none" xmlns="http://www.w3.org/2000/svg">
<g clip-path="url(#clip0_109_5820)">
<g opacity="0.8">
<path opacity="0.8" d="M107.987 -41.4199C108.747 -37.9729 108.511 -34.389 107.3 -31.0553L-87.1963 503.475C-88.8989 508.162 -92.3299 511.906 -96.8602 514.021C-101.391 516.135 -106.472 516.371 -111.168 514.681L-647.258 321.823C-653.315 319.645 -657.763 314.594 -659.151 308.32C-659.91 304.873 -659.675 301.289 -658.464 297.955L-463.967 -236.575C-462.265 -241.262 -458.834 -245.006 -454.303 -247.121C-449.775 -249.242 -444.691 -249.471 -439.996 -247.782L96.0902 -54.9154C102.146 -52.7375 106.593 -47.6924 107.987 -41.4199ZM-657.689 308.01C-656.41 313.781 -652.315 318.429 -646.744 320.43L-110.653 513.288C-106.334 514.846 -101.657 514.63 -97.4922 512.682C-93.3273 510.733 -90.1715 507.288 -88.6067 502.98L105.896 -31.5525C107.014 -34.6224 107.232 -37.915 106.526 -41.0831C105.245 -46.8603 101.152 -51.5021 95.5851 -53.5109L-440.504 -246.363C-444.829 -247.92 -449.498 -247.699 -453.671 -245.755C-457.836 -243.807 -460.992 -240.361 -462.563 -236.051L-657.059 298.479C-658.179 301.543 -658.395 304.842 -657.689 308.01Z" fill="#DA4067"/>
<path opacity="0.8" d="M115.058 -24.6459C115.822 -21.2069 115.562 -17.637 114.306 -14.3186L-81.9113 504.304C-83.6307 508.852 -87.0286 512.464 -91.471 514.473C-95.9134 516.482 -100.876 516.652 -105.441 514.941L-625.559 320.341C-631.353 318.175 -635.61 313.277 -636.952 307.25C-637.71 303.809 -637.458 300.235 -636.202 296.916L-439.984 -221.706C-436.434 -231.098 -425.873 -235.872 -416.457 -232.35L103.67 -37.7455C109.463 -35.5791 113.727 -30.6828 115.058 -24.6459ZM-635.481 306.924C-634.256 312.464 -630.347 316.957 -625.024 318.949L-104.907 513.543C-100.722 515.11 -96.1643 514.96 -92.0872 513.117C-88.0039 511.272 -84.8892 507.954 -83.3094 503.778L112.908 -14.8446C114.06 -17.8894 114.296 -21.1664 113.6 -24.3235C112.375 -29.8635 108.466 -34.3565 103.144 -36.3423L-416.976 -230.948C-425.624 -234.179 -435.314 -229.801 -438.574 -221.183L-634.791 297.439C-635.943 300.484 -636.185 303.762 -635.481 306.924Z" fill="#DA4067"/>
<path opacity="0.8" d="M122.139 -7.88091C122.904 -4.44199 122.621 -0.879634 121.318 2.41723L-76.6217 505.125C-80.212 514.241 -90.5694 518.756 -99.7074 515.2L-603.854 318.859C-609.391 316.706 -613.457 311.961 -614.742 306.171C-615.506 302.732 -615.224 299.17 -613.927 295.875L-415.987 -206.833C-414.246 -211.25 -410.888 -214.729 -406.525 -216.628C-402.164 -218.534 -397.325 -218.629 -392.901 -216.908L111.258 -20.5703C116.789 -18.4155 120.861 -13.6726 122.139 -7.88091ZM-613.273 305.839C-612.099 311.14 -608.371 315.491 -603.305 317.463L-99.159 513.804C-90.7893 517.068 -81.3031 512.923 -78.0121 504.576L119.928 1.86865C121.12 -1.15288 121.38 -4.41588 120.68 -7.56489C119.505 -12.8659 115.779 -17.2102 110.708 -19.1811L-393.434 -215.53C-397.492 -217.111 -401.922 -217.016 -405.917 -215.276C-409.913 -213.537 -412.986 -210.346 -414.581 -206.302L-612.521 296.405C-613.713 299.427 -613.973 302.69 -613.273 305.839Z" fill="#DA4067"/>
<path opacity="0.8" d="M129.221 8.88413C129.985 12.323 129.679 15.8714 128.331 19.153L-71.3256 505.944C-73.083 510.223 -76.402 513.568 -80.6768 515.362C-84.9515 517.156 -89.6716 517.185 -93.9647 515.443L-582.141 317.354C-587.415 315.212 -591.296 310.623 -592.522 305.076C-593.28 301.636 -592.98 298.089 -591.632 294.807L-391.971 -191.992C-388.346 -200.824 -378.189 -205.094 -369.334 -201.497L118.839 -3.39337C124.112 -1.25804 127.993 3.33144 129.221 8.88413ZM-591.071 304.756C-589.945 309.824 -586.396 314.018 -581.581 315.975L-93.4047 514.064C-89.4807 515.653 -85.1688 515.631 -81.2629 513.991C-77.357 512.35 -74.3229 509.292 -72.7195 505.383L126.948 18.5819C128.174 15.5854 128.46 12.3427 127.762 9.20009C126.636 4.13171 123.093 -0.0638336 118.271 -2.01981L-369.905 -200.109C-378 -203.392 -387.28 -199.499 -390.59 -191.427L-590.251 295.372C-591.484 298.37 -591.763 301.611 -591.071 304.756Z" fill="#DA4067"/>
<path opacity="0.8" d="M136.308 25.6459C137.066 29.0865 136.737 32.6273 135.349 35.8856L-66.0366 506.764C-67.809 510.91 -71.095 514.124 -75.2835 515.806C-79.4767 517.496 -84.0731 517.451 -88.2336 515.693L-560.431 315.862C-565.448 313.739 -569.143 309.305 -570.32 303.998C-571.084 300.559 -570.749 297.016 -569.36 293.758L-367.976 -177.127C-366.204 -181.273 -362.918 -184.487 -358.723 -186.17C-354.53 -187.86 -349.935 -187.822 -345.781 -186.063L126.425 13.774C131.435 15.8979 135.13 20.3322 136.308 25.6459ZM-568.862 303.675C-567.789 308.519 -564.417 312.563 -559.847 314.497L-87.6495 514.329C-83.8581 515.934 -79.6668 515.97 -75.8505 514.429C-72.0261 512.893 -69.0332 509.962 -67.4148 506.185L133.967 35.2938C135.236 32.3269 135.539 29.0999 134.843 25.9636C133.772 21.1261 130.4 17.0828 125.828 15.1417L-346.376 -184.689C-350.168 -186.293 -354.357 -186.323 -358.175 -184.789C-361.999 -183.252 -364.992 -180.321 -366.611 -176.544L-567.995 294.341C-569.255 297.312 -569.559 300.539 -568.862 303.675Z" fill="#DA4067"/>
<path opacity="0.8" d="M143.403 42.4075C144.169 45.8527 143.803 49.383 142.36 52.6151L-60.745 507.592C-64.4372 515.868 -74.2005 519.617 -82.4999 515.952L-538.734 314.374C-543.49 312.278 -546.996 307.991 -548.122 302.922C-548.888 299.477 -548.529 295.949 -547.085 292.716L-343.972 -162.255C-342.185 -166.269 -338.93 -169.345 -334.823 -170.923C-330.71 -172.503 -326.234 -172.399 -322.217 -170.616L134.006 30.9509C138.765 33.0535 142.275 37.3327 143.403 42.4075ZM-546.666 302.594C-545.642 307.205 -542.453 311.099 -538.129 313.011L-81.895 514.589C-74.347 517.923 -65.476 514.516 -62.1155 506.99L140.994 52.0053C142.304 49.0681 142.634 45.8615 141.939 42.7316C140.915 38.1203 137.726 34.2257 133.401 32.3139L-322.832 -169.264C-326.491 -170.883 -330.562 -170.98 -334.29 -169.544C-338.025 -168.107 -340.985 -165.308 -342.605 -161.666L-545.716 293.312C-547.033 296.251 -547.361 299.464 -546.666 302.594Z" fill="#DA4067"/>
<path opacity="0.8" d="M150.49 59.1699C151.256 62.6152 150.866 66.1314 149.372 69.35L-55.4559 508.412C-57.2663 512.288 -60.4752 515.229 -64.5007 516.704C-68.5262 518.178 -72.8864 517.995 -76.7689 516.204L-517.03 312.884C-521.6 310.772 -524.844 306.749 -525.934 301.842C-526.701 298.39 -526.311 294.874 -524.808 291.66L-319.981 -147.402C-316.249 -155.403 -306.689 -158.892 -298.668 -155.194L141.594 48.1253C146.163 50.2375 149.407 54.2607 150.49 59.1699ZM-524.471 301.511C-523.484 305.961 -520.545 309.609 -516.405 311.523L-76.1414 514.848C-72.6169 516.476 -68.6669 516.633 -65.0201 515.301C-61.3668 513.967 -58.4608 511.298 -56.8205 507.781L148.015 68.7241C149.372 65.8084 149.728 62.6222 149.034 59.4986C148.047 55.0483 145.1 51.3957 140.962 49.4888L-299.302 -153.837C-306.577 -157.196 -315.239 -154.029 -318.624 -146.776L-523.452 292.286C-524.811 295.195 -525.165 298.388 -524.471 301.511Z" fill="#DA4067"/>
<path opacity="0.8" d="M157.591 75.9295C158.359 79.3811 157.934 82.8932 156.378 86.0873L-50.1661 509.233C-51.9932 512.97 -55.1691 515.78 -59.1083 517.142C-63.054 518.506 -67.2888 518.256 -71.0341 516.442L-495.317 311.379C-499.634 309.295 -502.694 305.42 -503.733 300.752C-504.495 297.298 -504.082 293.79 -502.526 290.595L-295.969 -132.553C-294.15 -136.296 -290.968 -139.107 -287.029 -140.469C-283.088 -141.825 -278.848 -141.583 -275.103 -139.769L149.175 65.302C153.492 67.3865 156.559 71.2592 157.591 75.9295ZM-502.282 300.431C-501.348 304.657 -498.572 308.157 -494.678 310.041L-70.387 515.108C-66.9952 516.751 -63.1706 516.975 -59.6006 515.739C-56.0369 514.504 -53.1639 511.967 -51.515 508.584L155.035 85.4371C156.441 82.5494 156.821 79.3771 156.127 76.2536C155.193 72.0277 152.417 68.5274 148.524 66.6434L-275.761 -138.425C-279.151 -140.062 -282.982 -140.284 -286.548 -139.056C-290.113 -137.828 -292.978 -135.286 -294.635 -131.908L-501.183 291.246C-502.596 294.135 -502.974 297.314 -502.282 300.431Z" fill="#DA4067"/>
<path opacity="0.8" d="M164.691 92.6887C165.449 96.1022 164.985 99.6996 163.389 102.822L-44.8819 510.061C-46.724 513.666 -49.8668 516.344 -53.7263 517.597C-57.5857 518.849 -61.7016 518.533 -65.3143 516.703L-473.627 309.893C-477.682 307.841 -480.572 304.118 -481.556 299.681C-482.314 296.267 -481.85 292.67 -480.254 289.547L-271.983 -117.692C-270.139 -121.291 -267.003 -123.967 -263.138 -125.227C-259.279 -126.48 -255.163 -126.163 -251.55 -124.334L156.764 82.4829C160.819 84.5352 163.709 88.2574 164.691 92.6887ZM-480.092 299.357C-479.205 303.356 -476.598 306.711 -472.945 308.564L-64.6255 515.372C-61.368 517.024 -57.6641 517.307 -54.1819 516.177C-50.7062 515.047 -47.8743 512.637 -46.2104 509.387L162.059 102.142C163.498 99.3269 163.913 96.0837 163.234 93.011C162.346 89.0114 159.739 85.6569 156.086 83.804L-252.233 -123.005C-255.489 -124.65 -259.194 -124.94 -262.676 -123.809C-266.152 -122.68 -268.984 -120.27 -270.648 -117.019L-478.919 290.22C-480.358 293.034 -480.78 296.279 -480.092 299.357Z" fill="#DA4067"/>
<path opacity="0.8" d="M171.805 109.445C172.564 112.865 172.065 116.458 170.402 119.558L-39.5918 510.882C-41.4507 514.349 -44.5541 516.893 -48.3337 518.035C-52.1053 519.182 -56.1039 518.793 -59.5775 516.947L-451.925 308.397C-455.733 306.374 -458.444 302.809 -459.379 298.604C-460.138 295.184 -459.639 291.591 -457.976 288.491L-247.982 -102.834C-244.14 -109.991 -235.175 -112.714 -227.997 -108.898L164.351 99.6515C168.158 101.674 170.871 105.246 171.805 109.445ZM-457.915 298.28C-457.075 302.053 -454.637 305.262 -451.218 307.082L-58.8709 515.632C-55.7477 517.292 -52.1563 517.64 -48.7639 516.608C-45.3713 515.577 -42.5806 513.293 -40.908 510.177L169.079 118.855C170.575 116.073 171.023 112.848 170.341 109.769C169.501 105.996 167.063 102.787 163.644 100.967L-228.703 -107.583C-235.15 -111.014 -243.212 -108.567 -246.661 -102.137L-456.653 289.194C-458.149 291.976 -458.597 295.201 -457.915 298.28Z" fill="#DA4067"/>
<path opacity="0.8" d="M178.92 126.208C179.683 129.64 179.147 133.223 177.414 136.294L-34.3006 511.71C-38.1823 518.591 -46.9457 521.048 -53.8395 517.198L-430.216 306.9C-433.769 304.911 -436.316 301.5 -437.197 297.526C-437.959 294.093 -437.425 290.504 -435.692 287.433L-223.977 -87.9831C-220.102 -94.8623 -211.334 -97.3277 -204.438 -93.471L171.94 116.833C175.493 118.822 178.034 122.235 178.92 126.208ZM-435.739 297.203C-434.95 300.758 -432.675 303.82 -429.492 305.601L-53.1215 515.9C-46.9433 519.348 -39.0898 517.142 -35.6155 510.984L176.106 135.566C177.658 132.817 178.136 129.604 177.456 126.532C176.666 122.97 174.392 119.915 171.203 118.136L-205.168 -92.1634C-211.346 -95.6119 -219.199 -93.4052 -222.674 -87.2475L-434.388 288.169C-435.94 290.918 -436.419 294.131 -435.739 297.203Z" fill="#DA4067"/>
<path opacity="0.8" d="M186.04 142.962C186.802 146.415 186.228 149.987 184.422 153.037L-29.0156 512.539C-32.9325 519.136 -41.5048 521.337 -48.116 517.445L-408.522 305.4C-411.831 303.454 -414.201 300.193 -415.033 296.452C-415.801 293 -415.223 289.42 -413.415 286.377L-199.977 -73.125C-196.06 -79.722 -187.488 -81.9234 -180.877 -78.0314L179.528 134.008C182.837 135.953 185.208 139.22 186.04 142.962ZM-413.569 296.128C-412.83 299.471 -410.713 302.377 -407.759 304.117L-47.3592 516.164C-41.4544 519.638 -33.8034 517.67 -30.3118 511.78L183.132 152.277C184.747 149.559 185.258 146.365 184.576 143.286C183.833 139.951 181.713 137.038 178.76 135.298L-181.64 -76.7488C-187.545 -80.2228 -195.196 -78.2546 -198.692 -72.3572L-412.129 287.144C-413.74 289.855 -414.25 293.049 -413.569 296.128Z" fill="#DA4067"/>
<path opacity="0.8" d="M193.166 159.714C193.932 163.186 193.316 166.75 191.425 169.767L-23.7329 513.361C-25.6529 516.42 -28.6461 518.56 -32.1719 519.375C-35.6959 520.196 -39.3219 519.591 -42.393 517.692L-386.821 303.903C-389.934 301.974 -392.078 298.946 -392.87 295.378C-393.637 291.905 -393.022 288.336 -391.131 285.318L-175.971 -58.2689C-172.019 -64.5819 -163.645 -66.5257 -157.318 -62.5985L187.117 151.188C190.224 153.119 192.374 156.146 193.166 159.714ZM-391.412 295.055C-390.705 298.23 -388.802 300.92 -386.032 302.641L-41.5993 516.421C-38.8773 518.114 -35.6462 518.647 -32.5127 517.924C-29.3793 517.2 -26.7119 515.298 -25.0088 512.577L190.158 168.988C191.842 166.298 192.387 163.13 191.702 160.038C190.996 156.87 189.092 154.173 186.323 152.459L-158.111 -61.3282C-163.741 -64.8212 -171.183 -63.0933 -174.707 -57.4752L-389.865 286.118C-391.546 288.793 -392.089 291.968 -391.412 295.055Z" fill="#DA4067"/>
<path opacity="0.8" d="M200.299 176.465C201.07 179.957 200.407 183.525 198.427 186.513L-18.4479 514.19C-22.4414 520.22 -30.6124 521.905 -36.6631 517.938L-365.125 302.409C-367.987 300.529 -369.979 297.658 -370.718 294.314C-371.489 290.823 -370.826 287.254 -368.852 284.268L-151.966 -43.4185C-147.973 -49.4492 -139.8 -51.1273 -133.75 -47.1602L194.706 168.37C197.574 170.249 199.56 173.122 200.299 176.465ZM-369.254 293.99C-368.596 296.953 -366.835 299.497 -364.298 301.164L-35.8352 516.692C-30.4724 520.209 -23.2329 518.72 -19.6907 513.376L197.182 185.693C198.933 183.047 199.521 179.887 198.834 176.789C198.179 173.833 196.416 171.282 193.879 169.615L-134.577 -45.9148C-139.94 -49.4316 -147.173 -47.9439 -150.72 -42.5924L-367.601 285.086C-369.352 287.732 -369.94 290.892 -369.254 293.99Z" fill="#DA4067"/>
<path opacity="0.8" d="M207.444 193.213C208.21 196.685 207.482 200.34 205.439 203.248L-13.1628 515.019C-15.1208 517.809 -18.045 519.67 -21.3967 520.268C-24.7547 520.868 -28.1381 520.123 -30.933 518.184L-343.419 300.906C-346.047 299.079 -347.877 296.355 -348.567 293.244C-349.338 289.78 -348.604 286.117 -346.563 283.203L-127.96 -28.5616C-123.927 -34.3163 -115.956 -35.7288 -110.19 -31.7265L202.296 185.551C204.924 187.378 206.752 190.096 207.444 193.213ZM-347.109 292.922C-346.502 295.673 -344.887 298.079 -342.57 299.689L-30.0792 516.959C-27.6178 518.674 -24.6281 519.326 -21.6674 518.799C-18.7004 518.27 -16.1199 516.63 -14.395 514.168L204.213 202.396C206.018 199.825 206.656 196.597 205.98 193.537C205.373 190.786 203.759 188.387 201.44 186.77L-111.051 -30.5061C-116.139 -34.0421 -123.176 -32.7911 -126.736 -27.716L-345.339 284.048C-347.142 286.626 -347.785 289.862 -347.109 292.922Z" fill="#DA4067"/>
<path opacity="0.8" d="M214.598 209.965C215.377 213.461 214.588 217.119 212.441 219.994L-7.88395 515.849C-9.85868 518.501 -12.7451 520.223 -16.017 520.71C-19.2888 521.198 -22.5532 520.387 -25.2108 518.425L-321.731 299.407C-324.124 297.64 -325.796 295.072 -326.435 292.179C-327.208 288.681 -326.425 285.026 -324.284 282.153L-103.955 -13.7113C-99.8846 -19.1757 -92.1114 -20.3306 -86.6278 -16.2866L209.892 202.731C212.279 204.5 213.951 207.068 214.598 209.965ZM-324.971 291.855C-324.405 294.399 -322.938 296.66 -320.835 298.212L-24.3167 517.223C-21.9832 518.945 -19.1124 519.663 -16.235 519.233C-13.3576 518.804 -10.8183 517.291 -9.08472 514.963L211.24 219.108C213.124 216.576 213.815 213.368 213.134 210.289C212.568 207.745 211.103 205.491 208.998 203.933L-87.5156 -15.0866C-92.3365 -18.6463 -99.1709 -17.6338 -102.752 -12.819L-323.077 283.037C-324.962 285.562 -325.652 288.776 -324.971 291.855Z" fill="#DA4067"/>
<path opacity="0.8" d="M221.755 226.709C222.539 230.245 221.693 233.897 219.441 236.738L-2.59946 516.678C-6.71095 521.86 -14.2885 522.751 -19.4831 518.664L-300.025 297.903C-302.188 296.204 -303.71 293.787 -304.297 291.112C-305.081 287.576 -304.235 283.924 -301.983 281.083L-79.9504 1.13849C-75.8388 -4.04356 -68.2613 -4.93447 -63.0684 -0.853493L217.481 219.912C219.646 221.617 221.16 224.03 221.755 226.709ZM-302.841 290.784C-302.322 293.128 -300.991 295.242 -299.101 296.735L-18.5532 517.493C-14.0073 521.072 -7.37717 520.292 -3.77049 515.75L218.27 235.81C220.241 233.324 220.983 230.123 220.298 227.031C219.779 224.687 218.449 222.58 216.551 221.082L-63.9966 0.323138C-68.5425 -3.2556 -75.1727 -2.47529 -78.773 2.06485L-300.818 282.013C-302.791 284.493 -303.526 287.692 -302.841 290.784Z" fill="#DA4067"/>
<path opacity="0.8" d="M228.927 243.456C229.719 247.024 228.815 250.685 226.441 253.477L2.67867 517.509C-1.47431 522.408 -8.8497 523.034 -13.7617 518.905L-278.339 296.398C-280.307 294.742 -281.64 292.547 -282.193 290.048C-282.987 286.474 -282.08 282.819 -279.714 280.022L-55.9396 15.9871C-51.7866 11.0873 -44.4112 10.4621 -39.5056 14.5928L225.072 237.099C227.039 238.756 228.372 240.95 228.927 243.456ZM-280.729 289.724C-280.248 291.901 -279.085 293.821 -277.374 295.259L-12.7961 517.766C-8.51707 521.368 -2.09121 520.82 1.53267 516.547L225.301 252.513C227.367 250.076 228.153 246.891 227.463 243.78C226.982 241.603 225.821 239.689 224.102 238.246L-40.4695 15.7381C-44.7485 12.1355 -51.1744 12.6837 -54.7983 16.9573L-278.567 280.99C-280.628 283.419 -281.419 286.613 -280.729 289.724Z" fill="#DA4067"/>
<path opacity="0.8" d="M236.111 260.193C236.903 263.761 235.906 267.508 233.44 270.216L7.95746 518.339C3.76299 522.956 -3.41032 523.316 -8.03326 519.144L-256.632 294.894C-258.381 293.315 -259.577 291.275 -260.08 288.988C-260.872 285.42 -259.875 281.672 -257.409 278.965L-31.9265 30.8416C-27.7303 26.2304 -20.5587 25.8646 -15.9357 30.0369L232.67 254.285C234.412 255.865 235.608 257.905 236.111 260.193ZM-258.623 288.665C-258.186 290.65 -257.152 292.42 -255.629 293.793L-7.0302 518.042C-3.01981 521.662 3.20813 521.345 6.84288 517.341L232.334 269.222C234.47 266.869 235.334 263.615 234.649 260.523C234.206 258.54 233.172 256.77 231.657 255.402L-16.9435 31.1461C-20.9521 27.5326 -27.1754 27.8423 -30.8166 31.8475L-256.307 279.966C-258.446 282.313 -259.309 285.567 -258.623 288.665Z" fill="#DA4067"/>
<path opacity="0.8" d="M243.31 276.933C244.111 280.56 243.044 284.306 240.442 286.961L13.23 519.171C8.9923 523.5 2.02111 523.594 -2.31282 519.379L-234.942 293.381C-236.476 291.888 -237.535 290.002 -237.996 287.922C-238.797 284.295 -237.724 280.548 -235.129 277.894L-7.91499 45.6904C-3.68369 41.3632 3.29388 41.2677 7.62781 45.4833L240.263 271.479C241.795 272.965 242.85 274.859 243.31 276.933ZM-236.531 287.604C-236.133 289.395 -235.224 291.028 -233.895 292.316L-1.26594 518.313C2.48215 521.949 8.50119 521.871 12.1596 518.134L239.371 285.924C241.619 283.63 242.547 280.386 241.852 277.256C241.452 275.459 240.545 273.832 239.216 272.544L6.58092 46.5485C2.83283 42.9129 -3.18621 42.9904 -6.84286 46.7337L-234.055 278.944C-236.303 281.239 -237.226 284.474 -236.531 287.604Z" fill="#DA4067"/>
<path opacity="0.8" d="M250.526 293.668C251.329 297.301 250.152 301.145 247.443 303.706L18.5019 520.003C14.2274 524.042 7.45199 523.872 3.40707 519.613L-213.25 291.874C-214.582 290.471 -215.502 288.745 -215.916 286.87C-216.719 283.237 -215.535 279.392 -212.832 276.833L16.1023 60.5369C20.3768 56.4984 27.1459 56.6703 31.1972 60.9275L247.854 288.666C249.186 290.07 250.108 291.801 250.526 293.668ZM-214.458 286.548C-214.102 288.158 -213.307 289.645 -212.165 290.847L4.49948 518.59C7.98066 522.249 13.8001 522.396 17.4821 518.926L246.408 302.625C248.774 300.388 249.761 297.162 249.062 293.992C248.706 292.382 247.912 290.896 246.768 289.687L30.1048 61.9503C26.6253 58.2973 20.8042 58.1444 17.1303 61.6193L-211.804 277.915C-214.17 280.152 -215.157 283.378 -214.458 286.548Z" fill="#DA4067"/>
<path opacity="0.8" d="M257.758 310.406C258.579 314.11 257.302 317.959 254.437 320.453L23.7755 520.842C19.4579 524.592 12.8892 524.148 9.12863 519.854L-191.564 290.369C-192.698 289.069 -193.496 287.495 -193.867 285.828C-194.689 282.124 -193.419 278.27 -190.54 275.779L40.1214 75.3902C44.439 71.6404 51.006 72.0779 54.7619 76.3801L255.453 305.859C256.587 307.158 257.384 308.732 257.758 310.406ZM-192.397 285.502C-192.082 286.932 -191.394 288.276 -190.42 289.387L10.2649 518.867C13.4774 522.544 19.099 522.921 22.7965 519.713L253.446 319.327C255.901 317.195 256.993 313.9 256.287 310.732C255.972 309.302 255.291 307.956 254.317 306.845L53.6303 77.3588C50.4178 73.6821 44.7963 73.3051 41.0988 76.5135L-189.558 276.895C-192.012 279.033 -193.098 282.326 -192.397 285.502Z" fill="#DA4067"/>
</g>
</g>
<defs>
<clipPath id="clip0_109_5820">
<rect width="885" height="638" fill="white" transform="translate(294.971 449.261) rotate(165)"/>
</clipPath>
</defs>
</svg>
