<svg width="894" height="1552" viewBox="0 0 894 1552" fill="none" xmlns="http://www.w3.org/2000/svg">
<g opacity="0.9" clip-path="url(#clip0_134_1607)">
<path opacity="0.8" d="M-129.605 265.795C-124.704 264.715 -119.608 265.047 -114.868 266.766L645.078 542.754C651.742 545.17 657.064 550.041 660.068 556.474C663.073 562.908 663.406 570.125 661.001 576.794L386.53 1338.28C383.431 1346.88 376.246 1353.2 367.325 1355.17C362.423 1356.25 357.327 1355.92 352.588 1354.2L-407.359 1078.21C-414.022 1075.8 -419.345 1070.93 -422.349 1064.49C-425.363 1058.06 -425.687 1050.84 -423.282 1044.17L-148.8 282.698C-145.7 274.096 -138.525 267.778 -129.605 265.795ZM366.885 1353.1C375.091 1351.28 381.702 1345.46 384.549 1337.54L659.02 576.064C661.238 569.929 660.933 563.287 658.165 557.372C655.396 551.458 650.499 546.978 644.373 544.757L-115.576 268.76C-119.94 267.174 -124.622 266.866 -129.127 267.87C-137.342 269.692 -143.944 275.508 -146.803 283.415L-421.265 1044.89C-423.48 1051.04 -423.169 1057.67 -420.407 1063.59C-417.638 1069.51 -412.741 1073.99 -406.613 1076.22L353.334 1352.21C357.689 1353.79 362.38 1354.1 366.885 1353.1Z" fill="url(#paint0_linear_134_1607)"/>
<path opacity="0.8" d="M-105.751 255.746C-100.861 254.658 -95.7854 255.025 -91.0676 256.808L646.259 535.248C652.725 537.687 657.86 542.512 660.714 548.82C663.569 555.129 663.808 562.177 661.373 568.661L384.434 1307.46C381.351 1315.69 374.384 1321.74 365.814 1323.64C360.921 1324.72 355.839 1324.37 351.121 1322.58L-386.205 1044.14C-399.558 1039.11 -406.342 1024.11 -401.329 1010.73L-124.383 271.925C-121.3 263.696 -114.336 257.638 -105.751 255.746ZM365.351 1321.56C373.229 1319.81 379.619 1314.26 382.455 1306.7L659.385 567.903C661.615 561.959 661.404 555.486 658.785 549.696C656.164 543.897 651.447 539.475 645.51 537.234L-91.8162 258.794C-96.1451 257.159 -100.804 256.826 -105.294 257.816C-113.171 259.558 -119.562 265.113 -122.388 272.671L-399.336 1011.47C-403.933 1023.75 -397.714 1037.52 -385.462 1042.14L351.865 1320.58C356.194 1322.21 360.855 1322.56 365.351 1321.56Z" fill="url(#paint1_linear_134_1607)"/>
<path opacity="0.8" d="M-81.9108 245.68C-77.0207 244.593 -71.9556 244.992 -67.2685 246.841L647.429 527.735C660.389 532.83 666.804 547.538 661.744 560.518L382.335 1276.63C379.271 1284.5 372.523 1290.27 364.29 1292.1C359.4 1293.19 354.335 1292.79 349.65 1290.95L-365.047 1010.06C-371.327 1007.59 -376.272 1002.82 -378.97 996.622C-381.678 990.429 -381.812 983.556 -379.362 977.272L-99.9587 261.141C-96.8921 253.284 -90.1464 247.499 -81.9108 245.68ZM363.818 1290.01C371.356 1288.34 377.544 1283.05 380.351 1275.85L659.759 559.739C664.404 547.851 658.514 534.38 646.648 529.71L-68.0491 248.816C-72.3448 247.124 -76.9843 246.757 -81.4622 247.753C-89.0001 249.423 -95.1789 254.717 -97.9836 261.921L-377.403 978.028C-379.652 983.793 -379.519 990.083 -377.048 995.757C-374.577 1001.43 -370.041 1005.79 -364.292 1008.06L350.405 1288.95C354.701 1290.64 359.34 1291.01 363.818 1290.01Z" fill="url(#paint2_linear_134_1607)"/>
<path opacity="0.8" d="M-58.0703 235.614C-53.1802 234.527 -48.135 234.961 -43.4696 236.874L648.596 520.213C654.678 522.706 659.434 527.419 661.982 533.489C664.531 539.56 664.571 546.263 662.091 552.362L380.205 1245.79C377.157 1253.29 370.63 1258.8 362.743 1260.54C357.85 1261.62 352.808 1261.2 348.142 1259.28L-343.935 975.94C-356.491 970.795 -362.558 956.372 -357.439 943.793L-75.5322 250.365C-72.4936 242.875 -65.9661 237.361 -58.0703 235.614ZM362.288 1258.48C369.495 1256.88 375.46 1251.84 378.245 1245L660.131 551.567C662.393 545.993 662.362 539.869 660.032 534.322C657.702 528.776 653.355 524.468 647.797 522.192L-44.2822 238.838C-48.5423 237.098 -53.1529 236.693 -57.6217 237.687C-64.8288 239.288 -70.796 244.322 -73.5794 251.171L-355.465 944.603C-360.137 956.101 -354.607 969.281 -343.131 973.978L348.946 1257.32C353.208 1259.07 357.816 1259.47 362.288 1258.48Z" fill="url(#paint3_linear_134_1607)"/>
<path opacity="0.8" d="M-34.2322 225.54C-29.3397 224.462 -24.3053 224.928 -19.673 226.898L649.765 512.7C655.659 515.215 660.228 519.881 662.617 525.829C665.018 531.784 664.953 538.312 662.452 544.222L378.095 1214.96C375.075 1222.09 368.768 1227.34 361.221 1229.01C356.331 1230.1 351.294 1229.62 346.662 1227.65L-322.785 941.853C-328.679 939.338 -333.248 934.672 -335.639 928.715C-338.04 922.761 -337.984 916.235 -335.48 910.334L-51.1171 239.583C-48.095 232.467 -41.7882 227.216 -34.2322 225.54ZM360.764 1226.94C367.651 1225.41 373.402 1220.62 376.155 1214.13L660.512 543.393C662.795 538.007 662.849 532.054 660.66 526.635C658.477 521.204 654.311 516.955 648.941 514.658L-20.5152 228.861C-24.7332 227.061 -29.3213 226.631 -33.7811 227.622C-40.6599 229.145 -46.4107 233.937 -49.1728 240.431L-333.527 911.179C-335.81 916.564 -335.855 922.515 -333.675 927.937C-331.492 933.367 -327.326 937.617 -321.956 939.914L347.491 1225.71C351.716 1227.5 356.304 1227.93 360.764 1226.94Z" fill="url(#paint4_linear_134_1607)"/>
<path opacity="0.8" d="M-10.3967 215.456C-5.4976 214.367 -0.478147 214.885 4.11678 216.933L650.944 505.184C662.71 510.424 668.036 524.289 662.821 536.078L375.989 1184.14C373.007 1190.9 366.909 1195.88 359.702 1197.48C354.803 1198.57 349.786 1198.06 345.191 1196.02L-301.629 907.754C-307.335 905.217 -311.707 900.596 -313.949 894.764C-316.194 888.923 -316.044 882.566 -313.507 876.86L-26.6909 228.807C-23.6991 222.048 -17.6129 217.06 -10.3967 215.456ZM359.235 1195.42C365.792 1193.96 371.331 1189.43 374.052 1183.29L660.884 535.219C665.628 524.498 660.787 511.9 650.087 507.131L3.24917 218.873C-0.926618 217.013 -5.48589 216.547 -9.93656 217.535C-16.4937 218.992 -22.0329 223.523 -24.7531 229.666L-311.585 877.733C-313.889 882.93 -314.029 888.711 -311.989 894.006C-309.947 899.31 -305.968 903.512 -300.791 905.812L346.038 1194.07C350.216 1195.94 354.784 1196.41 359.235 1195.42Z" fill="url(#paint5_linear_134_1607)"/>
<path opacity="0.8" d="M13.4416 205.382C18.3408 204.292 23.3402 204.845 27.916 206.966L652.113 497.671C657.624 500.241 661.804 504.797 663.899 510.514C665.993 516.23 665.732 522.423 663.183 527.938L373.882 1153.32C370.877 1159.81 365.155 1164.42 358.176 1165.97C353.268 1167.06 348.269 1166.51 343.7 1164.38L-280.498 873.673C-291.872 868.376 -296.83 854.8 -291.567 843.406L-2.26655 218.023C0.738817 211.532 6.46086 206.923 13.4416 205.382ZM357.707 1163.89C364.035 1162.49 369.224 1158.31 371.946 1152.43L661.256 527.047C663.572 522.041 663.796 516.431 661.904 511.252C660.009 506.064 656.216 501.938 651.216 499.61L27.0254 208.893C22.8803 206.967 18.35 206.463 13.9084 207.45C7.58003 208.854 2.38522 213.041 -0.328145 218.92L-289.638 844.306C-294.418 854.639 -289.919 866.94 -279.607 871.746L344.59 1162.45C348.726 1164.38 353.265 1164.88 357.707 1163.89Z" fill="url(#paint6_linear_134_1607)"/>
<path opacity="0.8" d="M37.2751 195.29C42.1832 194.198 47.1768 194.8 51.7176 197.009L653.283 490.159C658.597 492.752 662.59 497.261 664.525 502.855C666.463 508.459 666.105 514.473 663.523 519.793L371.752 1122.48C368.786 1128.62 363.275 1132.96 356.637 1134.44C351.726 1135.52 346.737 1134.94 342.197 1132.73L-259.374 839.564C-264.694 836.982 -268.689 832.463 -270.625 826.869C-272.551 821.273 -272.205 815.251 -269.623 809.931L22.1601 207.248C25.1261 201.116 30.6341 196.759 37.2751 195.29ZM356.181 1132.38C362.191 1131.05 367.169 1127.11 369.85 1121.58L661.628 518.875C663.966 514.057 664.286 508.625 662.53 503.555C660.776 498.494 657.17 494.415 652.361 492.075L50.7925 198.916C46.6872 196.92 42.1768 196.383 37.7352 197.369C31.7261 198.698 26.7477 202.642 24.0671 208.173L-267.714 810.865C-270.042 815.681 -270.36 821.122 -268.615 826.185C-266.871 831.248 -263.258 835.316 -258.455 837.668L343.122 1130.82C347.229 1132.83 351.749 1133.36 356.181 1132.38Z" fill="url(#paint7_linear_134_1607)"/>
<path opacity="0.8" d="M61.108 185.197C65.9618 184.12 71.0767 184.777 75.5162 187.042L654.464 482.653C659.589 485.267 663.395 489.73 665.174 495.21C666.953 500.691 666.501 506.537 663.898 511.669L369.649 1091.68C366.729 1097.44 361.435 1101.54 355.124 1102.94C350.271 1104.02 345.156 1103.36 340.716 1101.1L-238.231 805.489C-243.347 802.872 -247.151 798.418 -248.941 792.931C-250.72 787.45 -250.269 781.604 -247.665 776.472L46.5929 196.461C49.5128 190.701 54.8068 186.594 61.108 185.197ZM354.664 1100.86C360.352 1099.6 365.123 1095.9 367.759 1090.71L662.006 510.691C664.356 506.064 664.761 500.803 663.155 495.858C661.551 490.922 658.125 486.901 653.504 484.54L74.5477 188.931C70.5462 186.889 65.9348 186.3 61.5656 187.267C55.8782 188.529 51.1073 192.233 48.471 197.423L-245.776 777.441C-248.117 782.066 -248.531 787.329 -246.924 792.274C-245.321 797.21 -241.895 801.231 -237.274 803.592L341.673 1099.2C345.675 1101.25 350.289 1101.84 354.664 1100.86Z" fill="url(#paint8_linear_134_1607)"/>
<path opacity="0.8" d="M84.9366 175.086C89.7995 174.006 94.9084 174.714 99.3154 177.075L655.634 475.139C660.561 477.778 664.177 482.184 665.8 487.552C667.429 492.908 666.875 498.587 664.248 503.522L367.532 1060.86C364.654 1066.27 359.583 1070.12 353.604 1071.45C348.741 1072.53 343.632 1071.82 339.225 1069.46L-217.093 771.395C-227.268 765.942 -231.135 753.209 -225.707 743.013L71.0081 185.678C73.8862 180.269 78.9661 176.414 84.9366 175.086ZM353.144 1069.37C358.509 1068.17 363.073 1064.71 365.662 1059.85L662.378 502.519C664.74 498.082 665.237 492.981 663.771 488.163C662.305 483.346 659.061 479.383 654.631 477.009L98.3149 178.953C94.3598 176.831 89.7749 176.196 85.3967 177.166C80.031 178.361 75.4674 181.825 72.8778 186.681L-223.838 744.016C-228.719 753.173 -225.244 764.623 -216.102 769.519L340.225 1067.58C344.18 1069.7 348.765 1070.34 353.144 1069.37Z" fill="url(#paint9_linear_134_1607)"/>
<path opacity="0.8" d="M108.773 164.973C113.654 163.889 118.748 164.649 123.114 167.108L656.812 467.624C666.594 473.134 670.084 485.579 664.606 495.372L365.413 1030.03C362.583 1035.07 357.731 1038.69 352.08 1039.94C347.199 1041.03 342.096 1040.27 337.73 1037.81L-195.968 737.295C-205.747 731.794 -209.249 719.343 -203.762 709.547L95.4406 174.892C98.2702 169.845 103.125 166.235 108.773 164.973ZM351.622 1037.87C356.677 1036.75 361.031 1033.52 363.565 1029L662.761 494.353C667.667 485.577 664.533 474.424 655.779 469.492L122.079 168.967C118.17 166.764 113.603 166.086 109.234 167.053C104.169 168.177 99.8243 171.408 97.2929 175.938L-201.903 710.582C-206.809 719.358 -203.675 730.511 -194.921 735.443L338.777 1035.96C342.685 1038.16 347.253 1038.84 351.622 1037.87Z" fill="url(#paint10_linear_134_1607)"/>
<path opacity="0.8" d="M132.599 154.853C137.51 153.77 142.589 154.583 146.924 157.147L657.992 460.117C667.371 465.677 670.497 477.851 664.96 487.243L363.289 999.215C360.522 1003.91 355.884 1007.28 350.563 1008.47C345.655 1009.56 340.565 1008.74 336.239 1006.17L-174.83 703.201C-184.208 697.641 -187.334 685.467 -181.797 676.076L119.865 164.107C122.632 159.406 127.279 156.036 132.599 154.853ZM350.103 1006.39C354.858 1005.34 358.99 1002.33 361.466 998.131L663.139 486.169C668.081 477.781 665.286 466.915 656.914 461.959L145.843 158.979C141.978 156.687 137.438 155.963 133.059 156.932C128.317 157.99 124.175 161.001 121.699 165.197L-179.974 677.159C-184.916 685.547 -182.121 696.413 -173.737 701.375L337.331 1004.35C341.184 1006.63 345.725 1007.36 350.103 1006.39Z" fill="url(#paint11_linear_134_1607)"/>
<path opacity="0.8" d="M156.423 144.725C161.36 143.635 166.427 144.509 170.716 147.192L659.164 452.614C663.514 455.34 666.554 459.59 667.712 464.597C668.878 469.602 668.017 474.752 665.314 479.114L361.172 968.393C358.428 972.816 354.121 975.862 349.047 976.989C344.109 978.079 339.034 977.207 334.744 974.524L-153.695 669.099C-162.669 663.489 -165.429 651.596 -159.842 642.608L144.297 153.32C147.045 148.907 151.349 145.851 156.423 144.725ZM348.589 974.918C353.104 973.913 356.93 971.209 359.378 967.273L663.508 477.988C665.917 474.121 666.676 469.532 665.649 465.082C664.621 460.632 661.918 456.844 658.049 454.427L169.608 148.993C165.784 146.602 161.279 145.83 156.883 146.804C152.378 147.807 148.543 150.514 146.103 154.447L-158.036 643.735C-163.005 651.732 -160.552 662.301 -152.565 667.303L335.883 972.724C339.685 975.111 344.2 975.881 348.589 974.918Z" fill="url(#paint12_linear_134_1607)"/>
<path opacity="0.8" d="M180.244 134.587C185.208 133.489 190.283 134.429 194.529 137.24L660.345 445.107C668.918 450.776 671.31 462.381 665.666 470.976L359.058 937.58C356.382 941.645 352.299 944.476 347.545 945.526C342.58 946.624 337.506 945.684 333.262 942.882L-132.568 634.999C-141.141 629.33 -143.524 617.723 -137.88 609.128L168.73 142.533C171.404 138.459 175.489 135.637 180.244 134.587ZM347.085 943.447C351.297 942.512 354.916 940.01 357.288 936.405L663.896 469.801C668.899 462.183 666.784 451.901 659.188 446.873L193.363 139.008C189.602 136.523 185.109 135.689 180.704 136.666C176.5 137.598 172.873 140.103 170.501 143.708L-136.11 610.303C-141.113 617.921 -139.001 628.194 -131.393 633.229L334.425 941.105C338.186 943.59 342.679 944.424 347.085 943.447Z" fill="url(#paint13_linear_134_1607)"/>
<path opacity="0.8" d="M204.06 124.431C208.998 123.341 214.194 124.374 218.328 127.274L661.526 437.601C665.493 440.381 668.138 444.533 668.987 449.293C669.838 454.062 668.777 458.868 666.018 462.838L356.93 906.752C354.331 910.486 350.457 913.086 346.034 914.067C341.107 915.164 335.9 914.124 331.756 911.227L-111.433 600.897C-119.613 595.171 -121.618 583.851 -115.924 575.66L193.164 131.746C195.763 128.012 199.628 125.415 204.06 124.431ZM345.576 911.997C349.488 911.133 352.909 908.839 355.2 905.547L664.277 461.626C666.716 458.129 667.645 453.883 666.897 449.678C666.146 445.465 663.816 441.8 660.317 439.352L217.116 129.015C213.461 126.453 208.871 125.548 204.52 126.51C200.608 127.374 197.196 129.666 194.896 132.96L-114.19 576.883C-119.22 584.111 -117.444 594.105 -110.23 599.158L332.959 909.488C336.624 912.047 341.225 912.959 345.576 911.997Z" fill="url(#paint14_linear_134_1607)"/>
<path opacity="0.8" d="M227.883 114.263C232.854 113.154 238.054 114.274 242.141 117.322L662.71 430.104C666.478 432.907 668.925 437.006 669.617 441.652C670.309 446.299 669.155 450.936 666.363 454.711L354.809 875.95C352.295 879.351 348.643 881.726 344.53 882.634C339.556 883.734 334.358 882.624 330.274 879.585L-90.3064 566.796C-98.0742 561.018 -99.7126 549.979 -93.96 542.189L217.594 120.949C220.111 117.558 223.763 115.183 227.883 114.263ZM344.069 880.555C347.687 879.751 350.903 877.667 353.11 874.679L664.655 453.442C667.105 450.127 668.127 446.049 667.517 441.963C666.908 437.876 664.758 434.27 661.449 431.809L240.881 119.028C237.282 116.353 232.721 115.373 228.343 116.342C224.726 117.147 221.519 119.228 219.303 122.219L-92.2542 543.449C-97.3179 550.298 -95.8815 560.004 -89.037 565.088L331.532 877.87C335.121 880.547 339.691 881.525 344.069 880.555Z" fill="url(#paint15_linear_134_1607)"/>
<path opacity="0.8" d="M251.694 104.089C256.722 102.975 261.914 104.174 265.953 107.371L663.89 422.598C671.257 428.435 672.52 439.196 666.706 446.576L352.68 845.122C350.263 848.196 346.826 850.359 343.023 851.194C337.994 852.308 332.802 851.109 328.763 847.912L-69.1804 532.696C-76.5468 526.859 -77.81 516.098 -72.005 508.721L242.027 110.163C244.453 107.087 247.884 104.935 251.694 104.089ZM342.556 849.126C345.89 848.388 348.896 846.496 351.019 843.811L665.042 445.256C670.133 438.798 669.026 429.382 662.57 424.261L264.633 109.034C261.099 106.236 256.548 105.185 252.151 106.159C248.817 106.897 245.821 108.787 243.691 111.483L-70.3323 510.038C-75.423 516.496 -74.3166 525.913 -67.8627 531.024L330.086 846.257C333.611 849.058 338.16 850.1 342.556 849.126Z" fill="url(#paint16_linear_134_1607)"/>
<path opacity="0.8" d="M275.51 93.8946C280.583 92.768 285.788 94.0513 289.757 97.422L665.074 415.1C672.039 420.996 672.924 431.471 667.051 438.449L350.551 814.323C348.195 817.118 345.073 819.013 341.52 819.8C336.437 820.929 331.241 819.643 327.265 816.284L-48.0562 498.587C-55.0212 492.691 -55.9067 482.217 -50.0311 475.247L266.469 99.3733C268.825 96.5783 271.947 94.6843 275.51 93.8946ZM341.059 817.72C344.156 817.036 346.886 815.383 348.932 812.953L665.432 437.078C670.557 431 669.78 421.873 663.705 416.728L288.387 99.041C284.922 96.1075 280.393 94.9924 275.97 95.9739C272.873 96.658 270.153 98.3088 268.1 100.751L-48.4031 476.616C-53.5275 482.695 -52.751 491.821 -46.6762 496.966L328.643 814.653C332.095 817.58 336.636 818.702 341.059 817.72Z" fill="url(#paint17_linear_134_1607)"/>
<path opacity="0.8" d="M299.311 83.6841C304.385 82.5575 309.713 83.9729 313.561 87.4729L666.258 407.603C672.821 413.558 673.329 423.746 667.394 430.314L348.423 783.495C346.177 785.979 343.276 787.678 340.023 788.395C334.949 789.521 329.622 788.106 325.773 784.606L-26.9231 464.476C-33.4776 458.518 -33.9944 448.333 -28.0598 441.765L290.909 88.5746C293.157 86.0997 296.059 84.4003 299.311 83.6841ZM339.565 786.324C342.388 785.704 344.905 784.234 346.857 782.071L665.829 428.889C670.978 423.192 670.529 414.347 664.838 409.186L312.149 89.0449C308.804 86.0115 304.177 84.7867 299.781 85.7609C296.961 86.3904 294.444 87.8604 292.498 90.012L-26.483 443.196C-31.623 448.891 -31.1855 457.729 -25.4923 462.899L327.197 783.04C330.533 786.076 335.16 787.301 339.565 786.324Z" fill="url(#paint18_linear_134_1607)"/>
<path opacity="0.8" d="M323.117 73.4534C328.275 72.3141 333.6 73.8273 337.374 77.5218L667.443 400.115C673.596 406.131 673.727 416.032 667.731 422.19L346.281 752.69C344.158 754.869 341.476 756.374 338.518 757.031C333.36 758.17 328.033 756.648 324.261 752.962L-5.79926 430.367C-11.9499 424.359 -12.0826 414.449 -6.08651 408.292L315.36 77.783C317.474 75.6058 320.168 74.1078 323.117 73.4534ZM338.067 754.949C340.613 754.383 342.935 753.091 344.767 751.203L666.216 420.703C671.388 415.378 671.28 406.83 665.968 401.636L335.899 79.0425C332.638 75.8509 328.026 74.5349 323.575 75.5237C321.02 76.0918 318.707 77.3811 316.874 79.2693L-4.57234 409.778C-9.7435 415.103 -9.63607 423.652 -4.31528 428.844L325.754 751.437C329.015 754.628 333.616 755.938 338.067 754.949Z" fill="url(#paint19_linear_134_1607)"/>
<path opacity="0.8" d="M346.916 63.1952C352.082 62.0534 357.546 63.7234 361.187 67.5702L668.629 392.626C674.369 398.695 674.124 408.318 668.067 414.065L344.149 721.881C342.153 723.775 339.699 725.082 337.033 725.67C331.866 726.812 326.4 725.133 322.762 721.295L15.3221 396.248C9.58196 390.179 9.82941 380.565 15.8845 374.809L339.802 66.9933C341.798 65.1001 344.261 63.79 346.916 63.1952ZM336.575 723.6C338.865 723.093 340.979 721.964 342.688 720.342L666.613 412.514C671.818 407.568 672.029 399.303 667.096 394.075L359.65 69.0397C356.47 65.6808 351.883 64.2802 347.376 65.2745C345.086 65.7813 342.972 66.9104 341.254 68.5353L17.3383 376.36C12.1426 381.304 11.9225 389.572 16.8617 394.788L324.301 719.835C327.482 723.194 332.068 724.594 336.575 723.6Z" fill="url(#paint20_linear_134_1607)"/>
<path opacity="0.8" d="M370.719 52.917C375.985 51.7485 381.458 53.5616 385.002 57.6283L669.824 385.136C675.154 391.267 674.52 400.596 668.412 405.939L342.019 691.083C340.171 692.694 337.932 693.828 335.561 694.356C330.295 695.525 324.815 693.723 321.275 689.636L36.4529 362.128C31.1231 355.998 31.7483 346.671 37.8673 341.334L364.251 56.1927C366.1 54.5816 368.338 53.4481 370.719 52.917ZM335.098 692.268C337.132 691.82 339.044 690.842 340.623 689.458L667.01 404.326C672.239 399.761 672.778 391.777 668.217 386.527L383.401 59.0375C380.371 55.551 375.686 54.002 371.181 55.0053C369.147 55.4533 367.233 56.4222 365.654 57.806L39.2584 342.941C34.029 347.505 33.4904 355.489 38.0506 360.739L322.861 688.241C325.9 691.725 330.582 693.265 335.098 692.268Z" fill="url(#paint21_linear_134_1607)"/>
</g>
<defs>
<linearGradient id="paint0_linear_134_1607" x1="687.718" y1="658.059" x2="-450.002" y2="962.91" gradientUnits="userSpaceOnUse">
<stop stop-color="#48917E"/>
<stop offset="1" stop-color="#48917E"/>
</linearGradient>
<linearGradient id="paint1_linear_134_1607" x1="685.723" y1="640.796" x2="-425.66" y2="938.591" gradientUnits="userSpaceOnUse">
<stop stop-color="#48917E"/>
<stop offset="1" stop-color="#48917E"/>
</linearGradient>
<linearGradient id="paint2_linear_134_1607" x1="683.707" y1="623.523" x2="-401.34" y2="914.26" gradientUnits="userSpaceOnUse">
<stop stop-color="#48917E"/>
<stop offset="1" stop-color="#48917E"/>
</linearGradient>
<linearGradient id="paint3_linear_134_1607" x1="681.714" y1="606.233" x2="-377.041" y2="889.925" gradientUnits="userSpaceOnUse">
<stop stop-color="#48917E"/>
<stop offset="1" stop-color="#48917E"/>
</linearGradient>
<linearGradient id="paint4_linear_134_1607" x1="679.718" y1="588.954" x2="-352.739" y2="865.6" gradientUnits="userSpaceOnUse">
<stop stop-color="#48917E"/>
<stop offset="1" stop-color="#48917E"/>
</linearGradient>
<linearGradient id="paint5_linear_134_1607" x1="677.721" y1="571.674" x2="-328.421" y2="841.268" gradientUnits="userSpaceOnUse">
<stop stop-color="#48917E"/>
<stop offset="1" stop-color="#48917E"/>
</linearGradient>
<linearGradient id="paint6_linear_134_1607" x1="675.753" y1="554.396" x2="-304.121" y2="816.952" gradientUnits="userSpaceOnUse">
<stop stop-color="#48917E"/>
<stop offset="1" stop-color="#48917E"/>
</linearGradient>
<linearGradient id="paint7_linear_134_1607" x1="673.762" y1="537.105" x2="-279.858" y2="792.627" gradientUnits="userSpaceOnUse">
<stop stop-color="#48917E"/>
<stop offset="1" stop-color="#48917E"/>
</linearGradient>
<linearGradient id="paint8_linear_134_1607" x1="671.801" y1="519.827" x2="-255.568" y2="768.314" gradientUnits="userSpaceOnUse">
<stop stop-color="#48917E"/>
<stop offset="1" stop-color="#48917E"/>
</linearGradient>
<linearGradient id="paint9_linear_134_1607" x1="669.829" y1="502.54" x2="-231.28" y2="743.992" gradientUnits="userSpaceOnUse">
<stop stop-color="#48917E"/>
<stop offset="1" stop-color="#48917E"/>
</linearGradient>
<linearGradient id="paint10_linear_134_1607" x1="667.868" y1="485.247" x2="-207.027" y2="719.674" gradientUnits="userSpaceOnUse">
<stop stop-color="#48917E"/>
<stop offset="1" stop-color="#48917E"/>
</linearGradient>
<linearGradient id="paint11_linear_134_1607" x1="665.922" y1="467.958" x2="-182.76" y2="695.361" gradientUnits="userSpaceOnUse">
<stop stop-color="#48917E"/>
<stop offset="1" stop-color="#48917E"/>
</linearGradient>
<linearGradient id="paint12_linear_134_1607" x1="663.99" y1="450.661" x2="-158.508" y2="671.049" gradientUnits="userSpaceOnUse">
<stop stop-color="#48917E"/>
<stop offset="1" stop-color="#48917E"/>
</linearGradient>
<linearGradient id="paint13_linear_134_1607" x1="662.054" y1="433.37" x2="-134.271" y2="646.744" gradientUnits="userSpaceOnUse">
<stop stop-color="#48917E"/>
<stop offset="1" stop-color="#48917E"/>
</linearGradient>
<linearGradient id="paint14_linear_134_1607" x1="660.152" y1="416.06" x2="-110.047" y2="622.434" gradientUnits="userSpaceOnUse">
<stop stop-color="#48917E"/>
<stop offset="1" stop-color="#48917E"/>
</linearGradient>
<linearGradient id="paint15_linear_134_1607" x1="658.246" y1="398.762" x2="-85.8316" y2="598.137" gradientUnits="userSpaceOnUse">
<stop stop-color="#48917E"/>
<stop offset="1" stop-color="#48917E"/>
</linearGradient>
<linearGradient id="paint16_linear_134_1607" x1="656.346" y1="381.452" x2="-61.6384" y2="573.835" gradientUnits="userSpaceOnUse">
<stop stop-color="#48917E"/>
<stop offset="1" stop-color="#48917E"/>
</linearGradient>
<linearGradient id="paint17_linear_134_1607" x1="654.477" y1="364.147" x2="-37.4565" y2="549.55" gradientUnits="userSpaceOnUse">
<stop stop-color="#48917E"/>
<stop offset="1" stop-color="#48917E"/>
</linearGradient>
<linearGradient id="paint18_linear_134_1607" x1="652.622" y1="346.824" x2="-13.2836" y2="525.253" gradientUnits="userSpaceOnUse">
<stop stop-color="#48917E"/>
<stop offset="1" stop-color="#48917E"/>
</linearGradient>
<linearGradient id="paint19_linear_134_1607" x1="650.783" y1="329.508" x2="10.8614" y2="500.974" gradientUnits="userSpaceOnUse">
<stop stop-color="#48917E"/>
<stop offset="1" stop-color="#48917E"/>
</linearGradient>
<linearGradient id="paint20_linear_134_1607" x1="648.963" y1="312.177" x2="34.9863" y2="476.691" gradientUnits="userSpaceOnUse">
<stop stop-color="#48917E"/>
<stop offset="1" stop-color="#48917E"/>
</linearGradient>
<linearGradient id="paint21_linear_134_1607" x1="647.178" y1="294.849" x2="59.0998" y2="452.424" gradientUnits="userSpaceOnUse">
<stop stop-color="#48917E"/>
<stop offset="1" stop-color="#48917E"/>
</linearGradient>
<clipPath id="clip0_134_1607">
<rect width="1256.82" height="1304.62" fill="white" transform="translate(568.17) rotate(75)"/>
</clipPath>
</defs>
</svg>
