<svg width="625" height="621" viewBox="0 0 625 621" fill="none" xmlns="http://www.w3.org/2000/svg">
<g clip-path="url(#clip0_134_1631)">
<g opacity="0.8">
<path opacity="0.8" d="M279.249 536.02C275.911 534.873 272.974 532.805 270.76 530.034L-84.1917 85.556C-87.3053 81.6612 -88.714 76.782 -88.159 71.8133C-87.604 66.8447 -85.158 62.3843 -81.2697 59.2563L362.623 -297.88C367.637 -301.915 374.266 -303.081 380.345 -300.997C383.683 -299.85 386.62 -297.782 388.834 -295.011L743.786 149.467C746.899 153.362 748.308 158.241 747.753 163.21C747.204 168.18 744.752 172.639 740.864 175.767L296.966 532.895C291.952 536.93 285.329 538.098 279.249 536.02ZM379.848 -299.588C374.255 -301.502 368.155 -300.429 363.544 -296.715L-80.3485 60.4216C-83.9286 63.2963 -86.1806 67.4011 -86.6871 71.9713C-87.1936 76.5414 -85.8967 81.0299 -83.034 84.6102L271.916 529.095C273.954 531.648 276.651 533.55 279.722 534.598C285.321 536.513 291.416 535.438 296.03 531.732L739.917 174.594C743.499 171.713 745.743 167.613 746.258 163.038C746.764 158.468 745.467 153.979 742.606 150.393L387.655 -294.086C385.623 -296.637 382.92 -298.54 379.848 -299.588Z" fill="#DA4067"/>
<path opacity="0.8" d="M261.247 533.317C257.914 532.178 255.002 530.097 252.824 527.296L-87.6521 89.6355C-90.6385 85.7987 -91.9521 81.0164 -91.3529 76.1777C-90.7536 71.3391 -88.3133 67.0146 -84.4749 64.0094L352.584 -278.586C357.451 -282.403 363.85 -283.485 369.694 -281.491C373.025 -280.346 375.946 -278.269 378.124 -275.468L718.599 162.193C724.767 170.116 723.341 181.618 715.429 187.821L278.362 530.421C273.494 534.238 267.094 535.326 261.247 533.317ZM369.206 -280.066C363.839 -281.906 357.967 -280.91 353.493 -277.404L-83.5593 65.1938C-87.0769 67.9493 -89.3232 71.9181 -89.8739 76.3583C-90.4265 80.8049 -89.2165 85.1921 -86.4748 88.7162L254.001 526.376C256 528.946 258.674 530.854 261.732 531.905C267.099 533.745 272.97 532.749 277.438 529.241L714.503 186.647C721.765 180.948 723.077 170.396 717.418 163.125L376.943 -274.536C374.944 -277.105 372.271 -279.02 369.206 -280.066Z" fill="#DA4067"/>
<path opacity="0.8" d="M243.248 530.629C239.914 529.49 237.02 527.393 234.885 524.563L-91.1087 93.7231C-97.0197 85.9095 -95.4783 74.7164 -87.6826 68.7687L342.542 -259.286C347.265 -262.891 353.433 -263.89 359.044 -261.971C362.378 -260.832 365.272 -258.735 367.409 -255.912L693.403 174.929C696.266 178.715 697.487 183.395 696.835 188.108C696.19 192.823 693.751 197.003 689.977 199.883L259.748 527.951C255.027 531.549 248.858 532.554 243.248 530.629ZM358.563 -260.544C353.426 -262.303 347.77 -261.387 343.448 -258.091L-86.777 69.9639C-93.923 75.4079 -95.3263 85.6648 -89.9161 92.822L236.078 523.662C238.036 526.254 240.686 528.176 243.738 529.218C248.875 530.977 254.524 530.06 258.849 526.757L689.078 198.71C692.541 196.07 694.767 192.239 695.364 187.923C695.961 183.606 694.838 179.32 692.217 175.852L366.224 -254.988C364.265 -257.58 361.616 -259.501 358.563 -260.544Z" fill="#DA4067"/>
<path opacity="0.8" d="M225.248 527.94C221.915 526.801 219.046 524.691 216.947 521.831L-94.5668 97.8168C-97.3033 94.088 -98.4302 89.5119 -97.7344 84.9286C-97.0385 80.3454 -94.605 76.3009 -90.8809 73.5442L332.516 -239.968C337.092 -243.355 343.031 -244.276 348.404 -242.434C351.736 -241.289 354.607 -239.185 356.706 -236.325L668.224 187.697C673.875 195.393 672.229 206.287 664.545 211.972L241.137 525.474C236.567 528.862 230.628 529.784 225.248 527.94ZM347.922 -241.028C343.009 -242.708 337.581 -241.863 333.401 -238.772L-89.9962 74.7401C-93.3969 77.2618 -95.6238 80.9543 -96.2584 85.1428C-96.8931 89.3312 -95.8635 93.5141 -93.3615 96.9194L218.155 520.948C220.074 523.556 222.693 525.489 225.739 526.53C230.652 528.209 236.079 527.37 240.26 524.274L663.657 210.761C670.676 205.562 672.189 195.612 667.023 188.582L355.505 -235.44C353.588 -238.054 350.967 -239.981 347.922 -241.028Z" fill="#DA4067"/>
<path opacity="0.8" d="M207.248 525.258C203.917 524.112 201.066 521.987 199.008 519.105L-98.022 101.904C-100.638 98.2318 -101.669 93.7525 -100.923 89.3011C-100.181 84.8415 -97.7488 80.9412 -94.0809 78.3056L322.48 -220.66C326.905 -223.836 332.615 -224.681 337.758 -222.92C341.092 -221.781 343.941 -219.649 345.999 -216.767L643.035 200.435C645.651 204.108 646.683 208.587 645.934 213.045C645.192 217.505 642.766 221.407 639.1 224.036L222.531 523.006C218.108 526.176 212.398 527.021 207.248 525.258ZM337.274 -221.508C332.581 -223.116 327.373 -222.343 323.341 -219.45L-93.2207 79.5148C-96.5652 81.9154 -98.7801 85.4739 -99.4526 89.5342C-100.133 93.5991 -99.1907 97.6807 -96.8097 101.03L200.233 518.234C202.104 520.862 204.701 522.802 207.741 523.841C212.428 525.447 217.636 524.675 221.675 521.784L638.238 222.812C641.582 220.412 643.791 216.851 644.47 212.793C645.15 208.728 644.208 204.646 641.827 201.297L344.791 -215.905C342.911 -218.528 340.314 -220.469 337.274 -221.508Z" fill="#DA4067"/>
<path opacity="0.8" d="M189.245 522.582C185.905 521.441 183.082 519.29 181.075 516.374L-101.485 105.99C-106.627 98.527 -104.741 88.2402 -97.2889 83.065L312.447 -201.364C316.714 -204.332 322.2 -205.091 327.113 -203.412C330.453 -202.271 333.277 -200.126 335.284 -197.21L617.836 213.178C620.331 216.794 621.261 221.175 620.469 225.503C619.675 229.837 617.254 233.603 613.64 236.103L203.919 520.529C199.645 523.496 194.164 524.263 189.245 522.582ZM326.635 -201.998C322.165 -203.526 317.18 -202.833 313.295 -200.137L-96.4406 84.2914C-103.218 88.9976 -104.931 98.3448 -100.258 105.134L182.307 515.526C184.132 518.175 186.697 520.126 189.731 521.163C194.2 522.692 199.186 521.999 203.071 519.303L612.806 234.874C616.094 232.595 618.297 229.17 619.014 225.24C619.733 221.303 618.885 217.318 616.621 214.038L334.063 -196.352C332.24 -199.007 329.669 -200.961 326.635 -201.998Z" fill="#DA4067"/>
<path opacity="0.8" d="M171.244 519.9C167.904 518.759 165.106 516.594 163.137 513.641L-104.941 110.078C-107.307 106.513 -108.145 102.242 -107.307 98.0376C-106.468 93.8334 -104.041 90.2067 -100.489 87.8259L302.412 -182.062C306.596 -184.863 311.72 -185.536 316.476 -183.909C319.822 -182.766 322.621 -180.602 324.581 -177.645L592.659 225.919C597.545 233.273 595.543 243.251 588.208 248.171L185.306 518.059C181.123 520.859 175.999 521.532 171.244 519.9ZM315.996 -182.489C311.683 -183.964 307.039 -183.356 303.248 -180.819L-99.6593 89.0676C-102.885 91.2279 -105.076 94.5183 -105.839 98.3251C-106.603 102.138 -105.839 106.009 -103.692 109.241L164.378 512.809C166.16 515.487 168.695 517.45 171.722 518.485C176.035 519.961 180.688 519.349 184.472 516.809L587.38 246.923C594.037 242.463 595.846 233.42 591.419 226.751L323.34 -176.813C321.565 -179.488 319.024 -181.453 315.996 -182.489Z" fill="#DA4067"/>
<path opacity="0.8" d="M153.239 517.23C149.893 516.087 147.117 513.894 145.201 510.902L-108.397 114.165C-110.636 110.658 -111.379 106.484 -110.49 102.412C-109.599 98.333 -107.179 94.8487 -103.679 92.597L292.386 -162.744C296.414 -165.342 301.316 -165.936 305.842 -164.391C309.186 -163.242 311.966 -161.062 313.882 -158.07L567.477 238.68C569.723 242.182 570.465 246.363 569.576 250.435C568.681 254.506 566.265 257.998 562.765 260.25L166.695 515.582C162.667 518.181 157.764 518.781 153.239 517.23ZM305.36 -162.985C301.266 -164.389 296.832 -163.844 293.195 -161.501L-102.878 93.844C-106.048 95.8833 -108.231 99.0313 -109.036 102.723C-109.838 106.408 -109.169 110.182 -107.141 113.351L146.455 510.095C148.188 512.799 150.698 514.776 153.726 515.811C157.819 517.215 162.253 516.669 165.89 514.327L561.962 258.988C565.125 256.947 567.31 253.793 568.119 250.11C568.928 246.426 568.251 242.657 566.23 239.483L312.628 -157.263C310.897 -159.973 308.381 -161.952 305.36 -162.985Z" fill="#DA4067"/>
<path opacity="0.8" d="M135.235 514.56C131.927 513.429 129.098 511.158 127.263 508.17L-111.857 118.244C-113.975 114.794 -114.623 110.716 -113.682 106.769C-112.74 102.823 -110.326 99.474 -106.883 97.3434L282.355 -143.455C286.219 -145.847 290.902 -146.375 295.203 -144.903C298.511 -143.771 301.34 -141.501 303.175 -138.512L542.295 251.413C544.406 254.862 545.057 258.933 544.12 262.888C543.178 266.835 540.764 270.183 537.32 272.314L148.076 513.11C144.212 515.502 139.529 516.03 135.235 514.56ZM294.717 -143.484C290.841 -144.811 286.619 -144.333 283.134 -142.18L-106.105 98.6246C-109.212 100.545 -111.384 103.559 -112.232 107.12C-113.079 110.675 -112.497 114.348 -110.59 117.462L128.537 507.389C130.19 510.083 132.742 512.128 135.719 513.148C139.595 514.474 143.817 513.996 147.302 511.843L536.541 271.039C539.642 269.117 541.82 266.105 542.668 262.543C543.515 258.988 542.933 255.316 541.026 252.202L301.905 -137.723C300.252 -140.418 297.702 -142.469 294.717 -143.484Z" fill="#DA4067"/>
<path opacity="0.8" d="M117.226 511.904C113.912 510.77 111.105 508.472 109.325 505.438L-115.314 122.332C-117.304 118.94 -117.859 114.965 -116.865 111.144C-115.88 107.327 -113.465 104.116 -110.079 102.113L272.327 -124.15C276.037 -126.347 280.493 -126.804 284.57 -125.412C287.884 -124.278 290.691 -121.98 292.471 -118.946L517.11 264.16C521.217 271.167 518.871 280.239 511.875 284.379L129.469 510.642C125.759 512.839 121.297 513.294 117.226 511.904ZM284.083 -123.993C280.425 -125.242 276.416 -124.832 273.081 -122.862L-109.325 103.402C-112.369 105.202 -114.537 108.087 -115.423 111.52C-116.31 114.954 -115.815 118.525 -114.026 121.576L110.614 504.675C112.21 507.401 114.729 509.463 117.712 510.485C121.371 511.734 125.38 511.324 128.715 509.354L511.12 283.09C517.408 279.375 519.519 271.218 515.827 264.924L291.182 -118.183C289.586 -120.909 287.067 -122.971 284.083 -123.993Z" fill="#DA4067"/>
<path opacity="0.8" d="M99.2115 509.245C95.8842 508.108 93.1054 505.783 91.3868 502.705L-118.776 126.418C-122.627 119.52 -120.16 110.759 -113.282 106.881L262.296 -104.841C265.845 -106.837 270.084 -107.234 273.934 -105.915C277.262 -104.778 280.047 -102.452 281.766 -99.3735L491.928 276.914C495.782 283.805 493.318 292.574 486.434 296.451L110.85 508.17C107.301 510.167 103.064 510.557 99.2115 509.245ZM273.45 -104.503C270.005 -105.682 266.206 -105.334 263.028 -103.545L-112.548 108.17C-118.71 111.647 -120.918 119.5 -117.472 125.673L92.6894 501.967C94.2278 504.724 96.7207 506.806 99.6976 507.826C103.149 509.007 106.942 508.657 110.122 506.862L485.698 295.147C491.86 291.67 494.068 283.817 490.621 277.643L280.458 -98.6437C278.92 -101.401 276.427 -103.483 273.45 -104.503Z" fill="#DA4067"/>
<path opacity="0.8" d="M81.2008 506.594C77.8565 505.445 75.1059 503.095 73.4438 499.964L-122.237 130.497C-125.828 123.717 -123.241 115.253 -116.475 111.637L252.275 -85.5411C255.659 -87.3522 259.678 -87.6764 263.305 -86.4373C266.651 -85.2945 269.406 -82.9361 271.062 -79.8072L466.743 289.66C470.333 296.44 467.747 304.904 460.981 308.52L92.2365 505.7C88.8525 507.511 84.8279 507.833 81.2008 506.594ZM262.819 -85.0186C259.58 -86.1298 255.996 -85.8359 252.973 -84.2214L-115.776 112.95C-121.817 116.181 -124.123 123.737 -120.915 129.786L74.7643 499.259C76.2435 502.054 78.7036 504.153 81.6869 505.176C84.9212 506.279 88.511 505.987 91.5348 504.372L460.283 307.2C466.325 303.97 468.63 296.413 465.418 290.357L269.737 -79.1102C268.262 -81.8968 265.802 -83.9965 262.819 -85.0186Z" fill="#DA4067"/>
<path opacity="0.8" d="M63.1893 503.95C59.826 502.795 57.1056 500.413 55.5146 497.227L-125.691 134.578C-127.302 131.345 -127.569 127.676 -126.428 124.242C-125.293 120.806 -122.888 118.026 -119.667 116.394L242.247 -66.2375C245.516 -67.89 249.218 -68.1422 252.676 -66.9596C256.039 -65.805 258.766 -63.4205 260.357 -60.2351L441.556 302.412C444.886 309.074 442.182 317.235 435.534 320.59L73.6179 503.228C70.3511 504.874 66.6475 505.132 63.1893 503.95ZM252.192 -65.5474C249.114 -66.5975 245.826 -66.3747 242.914 -64.9064L-118.996 117.733C-121.859 119.175 -123.997 121.655 -125.012 124.707C-126.027 127.758 -125.793 131.026 -124.357 133.897L56.8403 496.551C58.2585 499.39 60.6795 501.505 63.6754 502.531C66.7472 503.58 70.0412 503.359 72.947 501.888L434.863 319.251C440.778 316.265 443.18 309.012 440.22 303.078L259.014 -59.5707C257.607 -62.3995 255.18 -64.517 252.192 -65.5474Z" fill="#DA4067"/>
<path opacity="0.8" d="M45.1753 501.312C41.793 500.152 39.092 497.727 37.5739 494.48L-129.151 138.658C-132.219 132.107 -129.4 124.255 -122.861 121.157L232.221 -46.94C235.317 -48.4025 238.805 -48.6074 242.044 -47.4963C245.426 -46.336 248.127 -43.9109 249.647 -40.6708L416.375 315.166C419.442 321.717 416.617 329.567 410.079 332.665L54.9985 500.756C51.9007 502.224 48.414 502.423 45.1753 501.312ZM241.558 -46.0778C238.687 -47.0601 235.598 -46.8821 232.853 -45.5847L-122.23 122.512C-128.025 125.258 -130.525 132.213 -127.809 138.02L38.9219 493.845C40.2683 496.717 42.6592 498.866 45.6614 499.893C48.5263 500.874 51.6217 500.698 54.3668 499.4L409.447 331.31C415.243 328.564 417.741 321.615 415.021 315.8L248.297 -40.0291C246.951 -42.9018 244.56 -45.0499 241.558 -46.0778Z" fill="#DA4067"/>
<path opacity="0.8" d="M27.157 498.687C23.7936 497.532 21.0536 495.006 19.6352 491.748L-132.612 142.737C-133.974 139.612 -134.04 136.147 -132.804 132.974C-131.566 129.795 -129.168 127.295 -126.057 125.92L222.196 -27.6277C225.125 -28.9191 228.403 -29.0623 231.418 -28.0308C234.777 -26.8843 237.521 -24.3501 238.946 -21.0898L391.187 327.919C393.998 334.36 391.052 341.899 384.631 344.736L36.3787 498.284C33.4498 499.575 30.1781 499.72 27.157 498.687ZM230.934 -26.6185C228.269 -27.5332 225.374 -27.4081 222.793 -26.269L-125.456 127.287C-128.202 128.495 -130.316 130.707 -131.408 133.509C-132.503 136.317 -132.447 139.374 -131.245 142.128L21.0011 491.145C22.256 494.025 24.6788 496.252 27.6431 497.268C30.3075 498.183 33.1961 498.056 35.7841 496.919L384.039 343.365C389.707 340.864 392.305 334.205 389.828 328.523L237.586 -20.4854C236.325 -23.3673 233.898 -25.6019 230.934 -26.6185Z" fill="#DA4067"/>
<path opacity="0.8" d="M9.13086 496.066C5.74035 494.91 3.02974 492.331 1.69434 489.001L-136.071 146.81C-137.305 143.743 -137.272 140.383 -135.983 137.336C-134.695 134.289 -132.303 131.925 -129.243 130.679L212.178 -8.33472C214.933 -9.4571 217.996 -9.54649 220.798 -8.5846C224.186 -7.42248 226.899 -4.84954 228.236 -1.52552L366.006 340.673C368.55 346.994 365.486 354.231 359.178 356.805L17.7573 495.818C15.0037 496.934 11.9408 497.024 9.13086 496.066ZM220.312 -7.16602C217.846 -8.00848 215.151 -7.93443 212.731 -6.94735L-128.683 132.068C-131.369 133.163 -133.477 135.239 -134.609 137.919C-135.741 140.599 -135.773 143.555 -134.689 146.247L3.07614 488.437C4.2555 491.364 6.63369 493.625 9.61692 494.648C12.0828 495.49 14.7708 495.414 17.1973 494.429L358.616 355.422C364.166 353.161 366.862 346.8 364.618 341.235L226.852 -0.955777C225.679 -3.88066 223.295 -6.14379 220.312 -7.16602Z" fill="#DA4067"/>
<path opacity="0.8" d="M-8.89064 493.454C-12.3172 492.28 -14.9939 489.656 -16.2464 486.254L-139.532 150.89C-141.813 144.681 -138.626 137.748 -132.431 135.443L202.153 10.9773C204.731 10.0159 207.587 9.97568 210.176 10.868C213.602 12.0413 216.279 14.6656 217.531 18.0679L340.825 353.428C343.107 359.637 339.92 366.569 333.731 368.876L-0.862036 493.346C-3.4459 494.306 -6.29384 494.341 -8.89064 493.454ZM209.698 12.2821C207.426 11.5037 204.929 11.5393 202.67 12.3744L-131.917 136.847C-137.34 138.863 -140.127 144.929 -138.129 150.373L-14.8441 485.738C-13.7485 488.715 -11.4023 491.015 -8.40641 492.041C-6.13467 492.82 -3.64347 492.782 -1.37658 491.943L333.21 367.47C338.633 365.454 341.421 359.388 339.421 353.95L216.131 18.5777C215.042 15.6018 212.694 13.3081 209.698 12.2821Z" fill="#DA4067"/>
<path opacity="0.8" d="M-26.9218 490.852C-30.38 489.669 -33.0336 486.989 -34.1804 483.508L-142.99 154.962C-145.009 148.865 -141.7 142.244 -135.617 140.202L192.142 30.2719C194.58 29.4554 197.148 29.461 199.57 30.2905C203.034 31.4749 205.682 34.1525 206.837 37.6293L315.642 366.188C317.661 372.285 314.353 378.907 308.272 380.942L-19.4873 490.872C-21.926 491.689 -24.4938 491.683 -26.9218 490.852ZM199.084 31.7091C196.975 30.9853 194.73 30.9784 192.611 31.6895L-135.148 141.619C-140.452 143.395 -143.332 149.166 -141.572 154.485L-32.764 483.038C-31.7603 486.071 -29.4505 488.401 -26.4357 489.433C-24.3265 490.157 -22.0883 490.162 -19.9609 489.446L307.796 379.523C313.1 377.747 315.98 371.976 314.22 366.657L205.412 38.1044C204.413 35.0793 202.099 32.7406 199.084 31.7091Z" fill="#DA4067"/>
<path opacity="0.8" d="M-44.9507 488.264C-48.4089 487.082 -51.0878 484.278 -52.1148 480.763L-146.449 159.036C-148.205 153.05 -144.775 146.739 -138.805 144.967L182.118 49.5841C184.376 48.9139 186.741 48.9561 188.955 49.7179C192.414 50.9005 195.092 53.7043 196.119 57.2191L290.453 378.947C292.203 384.931 288.78 391.243 282.81 393.016L-38.1148 488.405C-40.3712 489.068 -42.7359 489.026 -44.9507 488.264ZM188.471 51.1301C186.55 50.4685 184.5 50.4295 182.535 51.014L-138.388 146.397C-143.567 147.934 -146.54 153.416 -145.016 158.604L-50.6906 480.336C-49.7948 483.386 -47.4669 485.818 -44.471 486.844C-42.5477 487.499 -40.4981 487.538 -38.5412 486.958L282.388 391.578C287.561 390.038 290.538 384.565 289.016 379.37L194.691 57.638C193.801 54.5902 191.473 52.1579 188.471 51.1301Z" fill="#DA4067"/>
<path opacity="0.8" d="M-62.9899 485.688C-66.5031 484.482 -69.1444 481.621 -70.0556 478.016L-149.906 163.102C-151.393 157.23 -147.842 151.231 -141.986 149.727L172.11 68.8873C174.183 68.3554 176.345 68.4341 178.361 69.1237C181.874 70.3293 184.513 73.1972 185.427 76.7955L265.27 391.708C266.76 397.574 263.206 403.579 257.35 405.083L-56.747 485.929C-58.814 486.463 -60.98 486.376 -62.9899 485.688ZM177.868 70.5404C176.133 69.9472 174.266 69.8725 172.474 70.3358L-141.622 151.176C-146.678 152.481 -149.747 157.659 -148.463 162.729L-68.6129 477.643C-67.8253 480.757 -65.5395 483.239 -62.5057 484.276C-60.7639 484.871 -58.9029 484.944 -57.1109 484.48L256.986 403.634C262.042 402.329 265.112 397.151 263.821 392.079L183.971 77.1652C183.184 74.0511 180.902 71.5775 177.868 70.5404Z" fill="#DA4067"/>
<path opacity="0.8" d="M-81.0343 483.131C-84.5539 481.923 -87.2211 478.916 -87.9962 475.269L-153.362 167.169C-154.583 161.417 -150.908 155.722 -145.165 154.488L162.096 88.1886C163.988 87.7822 165.94 87.8956 167.756 88.5193C171.275 89.7268 173.941 92.74 174.718 96.3807L240.086 404.475C241.306 410.227 237.633 415.916 231.889 417.156L-75.3725 483.455C-77.2646 483.861 -79.223 483.746 -81.0343 483.131ZM167.272 89.9316C165.711 89.3969 164.029 89.3008 162.408 89.6494L-144.861 155.953C-149.799 157.018 -152.955 161.909 -151.911 166.86L-86.5349 474.949C-85.8574 478.134 -83.6181 480.658 -80.5482 481.712C-78.988 482.247 -77.3056 482.343 -75.6783 481.996L231.585 415.691C236.516 414.624 239.679 409.734 238.626 404.788L173.258 96.6942C172.581 93.5093 170.342 90.9862 167.272 89.9316Z" fill="#DA4067"/>
<path opacity="0.8" d="M-99.0892 480.584C-102.678 479.356 -105.299 476.26 -105.935 472.516L-156.826 171.234C-157.777 165.595 -153.976 160.219 -148.352 159.246L152.083 107.483C153.784 107.192 155.543 107.332 157.16 107.883C160.749 109.111 163.377 112.203 164.004 115.957L214.894 417.239C215.846 422.878 212.052 428.256 206.423 429.221L-94.0065 480.985C-95.7066 481.276 -97.4657 481.137 -99.0892 480.584ZM156.672 109.308C155.287 108.832 153.781 108.719 152.326 108.972L-148.102 160.73C-152.914 161.557 -156.164 166.159 -155.351 170.986L-104.457 472.256C-103.917 475.462 -101.673 478.111 -98.6012 479.159C-97.2161 479.635 -95.7123 479.754 -94.257 479.502L206.177 427.745C210.989 426.918 214.239 422.316 213.426 417.489L162.54 116.215C161.994 113.006 159.748 110.364 156.672 109.308Z" fill="#DA4067"/>
</g>
</g>
<defs>
<clipPath id="clip0_134_1631">
<rect width="885" height="638" fill="white" transform="translate(-237 440.014) rotate(-73.6048)"/>
</clipPath>
</defs>
</svg>
