<svg width="711" height="860" viewBox="0 0 711 860" fill="none" xmlns="http://www.w3.org/2000/svg">
<g opacity="0.9" clip-path="url(#clip0_134_1583)">
<path opacity="0.8" d="M711.3 478.718C710.338 481.163 708.705 483.281 706.573 484.838L364.61 734.46C361.613 736.65 357.942 737.539 354.268 736.966C350.594 736.392 347.361 734.428 345.165 731.434L94.4332 389.682C91.6003 385.822 90.9526 380.853 92.7016 376.399C93.6641 373.954 95.2974 371.836 97.4289 370.279L439.392 120.657C442.389 118.467 446.061 117.577 449.734 118.151C453.409 118.72 456.641 120.689 458.837 123.683L709.563 465.438C712.396 469.298 713.045 474.262 711.3 478.718ZM93.7318 376.815C92.1254 380.913 92.722 385.485 95.3294 389.035L346.061 730.787C348.079 733.543 351.055 735.351 354.434 735.876C357.813 736.401 361.191 735.581 363.945 733.568L705.913 483.948C707.878 482.515 709.379 480.57 710.259 478.319C711.867 474.217 711.269 469.649 708.668 466.096L457.935 124.349C455.912 121.591 452.939 119.789 449.557 119.258C446.178 118.733 442.8 119.552 440.041 121.564L98.0779 371.186C96.115 372.614 94.612 374.564 93.7318 376.815Z" fill="#CC0033"/>
<path opacity="0.8" d="M708.699 492.02C707.743 494.463 706.1 496.561 703.947 498.091L367.527 737.166C364.578 739.263 360.981 740.085 357.406 739.483C353.83 738.88 350.697 736.925 348.591 733.972L108.438 397.775C105.763 394.031 105.17 389.236 106.844 384.954C107.805 382.513 109.444 380.408 111.598 378.878L448.017 139.803C454.108 135.473 462.607 136.906 466.955 142.992L707.111 479.196C709.786 482.94 710.384 487.736 708.699 492.02ZM107.887 385.363C106.342 389.295 106.889 393.695 109.347 397.137L349.501 733.33C351.433 736.035 354.308 737.835 357.589 738.388C360.874 738.943 364.174 738.186 366.883 736.26L703.303 497.185C705.278 495.782 706.784 493.854 707.665 491.614C709.21 487.682 708.663 483.282 706.204 479.845L466.053 143.643C462.058 138.056 454.26 136.739 448.671 140.712L112.251 379.787C110.276 381.191 108.765 383.117 107.887 385.363Z" fill="#CC0033"/>
<path opacity="0.8" d="M706.108 505.321C705.152 507.764 703.499 509.848 701.326 511.345L370.451 739.869C364.45 744.013 356.184 742.504 352.022 736.512L122.448 405.869C119.925 402.24 119.386 397.619 120.998 393.507C121.954 391.065 123.607 388.98 125.775 387.482L456.65 158.958C459.558 156.95 463.076 156.194 466.556 156.832C470.038 157.465 473.064 159.414 475.079 162.315L704.662 492.961C707.18 496.589 707.724 501.211 706.108 505.321ZM122.042 393.912C120.566 397.676 121.059 401.912 123.366 405.234L352.94 735.877C356.749 741.369 364.324 742.745 369.82 738.953L700.695 510.429C702.686 509.056 704.201 507.148 705.076 504.911C706.553 501.147 706.057 496.915 703.746 493.591L474.178 162.945C472.33 160.284 469.558 158.503 466.37 157.92C463.182 157.336 459.961 158.032 457.298 159.87L126.423 388.393C124.432 389.766 122.917 391.675 122.042 393.912Z" fill="#CC0033"/>
<path opacity="0.8" d="M703.517 518.623C702.561 521.065 700.899 523.131 698.704 524.6L373.379 742.574C370.518 744.489 367.081 745.179 363.698 744.513C360.316 743.847 357.391 741.905 355.465 739.046L136.472 413.953C134.107 410.439 133.618 405.992 135.164 402.055C136.124 399.614 137.782 397.546 139.977 396.078L465.308 178.1C471.213 174.147 479.253 175.724 483.224 181.624L702.209 506.725C704.576 510.233 705.065 514.681 703.517 518.623ZM136.192 402.459C134.783 406.059 135.231 410.124 137.39 413.333L356.383 738.427C358.144 741.038 360.815 742.814 363.906 743.422C366.997 744.03 370.139 743.399 372.752 741.649L698.088 523.673C700.089 522.33 701.612 520.444 702.485 518.212C703.895 514.612 703.451 510.548 701.288 507.338L482.295 182.244C478.663 176.855 471.32 175.408 465.926 179.023L140.594 397C138.589 398.341 137.071 400.228 136.192 402.459Z" fill="#CC0033"/>
<path opacity="0.8" d="M700.93 531.925C699.969 534.366 698.296 536.418 696.087 537.855L376.301 745.277C373.486 747.104 370.124 747.726 366.841 747.027C363.552 746.33 360.734 744.395 358.897 741.581L150.487 422.044C148.273 418.65 147.834 414.375 149.311 410.606C150.268 408.164 151.946 406.113 154.155 404.676L473.942 197.25C476.757 195.423 480.119 194.801 483.407 195.502C486.696 196.198 489.516 198.129 491.348 200.941L699.761 520.485C701.97 523.877 702.41 528.152 700.93 531.925ZM150.345 411.012C148.995 414.451 149.398 418.35 151.414 421.443L359.823 740.98C361.497 743.546 364.068 745.309 367.063 745.94C370.061 746.578 373.125 746.01 375.691 744.347L695.48 536.916C697.494 535.609 699.022 533.741 699.894 531.513C701.242 528.079 700.84 524.18 698.824 521.082L490.411 201.543C488.737 198.978 486.164 197.22 483.171 196.583C480.173 195.945 477.109 196.514 474.543 198.177L154.756 405.603C152.744 406.916 151.217 408.784 150.345 411.012Z" fill="#CC0033"/>
<path opacity="0.8" d="M698.349 545.23C697.391 547.677 695.699 549.707 693.467 551.105L379.223 747.985C373.508 751.568 365.927 749.831 362.327 744.121L164.494 430.132C162.429 426.862 162.046 422.756 163.456 419.157C164.413 416.709 166.1 414.678 168.333 413.279L482.579 216.406C485.349 214.667 488.634 214.117 491.824 214.847C495.018 215.578 497.737 217.5 499.475 220.27L697.307 534.248C699.371 537.523 699.76 541.625 698.349 545.23ZM164.491 419.558C163.208 422.833 163.558 426.564 165.433 429.541L363.267 743.53C366.54 748.724 373.429 750.301 378.627 747.044L692.877 550.161C694.905 548.89 696.44 547.045 697.311 544.822C698.594 541.547 698.243 537.816 696.368 534.839L498.535 220.85C496.949 218.33 494.478 216.581 491.581 215.92C488.679 215.258 485.69 215.76 483.178 217.337L168.931 414.215C166.898 415.485 165.361 417.335 164.491 419.558Z" fill="#CC0033"/>
<path opacity="0.8" d="M695.763 558.532C694.805 560.98 693.104 562.991 690.845 564.36L382.147 750.688C379.42 752.332 376.219 752.818 373.123 752.058C370.027 751.298 367.412 749.375 365.76 746.656L178.506 438.221C176.563 435.019 176.231 431.186 177.597 427.7C178.556 425.248 180.257 423.237 182.519 421.875L491.217 235.546C496.842 232.15 504.19 233.962 507.604 239.578L694.859 548.013C696.801 551.215 697.133 555.048 695.763 558.532ZM178.636 428.103C177.398 431.264 177.696 434.738 179.457 437.64L366.71 746.079C368.209 748.548 370.581 750.284 373.385 750.975C376.193 751.668 379.094 751.225 381.567 749.732L690.268 563.41C692.316 562.171 693.859 560.349 694.728 558.131C695.966 554.97 695.665 551.49 693.902 548.593L506.65 240.154C503.555 235.058 496.895 233.419 491.794 236.496L183.096 422.825C181.049 424.058 179.505 425.885 178.636 428.103Z" fill="#CC0033"/>
<path opacity="0.8" d="M693.185 571.838C692.226 574.29 690.505 576.284 688.218 577.613L385.07 753.391C382.39 754.943 379.264 755.361 376.267 754.568C373.266 753.773 370.757 751.86 369.199 749.184L192.529 446.305C190.731 443.225 190.451 439.56 191.748 436.243C192.712 433.793 194.424 431.795 196.71 430.467L499.868 254.691C502.544 253.134 505.675 252.718 508.672 253.511C511.667 254.309 514.182 256.218 515.74 258.895L692.404 561.776C694.202 564.856 694.487 568.523 693.185 571.838ZM192.777 436.647C191.599 439.647 191.858 442.963 193.479 445.743L370.152 748.628C371.563 751.052 373.83 752.778 376.546 753.496C379.258 754.212 382.084 753.837 384.506 752.431L687.66 576.653C689.726 575.452 691.278 573.649 692.147 571.431C693.325 568.431 693.066 565.115 691.445 562.335L514.776 259.452C513.364 257.033 511.092 255.305 508.382 254.584C505.672 253.863 502.849 254.244 500.424 255.644L197.269 431.426C195.197 432.626 193.644 434.434 192.777 436.647Z" fill="#CC0033"/>
<path opacity="0.8" d="M690.608 585.144C689.658 587.568 687.878 589.599 685.597 590.867L387.987 756.098C385.353 757.561 382.302 757.911 379.4 757.083C376.499 756.255 374.09 754.351 372.621 751.72L206.531 454.392C204.881 451.44 204.643 447.939 205.878 444.788C206.828 442.364 208.608 440.333 210.889 439.066L508.499 273.835C511.131 272.376 514.178 272.024 517.086 272.849C519.987 273.678 522.396 275.582 523.865 278.212L689.954 575.546C691.604 578.497 691.842 581.998 690.608 585.144ZM206.916 445.196C205.803 448.036 206.019 451.192 207.504 453.853L373.598 751.183C374.923 753.557 377.09 755.27 379.709 756.016C382.322 756.761 385.071 756.447 387.447 755.129L685.059 589.894C687.115 588.752 688.718 586.92 689.575 584.738C690.688 581.898 690.472 578.742 688.987 576.081L522.893 278.751C521.567 276.382 519.4 274.664 516.782 273.918C514.168 273.173 511.42 273.487 509.044 274.805L211.434 440.036C209.377 441.178 207.769 443.008 206.916 445.196Z" fill="#CC0033"/>
<path opacity="0.8" d="M688.04 598.453C687.089 600.882 685.289 602.896 682.975 604.121L390.91 758.801C388.324 760.172 385.352 760.456 382.546 759.593C379.742 758.736 377.436 756.836 376.059 754.252L220.543 462.477C219.034 459.646 218.841 456.316 220.01 453.329C220.961 450.9 222.761 448.887 225.075 447.661L517.14 292.982C522.482 290.153 529.145 292.192 531.991 297.53L687.506 589.306C689.016 592.137 689.207 595.471 688.04 598.453ZM221.048 453.737C220 456.418 220.172 459.413 221.526 461.957L377.041 753.733C378.279 756.056 380.351 757.762 382.873 758.532C385.394 759.303 388.064 759.05 390.39 757.819L682.451 603.138C684.529 602.039 686.144 600.232 687.002 598.046C688.05 595.365 687.878 592.37 686.524 589.825L531.009 298.05C528.455 293.253 522.464 291.418 517.666 293.961L225.599 448.645C223.521 449.744 221.906 451.551 221.048 453.737Z" fill="#CC0033"/>
<path opacity="0.8" d="M685.471 611.767C684.516 614.205 682.698 616.197 680.354 617.376L393.832 761.509C388.579 764.15 382.151 762.031 379.496 756.789L234.561 470.563C233.195 467.859 233.039 464.693 234.146 461.871C235.101 459.433 236.921 457.437 239.265 456.258L525.787 312.125C531.035 309.482 537.469 311.598 540.123 316.845L685.056 603.075C686.423 605.78 686.573 608.944 685.471 611.767ZM235.18 462.277C234.19 464.802 234.323 467.639 235.548 470.061L380.478 756.285C382.859 760.981 388.621 762.878 393.322 760.514L679.848 616.383C681.948 615.328 683.577 613.541 684.433 611.36C685.424 608.83 685.289 605.998 684.06 603.575L539.13 317.35C536.749 312.654 530.987 310.758 526.286 313.121L239.764 457.254C237.665 458.309 236.036 460.096 235.18 462.277Z" fill="#CC0033"/>
<path opacity="0.8" d="M682.908 625.078C681.944 627.528 680.107 629.498 677.726 630.633L396.749 764.215C391.593 766.666 385.389 764.468 382.925 759.318L248.571 478.642C247.337 476.066 247.229 473.066 248.269 470.409C249.228 467.957 251.071 465.984 253.451 464.854L534.428 331.272C539.584 328.82 545.788 331.019 548.251 336.169L682.607 616.84C683.841 619.416 683.948 622.42 682.908 625.078ZM249.307 470.816C248.374 473.189 248.475 475.864 249.575 478.166L383.924 758.84C386.126 763.439 391.664 765.399 396.264 763.208L677.245 629.628C679.371 628.618 681.012 626.856 681.87 624.67C682.796 622.3 682.697 619.621 681.598 617.319L547.248 336.645C545.047 332.046 539.508 330.086 534.902 332.28L253.925 465.862C251.806 466.868 250.165 468.63 249.307 470.816Z" fill="#CC0033"/>
<path opacity="0.8" d="M680.349 638.39C679.38 640.854 677.52 642.801 675.101 643.881L399.668 766.916C397.212 768.01 394.477 768.09 391.963 767.13C389.447 766.175 387.461 764.296 386.354 761.847L262.584 486.727C261.464 484.242 261.398 481.48 262.391 478.946C263.36 476.482 265.221 474.531 267.641 473.451L543.073 350.42C548.133 348.159 554.108 350.434 556.381 355.488L680.157 630.61C681.272 633.093 681.342 635.856 680.349 638.39ZM263.424 479.352C262.543 481.608 262.6 484.06 263.595 486.274L387.372 761.391C388.348 763.568 390.121 765.238 392.355 766.092C394.589 766.946 397.025 766.877 399.206 765.902L674.642 642.873C676.798 641.91 678.45 640.178 679.311 637.983C680.191 635.732 680.136 633.274 679.139 631.065L555.364 355.944C553.34 351.448 548.031 349.426 543.524 351.436L268.09 474.471C265.942 475.426 264.288 477.163 263.424 479.352Z" fill="#CC0033"/>
<path opacity="0.8" d="M677.796 651.704C676.822 654.182 674.931 656.113 672.469 657.137L402.585 769.623C397.617 771.692 391.875 769.341 389.788 764.377L276.592 494.81C275.608 492.46 275.57 489.858 276.503 487.485C277.476 485.007 279.367 483.076 281.825 482.051L551.72 369.563C556.688 367.494 562.428 369.85 564.515 374.814L677.706 644.379C678.695 646.731 678.728 649.331 677.796 651.704ZM277.541 487.893C276.716 489.997 276.747 492.3 277.62 494.384L390.816 763.951C392.665 768.351 397.751 770.436 402.156 768.604L672.041 656.114C674.22 655.205 675.895 653.496 676.758 651.296C677.581 649.197 677.552 646.889 676.678 644.805L563.487 375.24C561.638 370.84 556.557 368.756 552.146 370.591L282.257 483.076C280.078 483.984 278.403 485.693 277.541 487.893Z" fill="#CC0033"/>
<path opacity="0.8" d="M675.251 665.021C674.282 667.485 672.315 669.442 669.847 670.391L405.502 772.329C403.135 773.241 400.557 773.177 398.241 772.155C395.92 771.132 394.141 769.267 393.222 766.908L290.611 502.892C289.748 500.672 289.75 498.229 290.615 496.02C291.578 493.558 293.551 491.599 296.021 490.645L560.365 388.712C565.243 386.829 570.748 389.266 572.644 394.133L675.255 658.149C676.118 660.369 676.118 662.807 675.251 665.021ZM291.649 496.426C290.881 498.378 290.879 500.535 291.64 502.492L394.257 766.505C395.064 768.587 396.638 770.231 398.684 771.135C400.735 772.039 403.008 772.097 405.094 771.292L669.444 669.356C671.626 668.516 673.36 666.786 674.213 664.614C674.98 662.661 674.981 660.509 674.221 658.547L571.606 394.529C569.934 390.232 565.073 388.084 560.769 389.743L296.425 491.676C294.242 492.521 292.502 494.254 291.649 496.426Z" fill="#CC0033"/>
<path opacity="0.8" d="M672.71 678.344C671.739 680.829 669.733 682.762 667.215 683.647L408.414 775.034C406.095 775.852 403.599 775.718 401.377 774.661C399.156 773.605 397.478 771.748 396.653 769.432L304.616 510.969C303.873 508.883 303.908 506.602 304.715 504.549C305.69 502.066 307.691 500.132 310.205 499.245L569.012 407.855C573.792 406.168 579.068 408.681 580.773 413.457L672.81 671.92C673.548 674.004 673.514 676.285 672.71 678.344ZM305.753 504.957C305.046 506.764 305.012 508.77 305.665 510.602L397.704 769.061C398.429 771.094 399.902 772.729 401.856 773.658C403.81 774.587 406.005 774.706 408.041 773.988L666.841 682.601C669.055 681.819 670.814 680.123 671.671 677.937C672.379 676.13 672.411 674.128 671.759 672.291L579.727 413.83C578.23 409.629 573.592 407.417 569.383 408.906L310.583 500.293C308.371 501.071 306.611 502.771 305.753 504.957Z" fill="#CC0033"/>
<path opacity="0.8" d="M670.174 691.665C669.189 694.175 667.151 696.081 664.582 696.903L411.331 777.74C406.642 779.236 401.596 776.641 400.088 771.958L318.635 519.051C318.005 517.103 318.07 514.977 318.818 513.08C319.803 510.57 321.841 508.664 324.41 507.842L577.658 426.999C582.347 425.503 587.393 428.098 588.903 432.776L670.359 685.689C670.987 687.642 670.919 689.762 670.174 691.665ZM319.853 513.482C319.2 515.146 319.144 517.005 319.69 518.712L401.148 771.621C402.467 775.72 406.882 777.99 410.994 776.68L664.244 695.843C666.493 695.125 668.279 693.454 669.141 691.259C669.794 689.594 669.848 687.74 669.299 686.027L587.841 433.118C586.522 429.019 582.107 426.749 578 428.06L324.743 508.9C322.496 509.614 320.714 511.286 319.853 513.482Z" fill="#CC0033"/>
<path opacity="0.8" d="M667.646 704.993C666.654 707.527 664.575 709.414 661.951 710.154L414.243 780.445C409.646 781.749 404.835 779.073 403.519 774.482L332.642 527.124C332.115 525.283 332.204 523.374 332.9 521.599C333.895 519.061 335.971 517.178 338.593 516.432L586.31 446.144C590.907 444.84 595.717 447.516 597.03 452.105L667.906 699.464C668.433 701.304 668.344 703.214 667.646 704.993ZM333.938 522.007C333.331 523.552 333.252 525.221 333.71 526.821L404.587 774.179C405.732 778.182 409.925 780.511 413.936 779.374L661.648 709.085C663.935 708.437 665.742 706.795 666.608 704.585C667.216 703.04 667.293 701.375 666.831 699.77L595.959 452.413C594.814 448.41 590.622 446.081 586.611 447.218L338.899 517.507C336.618 518.152 334.804 519.798 333.938 522.007Z" fill="#CC0033"/>
<path opacity="0.8" d="M665.13 718.32C664.137 720.854 661.965 722.755 659.32 723.405L417.156 783.149C412.65 784.262 408.075 781.506 406.954 777.008L346.661 535.206C346.237 533.504 346.347 531.747 346.986 530.124C347.978 527.59 350.15 525.688 352.796 525.038L594.96 465.294C599.464 464.186 604.041 466.938 605.161 471.435L665.459 713.239C665.878 714.939 665.769 716.697 665.13 718.32ZM348.019 530.53C347.464 531.938 347.368 533.461 347.737 534.942L408.03 776.744C409.002 780.646 412.977 783.035 416.882 782.07L659.05 722.332C661.345 721.765 663.229 720.112 664.09 717.917C664.64 716.507 664.737 714.984 664.371 713.51L604.079 471.703C603.106 467.805 599.137 465.413 595.227 466.377L353.06 526.115C350.766 526.677 348.882 528.33 348.019 530.53Z" fill="#CC0033"/>
<path opacity="0.8" d="M662.621 731.654C661.609 734.228 659.396 736.1 656.687 736.661L420.064 785.852C415.651 786.769 411.311 783.933 410.387 779.528L360.674 543.275C360.347 541.716 360.477 540.111 361.056 538.633C362.067 536.059 364.285 534.189 366.989 533.626L603.611 484.439C608.019 483.522 612.364 486.359 613.288 490.764L663.006 727.018C663.334 728.573 663.198 730.181 662.621 731.654ZM362.092 539.045C361.594 540.317 361.477 541.704 361.762 543.052L411.475 779.304C412.278 783.107 416.025 785.558 419.834 784.767L656.458 735.576C658.797 735.091 660.717 733.471 661.587 731.248C662.087 729.972 662.202 728.59 661.917 727.242L612.2 490.988C611.397 487.185 607.65 484.734 603.839 485.529L367.216 534.721C364.876 535.206 362.963 536.822 362.092 539.045Z" fill="#CC0033"/>
<path opacity="0.8" d="M660.125 744.993C659.112 747.572 656.79 749.459 654.055 749.917L422.971 788.555C418.657 789.277 414.546 786.359 413.819 782.047L374.685 551.349C374.446 549.929 374.594 548.48 375.117 547.15C376.131 544.571 378.457 542.686 381.188 542.226L612.267 503.586C616.581 502.865 620.687 505.781 621.42 510.094L660.553 740.792C660.793 742.213 660.643 743.666 660.125 744.993ZM376.151 547.556C375.702 548.699 375.575 549.947 375.781 551.164L414.918 781.869C415.546 785.576 419.076 788.082 422.789 787.466L653.865 748.82C656.254 748.419 658.203 746.835 659.087 744.586C659.536 743.442 659.663 742.194 659.459 740.972L620.321 510.273C619.69 506.571 616.162 504.059 612.452 504.682L381.373 543.322C378.984 543.723 377.036 545.307 376.151 547.556Z" fill="#CC0033"/>
<path opacity="0.8" d="M657.638 758.34C656.607 760.97 654.22 762.819 651.418 763.171L425.877 791.263C421.656 791.788 417.787 788.787 417.249 784.572L388.692 559.422C388.532 558.148 388.693 556.844 389.156 555.659C390.187 553.029 392.571 551.174 395.381 550.83L620.921 522.738C625.143 522.213 629.013 525.209 629.545 529.428L658.104 754.573C658.264 755.847 658.103 757.151 657.638 758.34ZM390.199 556.068C389.799 557.083 389.666 558.199 389.806 559.29L418.36 784.434C418.816 788.04 422.128 790.606 425.742 790.158L651.273 762.063C653.674 761.765 655.715 760.182 656.595 757.931C656.995 756.916 657.133 755.802 656.993 754.711L628.44 529.563C627.984 525.957 624.672 523.39 621.058 523.838L395.524 551.927C393.122 552.229 391.085 553.814 390.199 556.068Z" fill="#CC0033"/>
</g>
<defs>
<clipPath id="clip0_134_1583">
<rect width="658.141" height="683.171" fill="white" transform="translate(622.947 859.608) rotate(-161.088)"/>
</clipPath>
</defs>
</svg>
