<svg width="849" height="1188" viewBox="0 0 849 1188" fill="none" xmlns="http://www.w3.org/2000/svg">
<g clip-path="url(#clip0_109_5594)">
<path opacity="0.8" d="M113.826 950.941C110.941 949.097 108.643 946.479 107.185 943.363L-126.276 443.628C-128.325 439.249 -128.543 434.331 -126.889 429.778C-125.235 425.226 -121.914 421.583 -117.536 419.526L382.207 184.592C387.852 181.937 394.367 182.354 399.623 185.706C402.508 187.55 404.806 190.168 406.263 193.284L639.725 693.019C641.774 697.398 641.992 702.316 640.338 706.869C638.689 711.425 635.363 715.064 630.985 717.121L131.24 952.046C125.595 954.701 119.085 954.287 113.826 950.941ZM398.834 186.919C393.997 183.839 388.001 183.456 382.81 185.9L-116.933 420.834C-120.963 422.723 -124.02 426.075 -125.537 430.263C-127.055 434.452 -126.854 438.976 -124.97 443.002L108.489 942.743C109.829 945.613 111.939 948.02 114.596 949.709C119.439 952.793 125.429 953.173 130.622 950.737L630.36 715.8C634.393 713.905 637.441 710.556 638.967 706.365C640.485 702.177 640.284 697.653 638.403 693.621L404.941 193.886C403.606 191.019 401.491 188.609 398.834 186.919Z" fill="#CC0033"/>
<path opacity="0.8" d="M97.4708 944.281C94.5874 942.447 92.3158 939.821 90.8999 936.685L-130.467 446.68C-132.409 442.383 -132.559 437.579 -130.893 433.159C-129.227 428.738 -125.942 425.223 -121.64 423.27L368.351 200.47C373.809 197.987 380.087 198.43 385.142 201.644C388.022 203.484 390.303 206.107 391.719 209.243L613.086 699.248C617.096 708.12 613.134 718.627 604.264 722.661L114.264 945.464C108.807 947.947 102.525 947.509 97.4708 944.281ZM384.358 202.874C379.717 199.914 373.955 199.511 368.94 201.791L-121.046 424.595C-124.989 426.386 -128.01 429.611 -129.54 433.667C-131.073 437.729 -130.931 442.137 -129.148 446.083L92.219 936.088C93.5188 938.965 95.6058 941.373 98.2487 943.062C102.889 946.022 108.652 946.425 113.661 944.142L603.658 721.344C611.801 717.637 615.439 707.998 611.76 699.856L390.393 209.851C389.093 206.974 387.009 204.56 384.358 202.874Z" fill="#CC0033"/>
<path opacity="0.8" d="M81.1146 937.637C78.2312 935.802 75.9803 933.166 74.6112 930.013L-134.656 449.74C-138.45 441.03 -134.449 430.84 -125.747 427.02L354.493 216.353C359.765 214.037 365.807 214.506 370.661 217.596C373.544 219.43 375.795 222.066 377.167 225.214L586.434 705.487C588.272 709.708 588.357 714.394 586.671 718.684C584.989 722.977 581.738 726.357 577.525 728.207L97.2791 938.885C92.0099 941.195 85.9648 940.732 81.1146 937.637ZM369.882 218.829C365.44 215.999 359.9 215.569 355.075 217.686L-125.165 428.352C-133.141 431.847 -136.798 441.187 -133.326 449.164L75.9406 929.437C77.1966 932.325 79.2574 934.741 81.898 936.42C86.3401 939.251 91.8747 939.677 96.7029 937.555L576.945 726.897C580.811 725.201 583.781 722.103 585.326 718.173C586.871 714.244 586.788 709.951 585.106 706.086L375.84 225.813C374.583 222.924 372.523 220.509 369.882 218.829Z" fill="#CC0033"/>
<path opacity="0.8" d="M64.7582 930.992C61.8748 929.157 59.6501 926.514 58.3224 923.341L-138.847 452.806C-140.578 448.669 -140.599 444.101 -138.9 439.943C-137.201 435.786 -133.987 432.533 -129.849 430.787L340.645 232.257C345.729 230.113 351.538 230.602 356.184 233.565C359.064 235.405 361.292 238.043 362.62 241.216L559.792 711.76C563.367 720.299 559.336 730.183 550.799 733.781L80.2975 932.3C75.2186 934.447 69.4099 933.958 64.7582 930.992ZM355.409 234.779C351.16 232.075 345.85 231.63 341.207 233.586L-129.287 432.116C-133.066 433.714 -136.006 436.682 -137.558 440.482C-139.109 444.282 -139.091 448.457 -137.507 452.236L59.6619 922.785C60.8775 925.68 62.9066 928.099 65.5417 929.775C69.7909 932.48 75.0977 932.93 79.7444 930.969L550.238 732.439C558.038 729.146 561.728 720.12 558.458 712.318L361.286 241.775C360.074 238.875 358.041 236.461 355.409 234.779Z" fill="#CC0033"/>
<path opacity="0.8" d="M48.3995 924.351C45.5193 922.511 43.3152 919.858 42.0311 916.673L-143.035 455.865C-144.665 451.808 -144.618 447.354 -142.902 443.332C-141.187 439.301 -138.007 436.183 -133.949 434.539L326.789 248.148C331.684 246.167 337.259 246.677 341.707 249.51C344.59 251.345 346.791 254.004 348.075 257.189L533.147 718C534.777 722.056 534.73 726.511 533.01 730.538C531.296 734.569 528.121 737.69 524.066 739.329L63.3191 925.722C58.4281 927.697 52.8527 927.188 48.3995 924.351ZM340.929 250.73C336.87 248.143 331.785 247.68 327.325 249.484L-133.413 435.875C-137.112 437.371 -140.01 440.217 -141.568 443.887C-143.135 447.56 -143.176 451.62 -141.693 455.318L43.3842 916.132C44.5505 919.036 46.5565 921.456 49.1861 923.129C53.2391 925.713 58.3247 926.176 62.7898 924.376L523.531 737.979C527.231 736.482 530.123 733.634 531.687 729.966C533.253 726.293 533.294 722.234 531.811 718.535L346.739 257.724C345.564 254.824 343.558 252.403 340.929 250.73Z" fill="#CC0033"/>
<path opacity="0.8" d="M32.0364 917.718C29.1475 915.88 26.976 913.209 25.7475 910.004L-147.229 458.922C-150.378 450.718 -146.259 441.461 -138.056 438.289L312.939 264.029C317.638 262.209 322.982 262.747 327.231 265.452C330.12 267.289 332.295 269.955 333.523 273.16L506.492 724.244C508.021 728.22 507.9 732.558 506.169 736.453C504.433 740.354 501.294 743.348 497.318 744.877L46.3372 919.138C41.6333 920.955 36.2911 920.425 32.0364 917.718ZM326.459 266.674C322.593 264.214 317.736 263.727 313.46 265.378L-137.535 439.638C-144.996 442.522 -148.738 450.934 -145.877 458.396L27.102 909.487C28.2192 912.398 30.1935 914.823 32.8175 916.493C36.6831 918.953 41.5409 919.44 45.8166 917.789L496.812 743.529C500.431 742.133 503.287 739.411 504.857 735.873C506.43 732.33 506.538 728.383 505.151 724.776L332.177 273.689C331.063 270.772 329.083 268.344 326.459 266.674Z" fill="#CC0033"/>
<path opacity="0.8" d="M15.6772 911.079C12.7882 909.241 10.643 906.563 9.45903 903.332L-151.418 461.983C-152.837 458.085 -152.655 453.871 -150.908 450.102C-149.161 446.334 -146.047 443.473 -142.157 442.042L299.087 279.916C303.668 278.235 308.651 278.771 312.765 281.39C315.66 283.231 317.805 285.909 318.98 289.143L479.857 730.492C482.789 738.534 478.632 747.474 470.596 750.432L29.3527 912.558C24.7716 914.24 19.7879 913.703 15.6772 911.079ZM311.99 282.619C308.259 280.243 303.743 279.754 299.592 281.279L-141.657 443.402C-145.19 444.699 -148.004 447.298 -149.589 450.709C-151.178 454.125 -151.339 457.946 -150.05 461.481L10.8182 902.832C11.8885 905.761 13.8311 908.189 16.4495 909.856C20.1799 912.231 24.7054 912.718 28.8505 911.19L470.1 749.067C477.39 746.388 481.154 738.284 478.498 730.992L317.621 289.643C316.556 286.717 314.608 284.285 311.99 282.619Z" fill="#CC0033"/>
<path opacity="0.8" d="M-0.688637 904.449C-3.58308 902.608 -5.70129 899.909 -6.82647 896.653L-155.606 465.042C-156.918 461.228 -156.669 457.126 -154.904 453.494C-153.136 449.856 -150.062 447.127 -146.25 445.806L285.238 295.819C289.627 294.292 294.383 294.852 298.298 297.342C301.19 299.188 303.314 301.877 304.439 305.133L453.213 736.755C454.534 740.567 454.281 744.674 452.516 748.306C450.746 751.935 447.674 754.673 443.862 755.994L12.3714 905.972C7.98279 907.499 3.22362 906.944 -0.688637 904.449ZM297.524 298.556C293.984 296.298 289.68 295.799 285.718 297.174L-145.779 447.164C-149.231 448.36 -152.006 450.826 -153.604 454.119C-155.199 457.406 -155.428 461.114 -154.237 464.563L-5.46022 896.179C-4.44233 899.122 -2.526 901.557 0.0924438 903.224C3.63221 905.482 7.9364 905.981 11.8976 904.606L443.392 754.622C446.838 753.422 449.616 750.951 451.217 747.666C452.818 744.382 453.037 740.677 451.855 737.226L303.073 305.606C302.058 302.658 300.137 300.219 297.524 298.556Z" fill="#CC0033"/>
<path opacity="0.8" d="M-17.0542 897.821C-19.9154 895.999 -22.0657 893.215 -23.1148 889.981L-159.797 468.093C-161.008 464.36 -160.691 460.371 -158.905 456.869C-157.119 453.367 -154.081 450.765 -150.35 449.545L271.392 311.694C275.579 310.324 280.114 310.897 283.833 313.266C286.695 315.088 288.845 317.872 289.894 321.106L426.576 742.994C427.781 746.724 427.468 750.707 425.684 754.218C423.899 757.72 420.861 760.322 417.129 761.542L-4.61854 899.389C-8.80573 900.76 -13.3404 900.187 -17.0542 897.821ZM283.052 314.491C279.7 312.356 275.612 311.842 271.837 313.073L-149.909 450.929C-153.275 452.028 -156.008 454.37 -157.619 457.531C-159.226 460.685 -159.513 464.278 -158.423 467.646L-21.7361 889.536C-20.791 892.452 -18.8504 894.96 -16.2762 896.601C-12.9239 898.736 -8.8355 899.251 -5.06052 898.019L416.685 760.163C420.046 759.062 422.784 756.722 424.395 753.562C426.002 750.407 426.289 746.815 425.199 743.447L288.518 321.56C287.573 318.644 285.635 316.13 283.052 314.491Z" fill="#CC0033"/>
<path opacity="0.8" d="M-33.4267 891.204C-36.2934 889.379 -38.4167 886.573 -39.4038 883.309L-163.985 471.154C-165.09 467.504 -164.708 463.634 -162.902 460.262C-161.104 456.892 -158.097 454.42 -154.449 453.307L257.545 327.585C261.542 326.364 265.847 326.951 269.373 329.194C272.24 331.019 274.363 333.825 275.35 337.09L399.932 749.244C402.209 756.783 397.933 764.791 390.396 767.091L-21.5979 892.814C-25.5957 894.035 -29.9058 893.444 -33.4267 891.204ZM268.592 330.419C265.427 328.407 261.555 327.877 257.963 328.97L-154.031 454.693C-157.311 455.694 -160.011 457.915 -161.628 460.946C-163.245 463.977 -163.591 467.454 -162.6 470.736L-38.0149 882.885C-37.1309 885.817 -35.2253 888.335 -32.6456 889.979C-29.4806 891.991 -25.608 892.521 -22.016 891.428L389.978 765.705C396.75 763.642 400.597 756.443 398.548 749.671L273.961 337.513C273.078 334.581 271.172 332.064 268.592 330.419Z" fill="#CC0033"/>
<path opacity="0.8" d="M-49.8043 884.583C-52.6822 882.752 -54.7729 879.928 -55.6925 876.636L-168.179 474.211C-170.24 466.834 -165.92 459.147 -158.553 457.065L243.694 343.479C247.494 342.41 251.58 343.005 254.91 345.127C257.788 346.958 259.884 349.785 260.804 353.077L373.291 755.502C375.355 762.874 371.037 770.57 363.665 772.648L-38.588 886.231C-42.3877 887.3 -46.471 886.7 -49.8043 884.583ZM254.132 346.346C251.153 344.449 247.493 343.908 244.089 344.867L-158.155 458.447C-164.755 460.314 -168.624 467.206 -166.78 473.808L-54.2965 876.238C-53.4737 879.187 -51.5974 881.717 -49.0233 883.358C-46.0379 885.259 -42.3834 885.797 -38.9768 884.832L363.268 771.252C369.868 769.385 373.736 762.493 371.892 755.891L259.406 353.466C258.583 350.518 256.707 347.987 254.132 346.346Z" fill="#CC0033"/>
<path opacity="0.8" d="M-66.18 877.972C-69.0712 876.125 -71.1293 873.283 -71.9837 869.955L-172.37 477.262C-174.212 470.056 -169.847 462.675 -162.646 460.816L229.855 359.367C233.458 358.434 237.32 359.047 240.457 361.043C243.351 362.884 245.412 365.735 246.261 369.06L346.647 761.752C348.489 768.958 344.124 776.339 336.923 778.199L-55.5729 879.651C-59.1752 880.584 -63.0427 879.968 -66.18 877.972ZM239.676 362.268C236.875 360.481 233.43 359.939 230.212 360.769L-162.286 462.213C-168.716 463.875 -172.61 470.465 -170.962 476.894L-70.5783 869.592C-69.8199 872.563 -67.9786 875.102 -65.3989 876.747C-62.6009 878.525 -59.1503 879.07 -55.9322 878.24L336.566 776.796C342.996 775.134 346.89 768.544 345.239 762.106L244.853 369.414C244.097 366.452 242.255 363.912 239.676 362.268Z" fill="#CC0033"/>
<path opacity="0.8" d="M-82.5585 871.365C-85.4664 869.509 -87.4887 866.644 -88.2636 863.28L-176.555 480.317C-177.339 476.904 -176.755 473.387 -174.898 470.413C-173.046 467.436 -170.147 465.367 -166.738 464.566L216.008 375.256C219.465 374.447 223.013 375.055 226.004 376.959C228.911 378.815 230.939 381.684 231.714 385.048L320 768.007C321.623 775.043 317.217 782.112 310.186 783.752L-72.563 873.068C-76.0172 873.872 -79.5675 873.269 -82.5585 871.365ZM225.226 378.179C222.563 376.486 219.413 375.945 216.333 376.662L-166.411 465.981C-169.438 466.685 -172.018 468.532 -173.669 471.174C-175.32 473.817 -175.843 476.948 -175.143 479.981L-86.8599 862.946C-86.169 865.944 -84.3682 868.489 -81.7774 870.14C-79.1202 871.829 -75.9646 872.374 -72.8905 871.653L309.859 782.338C316.114 780.877 320.029 774.595 318.589 768.33L230.297 385.367C229.614 382.381 227.808 379.832 225.226 378.179Z" fill="#CC0033"/>
<path opacity="0.8" d="M-98.9403 864.765C-101.865 862.899 -103.859 859.998 -104.551 856.593L-180.746 483.368C-182.147 476.498 -177.703 469.746 -170.834 468.323L202.164 391.14C205.415 390.47 208.751 391.074 211.551 392.861C214.475 394.727 216.47 397.628 217.165 401.027L293.359 774.266C294.76 781.136 290.31 787.885 283.441 789.309L-89.5532 866.485C-92.8078 867.161 -96.14 866.551 -98.9403 864.765ZM210.77 394.086C208.287 392.505 205.334 391.967 202.451 392.561L-170.547 469.743C-176.635 471.005 -180.575 476.985 -179.336 483.075L-103.136 856.303C-102.521 859.316 -100.756 861.886 -98.1592 863.54C-95.6815 865.118 -92.7234 865.659 -89.8403 865.064L283.154 787.888C289.243 786.626 293.179 780.652 291.938 774.553L215.747 401.323C215.131 398.31 213.366 395.74 210.77 394.086Z" fill="#CC0033"/>
<path opacity="0.8" d="M-115.328 858.175C-118.236 856.319 -120.244 853.313 -120.84 849.92L-184.937 486.419C-185.509 483.165 -184.782 479.886 -182.895 477.18C-181.005 474.469 -178.176 472.663 -174.929 472.078L188.319 407.038C191.374 406.491 194.497 407.106 197.104 408.766C200.01 410.613 202.02 413.627 202.621 417.023L266.712 780.521C267.897 787.23 263.403 793.657 256.705 794.862L-106.543 859.902C-109.598 860.449 -112.715 859.838 -115.328 858.175ZM196.326 409.985C194.023 408.515 191.265 407.971 188.572 408.454L-174.674 473.503C-177.538 474.013 -180.034 475.613 -181.702 478.003C-183.372 480.397 -184.016 483.289 -183.509 486.159L-119.415 849.665C-118.888 852.664 -117.11 855.315 -114.547 856.95C-112.244 858.42 -109.492 858.96 -106.793 858.481L256.458 793.435C262.371 792.375 266.336 786.698 265.293 780.78L201.202 417.282C200.669 414.279 198.889 411.62 196.326 409.985Z" fill="#CC0033"/>
<path opacity="0.8" d="M-131.726 851.588C-134.659 849.724 -136.627 846.676 -137.128 843.234L-189.125 489.466C-189.59 486.295 -188.793 483.138 -186.886 480.562C-184.978 477.987 -182.184 476.307 -179.016 475.832L174.483 422.92C177.336 422.493 180.244 423.109 182.666 424.655C185.596 426.524 187.568 429.567 188.072 433.003L240.071 786.78C241.031 793.315 236.496 799.43 229.963 800.413L-123.537 853.325C-126.387 853.747 -129.295 853.132 -131.726 851.588ZM181.885 425.88C179.752 424.523 177.196 423.977 174.689 424.354L-178.805 477.269C-181.586 477.686 -184.046 479.16 -185.723 481.425C-187.4 483.691 -188.102 486.468 -187.694 489.251L-135.697 843.019C-135.252 846.045 -133.524 848.718 -130.945 850.363C-128.812 851.72 -126.26 852.262 -123.749 851.889L229.748 798.982C235.494 798.121 239.484 792.746 238.634 786.992L186.638 433.223C186.198 430.201 184.465 427.524 181.885 425.88Z" fill="#CC0033"/>
<path opacity="0.8" d="M-148.12 845.009C-151.083 843.121 -153.009 840.037 -153.416 836.547L-193.315 492.517C-194.053 486.147 -189.471 480.346 -183.106 479.591L160.639 438.818C163.287 438.502 165.989 439.116 168.226 440.548C171.19 442.436 173.116 445.52 173.522 449.01L213.43 793.038C214.168 799.408 209.586 805.208 203.227 805.967L-140.527 846.742C-143.181 847.055 -145.874 846.438 -148.12 845.009ZM167.454 441.771C165.49 440.519 163.127 439.982 160.808 440.252L-182.94 481.031C-188.511 481.69 -192.52 486.766 -191.876 492.351L-151.976 836.381C-151.621 839.436 -149.933 842.138 -147.342 843.789C-145.377 845.042 -143.02 845.576 -140.692 845.303L203.056 804.524C208.627 803.865 212.635 798.789 211.988 793.209L172.086 449.171C171.736 446.119 170.045 443.422 167.454 441.771Z" fill="#CC0033"/>
<path opacity="0.8" d="M-164.526 838.438C-167.517 836.534 -169.409 833.404 -169.698 829.863L-197.502 495.562C-198.018 489.358 -193.392 483.878 -187.193 483.345L146.809 454.703C149.294 454.491 151.713 455.083 153.807 456.418C156.804 458.325 158.69 461.452 158.988 464.99L186.786 799.302C187.302 805.506 182.676 810.986 176.479 811.514L-157.522 840.156C-160.007 840.367 -162.426 839.775 -164.526 838.438ZM153.026 457.643C151.203 456.479 149.088 455.96 146.929 456.145L-187.073 484.787C-192.477 485.247 -196.505 490.024 -196.057 495.437L-168.255 829.743C-167.999 832.829 -166.352 835.552 -163.745 837.213C-161.921 838.376 -159.812 838.892 -157.644 838.705L176.354 810.068C181.759 809.608 185.787 804.831 185.338 799.418L157.537 465.112C157.283 462.035 155.634 459.303 153.026 457.643Z" fill="#CC0033"/>
<path opacity="0.8" d="M-180.934 831.882C-183.925 829.978 -185.812 826.725 -185.98 823.18L-201.69 498.608C-201.983 492.569 -197.314 487.41 -191.283 487.104L132.964 470.601C135.245 470.486 137.465 471.066 139.38 472.29C142.371 474.194 144.258 477.447 144.426 480.992L160.136 805.563C160.424 811.599 155.76 816.762 149.729 817.067L-174.521 833.576C-176.799 833.685 -179.019 833.105 -180.934 831.882ZM138.602 473.509C136.941 472.447 135.018 471.942 133.032 472.043L-191.215 488.546C-196.447 488.811 -200.497 493.294 -200.241 498.529L-184.54 823.103C-184.39 826.18 -182.749 829.003 -180.158 830.653C-178.494 831.71 -176.571 832.215 -174.594 832.116L149.658 815.616C154.885 815.349 158.938 810.874 158.685 805.634L142.984 481.06C142.839 477.986 141.198 475.163 138.602 473.509Z" fill="#CC0033"/>
<path opacity="0.8" d="M-197.353 825.333C-200.391 823.395 -202.23 820.096 -202.268 816.493L-205.875 501.649C-205.941 495.778 -201.227 490.939 -195.364 490.861L119.136 486.495C121.212 486.468 123.231 487.036 124.975 488.146C128.013 490.085 129.848 493.389 129.89 496.986L133.491 811.828C133.56 817.693 128.844 822.537 122.981 822.615L-191.523 826.987C-193.593 827.017 -195.615 826.44 -197.353 825.333ZM124.189 489.368C122.688 488.413 120.944 487.916 119.149 487.943L-195.351 492.309C-200.414 492.383 -204.486 496.559 -204.43 501.627L-200.823 816.471C-200.79 819.584 -199.199 822.444 -196.575 824.114C-195.069 825.072 -193.331 825.566 -191.536 825.539L122.967 821.168C128.031 821.093 132.103 816.918 132.04 811.846L128.434 497.002C128.4 493.889 126.813 491.038 124.189 489.368Z" fill="#CC0033"/>
<path opacity="0.8" d="M-213.782 818.801C-216.825 816.859 -218.655 813.418 -218.556 809.806L-210.059 504.689C-209.9 498.992 -205.14 494.468 -199.445 494.618L105.303 502.385C107.179 502.435 108.994 502.988 110.564 503.99C113.607 505.931 115.434 509.378 115.337 512.985L106.844 818.097C106.685 823.793 101.928 828.312 96.2303 828.167L-208.518 820.4C-210.394 820.35 -212.215 819.794 -213.782 818.801ZM109.786 505.209C108.437 504.349 106.872 503.874 105.265 503.832L-199.492 496.067C-204.389 495.942 -208.478 499.828 -208.62 504.729L-217.106 809.838C-217.192 812.993 -215.655 815.881 -213.001 817.576C-211.652 818.436 -210.088 818.911 -208.475 818.956L96.2771 826.718C101.168 826.84 105.263 822.957 105.396 818.058L113.89 512.947C113.977 509.792 112.44 506.904 109.786 505.209Z" fill="#CC0033"/>
<path opacity="0.8" d="M-230.223 812.277C-233.327 810.3 -235.092 806.785 -234.84 803.114L-214.249 507.726C-213.862 502.197 -209.056 498.003 -203.532 498.372L91.4733 518.27C93.1423 518.385 94.7689 518.918 96.1679 519.807C99.2719 521.783 101.046 525.296 100.782 528.975L80.1906 824.363C79.8043 829.892 75.0034 834.089 69.4773 833.712L-225.523 813.816C-227.192 813.702 -228.818 813.169 -230.223 812.277ZM95.3836 521.037C94.1863 520.272 92.7925 519.822 91.363 519.727L-203.634 499.826C-208.358 499.506 -212.47 503.097 -212.803 507.83L-233.388 803.207C-233.608 806.35 -232.096 809.357 -229.438 811.046C-228.241 811.811 -226.85 812.267 -225.421 812.362L69.5813 832.266C74.3058 832.587 78.4172 828.995 78.75 824.262L99.3442 528.883C99.5588 525.736 98.0431 522.735 95.3836 521.037Z" fill="#CC0033"/>
</g>
<defs>
<clipPath id="clip0_109_5594">
<rect width="857.427" height="890.036" fill="white" transform="translate(-351 742.554) rotate(-60)"/>
</clipPath>
</defs>
</svg>
