<svg width="857" height="1328" viewBox="0 0 857 1328" fill="none" xmlns="http://www.w3.org/2000/svg">
<g clip-path="url(#clip0_109_7360)">
<path opacity="0.8" d="M1097.99 739.312C1096.5 743.089 1093.98 746.359 1090.68 748.765L562.57 1134.27C557.943 1137.65 552.272 1139.03 546.599 1138.14C540.925 1137.25 535.931 1134.22 532.54 1129.6L145.32 601.81C140.945 595.848 139.945 588.174 142.646 581.296C144.133 577.519 146.655 574.249 149.947 571.844L678.061 186.338C682.689 182.956 688.359 181.582 694.033 182.468C699.709 183.347 704.7 186.387 708.091 191.01L1095.3 718.803C1099.68 724.765 1100.68 732.431 1097.99 739.312ZM144.237 581.937C141.756 588.266 142.678 595.328 146.704 600.81L533.924 1128.6C537.041 1132.85 541.636 1135.65 546.855 1136.46C552.073 1137.27 557.29 1136 561.544 1132.89L1089.67 747.39C1092.7 745.176 1095.02 742.173 1096.38 738.697C1098.86 732.361 1097.94 725.306 1093.92 719.82L706.697 192.039C703.574 187.78 698.983 184.997 693.76 184.177C688.541 183.367 683.324 184.632 679.063 187.739L150.949 573.244C147.918 575.451 145.597 578.461 144.237 581.937Z" fill="url(#paint0_linear_109_7360)"/>
<path opacity="0.8" d="M1093.97 759.856C1092.49 763.628 1089.95 766.869 1086.63 769.231L567.075 1138.45C562.52 1141.69 556.965 1142.96 551.443 1142.03C545.921 1141.1 541.083 1138.08 537.83 1133.52L166.948 614.307C162.816 608.525 161.9 601.121 164.486 594.507C165.97 590.738 168.502 587.487 171.827 585.125L691.38 215.907C700.786 209.219 713.913 211.433 720.627 220.832L1091.51 740.051C1095.65 745.834 1096.57 753.241 1093.97 759.856ZM166.096 595.139C163.711 601.212 164.556 608.008 168.351 613.322L539.236 1132.52C542.219 1136.7 546.659 1139.48 551.726 1140.34C556.8 1141.19 561.896 1140.02 566.08 1137.05L1085.63 767.833C1088.68 765.665 1091.01 762.688 1092.37 759.229C1094.76 753.156 1093.91 746.361 1090.11 741.054L719.233 221.837C713.064 213.209 701.022 211.174 692.39 217.31L172.836 586.528C169.786 588.696 167.453 591.67 166.096 595.139Z" fill="url(#paint1_linear_109_7360)"/>
<path opacity="0.8" d="M1089.97 780.398C1088.49 784.171 1085.94 787.39 1082.58 789.701L571.589 1142.62C562.322 1149.02 549.557 1146.69 543.128 1137.44L188.584 626.808C184.688 621.203 183.856 614.068 186.344 607.717C187.821 603.945 190.374 600.726 193.723 598.412L704.713 245.488C709.204 242.388 714.636 241.221 720.011 242.205C725.389 243.182 730.061 246.193 733.174 250.673L1087.73 761.31C1091.62 766.912 1092.46 774.05 1089.97 780.398ZM187.957 608.342C185.677 614.155 186.44 620.697 190.002 625.828L544.546 1136.46C550.429 1144.94 562.128 1147.07 570.616 1141.21L1081.61 788.286C1084.68 786.167 1087.02 783.219 1088.37 779.764C1090.65 773.951 1089.89 767.416 1086.32 762.283L731.782 251.646C728.928 247.536 724.646 244.787 719.724 243.885C714.801 242.984 709.825 244.059 705.712 246.897L194.723 599.82C191.649 601.939 189.309 604.887 187.957 608.342Z" fill="url(#paint2_linear_109_7360)"/>
<path opacity="0.8" d="M1085.96 800.94C1084.49 804.713 1081.92 807.903 1078.53 810.171L576.112 1146.8C571.693 1149.76 566.385 1150.82 561.161 1149.8C555.937 1148.77 551.42 1145.77 548.446 1141.35L210.242 639.292C206.589 633.867 205.834 626.998 208.222 620.918C209.705 617.148 212.266 613.955 215.655 611.687L718.083 275.051C727.202 268.946 739.619 271.381 745.751 280.493L1083.94 782.565C1087.6 787.984 1088.35 794.853 1085.96 800.94ZM209.81 621.542C207.633 627.102 208.326 633.38 211.66 638.336L549.864 1140.4C552.584 1144.43 556.708 1147.17 561.482 1148.11C566.256 1149.05 571.108 1148.08 575.143 1145.37L1077.58 808.74C1080.67 806.666 1083.02 803.754 1084.37 800.306C1086.55 794.747 1085.86 788.471 1082.52 783.512L744.317 281.451C738.708 273.128 727.368 270.893 719.038 276.476L216.609 613.111C213.511 615.183 211.167 618.097 209.81 621.542Z" fill="url(#paint3_linear_109_7360)"/>
<path opacity="0.8" d="M1081.97 821.484C1080.48 825.254 1077.9 828.423 1074.49 830.643L580.625 1150.98C576.278 1153.8 571.085 1154.76 566.015 1153.68C560.935 1152.6 556.583 1149.61 553.746 1145.27L231.887 651.788C228.467 646.546 227.789 639.944 230.071 634.124C231.548 630.352 234.139 627.185 237.551 624.965L731.417 304.625C735.765 301.804 740.957 300.843 746.034 301.925C751.114 303.001 755.468 305.983 758.299 310.326L1080.16 803.816C1083.58 809.055 1084.25 815.657 1081.97 821.484ZM231.667 634.751C229.583 640.062 230.204 646.083 233.318 650.86L555.177 1144.34C557.762 1148.3 561.732 1151.02 566.357 1152C570.987 1152.99 575.719 1152.11 579.683 1149.54L1073.55 829.192C1076.66 827.173 1079.02 824.288 1080.37 820.847C1082.45 815.544 1081.83 809.522 1078.72 804.738L756.851 311.256C754.266 307.294 750.293 304.578 745.67 303.595C741.041 302.61 736.309 303.489 732.345 306.056L238.479 626.397C235.373 628.425 233.014 631.311 231.667 634.751Z" fill="url(#paint4_linear_109_7360)"/>
<path opacity="0.8" d="M1077.98 842.031C1076.5 845.81 1073.89 848.945 1070.44 851.105L585.138 1155.16C576.312 1160.69 564.604 1158.01 559.044 1149.19L253.519 664.279C250.33 659.228 249.738 652.888 251.915 647.329C253.394 643.549 255.999 640.412 259.447 638.252L744.757 334.209C749.034 331.524 754.108 330.674 759.034 331.801C763.967 332.931 768.165 335.899 770.85 340.176L1076.37 825.071C1079.56 830.129 1080.16 836.464 1077.98 842.031ZM253.513 647.948C251.532 653.006 252.074 658.768 254.969 663.366L560.495 1148.28C565.55 1156.3 576.189 1158.73 584.218 1153.71L1069.53 849.647C1072.66 847.684 1075.03 844.835 1076.38 841.402C1078.36 836.344 1077.82 830.582 1074.92 825.984L769.397 341.073C766.949 337.181 763.132 334.479 758.658 333.459C754.177 332.437 749.561 333.211 745.682 335.647L260.37 639.698C257.231 641.659 254.858 644.515 253.513 647.948Z" fill="url(#paint5_linear_109_7360)"/>
<path opacity="0.8" d="M1073.99 862.575C1072.51 866.355 1069.88 869.461 1066.39 871.575L589.653 1159.33C585.442 1161.87 580.498 1162.62 575.716 1161.45C570.934 1160.27 566.896 1157.3 564.345 1153.11L275.157 676.772C272.157 671.826 271.645 665.906 273.754 660.523C275.235 656.737 277.862 653.631 281.355 651.526L758.096 363.768C766.783 358.524 778.131 361.323 783.404 369.995L1072.59 846.329C1075.59 851.275 1076.1 857.195 1073.99 862.575ZM275.359 661.146C273.447 666.027 273.908 671.392 276.627 675.873L565.812 1152.21C568.127 1156.03 571.791 1158.71 576.121 1159.78C580.457 1160.85 584.938 1160.16 588.756 1157.86L1065.5 870.107C1068.67 868.195 1071.05 865.381 1072.39 861.955C1074.3 857.074 1073.84 851.699 1071.11 847.225L781.929 370.884C777.151 363.014 766.865 360.483 758.988 365.235L282.246 652.994C279.086 654.899 276.701 657.72 275.359 661.146Z" fill="url(#paint6_linear_109_7360)"/>
<path opacity="0.8" d="M1070.01 883.124C1068.53 886.911 1065.87 889.99 1062.34 892.042L594.167 1163.51C590.029 1165.9 585.201 1166.55 580.573 1165.32C575.938 1164.1 572.063 1161.14 569.657 1157.01L296.814 689.256C294.038 684.499 293.605 678.838 295.609 673.716C297.098 669.932 299.741 666.847 303.272 664.796L771.457 393.335C775.59 390.93 780.425 390.287 785.053 391.512C789.678 392.744 793.563 395.693 795.969 399.827L1068.8 867.584C1071.58 872.342 1072.02 878.004 1070.01 883.124ZM297.197 674.34C295.378 678.973 295.779 684.094 298.281 688.388L571.129 1156.15C573.308 1159.89 576.809 1162.56 581.004 1163.67C585.192 1164.77 589.556 1164.2 593.297 1162.02L1061.47 890.56C1064.67 888.705 1067.06 885.921 1068.4 882.495C1070.22 877.862 1069.82 872.742 1067.32 868.447L794.48 400.687C792.299 396.951 788.791 394.283 784.605 393.169C780.42 392.056 776.06 392.645 772.315 394.807L304.134 666.278C300.936 668.13 298.537 670.922 297.197 674.34Z" fill="url(#paint7_linear_109_7360)"/>
<path opacity="0.8" d="M1066.03 903.673C1064.56 907.417 1061.81 910.553 1058.29 912.511L598.672 1167.69C594.605 1169.95 589.892 1170.49 585.411 1169.21C580.93 1167.93 577.211 1164.99 574.941 1160.93L318.438 701.744C315.89 697.185 315.523 691.78 317.431 686.913C318.898 683.169 321.647 680.033 325.17 678.075L784.787 422.899C788.851 420.647 793.556 420.103 798.047 421.378C802.528 422.657 806.248 425.597 808.517 429.66L1065.02 888.849C1067.57 893.408 1067.93 898.814 1066.03 903.673ZM319.034 687.542C317.314 691.929 317.648 696.802 319.941 700.913L576.451 1160.1C578.496 1163.76 581.844 1166.41 585.888 1167.56C589.924 1168.71 594.168 1168.23 597.838 1166.19L1057.46 911.008C1060.63 909.244 1063.11 906.415 1064.43 903.046C1066.15 898.66 1065.82 893.786 1063.52 889.676L807.015 430.491C804.967 426.833 801.622 424.181 797.578 423.028C793.542 421.877 789.297 422.362 785.628 424.397L326.01 679.573C322.834 681.337 320.351 684.164 319.034 687.542Z" fill="url(#paint8_linear_109_7360)"/>
<path opacity="0.8" d="M1062.06 924.228C1060.59 927.979 1057.81 931.088 1054.24 932.981L603.187 1171.86C599.193 1173.98 594.604 1174.42 590.269 1173.08C585.939 1171.76 582.378 1168.83 580.252 1164.84L340.08 714.231C337.748 709.858 337.451 704.717 339.256 700.103C340.725 696.353 343.505 693.243 347.078 691.35L798.131 452.469C806.382 448.101 816.672 451.25 821.066 459.494L1061.24 910.101C1063.57 914.473 1063.87 919.621 1062.06 924.228ZM340.859 700.733C339.24 704.873 339.506 709.499 341.597 713.428L581.768 1164.03C583.68 1167.62 586.88 1170.26 590.774 1171.45C594.669 1172.64 598.792 1172.25 602.385 1170.35L1053.43 931.462C1056.64 929.765 1059.13 926.974 1060.46 923.598C1062.08 919.458 1061.81 914.832 1059.72 910.903L819.55 460.296C815.606 452.888 806.354 450.055 798.943 453.981L347.887 692.87C344.678 694.566 342.183 697.357 340.859 700.733Z" fill="url(#paint9_linear_109_7360)"/>
<path opacity="0.8" d="M1058.09 944.789C1056.62 948.554 1053.81 951.63 1050.19 953.45L607.699 1176.04C599.587 1180.12 589.66 1176.85 585.559 1168.75L361.727 726.719C359.617 722.542 359.377 717.653 361.087 713.295C362.561 709.53 365.372 706.447 368.992 704.627L811.485 482.033C819.589 477.952 829.526 481.22 833.624 489.322L1057.45 931.365C1059.56 935.541 1059.8 940.428 1058.09 944.789ZM362.683 713.922C361.154 717.821 361.36 722.202 363.251 725.943L587.076 1167.98C590.752 1175.23 599.651 1178.16 606.911 1174.51L1049.41 951.916C1052.65 950.287 1055.17 947.528 1056.49 944.159C1058.02 940.253 1057.81 935.879 1055.92 932.136L832.091 490.103C828.415 482.85 819.515 479.922 812.256 483.571L369.763 706.165C366.521 707.794 364.005 710.554 362.683 713.922Z" fill="url(#paint10_linear_109_7360)"/>
<path opacity="0.8" d="M1054.14 965.346C1052.65 969.13 1049.81 972.172 1046.13 973.925L612.204 1180.22C604.241 1184.01 594.66 1180.61 590.855 1172.66L383.364 739.196C381.458 735.218 381.29 730.585 382.897 726.481C384.379 722.694 387.225 719.647 390.9 717.902L824.829 511.603C832.792 507.818 842.373 511.213 846.178 519.166L1053.67 952.624C1055.58 956.602 1055.74 961.241 1054.14 965.346ZM384.5 727.11C383.06 730.775 383.215 734.906 384.914 738.461L592.398 1171.92C595.797 1179.02 604.351 1182.05 611.455 1178.67L1045.39 972.372C1048.67 970.813 1051.21 968.092 1052.53 964.716C1053.96 961.056 1053.81 956.918 1052.11 953.363L844.628 519.901C841.229 512.799 832.675 509.773 825.562 513.16L391.632 719.459C388.36 721.013 385.825 723.734 384.5 727.11Z" fill="url(#paint11_linear_109_7360)"/>
<path opacity="0.8" d="M1050.18 985.904C1048.69 989.71 1045.82 992.716 1042.08 994.384L616.711 1184.4C612.919 1186.08 608.695 1186.21 604.812 1184.73C600.927 1183.25 597.859 1180.35 596.151 1176.57L405.004 751.682C403.275 747.844 403.174 743.579 404.707 739.666C406.203 735.86 409.078 732.847 412.814 731.179L838.18 541.175C845.994 537.683 855.222 541.197 858.733 549.002L1049.89 973.889C1051.61 977.724 1051.72 981.991 1050.18 985.904ZM406.303 740.293C404.941 743.776 405.029 747.564 406.566 750.983L597.722 1175.86C599.23 1179.22 601.968 1181.8 605.418 1183.12C608.868 1184.44 612.63 1184.33 615.998 1182.83L1041.37 992.828C1044.7 991.34 1047.25 988.665 1048.58 985.275C1049.94 981.799 1049.85 978.004 1048.32 974.592L857.162 549.706C854.037 542.762 845.837 539.64 838.877 542.744L413.508 732.755C410.191 734.23 407.637 736.912 406.303 740.293Z" fill="url(#paint12_linear_109_7360)"/>
<path opacity="0.8" d="M1046.24 1006.47C1044.74 1010.29 1041.82 1013.27 1038.01 1014.86L621.216 1188.57C613.543 1191.77 604.676 1188.14 601.454 1180.47L426.638 764.165C425.118 760.536 425.06 756.518 426.5 752.853C428.004 749.026 430.924 746.044 434.719 744.46L851.534 570.739C859.207 567.544 868.072 571.182 871.294 578.847L1046.1 995.153C1047.63 998.786 1047.68 1002.8 1046.24 1006.47ZM428.103 753.482C426.83 756.732 426.877 760.289 428.226 763.507L603.041 1179.82C605.897 1186.61 613.751 1189.83 620.553 1187L1037.35 1013.28C1040.72 1011.87 1043.31 1009.23 1044.64 1005.84C1045.91 1002.59 1045.86 999.03 1044.52 995.811L869.706 579.505C866.851 572.71 859.004 569.493 852.192 572.327L435.387 746.043C432.022 747.446 429.435 750.085 428.103 753.482Z" fill="url(#paint13_linear_109_7360)"/>
<path opacity="0.8" d="M1042.31 1027.03C1040.81 1030.84 1037.78 1033.86 1033.97 1035.33L625.721 1192.75C622.066 1194.16 618.085 1194.06 614.508 1192.49C610.923 1190.9 608.177 1188.02 606.757 1184.38L448.288 776.646C446.956 773.217 446.958 769.445 448.295 766.033C449.782 762.232 452.83 759.206 456.644 757.733L864.885 600.311C872.419 597.404 880.921 601.166 883.849 608.683L1042.32 1016.42C1043.65 1019.85 1043.65 1023.61 1042.31 1027.03ZM449.891 766.66C448.706 769.675 448.702 773.007 449.878 776.029L608.356 1183.76C609.602 1186.97 612.033 1189.51 615.192 1190.91C618.359 1192.31 621.87 1192.4 625.092 1191.15L1033.34 1033.73C1036.71 1032.43 1039.39 1029.76 1040.71 1026.4C1041.89 1023.39 1041.89 1020.06 1040.72 1017.03L882.246 609.296C879.664 602.659 872.156 599.341 865.51 601.903L457.268 759.324C453.897 760.629 451.209 763.306 449.891 766.66Z" fill="url(#paint14_linear_109_7360)"/>
<path opacity="0.8" d="M1038.39 1047.61C1036.89 1051.45 1033.79 1054.43 1029.9 1055.8L630.219 1196.93C626.637 1198.2 622.782 1197.99 619.351 1196.36C615.921 1194.72 613.329 1191.86 612.055 1188.28L469.918 789.121C468.77 785.9 468.823 782.377 470.07 779.206C471.576 775.372 474.666 772.385 478.549 771.015L878.239 629.876C885.622 627.27 893.77 631.151 896.403 638.527L1038.54 1037.69C1039.68 1040.91 1039.63 1044.43 1038.39 1047.61ZM471.673 779.836C470.581 782.626 470.528 785.725 471.538 788.555L613.678 1187.71C614.798 1190.85 617.073 1193.37 620.09 1194.81C623.108 1196.24 626.498 1196.43 629.643 1195.32L1029.32 1054.18C1032.74 1052.97 1035.46 1050.35 1036.78 1046.98C1037.88 1044.19 1037.92 1041.1 1036.92 1038.26L894.787 639.103C892.476 632.615 885.313 629.199 878.813 631.499L479.132 772.633C475.716 773.834 472.998 776.46 471.673 779.836Z" fill="url(#paint15_linear_109_7360)"/>
<path opacity="0.8" d="M1034.47 1068.18C1032.95 1072.06 1029.8 1075 1025.83 1076.27L634.723 1201.11C627.482 1203.42 619.69 1199.41 617.36 1192.18L491.567 801.602C490.595 798.593 490.695 795.31 491.85 792.381C493.371 788.504 496.519 785.56 500.487 784.292L891.592 659.441C898.834 657.131 906.626 661.138 908.958 668.363L1034.76 1058.95C1035.72 1061.97 1035.62 1065.24 1034.47 1068.18ZM493.449 793.001C492.44 795.572 492.354 798.443 493.197 801.079L618.997 1191.66C621.034 1197.99 627.853 1201.5 634.202 1199.47L1025.31 1074.63C1028.79 1073.52 1031.54 1070.94 1032.87 1067.55C1033.88 1064.98 1033.97 1062.12 1033.12 1059.47L907.319 668.891C905.282 662.561 898.463 659.055 892.12 661.08L501.001 785.926C497.53 787.028 494.779 789.611 493.449 793.001Z" fill="url(#paint16_linear_109_7360)"/>
<path opacity="0.8" d="M1030.57 1088.76C1029.03 1092.68 1025.82 1095.59 1021.77 1096.73L639.221 1205.29C632.122 1207.3 624.692 1203.17 622.659 1196.08L513.199 814.069C512.386 811.226 512.523 808.277 513.598 805.537C515.134 801.616 518.341 798.709 522.39 797.556L904.953 689.007C912.053 686.993 919.483 691.125 921.509 698.213L1030.97 1080.22C1031.78 1083.07 1031.64 1086.02 1030.57 1088.76ZM515.202 806.166C514.264 808.553 514.141 811.131 514.85 813.601L624.309 1195.61C626.077 1201.79 632.552 1205.39 638.746 1203.63L1021.3 1095.08C1024.83 1094.08 1027.63 1091.54 1028.96 1088.13C1029.9 1085.75 1030.02 1083.18 1029.31 1080.7L919.856 698.688C918.088 692.506 911.613 688.91 905.419 690.665L522.862 799.217C519.34 800.213 516.539 802.754 515.202 806.166Z" fill="url(#paint17_linear_109_7360)"/>
<path opacity="0.8" d="M1026.68 1109.34C1025.15 1113.26 1021.79 1116.19 1017.71 1117.2L643.719 1209.46C636.761 1211.18 629.694 1206.93 627.964 1199.98L534.85 826.55C534.196 823.923 534.364 821.208 535.351 818.702C536.884 814.789 540.238 811.852 544.324 810.848L918.312 718.582C925.268 716.871 932.337 721.119 934.067 728.066L1027.19 1101.5C1027.84 1104.12 1027.67 1106.84 1026.68 1109.34ZM536.947 819.329C536.09 821.503 535.941 823.856 536.512 826.142L629.626 1199.57C631.127 1205.6 637.266 1209.29 643.297 1207.8L1017.29 1115.54C1020.84 1114.66 1023.74 1112.11 1025.07 1108.72C1025.92 1106.55 1026.07 1104.19 1025.51 1101.92L932.395 728.479C930.892 722.459 924.763 718.765 918.725 720.253L544.732 812.51C541.189 813.379 538.279 815.932 536.947 819.329Z" fill="url(#paint18_linear_109_7360)"/>
<path opacity="0.8" d="M1022.81 1129.94C1021.24 1133.91 1017.83 1136.8 1013.64 1137.67L648.21 1213.64C641.396 1215.05 634.692 1210.67 633.265 1203.87L556.491 839.013C555.986 836.604 556.187 834.125 557.081 831.844C558.643 827.868 562.068 824.98 566.244 824.111L931.673 748.149C938.48 746.732 945.191 751.114 946.618 757.916L1023.4 1122.78C1023.91 1125.18 1023.7 1127.66 1022.81 1129.94ZM558.681 832.48C557.912 834.444 557.731 836.585 558.172 838.667L634.946 1203.53C636.187 1209.4 641.972 1213.18 647.855 1211.96L1013.29 1135.99C1016.9 1135.25 1019.87 1132.74 1021.21 1129.31C1021.98 1127.34 1022.16 1125.21 1021.72 1123.12L944.938 758.262C943.697 752.389 937.911 748.604 932.026 749.832L566.594 825.801C562.98 826.55 560.026 829.047 558.681 832.48Z" fill="url(#paint19_linear_109_7360)"/>
<path opacity="0.8" d="M1018.95 1150.54C1017.39 1154.52 1013.8 1157.43 1009.58 1158.14L652.701 1217.81C646.037 1218.93 639.69 1214.42 638.566 1207.76L578.129 851.482C577.759 849.288 577.989 847.052 578.797 844.997C580.362 841.014 583.955 838.103 588.172 837.393L945.041 777.719C951.704 776.605 958.045 781.109 959.176 787.769L1019.61 1144.05C1019.98 1146.24 1019.75 1148.49 1018.95 1150.54ZM580.393 845.624C579.7 847.389 579.504 849.317 579.822 851.197L640.263 1207.49C641.234 1213.21 646.686 1217.08 652.42 1216.13L1009.28 1156.45C1012.97 1155.83 1015.98 1153.38 1017.35 1149.91C1018.04 1148.14 1018.24 1146.22 1017.92 1144.33L957.479 788.045C956.506 782.328 951.056 778.45 945.327 779.411L588.458 839.085C584.769 839.704 581.759 842.15 580.393 845.624Z" fill="url(#paint20_linear_109_7360)"/>
<path opacity="0.8" d="M1015.11 1171.15C1013.52 1175.21 1009.83 1178.07 1005.5 1178.61L657.188 1222C650.669 1222.81 644.694 1218.17 643.864 1211.66L599.76 863.949C599.513 861.981 599.762 859.968 600.478 858.138C602.069 854.076 605.751 851.211 610.091 850.679L958.406 807.295C964.926 806.484 970.903 811.112 971.724 817.627L1015.83 1165.33C1016.08 1167.3 1015.83 1169.31 1015.11 1171.15ZM602.088 858.769C601.471 860.337 601.265 862.061 601.481 863.745L645.579 1211.45C646.283 1217.02 651.399 1220.98 656.98 1220.29L1005.28 1176.9C1008.99 1176.44 1012.14 1173.99 1013.5 1170.52C1014.12 1168.95 1014.33 1167.23 1014.11 1165.55L970.018 817.835C969.314 812.266 964.199 808.302 958.618 808.994L610.312 852.373C606.603 852.841 603.457 855.288 602.088 858.769Z" fill="url(#paint21_linear_109_7360)"/>
</g>
<defs>
<linearGradient id="paint0_linear_109_7360" x1="465.946" y1="1110.86" x2="774.686" y2="209.743" gradientUnits="userSpaceOnUse">
<stop stop-color="#48917E"/>
<stop offset="1" stop-color="#48917E"/>
</linearGradient>
<linearGradient id="paint1_linear_109_7360" x1="478.43" y1="1117.31" x2="780.023" y2="237.054" gradientUnits="userSpaceOnUse">
<stop stop-color="#48917E"/>
<stop offset="1" stop-color="#48917E"/>
</linearGradient>
<linearGradient id="paint2_linear_109_7360" x1="490.933" y1="1123.75" x2="785.38" y2="264.353" gradientUnits="userSpaceOnUse">
<stop stop-color="#48917E"/>
<stop offset="1" stop-color="#48917E"/>
</linearGradient>
<linearGradient id="paint3_linear_109_7360" x1="503.437" y1="1130.22" x2="790.749" y2="291.642" gradientUnits="userSpaceOnUse">
<stop stop-color="#48917E"/>
<stop offset="1" stop-color="#48917E"/>
</linearGradient>
<linearGradient id="paint4_linear_109_7360" x1="515.933" y1="1136.67" x2="796.109" y2="318.927" gradientUnits="userSpaceOnUse">
<stop stop-color="#48917E"/>
<stop offset="1" stop-color="#48917E"/>
</linearGradient>
<linearGradient id="paint5_linear_109_7360" x1="528.432" y1="1143.13" x2="801.466" y2="346.226" gradientUnits="userSpaceOnUse">
<stop stop-color="#48917E"/>
<stop offset="1" stop-color="#48917E"/>
</linearGradient>
<linearGradient id="paint6_linear_109_7360" x1="540.916" y1="1149.6" x2="806.822" y2="373.506" gradientUnits="userSpaceOnUse">
<stop stop-color="#48917E"/>
<stop offset="1" stop-color="#48917E"/>
</linearGradient>
<linearGradient id="paint7_linear_109_7360" x1="553.419" y1="1156.07" x2="812.2" y2="400.766" gradientUnits="userSpaceOnUse">
<stop stop-color="#48917E"/>
<stop offset="1" stop-color="#48917E"/>
</linearGradient>
<linearGradient id="paint8_linear_109_7360" x1="565.9" y1="1162.55" x2="817.558" y2="428.037" gradientUnits="userSpaceOnUse">
<stop stop-color="#48917E"/>
<stop offset="1" stop-color="#48917E"/>
</linearGradient>
<linearGradient id="paint9_linear_109_7360" x1="578.392" y1="1169.03" x2="822.924" y2="455.312" gradientUnits="userSpaceOnUse">
<stop stop-color="#48917E"/>
<stop offset="1" stop-color="#48917E"/>
</linearGradient>
<linearGradient id="paint10_linear_109_7360" x1="590.883" y1="1175.51" x2="828.301" y2="482.562" gradientUnits="userSpaceOnUse">
<stop stop-color="#48917E"/>
<stop offset="1" stop-color="#48917E"/>
</linearGradient>
<linearGradient id="paint11_linear_109_7360" x1="603.364" y1="1182.01" x2="833.669" y2="509.819" gradientUnits="userSpaceOnUse">
<stop stop-color="#48917E"/>
<stop offset="1" stop-color="#48917E"/>
</linearGradient>
<linearGradient id="paint12_linear_109_7360" x1="615.844" y1="1188.52" x2="839.044" y2="537.065" gradientUnits="userSpaceOnUse">
<stop stop-color="#48917E"/>
<stop offset="1" stop-color="#48917E"/>
</linearGradient>
<linearGradient id="paint13_linear_109_7360" x1="628.323" y1="1195.02" x2="844.419" y2="564.297" gradientUnits="userSpaceOnUse">
<stop stop-color="#48917E"/>
<stop offset="1" stop-color="#48917E"/>
</linearGradient>
<linearGradient id="paint14_linear_109_7360" x1="640.798" y1="1201.55" x2="849.805" y2="591.523" gradientUnits="userSpaceOnUse">
<stop stop-color="#48917E"/>
<stop offset="1" stop-color="#48917E"/>
</linearGradient>
<linearGradient id="paint15_linear_109_7360" x1="653.268" y1="1208.08" x2="855.186" y2="618.739" gradientUnits="userSpaceOnUse">
<stop stop-color="#48917E"/>
<stop offset="1" stop-color="#48917E"/>
</linearGradient>
<linearGradient id="paint16_linear_109_7360" x1="665.742" y1="1214.61" x2="860.58" y2="645.941" gradientUnits="userSpaceOnUse">
<stop stop-color="#48917E"/>
<stop offset="1" stop-color="#48917E"/>
</linearGradient>
<linearGradient id="paint17_linear_109_7360" x1="678.2" y1="1221.17" x2="865.968" y2="673.127" gradientUnits="userSpaceOnUse">
<stop stop-color="#48917E"/>
<stop offset="1" stop-color="#48917E"/>
</linearGradient>
<linearGradient id="paint18_linear_109_7360" x1="690.662" y1="1227.74" x2="871.368" y2="700.313" gradientUnits="userSpaceOnUse">
<stop stop-color="#48917E"/>
<stop offset="1" stop-color="#48917E"/>
</linearGradient>
<linearGradient id="paint19_linear_109_7360" x1="703.115" y1="1234.32" x2="876.769" y2="727.473" gradientUnits="userSpaceOnUse">
<stop stop-color="#48917E"/>
<stop offset="1" stop-color="#48917E"/>
</linearGradient>
<linearGradient id="paint20_linear_109_7360" x1="715.567" y1="1240.91" x2="882.18" y2="754.621" gradientUnits="userSpaceOnUse">
<stop stop-color="#48917E"/>
<stop offset="1" stop-color="#48917E"/>
</linearGradient>
<linearGradient id="paint21_linear_109_7360" x1="728.001" y1="1247.53" x2="887.587" y2="781.753" gradientUnits="userSpaceOnUse">
<stop stop-color="#48917E"/>
<stop offset="1" stop-color="#48917E"/>
</linearGradient>
<clipPath id="clip0_109_7360">
<rect width="1016.41" height="1055.06" fill="white" transform="translate(961.535 1327.54) rotate(-161.088)"/>
</clipPath>
</defs>
</svg>
