<svg width="760" height="1533" viewBox="0 0 760 1533" fill="none" xmlns="http://www.w3.org/2000/svg">
<g clip-path="url(#clip0_109_4953)">
<path opacity="0.8" d="M159.878 305.299C163.601 307.677 166.566 311.056 168.446 315.075L469.656 959.828C472.3 965.479 472.58 971.823 470.446 977.697C468.312 983.571 464.028 988.27 458.38 990.925L-186.384 1294.03C-193.667 1297.46 -202.072 1296.92 -208.853 1292.6C-212.576 1290.22 -215.541 1286.84 -217.421 1282.82L-518.631 638.067C-521.275 632.417 -521.556 626.072 -519.422 620.198C-517.295 614.32 -513.003 609.625 -507.355 606.971L137.411 303.873C144.695 300.448 153.093 300.981 159.878 305.299ZM-207.835 1291.03C-201.595 1295.01 -193.86 1295.5 -187.162 1292.35L457.602 989.237C462.8 986.799 466.745 982.475 468.703 977.071C470.66 971.667 470.401 965.83 467.97 960.636L166.764 315.876C165.035 312.172 162.313 309.067 158.885 306.888C152.637 302.909 144.909 302.419 138.208 305.562L-506.548 608.675C-511.751 611.12 -515.684 615.441 -517.653 620.848C-519.611 626.252 -519.352 632.088 -516.925 637.29L-215.715 1282.04C-213.993 1285.74 -211.264 1288.85 -207.835 1291.03Z" fill="url(#paint0_linear_109_4953)"/>
<path opacity="0.8" d="M180.979 313.89C184.699 316.257 187.63 319.645 189.457 323.691L475.063 955.891C477.568 961.433 477.762 967.632 475.612 973.335C473.463 979.038 469.225 983.574 463.674 986.094L-168.508 1273.55C-175.549 1276.75 -183.649 1276.18 -190.171 1272.03C-193.887 1269.66 -196.829 1266.28 -198.656 1262.23L-484.262 630.029C-489.436 618.583 -484.324 605.026 -472.88 599.822L159.313 312.364C166.354 309.161 174.458 309.725 180.979 313.89ZM-189.159 1270.45C-183.172 1274.26 -175.738 1274.78 -169.267 1271.84L462.908 984.385C467.995 982.073 471.893 977.913 473.866 972.68C475.844 967.439 475.661 961.751 473.361 956.661L187.755 324.461C186.078 320.749 183.386 317.642 179.976 315.464C173.988 311.645 166.554 311.125 160.09 314.07L-472.098 601.521C-482.605 606.305 -487.298 618.741 -482.551 629.245L-196.946 1261.44C-195.269 1265.16 -192.58 1268.27 -189.159 1270.45Z" fill="url(#paint1_linear_109_4953)"/>
<path opacity="0.8" d="M202.082 322.464C205.802 324.831 208.706 328.232 210.472 332.3L480.466 951.943C485.362 963.18 480.2 976.327 468.972 981.256L-150.628 1253.06C-157.431 1256.04 -165.226 1255.44 -171.488 1251.45C-175.208 1249.09 -178.112 1245.69 -179.882 1241.62L-449.876 621.981C-452.248 616.535 -452.358 610.49 -450.181 604.954C-448.012 599.415 -443.818 595.054 -438.382 592.668L181.227 320.854C188.025 317.872 195.824 318.47 202.082 322.464ZM-170.483 1249.86C-164.752 1253.51 -157.604 1254.07 -151.379 1251.34L468.222 979.537C478.512 975.028 483.23 962.978 478.751 952.686L208.757 333.043C207.137 329.316 204.478 326.2 201.071 324.033C195.34 320.381 188.199 319.831 181.97 322.569L-437.633 594.358C-442.621 596.546 -446.453 600.544 -448.447 605.613C-450.44 610.682 -450.333 616.221 -448.163 621.208L-178.169 1240.85C-176.549 1244.58 -173.89 1247.69 -170.483 1249.86Z" fill="url(#paint2_linear_109_4953)"/>
<path opacity="0.8" d="M223.185 331.037C226.905 333.404 229.775 336.814 231.488 340.908L485.875 947.988C488.108 953.325 488.135 959.218 485.943 964.582C483.751 969.947 479.604 974.144 474.265 976.396L-132.761 1232.54C-139.321 1235.3 -146.815 1234.67 -152.81 1230.85C-156.526 1228.48 -159.4 1225.07 -161.113 1220.98L-415.503 613.888C-420.115 602.871 -414.915 590.118 -403.9 585.476L203.136 329.35C209.689 326.579 217.183 327.21 223.185 331.037ZM-151.81 1229.28C-146.328 1232.77 -139.477 1233.35 -133.486 1230.82L473.54 974.682C478.416 972.62 482.209 968.79 484.211 963.887C486.213 958.985 486.188 953.598 484.145 948.723L229.76 341.625C228.192 337.89 225.574 334.769 222.174 332.606C216.692 329.117 209.845 328.536 203.85 331.067L-403.176 587.208C-413.24 591.457 -418 603.101 -413.781 613.167L-159.392 1220.26C-157.828 1224 -155.206 1227.11 -151.81 1229.28Z" fill="url(#paint3_linear_109_4953)"/>
<path opacity="0.8" d="M244.291 339.604C248.007 341.978 250.851 345.401 252.508 349.51L491.278 944.04C493.381 949.274 493.321 955.021 491.106 960.21C488.894 965.411 484.79 969.433 479.555 971.554L-114.885 1212.03C-121.199 1214.59 -128.392 1213.93 -134.131 1210.28C-137.851 1207.91 -140.69 1204.48 -142.347 1200.37L-381.125 605.836C-383.228 600.603 -383.167 594.855 -380.948 589.659C-378.736 584.459 -374.64 580.432 -369.409 578.318L225.042 337.835C231.352 335.287 238.546 335.944 244.291 339.604ZM-133.127 1208.7C-127.891 1212.04 -121.329 1212.64 -115.576 1210.31L478.864 969.831C483.637 967.9 487.376 964.229 489.386 959.493C491.407 954.755 491.459 949.517 489.547 944.745L250.762 350.208C249.257 346.462 246.669 343.339 243.276 341.18C238.047 337.847 231.486 337.25 225.725 339.572L-368.719 580.059C-373.492 581.99 -377.223 585.666 -379.241 590.397C-381.262 595.136 -381.314 600.374 -379.402 605.145L-140.624 1199.68C-139.108 1203.42 -136.52 1206.54 -133.127 1208.7Z" fill="url(#paint4_linear_109_4953)"/>
<path opacity="0.8" d="M265.402 348.162C269.129 350.533 271.931 353.98 273.516 358.114L496.689 940.095C500.751 950.68 495.437 962.624 484.854 966.716L-97.0156 1191.54C-103.077 1193.89 -109.973 1193.2 -115.455 1189.71C-119.182 1187.34 -121.988 1183.9 -123.573 1179.76L-346.735 597.78C-348.708 592.65 -348.553 587.053 -346.318 582.028C-344.079 576.995 -340.03 573.132 -334.9 571.16L246.951 346.33C253.02 343.986 259.913 344.669 265.402 348.162ZM-114.459 1188.13C-109.471 1191.31 -103.204 1191.93 -97.6873 1189.8L484.182 964.976C493.808 961.255 498.636 950.402 494.945 940.774L271.769 358.782C270.327 355.025 267.78 351.897 264.394 349.743C259.407 346.568 253.14 345.941 247.623 348.071L-334.246 572.899C-338.915 574.7 -342.6 578.211 -344.626 582.776C-346.656 587.348 -346.795 592.44 -345.005 597.093L-121.836 1179.08C-120.398 1182.85 -117.844 1185.98 -114.459 1188.13Z" fill="url(#paint5_linear_109_4953)"/>
<path opacity="0.8" d="M286.509 356.729C290.236 359.1 293.004 362.555 294.531 366.723L502.093 936.147C503.924 941.177 503.69 946.614 501.435 951.475C499.181 956.337 495.164 960.028 490.145 961.874L-79.143 1171.05C-85.0536 1173.22 -91.4836 1172.53 -96.7913 1169.15C-100.526 1166.77 -103.294 1163.32 -104.81 1159.14L-312.371 589.72C-316.154 579.344 -310.79 567.81 -300.423 563.993L268.865 354.82C274.775 352.65 281.205 353.343 286.509 356.729ZM-95.7907 1167.56C-90.9778 1170.63 -85.1503 1171.26 -79.7952 1169.29L489.5 960.121C494.058 958.447 497.689 955.094 499.734 950.693C501.784 946.285 501.991 941.356 500.328 936.795L292.778 367.368C291.397 363.59 288.891 360.457 285.512 358.306C280.699 355.242 274.861 354.614 269.513 356.584L-299.782 565.754C-309.189 569.211 -314.045 579.667 -310.618 589.075L-103.056 1158.5C-101.682 1162.27 -99.169 1165.41 -95.7907 1167.56Z" fill="url(#paint6_linear_109_4953)"/>
<path opacity="0.8" d="M307.624 365.281C311.358 367.656 314.091 371.139 315.543 375.34L507.497 932.2C509.19 937.121 508.869 942.412 506.592 947.099C504.31 951.792 500.344 955.313 495.426 957.017L-61.276 1150.53C-66.9381 1152.5 -73.0742 1151.78 -78.1259 1148.56C-81.8561 1146.18 -84.5973 1142.71 -86.0489 1138.51L-277.995 581.639C-279.699 576.721 -279.374 571.422 -277.096 566.735C-274.812 562.053 -270.849 558.521 -265.931 556.817L290.774 363.316C296.436 361.346 302.576 362.062 307.624 365.281ZM-77.1263 1147C-72.5594 1149.91 -67.0062 1150.56 -61.8954 1148.78L494.818 955.266C499.272 953.722 502.852 950.541 504.914 946.292C506.972 942.051 507.267 937.268 505.73 932.818L313.78 375.951C312.467 372.154 309.995 369.012 306.616 366.861C302.049 363.948 296.496 363.305 291.385 365.079L-265.324 558.587C-269.771 560.134 -273.355 563.323 -275.42 567.56C-277.485 571.798 -277.769 576.578 -276.243 581.03L-84.2862 1137.9C-82.9771 1141.71 -80.4975 1144.85 -77.1263 1147Z" fill="url(#paint7_linear_109_4953)"/>
<path opacity="0.8" d="M328.739 373.833C332.43 376.184 335.205 379.776 336.558 383.949L512.904 928.263C514.466 933.08 514.058 938.226 511.754 942.745C509.45 947.263 505.53 950.62 500.716 952.194L-43.4116 1130.05C-48.8139 1131.82 -54.6645 1131.08 -59.4631 1128.02C-63.1546 1125.67 -65.9289 1122.08 -67.2825 1117.9L-243.628 573.59C-245.183 568.777 -244.779 563.638 -242.478 559.108C-240.174 554.59 -236.254 551.233 -231.44 549.659L312.695 371.809C318.097 370.042 323.947 370.781 328.739 373.833ZM-58.4553 1126.44C-54.1301 1129.19 -48.8553 1129.86 -43.9849 1128.27L500.147 950.408C504.49 948.991 508.016 945.969 510.094 941.891C512.167 937.821 512.538 933.186 511.132 928.84L334.779 384.522C333.56 380.76 331.056 377.524 327.735 375.406C323.41 372.652 318.135 371.988 313.265 373.577L-230.867 551.438C-235.203 552.859 -238.736 555.877 -240.814 559.955C-242.888 564.025 -243.258 568.66 -241.852 573.005L-65.5066 1117.32C-64.2873 1121.08 -61.7877 1124.32 -58.4553 1126.44Z" fill="url(#paint8_linear_109_4953)"/>
<path opacity="0.8" d="M349.862 382.371C353.561 384.725 356.3 388.346 357.574 392.558L518.308 924.315C519.733 929.024 519.241 934.017 516.91 938.368C514.59 942.715 510.71 945.905 506.004 947.341L-25.5457 1109.55C-30.7036 1111.12 -36.2574 1110.36 -40.807 1107.47C-44.5057 1105.12 -47.2451 1101.5 -48.5187 1097.28L-209.253 565.526C-212.191 555.8 -206.674 545.469 -196.949 542.501L334.601 380.294C339.759 378.719 345.32 379.482 349.862 382.371ZM-39.7992 1105.89C-35.7159 1108.49 -30.7195 1109.17 -26.0852 1107.76L505.465 945.553C509.697 944.262 513.18 941.396 515.266 937.486C517.353 933.575 517.799 929.089 516.52 924.854L355.782 393.104C354.642 389.321 352.183 386.073 348.855 383.951C344.771 381.356 339.775 380.671 335.14 382.082L-196.41 544.288C-205.147 546.95 -210.111 556.239 -207.468 564.976L-46.7266 1096.74C-45.5862 1100.52 -43.1275 1103.77 -39.7992 1105.89Z" fill="url(#paint9_linear_109_4953)"/>
<path opacity="0.8" d="M370.992 390.913C374.705 393.276 377.403 396.919 378.589 401.167L523.719 920.371C526.377 929.889 520.804 939.807 511.299 942.492L-7.67618 1089.04C-12.5784 1090.42 -17.8507 1089.65 -22.1473 1086.91C-25.8603 1084.55 -28.5649 1080.9 -29.7513 1076.66L-174.881 557.452C-177.544 547.941 -171.973 538.012 -162.462 535.331L356.521 388.788C361.423 387.408 366.692 388.182 370.992 390.913ZM-21.1437 1085.34C-17.2991 1087.79 -12.577 1088.49 -8.18595 1087.25L510.786 940.709C519.301 938.301 524.292 929.409 521.913 920.891L376.788 401.679C375.727 397.875 373.306 394.611 369.985 392.493C366.133 390.041 361.418 389.348 357.023 390.592L-161.949 537.132C-170.464 539.541 -175.455 548.433 -173.077 556.95L-27.9471 1076.15C-26.8856 1079.96 -24.4649 1083.22 -21.1437 1085.34Z" fill="url(#paint10_linear_109_4953)"/>
<path opacity="0.8" d="M392.12 399.443C395.85 401.825 398.505 405.492 399.608 409.786L529.125 916.434C531.502 925.731 525.871 935.253 516.579 937.653L10.1782 1068.54C5.53055 1069.74 0.54789 1068.95 -3.49974 1066.38C-7.23416 1064 -9.89251 1060.33 -10.9877 1056.04L-140.505 549.388C-142.882 540.09 -137.251 530.568 -127.959 528.169L378.435 397.276C383.082 396.073 388.072 396.868 392.12 399.443ZM-2.492 1064.8C1.12095 1067.1 5.56579 1067.8 9.71768 1066.73L516.115 935.851C524.411 933.706 529.434 925.204 527.308 916.908L397.795 410.254C396.816 406.421 394.44 403.145 391.112 401.023C387.502 398.729 383.05 398.026 378.898 399.096L-127.499 529.978C-135.795 532.122 -140.818 540.625 -138.689 548.931L-9.17148 1055.58C-8.19596 1059.4 -5.82031 1062.68 -2.492 1064.8Z" fill="url(#paint11_linear_109_4953)"/>
<path opacity="0.8" d="M413.251 407.966C417.003 410.361 419.612 414.058 420.612 418.398L534.525 912.493C535.536 916.896 534.783 921.434 532.387 925.271C529.998 929.111 526.256 931.781 521.859 932.814L28.0438 1048.04C23.583 1049.09 19.0066 1048.3 15.1477 1045.84C11.396 1043.45 8.7797 1039.75 7.77989 1035.41L-106.126 541.317C-108.22 532.24 -102.535 523.12 -93.4644 521.003L400.355 405.769C404.812 404.732 409.392 405.51 413.251 407.966ZM16.1513 1044.27C19.5868 1046.45 23.651 1047.15 27.6242 1046.23L521.436 930.989C525.342 930.081 528.671 927.697 530.801 924.288C532.931 920.879 533.606 916.84 532.703 912.927L418.801 418.829C417.909 414.961 415.586 411.677 412.243 409.547C408.815 407.367 404.744 406.665 400.778 407.594L-93.0417 522.829C-101.112 524.713 -106.163 532.818 -104.305 540.902L9.6082 1035C10.4894 1038.85 12.82 1042.14 16.1513 1044.27Z" fill="url(#paint12_linear_109_4953)"/>
<path opacity="0.8" d="M434.387 416.482C438.16 418.889 440.733 422.632 441.626 427.025L539.932 908.556C541.739 917.42 536.005 926.13 527.143 927.968L45.9053 1027.55C41.7103 1028.41 37.4071 1027.63 33.7941 1025.33C30.021 1022.92 27.4478 1019.18 26.5506 1014.79L-71.7539 533.242C-73.5614 524.378 -67.8202 515.672 -58.9581 513.835L422.276 414.262C426.475 413.39 430.774 414.177 434.387 416.482ZM34.8018 1023.75C38.0057 1025.79 41.8151 1026.48 45.5349 1025.71L526.773 926.134C534.628 924.507 539.711 916.792 538.113 908.934L439.8 427.399C439.006 423.512 436.729 420.197 433.379 418.063C430.182 416.026 426.366 415.328 422.646 416.095L-58.5876 515.668C-66.443 517.296 -71.5218 525.003 -69.9207 532.872L28.3808 1014.41C29.1749 1018.3 31.4521 1021.61 34.8018 1023.75Z" fill="url(#paint13_linear_109_4953)"/>
<path opacity="0.8" d="M455.531 424.984C459.282 427.379 461.873 431.256 462.642 435.634L545.339 904.619C546.077 908.817 545.139 913.048 542.705 916.539C540.266 920.037 536.615 922.368 532.427 923.122L63.768 1007.04C59.8265 1007.74 55.7975 1006.95 52.4335 1004.81C48.6848 1002.42 46.0908 998.535 45.3153 994.153L-37.3745 525.172C-38.9025 516.517 -33.1049 508.224 -24.463 506.669L444.196 422.755C448.138 422.049 452.159 422.838 455.531 424.984ZM53.4371 1003.23C56.4093 1005.13 59.967 1005.83 63.4415 1005.21L532.098 921.284C535.792 920.626 539.013 918.561 541.165 915.478C543.32 912.389 544.15 908.657 543.496 904.956L460.804 435.963C460.123 432.093 457.83 428.674 454.523 426.565C451.551 424.668 448 423.97 444.518 424.589L-24.1447 508.51C-31.7738 509.878 -36.8888 517.203 -35.5435 524.838L47.1463 993.819C47.8341 997.693 50.1302 1001.12 53.4371 1003.23Z" fill="url(#paint14_linear_109_4953)"/>
<path opacity="0.8" d="M476.686 433.483C480.47 435.887 483.01 439.82 483.656 444.261L550.742 900.689C551.342 904.78 550.314 908.854 547.853 912.176C545.392 915.499 541.787 917.667 537.7 918.279L81.6184 986.545C77.9375 987.097 74.1858 986.302 71.0606 984.308C67.2803 981.896 64.7366 977.97 64.0862 973.537L-3.00216 517.097C-4.24056 508.666 1.61053 500.776 10.0393 499.508L466.121 431.241C469.798 430.697 473.549 431.491 476.686 433.483ZM72.0683 982.727C74.8202 984.478 78.119 985.182 81.3525 984.696L537.427 916.425C541.015 915.887 544.189 913.985 546.353 911.063C548.517 908.14 549.423 904.557 548.895 900.966L481.81 444.538C481.235 440.634 479.007 437.185 475.678 435.063C472.926 433.313 469.635 432.613 466.394 433.094L10.3166 501.354C2.90253 502.465 -2.24451 509.4 -1.14891 516.824L65.9364 973.252C66.5043 977.152 68.74 980.605 72.0683 982.727Z" fill="url(#paint15_linear_109_4953)"/>
<path opacity="0.8" d="M497.838 441.971C501.661 444.407 504.146 448.385 504.67 452.888L556.148 896.753C557.1 904.97 551.188 912.454 542.977 913.429L99.4808 966.034C96.0635 966.442 92.5778 965.649 89.6913 963.801C85.8682 961.366 83.3831 957.387 82.8588 952.884L31.3698 509.023C30.4179 500.805 36.3296 493.321 44.5341 492.342L488.041 439.734C491.466 439.33 494.94 440.126 497.838 441.971ZM90.6878 962.224C93.2223 963.84 96.2705 964.533 99.2629 964.184L542.763 911.572C549.951 910.721 555.123 904.171 554.291 896.966L502.813 453.102C502.355 449.161 500.177 445.674 496.834 443.544C494.3 441.928 491.259 441.24 488.255 441.591L44.7549 494.204C37.5671 495.055 32.3953 501.604 33.2309 508.802L84.7117 952.677C85.1628 956.615 87.3452 960.094 90.6878 962.224Z" fill="url(#paint16_linear_109_4953)"/>
<path opacity="0.8" d="M519.005 450.448C522.864 452.905 525.305 456.943 525.678 461.512L561.551 892.823C562.216 900.828 556.248 907.898 548.25 908.586L117.324 945.539C114.118 945.813 110.997 945.049 108.295 943.327C104.429 940.866 101.995 936.832 101.611 932.267L65.7462 500.941C65.081 492.936 71.0492 485.866 79.0436 485.185L509.969 448.232C513.175 447.959 516.296 448.723 519.005 450.448ZM109.303 941.746C111.655 943.248 114.383 943.918 117.17 943.678L548.095 906.725C555.068 906.131 560.265 899.968 559.686 892.985L523.817 461.666C523.487 457.684 521.362 454.171 517.998 452.029C515.645 450.528 512.924 449.862 510.126 450.104L79.2051 487.05C72.2323 487.644 67.0356 493.808 67.6143 500.791L103.483 932.109C103.811 936.08 105.939 939.604 109.303 941.746Z" fill="url(#paint17_linear_109_4953)"/>
<path opacity="0.8" d="M540.174 458.907C544.033 461.364 546.468 465.561 546.685 470.134L566.954 888.893C567.333 896.685 561.308 903.341 553.527 903.736L135.187 925.027C132.244 925.176 129.38 924.427 126.91 922.849C123.051 920.392 120.616 916.195 120.399 911.622L100.13 492.863C99.7584 485.076 105.776 478.415 113.557 478.021L531.901 456.722C534.84 456.58 537.704 457.329 540.174 458.907ZM127.913 921.276C130.056 922.646 132.537 923.298 135.099 923.167L553.439 901.875C560.189 901.534 565.415 895.749 565.085 888.995L544.828 470.234C544.633 466.264 542.516 462.622 539.174 460.492C537.027 459.129 534.545 458.477 531.995 458.605L113.648 479.892C106.905 480.238 101.676 486.011 102.002 492.772L122.259 911.534C122.446 915.5 124.563 919.141 127.913 921.276Z" fill="url(#paint18_linear_109_4953)"/>
<path opacity="0.8" d="M561.358 467.357C565.277 469.857 567.649 474.113 567.699 478.762L572.352 884.971C572.437 892.545 566.356 898.788 558.792 898.889L153.027 904.522C150.349 904.557 147.743 903.824 145.493 902.392C141.574 899.891 139.206 895.628 139.152 890.986L134.506 484.782C134.417 477.214 140.502 470.964 148.066 470.864L553.836 465.223C556.506 465.184 559.115 465.928 561.358 467.357ZM146.508 900.815C148.445 902.048 150.694 902.689 153.01 902.655L558.775 897.021C565.307 896.926 570.561 891.538 570.488 885L565.835 478.791C565.791 474.774 563.74 471.085 560.354 468.93C558.411 467.693 556.169 467.056 553.853 467.091L148.084 472.731C141.551 472.827 136.297 478.214 136.378 484.757L141.031 890.966C141.074 894.982 143.123 898.661 146.508 900.815Z" fill="url(#paint19_linear_109_4953)"/>
<path opacity="0.8" d="M582.555 475.784C586.481 478.289 588.842 482.729 588.714 487.389L577.751 881.048C577.546 888.398 571.405 894.235 564.058 894.041L170.874 884.02C168.454 883.956 166.113 883.242 164.087 881.949C160.161 879.444 157.804 874.997 157.928 870.344L168.887 476.692C169.091 469.342 175.229 463.513 182.58 463.699L575.763 473.72C578.184 473.784 580.532 474.502 582.555 475.784ZM165.091 880.376C166.832 881.486 168.85 882.098 170.923 882.153L564.118 892.171C570.436 892.332 575.711 887.319 575.895 880.996L586.842 487.347C586.954 483.277 584.971 479.551 581.547 477.364C579.806 476.254 577.788 475.642 575.707 475.583L182.519 465.569C176.209 465.412 170.926 470.421 170.754 476.741L159.795 870.393C159.684 874.463 161.667 878.189 165.091 880.376Z" fill="url(#paint20_linear_109_4953)"/>
<path opacity="0.8" d="M603.766 484.201C607.771 486.752 610.049 491.286 609.724 496.024L583.157 877.13C582.658 884.263 576.457 889.674 569.33 889.199L188.717 863.526C186.564 863.378 184.465 862.69 182.66 861.543C178.656 858.993 176.366 854.461 176.707 849.714L203.274 468.608C203.772 461.475 209.967 456.059 217.096 456.546L597.702 482.215C599.855 482.363 601.954 483.05 603.766 484.201ZM183.672 859.956C185.217 860.943 187.015 861.524 188.86 861.646L569.461 887.322C575.557 887.736 580.862 883.101 581.291 876.996L607.85 495.904C608.134 491.848 606.183 487.968 602.754 485.789C601.209 484.802 599.415 484.214 597.571 484.092L216.962 458.412C210.867 457.998 205.562 462.632 205.133 468.738L178.562 849.833C178.285 853.893 180.241 857.765 183.672 859.956Z" fill="url(#paint21_linear_109_4953)"/>
</g>
<defs>
<linearGradient id="paint0_linear_109_4953" x1="424.43" y1="1058.13" x2="-473.409" y2="539.764" gradientUnits="userSpaceOnUse">
<stop stop-color="#48917E"/>
<stop offset="1" stop-color="#48917E"/>
</linearGradient>
<linearGradient id="paint1_linear_109_4953" x1="433.933" y1="1046.15" x2="-443.122" y2="539.778" gradientUnits="userSpaceOnUse">
<stop stop-color="#48917E"/>
<stop offset="1" stop-color="#48917E"/>
</linearGradient>
<linearGradient id="paint2_linear_109_4953" x1="443.428" y1="1034.14" x2="-412.843" y2="539.771" gradientUnits="userSpaceOnUse">
<stop stop-color="#48917E"/>
<stop offset="1" stop-color="#48917E"/>
</linearGradient>
<linearGradient id="paint3_linear_109_4953" x1="452.949" y1="1022.14" x2="-382.574" y2="539.749" gradientUnits="userSpaceOnUse">
<stop stop-color="#48917E"/>
<stop offset="1" stop-color="#48917E"/>
</linearGradient>
<linearGradient id="paint4_linear_109_4953" x1="462.461" y1="1010.14" x2="-352.308" y2="539.734" gradientUnits="userSpaceOnUse">
<stop stop-color="#48917E"/>
<stop offset="1" stop-color="#48917E"/>
</linearGradient>
<linearGradient id="paint5_linear_109_4953" x1="471.973" y1="998.144" x2="-322.03" y2="539.726" gradientUnits="userSpaceOnUse">
<stop stop-color="#48917E"/>
<stop offset="1" stop-color="#48917E"/>
</linearGradient>
<linearGradient id="paint6_linear_109_4953" x1="481.502" y1="986.165" x2="-291.772" y2="539.716" gradientUnits="userSpaceOnUse">
<stop stop-color="#48917E"/>
<stop offset="1" stop-color="#48917E"/>
</linearGradient>
<linearGradient id="paint7_linear_109_4953" x1="491.024" y1="974.164" x2="-261.531" y2="539.677" gradientUnits="userSpaceOnUse">
<stop stop-color="#48917E"/>
<stop offset="1" stop-color="#48917E"/>
</linearGradient>
<linearGradient id="paint8_linear_109_4953" x1="500.557" y1="962.19" x2="-231.282" y2="539.663" gradientUnits="userSpaceOnUse">
<stop stop-color="#48917E"/>
<stop offset="1" stop-color="#48917E"/>
</linearGradient>
<linearGradient id="paint9_linear_109_4953" x1="510.089" y1="950.204" x2="-201.027" y2="539.641" gradientUnits="userSpaceOnUse">
<stop stop-color="#48917E"/>
<stop offset="1" stop-color="#48917E"/>
</linearGradient>
<linearGradient id="paint10_linear_109_4953" x1="519.631" y1="938.221" x2="-170.797" y2="539.602" gradientUnits="userSpaceOnUse">
<stop stop-color="#48917E"/>
<stop offset="1" stop-color="#48917E"/>
</linearGradient>
<linearGradient id="paint11_linear_109_4953" x1="529.181" y1="926.249" x2="-140.561" y2="539.573" gradientUnits="userSpaceOnUse">
<stop stop-color="#48917E"/>
<stop offset="1" stop-color="#48917E"/>
</linearGradient>
<linearGradient id="paint12_linear_109_4953" x1="538.744" y1="914.281" x2="-110.335" y2="539.535" gradientUnits="userSpaceOnUse">
<stop stop-color="#48917E"/>
<stop offset="1" stop-color="#48917E"/>
</linearGradient>
<linearGradient id="paint13_linear_109_4953" x1="548.301" y1="902.314" x2="-80.1237" y2="539.493" gradientUnits="userSpaceOnUse">
<stop stop-color="#48917E"/>
<stop offset="1" stop-color="#48917E"/>
</linearGradient>
<linearGradient id="paint14_linear_109_4953" x1="557.89" y1="890.357" x2="-49.917" y2="539.439" gradientUnits="userSpaceOnUse">
<stop stop-color="#48917E"/>
<stop offset="1" stop-color="#48917E"/>
</linearGradient>
<linearGradient id="paint15_linear_109_4953" x1="567.47" y1="878.404" x2="-19.723" y2="539.388" gradientUnits="userSpaceOnUse">
<stop stop-color="#48917E"/>
<stop offset="1" stop-color="#48917E"/>
</linearGradient>
<linearGradient id="paint16_linear_109_4953" x1="577.061" y1="866.448" x2="10.4597" y2="539.321" gradientUnits="userSpaceOnUse">
<stop stop-color="#48917E"/>
<stop offset="1" stop-color="#48917E"/>
</linearGradient>
<linearGradient id="paint17_linear_109_4953" x1="586.668" y1="854.515" x2="40.625" y2="539.257" gradientUnits="userSpaceOnUse">
<stop stop-color="#48917E"/>
<stop offset="1" stop-color="#48917E"/>
</linearGradient>
<linearGradient id="paint18_linear_109_4953" x1="596.295" y1="842.579" x2="70.7918" y2="539.179" gradientUnits="userSpaceOnUse">
<stop stop-color="#48917E"/>
<stop offset="1" stop-color="#48917E"/>
</linearGradient>
<linearGradient id="paint19_linear_109_4953" x1="605.928" y1="830.656" x2="100.93" y2="539.096" gradientUnits="userSpaceOnUse">
<stop stop-color="#48917E"/>
<stop offset="1" stop-color="#48917E"/>
</linearGradient>
<linearGradient id="paint20_linear_109_4953" x1="615.582" y1="818.737" x2="131.059" y2="538.997" gradientUnits="userSpaceOnUse">
<stop stop-color="#48917E"/>
<stop offset="1" stop-color="#48917E"/>
</linearGradient>
<linearGradient id="paint21_linear_109_4953" x1="625.255" y1="806.842" x2="161.17" y2="538.902" gradientUnits="userSpaceOnUse">
<stop stop-color="#48917E"/>
<stop offset="1" stop-color="#48917E"/>
</linearGradient>
<clipPath id="clip0_109_4953">
<rect width="1106.24" height="1148.32" fill="white" transform="translate(759.592 574.158) rotate(120)"/>
</clipPath>
</defs>
</svg>
