<svg width="526" height="1387" viewBox="0 0 526 1387" fill="none" xmlns="http://www.w3.org/2000/svg">
<g clip-path="url(#clip0_71_701)">
<path opacity="0.8" d="M1099.22 849.239C1097.09 852.575 1094.06 855.231 1090.46 856.915L512.803 1126.78C507.74 1129.15 502.056 1129.4 496.794 1127.49C491.531 1125.58 487.321 1121.74 484.942 1116.68L213.376 539.01C210.307 532.485 210.789 524.954 214.664 518.879C216.794 515.543 219.821 512.887 223.422 511.202L801.081 241.337C806.143 238.969 811.827 238.717 817.09 240.629C822.357 242.534 826.563 246.38 828.941 251.44L1100.5 829.11C1103.57 835.636 1103.09 843.16 1099.22 849.239ZM216.066 519.791C212.505 525.382 212.062 532.312 214.888 538.313L486.455 1115.98C488.639 1120.64 492.513 1124.17 497.354 1125.93C502.196 1127.68 507.425 1127.45 512.079 1125.27L1089.74 855.409C1093.06 853.859 1095.84 851.42 1097.8 848.349C1101.36 842.752 1101.8 835.827 1098.98 829.824L827.414 252.163C825.224 247.501 821.353 243.978 816.508 242.213C811.667 240.459 806.437 240.692 801.777 242.866L224.119 512.731C220.804 514.274 218.018 516.719 216.066 519.791Z" fill="#CC0033"/>
<path opacity="0.8" d="M1091.52 868.144C1089.4 871.477 1086.37 874.103 1082.74 875.74L516.331 1131.62C511.365 1133.87 505.811 1134.04 500.702 1132.12C495.592 1130.19 491.529 1126.39 489.271 1121.42L231.73 555.025C228.86 548.717 229.372 541.46 233.087 535.616C235.214 532.287 238.246 529.651 241.871 528.015L808.282 272.13C818.538 267.494 830.683 272.074 835.346 282.327L1092.89 848.733C1095.76 855.041 1095.25 862.302 1091.52 868.144ZM234.509 536.523C231.088 541.887 230.622 548.548 233.257 554.345L490.802 1120.73C492.873 1125.29 496.6 1128.78 501.289 1130.55C505.984 1132.32 511.08 1132.16 515.641 1130.1L1082.05 874.215C1085.38 872.712 1088.16 870.3 1090.11 867.245C1093.53 861.881 1094 855.22 1091.36 849.429L833.824 283.027C829.538 273.614 818.396 269.409 808.985 273.662L242.573 529.547C239.248 531.049 236.458 533.458 234.509 536.523Z" fill="#CC0033"/>
<path opacity="0.8" d="M1083.84 887.051C1081.72 890.384 1078.67 892.985 1075.03 894.568L519.868 1136.47C509.8 1140.85 498.021 1136.23 493.605 1126.17L250.089 571.044C247.412 564.95 247.954 557.966 251.525 552.356C253.646 549.023 256.693 546.421 260.331 544.834L815.493 302.937C820.372 300.812 825.789 300.714 830.748 302.664C835.711 304.607 839.618 308.365 841.756 313.235L1085.28 868.366C1087.96 874.456 1087.42 881.444 1083.84 887.051ZM252.952 553.256C249.68 558.391 249.183 564.795 251.629 570.372L495.145 1125.49C499.185 1134.71 509.981 1138.94 519.202 1134.93L1074.36 893.031C1077.7 891.579 1080.49 889.197 1082.44 886.145C1085.71 881.01 1086.2 874.613 1083.75 869.032L840.242 313.906C838.282 309.437 834.7 306.004 830.158 304.218C825.616 302.432 820.653 302.528 816.186 304.472L261.024 546.369C257.685 547.821 254.893 550.203 252.952 553.256Z" fill="#CC0033"/>
<path opacity="0.8" d="M1076.16 905.958C1074.04 909.291 1070.98 911.862 1067.32 913.397L523.411 1141.31C518.629 1143.31 513.349 1143.34 508.543 1141.37C503.737 1139.41 499.976 1135.69 497.959 1130.91L268.472 587.052C265.994 581.175 266.559 574.461 269.984 569.09C272.111 565.761 275.16 563.185 278.828 561.651L822.743 333.734C832.614 329.601 844.04 334.26 848.199 344.129L1077.67 887.995C1080.15 893.866 1079.59 900.581 1076.16 905.958ZM271.387 569.985C268.261 574.897 267.747 581.035 270.008 586.403L499.495 1130.26C501.342 1134.63 504.774 1138.03 509.166 1139.82C513.558 1141.61 518.384 1141.59 522.752 1139.76L1066.67 911.849C1070.02 910.443 1072.82 908.098 1074.75 905.052C1077.88 900.14 1078.4 894.006 1076.13 888.635L846.647 344.778C842.84 335.761 832.407 331.496 823.389 335.276L279.474 563.193C276.122 564.594 273.332 566.943 271.387 569.985Z" fill="#CC0033"/>
<path opacity="0.8" d="M1068.49 924.868C1066.36 928.197 1063.29 930.745 1059.61 932.229L526.949 1146.15C522.259 1148.04 517.11 1147.98 512.461 1146C507.802 1144.02 504.198 1140.34 502.297 1135.65L286.843 603.069C284.553 597.411 285.142 590.966 288.417 585.825C290.538 582.492 293.611 579.948 297.293 578.464L829.958 364.534C834.647 362.65 839.796 362.704 844.452 364.692C849.111 366.674 852.719 370.344 854.613 375.031L1070.07 907.622C1072.35 913.275 1071.76 919.72 1068.49 924.868ZM289.827 586.724C286.837 591.416 286.302 597.294 288.386 602.449L503.841 1135.03C505.571 1139.31 508.86 1142.66 513.103 1144.46C517.349 1146.27 522.041 1146.31 526.317 1144.6L1058.99 930.665C1062.34 929.317 1065.14 926.998 1067.07 923.958C1070.06 919.273 1070.59 913.395 1068.51 908.233L853.052 375.649C851.322 371.373 848.03 368.029 843.79 366.222C839.545 364.411 834.852 364.364 830.577 366.078L297.912 580.008C294.559 581.366 291.761 583.685 289.827 586.724Z" fill="#CC0033"/>
<path opacity="0.8" d="M1060.82 943.782C1058.69 947.121 1055.6 949.631 1051.9 951.051L530.482 1151C520.999 1154.64 510.298 1149.88 506.632 1140.4L305.2 619.078C303.095 613.647 303.718 607.469 306.843 602.558C308.968 599.218 312.049 596.704 315.754 595.284L837.175 395.345C841.771 393.578 846.786 393.717 851.288 395.719C855.797 397.725 859.258 401.353 861.025 405.949L1062.46 927.251C1064.56 932.689 1063.95 938.864 1060.82 943.782ZM308.257 603.45C305.412 607.919 304.85 613.534 306.759 618.476L508.191 1139.8C511.524 1148.42 521.248 1152.74 529.874 1149.44L1051.3 949.486C1054.67 948.194 1057.47 945.912 1059.4 942.879C1062.25 938.411 1062.81 932.795 1060.9 927.853L859.467 406.534C857.854 402.351 854.707 399.05 850.618 397.235C846.522 395.416 841.959 395.291 837.79 396.895L316.365 596.841C312.993 598.129 310.187 600.417 308.257 603.45Z" fill="#CC0033"/>
<path opacity="0.8" d="M1053.14 962.692C1051.02 966.031 1047.92 968.511 1044.19 969.88L534.019 1155.84C529.513 1157.48 524.642 1157.27 520.286 1155.25C515.93 1153.23 512.623 1149.63 510.969 1145.14L323.563 635.091C321.619 629.795 322.24 624.035 325.267 619.279C327.395 615.933 330.491 613.454 334.228 612.095L844.396 426.133C853.692 422.744 864.026 427.55 867.446 436.838L1054.85 946.884C1056.8 952.18 1056.18 957.94 1053.14 962.692ZM326.686 620.176C323.941 624.488 323.376 629.709 325.138 634.507L512.54 1144.56C514.04 1148.64 517.044 1151.9 520.987 1153.73C524.936 1155.56 529.352 1155.75 533.438 1154.26L1043.61 968.309C1046.99 967.071 1049.8 964.826 1051.73 961.799C1054.47 957.487 1055.04 952.256 1053.27 947.465L865.868 437.412C862.771 428.984 853.403 424.634 844.974 427.704L334.806 613.666C331.424 614.897 328.613 617.149 326.686 620.176Z" fill="#CC0033"/>
<path opacity="0.8" d="M1045.48 981.61C1043.35 984.956 1040.23 987.404 1036.47 988.705L537.556 1160.68C533.147 1162.2 528.406 1161.91 524.207 1159.87C520.002 1157.83 516.848 1154.27 515.321 1149.87L341.946 651.099C340.181 646.026 340.829 640.528 343.707 636.002C345.841 632.66 348.949 630.204 352.712 628.903L851.637 456.932C856.043 455.405 860.79 455.697 864.989 457.737C869.184 459.784 872.348 463.334 873.875 467.741L1047.24 966.513C1049.01 971.586 1048.36 977.088 1045.48 981.61ZM345.11 636.898C342.5 640.989 341.923 645.965 343.513 650.543L516.89 1149.32C518.273 1153.31 521.124 1156.52 524.93 1158.37C528.73 1160.21 533.015 1160.48 537.002 1159.1L1035.92 987.125C1039.32 985.949 1042.14 983.734 1044.06 980.707C1046.67 976.615 1047.25 971.64 1045.66 967.061L872.29 468.284C870.903 464.301 868.046 461.089 864.25 459.239C860.454 457.389 856.171 457.135 852.181 458.501L353.26 630.483C349.852 631.656 347.033 633.877 345.11 636.898Z" fill="#CC0033"/>
<path opacity="0.8" d="M1037.82 1000.53C1035.71 1003.84 1032.49 1006.32 1028.76 1007.53L541.084 1165.53C536.768 1166.93 532.157 1166.56 528.109 1164.5C524.061 1162.43 521.053 1158.92 519.643 1154.61L360.297 667.104C358.714 662.264 359.376 657.022 362.114 652.723C364.22 649.416 367.439 646.93 371.177 645.717L858.849 487.723C863.161 486.329 867.765 486.692 871.823 488.753C875.872 490.818 878.879 494.329 880.289 498.642L1039.63 986.153C1041.21 990.993 1040.55 996.235 1037.82 1000.53ZM363.53 653.626C361.063 657.501 360.468 662.227 361.891 666.591L521.243 1154.1C522.513 1157.99 525.221 1161.15 528.874 1163.01C532.521 1164.87 536.673 1165.2 540.566 1163.94L1028.24 1005.94C1031.61 1004.85 1034.51 1002.6 1036.41 999.628C1038.88 995.753 1039.47 991.027 1038.05 986.664L878.696 499.156C877.422 495.271 874.718 492.106 871.065 490.244C867.418 488.386 863.266 488.054 859.372 489.314L371.701 647.308C368.331 648.401 365.425 650.64 363.53 653.626Z" fill="#CC0033"/>
<path opacity="0.8" d="M1030.17 1019.45C1028.06 1022.77 1024.82 1025.22 1021.04 1026.36L544.621 1170.37C540.402 1171.65 535.928 1171.21 532.031 1169.12C528.135 1167.04 525.278 1163.56 523.991 1159.35L378.665 683.111C377.253 678.49 377.933 673.514 380.525 669.438C382.635 666.124 385.878 663.669 389.652 662.528L866.073 518.521C874.788 515.888 884.044 520.831 886.703 529.544L1032.03 1005.78C1033.44 1010.4 1032.76 1015.38 1030.17 1019.45ZM381.941 670.34C379.616 673.999 379.003 678.475 380.267 682.627L525.593 1158.86C526.75 1162.65 529.317 1165.78 532.821 1167.64C536.325 1169.51 540.344 1169.91 544.138 1168.77L1020.55 1024.76C1023.94 1023.73 1026.85 1021.53 1028.75 1018.55C1031.08 1014.89 1031.69 1010.41 1030.43 1006.26L885.101 530.027C882.717 522.199 874.394 517.752 866.567 520.12L390.142 664.134C386.752 665.156 383.842 667.358 381.941 670.34Z" fill="#CC0033"/>
<path opacity="0.8" d="M1022.52 1038.38C1020.4 1041.71 1017.13 1044.13 1013.33 1045.19L548.155 1175.22C539.627 1177.6 530.742 1172.61 528.336 1164.09L397.038 699.121C395.802 694.728 396.489 690.005 398.942 686.155C401.059 682.829 404.327 680.406 408.133 679.343L873.308 549.316C881.828 546.93 890.724 551.921 893.127 560.443L1024.42 1025.42C1025.66 1029.81 1024.96 1034.53 1022.52 1038.38ZM400.352 687.055C398.158 690.499 397.534 694.73 398.642 698.664L529.933 1163.63C532.091 1171.26 540.058 1175.73 547.689 1173.6L1012.87 1043.58C1016.28 1042.63 1019.2 1040.46 1021.1 1037.48C1023.3 1034.03 1023.92 1029.81 1022.8 1025.87L891.513 560.902C889.355 553.273 881.388 548.801 873.757 550.932L408.582 680.959C405.174 681.91 402.249 684.079 400.352 687.055Z" fill="#CC0033"/>
<path opacity="0.8" d="M1014.87 1057.31C1012.74 1060.65 1009.45 1063.03 1005.61 1064.02L551.681 1180.06C543.352 1182.19 534.82 1177.14 532.671 1168.82L415.403 715.117C414.325 710.953 415.033 706.489 417.34 702.862C419.468 699.516 422.763 697.135 426.607 696.153L880.532 580.114C888.861 577.985 897.393 583.03 899.542 591.354L1016.81 1045.05C1017.89 1049.22 1017.18 1053.69 1014.87 1057.31ZM418.756 703.765C416.691 707.002 416.065 710.984 417.023 714.704L534.285 1168.4C536.206 1175.84 543.824 1180.34 551.256 1178.43L1005.19 1062.4C1008.62 1061.52 1011.56 1059.39 1013.46 1056.41C1015.51 1053.18 1016.14 1049.19 1015.18 1045.47L897.922 591.767C896 584.334 888.383 579.833 880.941 581.741L427.016 697.781C423.593 698.655 420.657 700.783 418.756 703.765Z" fill="#CC0033"/>
<path opacity="0.8" d="M1007.24 1076.25C1005.09 1079.61 1001.78 1081.94 997.891 1082.84L555.212 1184.9C551.267 1185.8 547.202 1185.13 543.764 1182.98C540.323 1180.84 537.932 1177.49 537.006 1173.55L433.77 731.123C432.834 727.127 433.537 723.027 435.738 719.569C437.884 716.208 441.2 713.864 445.088 712.968L887.763 610.916C895.895 609.039 904.066 614.133 905.963 622.26L1009.21 1064.69C1010.13 1068.68 1009.44 1072.79 1007.24 1076.25ZM437.148 720.469C435.192 723.546 434.566 727.188 435.395 730.747L538.641 1173.17C539.455 1176.67 541.59 1179.65 544.644 1181.56C547.699 1183.47 551.318 1184.08 554.824 1183.27L997.505 1081.22C1000.97 1080.42 1003.91 1078.34 1005.82 1075.34C1007.77 1072.27 1008.4 1068.62 1007.57 1065.07L904.327 622.638C902.639 615.408 895.377 610.883 888.135 612.547L445.457 714.606C442.005 715.396 439.059 717.484 437.148 720.469Z" fill="#CC0033"/>
<path opacity="0.8" d="M999.607 1095.18C997.45 1098.56 994.096 1100.87 990.161 1101.67L558.739 1189.74C550.798 1191.36 542.994 1186.23 541.348 1178.29L452.13 747.126C451.356 743.368 452.054 739.512 454.12 736.275C456.276 732.895 459.63 730.59 463.559 729.786L894.997 641.711C902.938 640.092 910.739 645.235 912.385 653.175L1001.6 1084.33C1002.38 1088.09 1001.67 1091.94 999.607 1095.18ZM455.536 737.178C453.708 740.049 453.085 743.462 453.773 746.794L542.99 1177.95C544.448 1184.99 551.361 1189.55 558.4 1188.11L989.825 1100.03C993.308 1099.32 996.279 1097.28 998.191 1094.28C1000.01 1091.41 1000.64 1088 999.953 1084.66L910.742 653.507C909.284 646.469 902.378 641.919 895.329 643.354L463.901 731.425C460.418 732.137 457.447 734.177 455.536 737.178Z" fill="#CC0033"/>
<path opacity="0.8" d="M991.989 1114.12C989.844 1117.49 986.37 1119.81 982.448 1120.5L562.267 1194.59C558.505 1195.25 554.714 1194.41 551.587 1192.23C548.453 1190.04 546.365 1186.77 545.689 1183.02L470.508 763.13C469.875 759.599 470.585 755.989 472.505 752.975C474.64 749.616 478.124 747.292 482.05 746.597L902.227 672.513C909.982 671.144 917.412 676.338 918.805 684.081L993.986 1103.97C994.619 1107.5 993.912 1111.1 991.989 1114.12ZM473.914 753.874C472.215 756.537 471.586 759.724 472.144 762.837L547.336 1182.72C547.926 1186.03 549.776 1188.92 552.537 1190.85C555.306 1192.78 558.648 1193.52 561.965 1192.94L982.153 1118.85C985.62 1118.24 988.684 1116.18 990.573 1113.22C992.273 1110.56 992.898 1107.38 992.343 1104.26L917.155 684.366C915.93 677.53 909.367 672.948 902.526 674.153L482.349 748.238C478.878 748.854 475.804 750.911 473.914 753.874Z" fill="#CC0033"/>
<path opacity="0.8" d="M984.375 1133.08C982.221 1136.47 978.697 1138.74 974.719 1139.32L565.788 1199.43C562.123 1199.97 558.473 1199.04 555.496 1196.84C552.519 1194.63 550.577 1191.41 550.029 1187.74L488.866 779.123C488.372 775.825 489.083 772.464 490.871 769.664C493.031 766.277 496.549 763.998 500.521 763.415L909.462 703.308C917.015 702.199 924.085 707.441 925.221 714.993L986.384 1123.61C986.871 1126.91 986.16 1130.27 984.375 1133.08ZM492.287 770.567C490.718 773.032 490.087 775.988 490.523 778.885L551.689 1187.5C552.171 1190.71 553.875 1193.56 556.494 1195.5C559.112 1197.43 562.322 1198.25 565.539 1197.77L974.47 1137.67C977.968 1137.15 981.058 1135.16 982.959 1132.18C984.527 1129.71 985.155 1126.76 984.723 1123.86L923.567 715.241C922.572 708.598 916.358 703.987 909.707 704.969L500.776 765.073C497.281 765.582 494.188 767.585 492.287 770.567Z" fill="#CC0033"/>
<path opacity="0.8" d="M976.771 1152.03C974.588 1155.46 971.024 1157.68 966.989 1158.15L569.315 1204.27C561.952 1205.12 555.247 1199.83 554.374 1192.47L507.243 795.127C506.877 792.065 507.588 788.942 509.243 786.356C511.426 782.931 514.99 780.704 519.025 780.235L916.696 734.104C924.059 733.251 930.764 738.547 931.641 745.898L978.774 1143.25C979.136 1146.32 978.423 1149.43 976.771 1152.03ZM510.656 787.249C509.209 789.52 508.588 792.251 508.901 794.932L556.038 1192.28C556.8 1198.72 562.668 1203.35 569.123 1202.61L966.798 1156.49C970.329 1156.08 973.453 1154.13 975.361 1151.13C976.809 1148.86 977.426 1146.14 977.11 1143.44L929.973 746.096C929.211 739.656 923.343 735.023 916.894 735.771L519.21 781.895C515.682 782.299 512.565 784.254 510.656 787.249Z" fill="#CC0033"/>
<path opacity="0.8" d="M969.175 1170.99C966.974 1174.45 963.356 1176.64 959.263 1176.97L572.835 1209.11C565.664 1209.71 559.329 1204.36 558.713 1197.2L525.605 811.113C525.36 808.241 526.044 805.444 527.587 803.024C529.792 799.56 533.406 797.38 537.496 797.036L923.937 764.903C931.109 764.307 937.443 769.654 938.053 776.816L971.161 1162.9C971.406 1165.77 970.721 1168.57 969.175 1170.99ZM529.003 803.927C527.658 806.035 527.058 808.479 527.272 810.975L560.38 1197.06C560.912 1203.3 566.434 1207.96 572.69 1207.44L959.125 1175.31C962.692 1175.01 965.84 1173.11 967.759 1170.09C969.104 1167.98 969.701 1165.55 969.484 1163.04L936.382 776.961C935.85 770.714 930.328 766.058 924.072 766.577L537.637 798.713C534.08 799.006 530.922 800.913 529.003 803.927Z" fill="#CC0033"/>
<path opacity="0.8" d="M961.596 1189.96C959.396 1193.42 955.635 1195.6 951.538 1195.79L576.356 1213.95C569.375 1214.29 563.411 1208.89 563.058 1201.92L543.982 827.117C543.849 824.48 544.52 821.914 545.934 819.701C548.135 816.244 551.895 814.062 555.993 813.868L931.174 795.708C938.151 795.375 944.119 800.767 944.472 807.738L963.555 1182.55C963.681 1185.18 963.011 1187.75 961.596 1189.96ZM547.344 820.6C546.116 822.52 545.532 824.743 545.649 827.038L564.725 1201.84C565.031 1207.89 570.214 1212.57 576.265 1212.28L951.449 1194.13C955.006 1193.96 958.268 1192.06 960.177 1189.06C961.398 1187.14 961.982 1184.92 961.867 1182.63L942.795 807.82C942.485 801.778 937.313 797.093 931.256 797.385L556.071 815.535C552.518 815.702 549.255 817.599 547.344 820.6Z" fill="#CC0033"/>
<path opacity="0.8" d="M954.027 1208.94C951.786 1212.45 947.973 1214.58 943.808 1214.62L579.87 1218.79C573.084 1218.87 567.491 1213.42 567.401 1206.64L562.354 843.101C562.322 840.701 562.979 838.367 564.262 836.351C566.503 832.84 570.322 830.718 574.481 830.669L938.415 826.507C945.195 826.427 950.794 831.879 950.884 838.656L955.938 1202.2C955.973 1204.59 955.306 1206.93 954.027 1208.94ZM565.675 837.26C564.57 838.995 563.996 841.01 564.027 843.085L569.074 1206.63C569.16 1212.48 573.986 1217.19 579.845 1217.12L943.782 1212.95C947.381 1212.91 950.686 1211.07 952.617 1208.04C953.725 1206.3 954.296 1204.29 954.265 1202.22L949.211 838.672C949.125 832.819 944.299 828.112 938.437 828.184L574.499 832.353C570.901 832.392 567.605 834.227 565.675 837.26Z" fill="#CC0033"/>
<path opacity="0.8" d="M946.476 1227.93C944.232 1231.45 940.254 1233.56 936.078 1233.45L583.385 1223.63C576.8 1223.44 571.57 1217.94 571.743 1211.36L580.722 859.09C580.779 856.922 581.419 854.824 582.577 853.01C584.821 849.492 588.806 847.38 592.975 847.491L945.662 857.31C952.247 857.493 957.47 862.992 957.303 869.578L948.325 1221.85C948.267 1224.01 947.624 1226.12 946.476 1227.93ZM583.987 853.909C582.992 855.468 582.444 857.277 582.395 859.135L573.419 1211.41C573.275 1217.07 577.766 1221.8 583.431 1221.96L936.116 1231.77C939.763 1231.87 943.101 1230.1 945.06 1227.03C946.054 1225.47 946.603 1223.66 946.655 1221.8L955.628 869.524C955.768 863.87 951.281 859.137 945.618 858.983L592.93 849.164C589.284 849.065 585.946 850.841 583.987 853.909Z" fill="#CC0033"/>
<path opacity="0.8" d="M938.935 1246.93C936.65 1250.52 932.587 1252.56 928.343 1252.27L586.895 1228.47C580.505 1228.02 575.656 1222.47 576.082 1216.08L599.084 875.077C599.216 873.148 599.832 871.268 600.86 869.65C603.145 866.062 607.205 864.011 611.458 864.316L952.906 888.119C959.296 888.566 964.149 894.115 963.712 900.503L940.714 1241.5C940.582 1243.43 939.966 1245.31 938.935 1246.93ZM602.282 870.557C601.398 871.941 600.877 873.552 600.768 875.205L577.764 1216.2C577.393 1221.66 581.545 1226.41 587.016 1226.8L928.45 1250.59C932.084 1250.85 935.56 1249.1 937.512 1246.03C938.397 1244.64 938.924 1243.04 939.033 1241.38L962.04 900.383C962.411 894.921 958.259 890.169 952.789 889.784L611.352 865.979C607.714 865.731 604.245 867.483 602.282 870.557Z" fill="#CC0033"/>
</g>
<defs>
<clipPath id="clip0_71_701">
<rect width="991.125" height="1028.82" fill="white" transform="translate(858.339 1386.54) rotate(-150)"/>
</clipPath>
</defs>
</svg>
