<svg width="968" height="1634" viewBox="0 0 968 1634" fill="none" xmlns="http://www.w3.org/2000/svg">
<g clip-path="url(#clip0_71_580)">
<path opacity="0.8" d="M1300.83 991.686C1298.39 995.688 1294.87 998.907 1290.65 1000.99L613.495 1334.76C607.56 1337.69 600.837 1338.12 594.56 1335.99C588.283 1333.86 583.204 1329.42 580.263 1323.49L244.482 646.362C240.688 638.713 241.072 629.786 245.508 622.498C247.948 618.497 251.466 615.278 255.687 613.194L932.842 279.428C938.777 276.499 945.5 276.06 951.777 278.193C958.059 280.319 963.133 284.767 966.074 290.698L1301.84 967.826C1305.64 975.475 1305.26 984.394 1300.83 991.686ZM247.191 623.543C243.114 630.25 242.762 638.465 246.255 645.499L582.036 1322.62C584.736 1328.08 589.41 1332.17 595.185 1334.13C600.96 1336.08 607.145 1335.68 612.6 1332.99L1289.76 999.224C1293.65 997.308 1296.89 994.352 1299.12 990.668C1303.2 983.953 1303.55 975.746 1300.07 968.708L964.285 291.592C961.576 286.128 956.906 282.052 951.127 280.083C945.352 278.127 939.168 278.531 933.705 281.22L256.549 614.987C252.663 616.895 249.426 619.859 247.191 623.543Z" fill="#CC0033"/>
<path opacity="0.8" d="M1292.18 1014.26C1289.76 1018.25 1286.23 1021.44 1281.98 1023.47L617.79 1340.4C611.967 1343.18 605.397 1343.53 599.301 1341.37C593.204 1339.22 588.3 1334.83 585.504 1328.99L266.606 664.867C263.052 657.47 263.478 648.866 267.732 641.857C270.167 637.863 273.692 634.668 277.942 632.64L942.13 315.703C954.155 309.96 968.647 315.082 974.421 327.104L1293.32 991.244C1296.88 998.64 1296.46 1007.25 1292.18 1014.26ZM269.438 642.895C265.521 649.33 265.134 657.227 268.397 664.024L587.3 1328.14C589.864 1333.49 594.363 1337.53 599.957 1339.51C605.559 1341.49 611.588 1341.17 616.936 1338.62L1281.12 1021.68C1285.02 1019.82 1288.26 1016.89 1290.49 1013.23C1294.41 1006.79 1294.8 998.896 1291.53 992.106L972.636 327.971C967.329 316.934 954.035 312.231 943 317.499L278.812 634.437C274.913 636.298 271.669 639.218 269.438 642.895Z" fill="#CC0033"/>
<path opacity="0.8" d="M1283.56 1036.83C1281.13 1040.83 1277.59 1043.98 1273.31 1045.95L622.097 1346.05C610.288 1351.49 596.229 1346.31 590.752 1334.51L288.736 683.376C285.416 676.228 285.885 667.947 289.974 661.217C292.402 657.219 295.945 654.063 300.212 652.095L951.428 351.994C957.152 349.358 963.562 349.107 969.48 351.293C975.404 353.471 980.122 357.823 982.773 363.535L1284.8 1014.67C1288.12 1021.82 1287.66 1030.1 1283.56 1036.83ZM291.685 662.247C287.939 668.407 287.509 676 290.543 682.542L592.559 1333.67C597.569 1344.49 610.454 1349.22 621.271 1344.24L1272.49 1044.14C1276.4 1042.34 1279.65 1039.45 1281.87 1035.79C1285.62 1029.63 1286.04 1022.05 1283 1015.5L980.998 364.367C978.567 359.125 974.241 355.149 968.821 353.147C963.4 351.146 957.527 351.382 952.286 353.794L301.07 653.895C297.154 655.697 293.908 658.586 291.685 662.247Z" fill="#CC0033"/>
<path opacity="0.8" d="M1274.93 1059.4C1272.51 1063.4 1268.95 1066.52 1264.65 1068.43L626.413 1351.7C620.801 1354.18 614.551 1354.34 608.813 1352.14C603.075 1349.93 598.532 1345.62 596.025 1340.01L310.896 701.871C307.816 694.975 308.319 687.012 312.241 680.57C314.676 676.576 318.222 673.452 322.526 671.544L960.775 388.271C972.357 383.135 985.998 388.368 991.166 399.948L1276.28 1038.1C1279.36 1044.99 1278.86 1052.95 1274.93 1059.4ZM313.924 681.595C310.345 687.487 309.888 694.766 312.697 701.064L597.827 1339.2C600.121 1344.33 604.268 1348.27 609.512 1350.28C614.756 1352.3 620.469 1352.15 625.595 1349.88L1263.85 1066.61C1267.78 1064.86 1271.03 1062.02 1273.25 1058.36C1276.83 1052.47 1277.29 1045.2 1274.47 1038.89L989.345 400.754C984.616 390.174 972.16 385.383 961.577 390.081L323.329 673.354C319.395 675.096 316.15 677.946 313.924 681.595Z" fill="#CC0033"/>
<path opacity="0.8" d="M1266.32 1081.98C1263.88 1085.97 1260.31 1089.06 1255.99 1090.91L630.719 1357.34C625.215 1359.69 619.118 1359.75 613.565 1357.52C608 1355.28 603.643 1351.02 601.277 1345.52L333.038 720.377C330.187 713.736 330.725 706.092 334.475 699.925C336.903 695.927 340.478 692.839 344.8 690.991L970.077 424.555C975.581 422.208 981.678 422.145 987.239 424.383C992.803 426.614 997.165 430.869 999.523 436.37L1267.77 1061.52C1270.61 1068.16 1270.07 1075.8 1266.32 1081.98ZM336.166 700.954C332.743 706.582 332.255 713.554 334.85 719.605L603.089 1344.74C605.243 1349.76 609.22 1353.65 614.287 1355.68C619.358 1357.71 624.914 1357.65 629.933 1355.52L1255.21 1089.07C1259.15 1087.4 1262.41 1084.58 1264.62 1080.94C1268.04 1075.32 1268.53 1068.34 1265.94 1062.28L997.691 437.141C995.537 432.122 991.557 428.245 986.493 426.211C981.423 424.172 975.866 424.233 970.848 426.367L345.571 692.803C341.636 694.494 338.381 697.308 336.166 700.954Z" fill="#CC0033"/>
<path opacity="0.8" d="M1257.71 1104.56C1255.28 1108.56 1251.68 1111.61 1247.33 1113.38L635.023 1362.99C623.886 1367.53 611.101 1362.16 606.526 1351.03L355.166 738.874C352.54 732.497 353.124 725.168 356.703 719.276C359.135 715.271 362.721 712.219 367.071 710.446L979.383 460.85C984.781 458.645 990.721 458.685 996.1 460.943C1001.49 463.206 1005.67 467.416 1007.88 472.813L1259.24 1084.95C1261.86 1091.33 1261.29 1098.66 1257.71 1104.56ZM358.398 720.298C355.142 725.658 354.615 732.32 356.997 738.123L608.357 1350.28C612.517 1360.4 624.135 1365.28 634.264 1361.16L1246.59 1111.54C1250.54 1109.93 1253.8 1107.16 1256.01 1103.52C1259.27 1098.16 1259.79 1091.5 1257.41 1085.7L1006.05 473.544C1004.04 468.632 1000.23 464.802 995.344 462.755C990.45 460.703 985.046 460.668 980.15 462.67L367.834 712.273C363.874 713.881 360.608 716.66 358.398 720.298Z" fill="#CC0033"/>
<path opacity="0.8" d="M1249.09 1127.13C1246.66 1131.14 1243.05 1134.15 1238.67 1135.86L639.33 1368.63C634.037 1370.69 628.264 1370.56 623.058 1368.28C617.852 1365.99 613.848 1361.82 611.779 1356.53L377.301 757.376C374.869 751.155 375.461 744.32 378.927 738.616C381.363 734.602 384.967 731.59 389.357 729.889L988.694 497.118C999.615 492.876 1011.97 498.31 1016.25 509.22L1250.72 1108.38C1253.16 1114.6 1252.56 1121.43 1249.09 1127.13ZM380.63 739.642C377.486 744.814 376.946 751.009 379.151 756.645L613.624 1355.81C615.501 1360.61 619.137 1364.38 623.85 1366.46C628.571 1368.53 633.803 1368.64 638.604 1366.78L1237.94 1134.02C1241.92 1132.47 1245.19 1129.74 1247.39 1126.11C1250.54 1120.94 1251.07 1114.73 1248.87 1109.1L1014.39 509.939C1010.52 500.039 999.32 495.121 989.417 498.964L390.08 731.735C386.107 733.276 382.835 736.011 380.63 739.642Z" fill="#CC0033"/>
<path opacity="0.8" d="M1240.49 1149.72C1238.05 1153.73 1234.42 1156.71 1229.99 1158.34L643.637 1374.28C638.455 1376.18 632.836 1375.96 627.815 1373.65C622.786 1371.33 618.964 1367.2 617.047 1362.03L399.459 775.871C397.244 769.909 397.875 763.385 401.17 757.956C403.614 753.947 407.232 750.962 411.655 749.33L998.028 533.399C1003.21 531.483 1008.83 531.711 1013.85 534.022C1018.87 536.341 1022.71 540.466 1024.62 545.644L1242.2 1131.8C1244.41 1137.76 1243.79 1144.29 1240.49 1149.72ZM402.853 758.981C399.865 763.89 399.305 769.794 401.3 775.175L618.891 1361.34C620.627 1366.03 624.081 1369.76 628.633 1371.85C633.177 1373.94 638.257 1374.15 642.942 1372.42L1229.31 1156.48C1233.31 1155.01 1236.58 1152.31 1238.79 1148.68C1241.78 1143.78 1242.34 1137.87 1240.34 1132.49L1022.76 546.327C1021.02 541.645 1017.56 537.914 1013.02 535.818C1008.48 533.721 1003.4 533.527 998.712 535.244L412.342 751.186C408.337 752.659 405.055 755.358 402.853 758.981Z" fill="#CC0033"/>
<path opacity="0.8" d="M1231.89 1172.3C1229.47 1176.27 1225.73 1179.29 1221.33 1180.82L647.932 1379.93C642.858 1381.69 637.391 1381.37 632.547 1379.03C627.704 1376.68 624.056 1372.6 622.28 1367.53L421.579 794.364C419.585 788.673 420.239 782.452 423.374 777.294C425.785 773.327 429.534 770.305 433.929 768.777L1007.33 569.671C1012.4 567.915 1017.86 568.23 1022.71 570.57C1027.56 572.913 1031.2 576.996 1032.98 582.067L1233.68 1155.24C1235.67 1160.93 1235.02 1167.15 1231.89 1172.3ZM425.073 778.328C422.247 782.977 421.66 788.586 423.453 793.716L624.162 1366.89C625.761 1371.46 629.045 1375.13 633.416 1377.25C637.779 1379.36 642.702 1379.65 647.28 1378.06L1220.68 1178.95C1224.64 1177.57 1228.02 1174.84 1230.19 1171.27C1233.02 1166.62 1233.61 1161.02 1231.81 1155.88L1031.1 582.714C1029.5 578.147 1026.22 574.467 1021.85 572.353C1017.49 570.244 1012.56 569.954 1007.99 571.541L434.589 770.647C430.626 772.024 427.241 774.747 425.073 778.328Z" fill="#CC0033"/>
<path opacity="0.8" d="M1223.3 1194.9C1220.88 1198.87 1217.1 1201.86 1212.67 1203.3L652.239 1385.57C647.276 1387.19 641.97 1386.77 637.304 1384.4C632.641 1382.04 629.172 1377.99 627.545 1373.03L443.718 812.858C441.933 807.422 442.614 801.515 445.582 796.626C447.998 792.65 451.776 789.665 456.216 788.221L1016.64 605.951C1026.89 602.619 1037.97 608.242 1041.34 618.49L1225.16 1178.66C1226.95 1184.1 1226.26 1190.01 1223.3 1194.9ZM447.281 797.659C444.619 802.048 444.004 807.362 445.603 812.246L629.429 1372.42C630.892 1376.88 634.009 1380.51 638.203 1382.64C642.397 1384.76 647.165 1385.14 651.628 1383.69L1212.05 1201.41C1216.03 1200.12 1219.42 1197.44 1221.6 1193.86C1224.26 1189.47 1224.88 1184.16 1223.28 1179.27L1039.45 619.102C1036.44 609.893 1026.47 604.835 1017.27 607.832L456.835 790.109C452.848 791.403 449.458 794.082 447.281 797.659Z" fill="#CC0033"/>
<path opacity="0.8" d="M1214.71 1217.5C1212.28 1221.49 1208.48 1224.43 1204 1225.78L656.542 1391.22C646.507 1394.25 635.864 1388.56 632.805 1378.54L465.866 831.356C464.293 826.187 464.99 820.578 467.799 815.96C470.222 811.97 474.031 809.021 478.51 807.668L1025.97 642.228C1036 639.192 1046.65 644.88 1049.71 654.909L1216.64 1202.1C1218.21 1207.27 1217.51 1212.87 1214.71 1217.5ZM469.49 816.99C466.978 821.122 466.343 826.146 467.753 830.776L634.685 1377.96C637.428 1386.93 646.97 1392.03 655.951 1389.32L1203.42 1223.88C1207.43 1222.67 1210.84 1220.03 1213.01 1216.46C1215.52 1212.32 1216.16 1207.31 1214.74 1202.67L1047.81 655.493C1045.06 646.514 1035.52 641.418 1026.54 644.13L479.082 809.571C475.071 810.781 471.662 813.421 469.49 816.99Z" fill="#CC0033"/>
<path opacity="0.8" d="M1206.13 1240.09C1203.68 1244.1 1199.85 1247 1195.32 1248.26L660.838 1396.87C651.03 1399.59 640.805 1393.83 638.055 1384.03L488.002 849.838C486.623 844.935 487.351 839.633 489.992 835.283C492.429 831.269 496.271 828.368 500.796 827.112L1035.28 678.508C1045.09 675.781 1055.32 681.542 1058.07 691.344L1208.12 1225.53C1209.5 1230.43 1208.77 1235.74 1206.13 1240.09ZM491.691 836.317C489.326 840.2 488.683 844.929 489.91 849.309L639.956 1383.5C642.414 1392.25 651.543 1397.39 660.294 1394.95L1194.79 1246.35C1198.83 1245.23 1202.25 1242.64 1204.43 1239.06C1206.78 1235.18 1207.43 1230.44 1206.2 1226.06L1056.16 691.872C1053.7 683.12 1044.57 677.981 1035.81 680.424L501.321 829.028C497.29 830.147 493.867 832.74 491.691 836.317Z" fill="#CC0033"/>
<path opacity="0.8" d="M1197.56 1262.69C1195.1 1266.73 1191.24 1269.58 1186.66 1270.73L665.138 1402.51C660.49 1403.68 655.661 1402.98 651.538 1400.52C647.412 1398.08 644.498 1394.17 643.304 1389.52L510.141 868.332C508.935 863.624 509.666 858.753 512.185 854.605C514.642 850.573 518.51 847.716 523.09 846.56L1044.61 714.792C1054.19 712.37 1063.99 718.197 1066.43 727.771L1199.6 1248.97C1200.8 1253.67 1200.08 1258.55 1197.56 1262.69ZM513.876 855.635C511.637 859.327 510.986 863.653 512.056 867.847L645.231 1389.04C646.28 1393.16 648.882 1396.64 652.545 1398.82C656.208 1401 660.507 1401.63 664.637 1400.58L1186.16 1268.82C1190.24 1267.79 1193.67 1265.25 1195.86 1261.66C1198.09 1257.98 1198.75 1253.64 1197.68 1249.46L1064.5 728.259C1062.33 719.742 1053.62 714.564 1045.09 716.714L523.567 848.49C519.501 849.51 516.065 852.054 513.876 855.635Z" fill="#CC0033"/>
<path opacity="0.8" d="M1188.99 1285.3C1186.52 1289.36 1182.61 1292.17 1177.97 1293.21L669.433 1408.16C660.072 1410.27 650.706 1404.38 648.561 1395.02L532.273 886.822C531.263 882.392 531.994 877.81 534.359 873.927C536.828 869.872 540.741 867.06 545.373 866.011L1053.93 751.069C1063.29 748.955 1072.65 754.851 1074.8 764.21L1191.08 1272.41C1192.1 1276.84 1191.36 1281.42 1188.99 1285.3ZM536.058 874.961C533.965 878.404 533.313 882.46 534.209 886.388L650.497 1394.59C652.398 1402.88 660.693 1408.1 668.991 1406.23L1177.53 1291.28C1181.64 1290.36 1185.11 1287.87 1187.3 1284.27C1189.38 1280.83 1190.04 1276.77 1189.14 1272.84L1072.86 764.643C1070.96 756.348 1062.68 751.132 1054.36 753.005L545.818 867.943C541.712 868.872 538.247 871.361 536.058 874.961Z" fill="#CC0033"/>
<path opacity="0.8" d="M1180.45 1307.91C1177.99 1311.95 1173.93 1314.78 1169.31 1315.69L673.729 1413.8C669.292 1414.68 664.784 1413.78 661.028 1411.27C657.264 1408.76 654.71 1404.94 653.818 1400.52L554.424 905.312C553.588 901.147 554.339 896.857 556.537 893.241C558.982 889.212 563.048 886.375 567.679 885.455L1063.25 787.353C1072.4 785.54 1081.32 791.506 1083.16 800.637L1182.56 1295.84C1183.39 1300.01 1182.65 1304.29 1180.45 1307.91ZM558.228 894.271C556.282 897.465 555.617 901.254 556.355 904.925L655.76 1400.13C656.54 1404.03 658.801 1407.4 662.118 1409.62C665.443 1411.83 669.419 1412.63 673.331 1411.86L1168.92 1313.75C1173.01 1312.94 1176.58 1310.43 1178.75 1306.88C1180.69 1303.69 1181.35 1299.9 1180.62 1296.23L1081.22 801.015C1079.6 792.954 1071.72 787.691 1063.65 789.287L568.073 887.39C563.98 888.205 560.392 890.717 558.228 894.271Z" fill="#CC0033"/>
<path opacity="0.8" d="M1171.9 1330.54C1169.43 1334.61 1165.32 1337.39 1160.62 1338.17L678.016 1419.45C673.691 1420.17 669.348 1419.17 665.769 1416.64C662.19 1414.1 659.811 1410.33 659.072 1406L576.553 923.79C575.886 919.898 576.645 915.902 578.692 912.543C581.165 908.48 585.273 905.695 589.961 904.907L1072.58 823.63C1081.49 822.129 1089.99 828.16 1091.52 837.072L1174.04 1319.28C1174.7 1323.17 1173.94 1327.17 1171.9 1330.54ZM580.39 913.577C578.595 916.534 577.921 920.048 578.508 923.467L661.031 1405.67C661.682 1409.47 663.769 1412.79 666.917 1415.02C670.065 1417.25 673.885 1418.13 677.681 1417.49L1160.29 1336.22C1164.42 1335.52 1168.03 1333.08 1170.2 1329.51C1172 1326.55 1172.67 1323.04 1172.08 1319.62L1089.57 837.407C1088.23 829.568 1080.76 824.263 1072.91 825.589L590.303 906.863C586.18 907.552 582.567 909.999 580.39 913.577Z" fill="#CC0033"/>
<path opacity="0.8" d="M1163.37 1353.16C1160.87 1357.27 1156.7 1360 1151.94 1360.65L682.312 1425.09C673.617 1426.28 665.548 1420.18 664.332 1411.49L598.704 942.28C598.195 938.665 598.959 934.95 600.854 931.848C603.353 927.739 607.517 925.015 612.282 924.359L1081.91 859.906C1090.6 858.714 1098.67 864.818 1099.89 873.498L1165.52 1342.72C1166.03 1346.35 1165.26 1350.05 1163.37 1353.16ZM602.549 932.87C600.892 935.594 600.224 938.842 600.661 942.008L666.297 1411.22C667.359 1418.83 674.42 1424.17 682.044 1423.13L1151.67 1358.69C1155.84 1358.11 1159.49 1355.73 1161.68 1352.13C1163.33 1349.41 1164 1346.17 1163.56 1342.99L1097.92 873.774C1096.86 866.169 1089.8 860.829 1082.18 861.875L612.542 926.32C608.376 926.886 604.734 929.278 602.549 932.87Z" fill="#CC0033"/>
<path opacity="0.8" d="M1154.85 1375.8C1152.33 1379.95 1148.1 1382.63 1143.26 1383.12L686.599 1430.74C678.124 1431.62 670.493 1425.45 669.586 1416.98L620.836 960.751C620.475 957.357 621.216 954.029 622.982 951.125C625.507 946.97 629.731 944.3 634.565 943.791L1091.24 896.187C1099.72 895.304 1107.35 901.477 1108.25 909.941L1157 1366.17C1157.36 1369.56 1156.62 1372.89 1154.85 1375.8ZM624.681 952.159C623.141 954.688 622.491 957.596 622.806 960.546L671.556 1416.77C672.341 1424.16 678.993 1429.53 686.386 1428.76L1143.05 1381.15C1147.27 1380.71 1150.95 1378.38 1153.15 1374.77C1154.69 1372.24 1155.33 1369.34 1155.01 1366.38L1106.27 910.154C1105.49 902.772 1098.83 897.396 1091.44 898.165L634.773 945.774C630.569 946.209 626.879 948.544 624.681 952.159Z" fill="#CC0033"/>
<path opacity="0.8" d="M1146.34 1398.44C1143.82 1402.59 1139.43 1405.26 1134.58 1405.6L690.887 1436.38C682.632 1436.95 675.438 1430.71 674.847 1422.47L642.987 979.242C642.765 976.123 643.495 973.069 645.114 970.414C647.634 966.267 652.031 963.591 656.878 963.26L1100.57 932.476C1108.82 931.909 1116.02 938.144 1116.61 946.388L1148.48 1389.62C1148.69 1392.73 1147.96 1395.79 1146.34 1398.44ZM646.805 971.444C645.399 973.747 644.763 976.393 644.959 979.107L676.818 1422.33C677.33 1429.49 683.581 1434.9 690.737 1434.4L1134.43 1403.63C1138.64 1403.33 1142.46 1401.01 1144.64 1397.41C1146.04 1395.11 1146.67 1392.46 1146.48 1389.76L1114.63 946.526C1114.11 939.381 1107.87 933.964 1100.71 934.459L657.012 965.231C652.81 965.518 648.994 967.844 646.805 971.444Z" fill="#CC0033"/>
<path opacity="0.8" d="M1137.85 1421.1C1135.29 1425.31 1130.82 1427.92 1125.9 1428.07L695.167 1442.02C687.135 1442.28 680.379 1435.96 680.105 1427.94L665.132 997.708C665.035 994.869 665.755 992.089 667.224 989.671C669.789 985.459 674.258 982.852 679.18 982.692L1109.9 968.756C1117.93 968.494 1124.69 974.81 1124.97 982.83L1139.95 1413.07C1140.05 1415.9 1139.32 1418.69 1137.85 1421.1ZM668.918 990.712C667.654 992.793 667.024 995.193 667.112 997.649L682.085 1427.88C682.331 1434.81 688.162 1440.26 695.095 1440.04L1125.82 1426.1C1130.08 1425.96 1133.95 1423.7 1136.16 1420.07C1137.43 1417.98 1138.06 1415.59 1137.97 1413.13L1122.99 982.89C1122.74 975.963 1116.91 970.511 1109.97 970.741L679.243 984.684C674.984 984.819 671.129 987.074 668.918 990.712Z" fill="#CC0033"/>
<path opacity="0.8" d="M1129.38 1443.76C1126.81 1447.98 1122.16 1450.59 1117.21 1450.55L699.447 1447.66C691.647 1447.6 685.32 1441.22 685.363 1433.42L687.272 1016.18C687.286 1013.61 687.991 1011.12 689.318 1008.94C691.887 1004.72 696.552 1002.12 701.49 1002.15L1119.25 1005.04C1127.05 1005.1 1133.37 1011.48 1133.33 1019.28L1131.42 1436.52C1131.41 1439.08 1130.7 1441.59 1129.38 1443.76ZM691.008 1009.97C689.87 1011.84 689.265 1013.99 689.253 1016.19L687.347 1433.44C687.317 1440.15 692.75 1445.63 699.461 1445.69L1117.21 1448.57C1121.53 1448.6 1125.44 1446.41 1127.68 1442.73C1128.82 1440.86 1129.43 1438.71 1129.44 1436.5L1131.35 1019.25C1131.37 1012.56 1125.94 1007.07 1119.24 1007.02L701.479 1004.13C697.16 1004.1 693.252 1006.29 691.008 1009.97Z" fill="#CC0033"/>
<path opacity="0.8" d="M1120.93 1466.45C1118.31 1470.75 1113.55 1473.27 1108.52 1473.03L703.723 1453.3C696.147 1452.93 690.269 1446.48 690.616 1438.91L709.404 1034.65C709.513 1032.37 710.196 1030.12 711.372 1028.18C713.988 1023.88 718.744 1021.35 723.787 1021.61L1128.58 1041.33C1136.16 1041.7 1142.04 1048.15 1141.68 1055.73L1122.9 1459.97C1122.79 1462.26 1122.11 1464.5 1120.93 1466.45ZM713.079 1029.22C712.066 1030.88 711.49 1032.8 711.401 1034.76L692.609 1439C692.306 1445.48 697.338 1451 703.824 1451.32L1108.6 1471.04C1112.91 1471.25 1116.98 1469.09 1119.22 1465.41C1120.23 1463.75 1120.82 1461.83 1120.9 1459.88L1139.7 1055.63C1140 1049.15 1134.97 1043.63 1128.49 1043.31L723.702 1023.58C719.39 1023.38 715.326 1025.54 713.079 1029.22Z" fill="#CC0033"/>
</g>
<defs>
<clipPath id="clip0_71_580">
<rect width="1173.56" height="1218.19" fill="white" transform="translate(1028.97 1633.71) rotate(-151.198)"/>
</clipPath>
</defs>
</svg>
