<svg width="1189" height="2097" viewBox="0 0 1189 2097" fill="none" xmlns="http://www.w3.org/2000/svg">
<g clip-path="url(#clip0_71_677)">
<g opacity="0.8">
<path opacity="0.8" d="M-210.053 1597.03C-214.228 1592.96 -217.157 1587.81 -218.514 1582.12L-435.786 669.136C-437.695 661.133 -436.367 652.864 -432.046 645.846C-427.725 638.828 -420.939 633.9 -412.938 631.976L500.565 412.254C510.884 409.771 521.597 412.705 529.203 420.097C533.378 424.16 536.307 429.314 537.665 435.006L754.937 1347.99C756.846 1355.99 755.518 1364.26 751.197 1371.28C746.884 1378.3 740.09 1383.22 732.089 1385.15L-181.415 1604.86C-191.734 1607.34 -202.439 1604.41 -210.053 1597.03ZM527.472 421.847C520.471 415.051 510.611 412.353 501.121 414.641L-412.382 634.363C-419.746 636.127 -425.992 640.661 -429.961 647.119C-433.929 653.577 -435.149 661.185 -433.393 668.541L-216.129 1581.53C-214.882 1586.78 -212.193 1591.51 -208.346 1595.24C-201.337 1602.04 -191.486 1604.73 -181.994 1602.46L731.501 1382.73C738.871 1380.96 745.102 1376.43 749.086 1369.97C753.055 1363.51 754.274 1355.9 752.526 1348.54L535.254 435.555C534.016 430.318 531.319 425.575 527.472 421.847Z" fill="#48917E"/>
<path opacity="0.8" d="M-235.018 1580.31C-239.193 1576.26 -242.075 1571.11 -243.357 1565.39L-443.819 672.78C-445.578 664.954 -444.177 656.897 -439.881 650.103C-435.586 643.31 -428.904 638.581 -421.063 636.805L472.019 433.951C481.966 431.689 492.276 434.585 499.595 441.678C503.762 445.734 506.66 450.889 507.942 456.601L708.403 1349.21C712.037 1365.38 701.824 1381.52 685.656 1385.2L-207.442 1588.05C-217.389 1590.31 -227.706 1587.43 -235.018 1580.31ZM497.865 443.459C491.15 436.932 481.686 434.279 472.545 436.355L-420.529 639.217C-427.716 640.847 -433.858 645.182 -437.801 651.415C-441.752 657.656 -443.03 665.052 -441.415 672.239L-240.954 1564.85C-239.777 1570.09 -237.127 1574.82 -233.303 1578.55C-226.587 1585.07 -217.124 1587.72 -207.991 1585.64L685.1 1382.79C699.943 1379.41 709.318 1364.6 705.986 1349.77L505.524 457.159C504.347 451.918 501.704 447.18 497.865 443.459Z" fill="#48917E"/>
<path opacity="0.8" d="M-259.989 1563.62C-264.163 1559.57 -267.008 1554.4 -268.206 1548.68L-451.849 676.44C-455.178 660.622 -445.009 645.017 -429.194 641.642L443.468 455.655C453.05 453.607 462.957 456.465 469.982 463.282C474.156 467.33 477.001 472.496 478.206 478.213L661.849 1350.45C663.461 1358.11 661.993 1365.95 657.707 1372.52C653.43 1379.1 646.851 1383.61 639.195 1385.25L-233.482 1571.25C-243.057 1573.29 -252.971 1570.44 -259.989 1563.62ZM468.26 465.07C461.831 458.827 452.747 456.206 443.979 458.075L-428.683 644.063C-443.174 647.144 -452.479 661.451 -449.436 675.937L-265.793 1548.17C-264.692 1553.42 -262.088 1558.15 -258.266 1561.86C-251.836 1568.1 -242.76 1570.71 -233.985 1568.84L638.678 1382.87C645.703 1381.37 651.717 1377.23 655.642 1371.21C659.567 1365.19 660.904 1358.01 659.431 1350.99L475.787 478.755C474.687 473.51 472.083 468.777 468.26 465.07Z" fill="#48917E"/>
<path opacity="0.8" d="M-284.961 1546.92C-289.136 1542.87 -291.934 1537.7 -293.056 1531.96L-459.888 680.107C-461.351 672.618 -459.816 665 -455.556 658.655C-451.295 652.311 -444.821 647.995 -437.325 646.509L414.925 477.396C424.134 475.57 433.646 478.382 440.369 484.916C444.536 488.972 447.342 494.133 448.464 499.878L615.297 1351.74C618.32 1367.2 608.206 1382.29 592.742 1385.35L-259.517 1554.44C-268.718 1556.27 -278.229 1553.46 -284.961 1546.92ZM438.661 486.673C432.51 480.706 423.814 478.14 415.405 479.803L-436.845 648.916C-443.693 650.279 -449.612 654.216 -453.504 660.015C-457.395 665.814 -458.799 672.777 -457.459 679.618L-290.633 1531.49C-289.602 1536.73 -287.053 1541.46 -283.238 1545.16C-277.087 1551.13 -268.398 1553.7 -259.981 1552.03L592.269 1382.92C606.399 1380.11 615.65 1366.34 612.882 1352.22L446.049 500.35C445.026 495.101 442.469 490.38 438.661 486.673Z" fill="#48917E"/>
<path opacity="0.8" d="M-309.939 1530.23C-314.106 1526.18 -316.867 1521 -317.912 1515.25L-467.918 683.767C-469.24 676.447 -467.631 669.04 -463.388 662.928C-459.146 656.801 -452.774 652.699 -445.448 651.353L386.374 499.115C395.211 497.497 404.326 500.262 410.764 506.513C414.938 510.561 417.692 515.748 418.737 521.496L568.751 1352.99C570.073 1360.31 568.464 1367.71 564.214 1373.83C559.972 1379.96 553.608 1384.07 546.289 1385.41L-285.549 1537.65C-294.378 1539.26 -303.493 1536.49 -309.939 1530.23ZM409.048 508.277C403.175 502.572 394.859 500.053 386.808 501.525L-445.014 653.763C-451.693 654.986 -457.5 658.731 -461.358 664.312C-465.231 669.894 -466.693 676.645 -465.494 683.317L-315.472 1514.81C-314.526 1520.05 -312.015 1524.78 -308.208 1528.47C-302.343 1534.17 -294.027 1536.69 -285.968 1535.22L545.862 1382.97C552.54 1381.75 558.339 1378 562.205 1372.43C566.078 1366.84 567.541 1360.09 566.342 1353.42L416.327 521.93C415.366 516.693 412.855 511.969 409.048 508.277Z" fill="#48917E"/>
<path opacity="0.8" d="M-334.926 1513.56C-339.108 1509.5 -341.808 1504.3 -342.754 1498.54L-475.958 687.42C-478.385 672.666 -468.339 658.656 -453.58 656.19L357.837 520.819C366.292 519.4 375.013 522.134 381.164 528.101C385.346 532.156 388.054 537.345 388.999 543.108L522.188 1354.23C523.369 1361.38 521.678 1368.57 517.453 1374.46C513.221 1380.37 506.962 1384.28 499.81 1385.46L-311.583 1520.84C-320.046 1522.25 -328.766 1519.53 -334.926 1513.56ZM379.457 529.873C373.861 524.444 365.933 521.964 358.241 523.245L-453.177 658.617C-466.6 660.858 -475.727 673.59 -473.524 687.008L-340.319 1498.14C-339.458 1503.38 -337.002 1508.1 -333.203 1511.78C-327.607 1517.21 -319.68 1519.69 -311.987 1518.41L499.43 1383.04C505.94 1381.96 511.635 1378.4 515.467 1373.05C519.307 1367.68 520.844 1361.14 519.771 1354.66L386.574 543.527C385.72 538.283 383.255 533.557 379.457 529.873Z" fill="#48917E"/>
<path opacity="0.8" d="M-359.904 1496.87C-364.087 1492.81 -366.741 1487.61 -367.603 1481.82L-483.989 691.079C-485.014 684.096 -483.263 677.136 -479.057 671.457C-474.85 665.779 -468.678 662.081 -461.704 661.034L329.293 542.53C337.505 541.302 345.625 543.91 351.58 549.687C355.771 553.75 358.425 558.95 359.272 564.742L475.658 1355.48C477.78 1369.89 467.779 1383.36 453.373 1385.53L-337.624 1504.03C-345.836 1505.26 -353.956 1502.65 -359.904 1496.87ZM349.866 551.468C344.466 546.228 337.107 543.861 329.667 544.974L-461.338 663.471C-467.671 664.419 -473.253 667.781 -477.068 672.921C-480.889 678.068 -482.47 684.379 -481.537 690.712L-365.167 1481.46C-364.39 1486.7 -361.987 1491.42 -358.197 1495.1C-352.797 1500.34 -345.423 1502.7 -337.991 1501.58L453.014 1383.08C466.084 1381.13 475.141 1368.92 473.221 1355.85L356.835 565.108C356.066 559.866 353.656 555.145 349.866 551.468Z" fill="#48917E"/>
<path opacity="0.8" d="M-384.897 1480.2C-389.088 1476.14 -391.689 1470.91 -392.445 1465.1L-492.02 694.738C-492.896 687.932 -491.071 681.183 -486.882 675.736C-482.685 670.282 -476.624 666.791 -469.818 665.9L300.751 564.271C308.589 563.235 316.321 565.804 321.99 571.298C326.173 575.368 328.79 580.578 329.546 586.391L429.106 1356.76C429.997 1363.57 428.165 1370.33 423.976 1375.77C419.778 1381.21 413.718 1384.72 406.912 1385.61L-363.658 1487.22C-371.496 1488.26 -379.235 1485.7 -384.897 1480.2ZM320.282 573.054C315.16 568.075 308.159 565.764 301.085 566.694L-469.499 668.324C-475.663 669.132 -481.134 672.287 -484.93 677.225C-488.718 682.155 -490.373 688.254 -489.573 694.41L-390.006 1464.78C-389.321 1470.03 -386.965 1474.75 -383.174 1478.42C-378.052 1483.4 -371.051 1485.71 -363.978 1484.78L406.6 1383.16C412.755 1382.35 418.234 1379.18 422.03 1374.26C425.827 1369.34 427.466 1363.24 426.682 1357.08L327.106 586.71C326.429 581.449 324.064 576.725 320.282 573.054Z" fill="#48917E"/>
<path opacity="0.8" d="M-409.89 1463.53C-414.032 1459.51 -416.658 1454.13 -417.295 1448.38L-500.052 698.383C-500.787 691.745 -498.889 685.208 -494.709 679.985C-490.53 674.763 -484.573 671.471 -477.936 670.721L272.221 585.966C279.669 585.122 287.029 587.636 292.412 592.861C296.554 596.88 299.18 602.26 299.817 608.009L382.574 1358.01C383.301 1364.64 381.409 1371.17 377.231 1376.4C373.051 1381.63 367.095 1384.92 360.458 1385.67L-389.707 1470.42C-397.156 1471.26 -404.515 1468.75 -409.89 1463.53ZM290.69 594.634C285.837 589.925 279.201 587.662 272.488 588.416L-477.677 673.18C-483.663 673.853 -489.023 676.817 -492.793 681.53C-496.555 686.235 -498.269 692.122 -497.61 698.109L-414.845 1448.11C-414.272 1453.3 -411.9 1458.14 -408.175 1461.76C-403.322 1466.47 -396.687 1468.74 -389.973 1467.98L360.191 1383.22C366.17 1382.54 371.537 1379.58 375.307 1374.87C379.07 1370.16 380.783 1364.28 380.125 1358.29L297.368 608.291C296.795 603.108 294.43 598.253 290.69 594.634Z" fill="#48917E"/>
<path opacity="0.8" d="M-434.899 1446.87C-439.049 1442.85 -441.622 1437.44 -442.145 1431.66L-508.084 702.043C-508.67 695.581 -506.704 689.263 -502.535 684.265C-498.381 679.268 -492.52 676.182 -486.059 675.581L243.684 607.685C250.766 607.024 257.737 609.483 262.842 614.432C266.992 618.459 269.566 623.864 270.089 629.643L336.028 1359.26C337.232 1372.61 327.354 1384.48 314.003 1385.72L-415.741 1453.62C-422.822 1454.28 -429.801 1451.82 -434.899 1446.87ZM261.12 616.205C256.537 611.765 250.266 609.55 243.905 610.138L-485.839 678.034C-491.648 678.574 -496.911 681.347 -500.647 685.842C-504.384 690.337 -506.156 696.012 -505.631 701.822L-439.685 1431.43C-439.22 1436.62 -436.91 1441.47 -433.176 1445.1C-428.594 1449.54 -422.323 1451.76 -415.961 1451.17L313.782 1383.27C325.777 1382.16 334.662 1371.49 333.576 1359.5L267.628 629.872C267.163 624.683 264.853 619.832 261.12 616.205Z" fill="#48917E"/>
<path opacity="0.8" d="M-459.914 1430.21C-464.08 1426.17 -466.594 1420.75 -466.994 1414.94L-516.123 705.695C-517.022 692.694 -507.181 681.37 -494.19 680.433L215.141 629.412C221.841 628.935 228.446 631.331 233.266 636.012C237.432 640.052 239.953 645.484 240.354 651.286L289.483 1360.54C290.389 1373.53 280.549 1384.87 267.55 1385.8L-441.79 1436.81C-448.489 1437.29 -455.087 1434.88 -459.914 1430.21ZM231.55 637.776C227.237 633.59 221.324 631.431 215.323 631.859L-494.001 682.872C-505.642 683.715 -514.457 693.87 -513.653 705.505L-464.532 1414.76C-464.174 1419.96 -461.917 1424.82 -458.192 1428.44C-453.87 1432.63 -447.965 1434.78 -441.957 1434.35L267.367 1383.33C279.008 1382.49 287.823 1372.34 287.019 1360.7L237.89 651.453C237.532 646.257 235.276 641.396 231.55 637.776Z" fill="#48917E"/>
<path opacity="0.8" d="M-484.929 1413.57C-489.113 1409.5 -491.565 1404.05 -491.845 1398.21L-524.156 709.339C-524.748 696.698 -514.938 685.899 -502.299 685.276L186.621 651.129C192.944 650.813 199.169 653.161 203.71 657.566C207.901 661.628 210.355 667.087 210.626 672.919L242.937 1361.79C243.529 1374.43 233.719 1385.23 221.08 1385.86L-467.831 1420.01C-474.155 1420.33 -480.387 1417.97 -484.929 1413.57ZM201.988 659.338C197.936 655.399 192.381 653.312 186.733 653.588L-502.179 687.727C-513.466 688.287 -522.218 697.929 -521.682 709.21L-489.379 1398.09C-489.136 1403.3 -486.94 1408.17 -483.207 1411.79C-479.155 1415.72 -473.593 1417.81 -467.945 1417.54L220.967 1383.4C232.254 1382.84 241.006 1373.19 240.469 1361.9L208.159 673.025C207.917 667.83 205.721 662.965 201.988 659.338Z" fill="#48917E"/>
<path opacity="0.8" d="M-509.951 1396.93C-514.158 1392.84 -516.543 1387.37 -516.679 1381.49L-532.179 712.991C-532.311 707.035 -530.13 701.375 -526.013 697.058C-521.905 692.733 -516.361 690.283 -510.407 690.119L158.085 672.848C164.125 672.687 169.826 674.92 174.156 679.121C178.364 683.213 180.757 688.69 180.892 694.562L196.384 1363.06C196.671 1375.34 186.899 1385.6 174.619 1385.92L-493.88 1403.2C-499.912 1403.35 -505.621 1401.13 -509.951 1396.93ZM172.441 680.885C168.585 677.15 163.522 675.165 158.144 675.302L-510.347 692.589C-515.633 692.721 -520.568 694.913 -524.227 698.749C-527.886 702.584 -529.834 707.622 -529.71 712.916L-514.225 1381.42C-514.104 1386.65 -511.978 1391.51 -508.228 1395.16C-504.381 1398.88 -499.31 1400.88 -493.939 1400.73L174.56 1383.45C185.485 1383.17 194.168 1374.04 193.921 1363.11L178.421 694.606C178.309 689.396 176.175 684.528 172.441 680.885Z" fill="#48917E"/>
<path opacity="0.8" d="M-534.98 1380.3C-539.212 1376.18 -541.538 1370.66 -541.522 1364.75L-540.211 716.635C-540.184 704.705 -530.457 694.983 -518.522 694.971L129.557 694.558C135.205 694.559 140.555 696.712 144.608 700.651C148.84 704.765 151.166 710.285 151.156 716.188L149.839 1364.33C149.812 1376.26 140.078 1385.98 128.142 1385.99L-519.929 1386.39C-525.585 1386.4 -530.928 1384.24 -534.98 1380.3ZM142.885 702.424C139.291 698.936 134.555 697.024 129.547 697.024L-518.532 697.437C-529.111 697.447 -537.731 706.057 -537.761 716.631L-539.063 1364.76C-539.073 1369.99 -537.015 1374.88 -533.257 1378.53C-529.671 1382.01 -524.928 1383.93 -519.919 1383.93L128.152 1383.52C138.732 1383.51 147.345 1374.91 147.373 1364.32L148.691 716.194C148.701 710.961 146.643 706.073 142.885 702.424Z" fill="#48917E"/>
<path opacity="0.8" d="M-560.024 1363.68C-564.231 1359.59 -566.545 1353.89 -566.371 1348.04L-548.243 720.28C-548.078 714.66 -545.74 709.445 -541.666 705.586C-537.584 701.718 -532.248 699.68 -526.638 699.822L101.022 716.291C106.3 716.43 111.293 718.526 115.067 722.189C119.274 726.266 121.588 731.98 121.423 737.846L103.286 1365.59C102.954 1377.18 93.2567 1386.35 81.681 1386.05L-545.978 1369.58C-551.257 1369.44 -556.241 1367.35 -560.024 1363.68ZM113.352 723.954C110.018 720.712 105.61 718.859 100.957 718.738L-526.702 702.284C-531.649 702.149 -536.359 703.958 -539.959 707.366C-543.566 710.782 -545.632 715.38 -545.774 720.336L-563.909 1348.1C-564.061 1353.28 -562.01 1358.31 -558.301 1361.91C-554.968 1365.15 -550.568 1367 -545.906 1367.13L81.7604 1383.59C91.9783 1383.86 100.536 1375.76 100.832 1365.54L118.969 737.789C119.113 732.602 117.061 727.559 113.352 723.954Z" fill="#48917E"/>
<path opacity="0.8" d="M-585.083 1347.07C-589.331 1342.96 -591.563 1337.2 -591.215 1331.29L-556.268 723.916C-555.954 718.472 -553.541 713.484 -549.477 709.849C-545.413 706.213 -540.18 704.374 -534.738 704.672L72.5077 738C77.4088 738.269 82.0428 740.294 85.5478 743.703C89.788 747.824 92.0273 753.573 91.6864 759.472L56.7406 1366.87C56.0942 1378.09 46.435 1386.72 35.2109 1386.11L-572.035 1352.78C-576.929 1352.51 -581.563 1350.48 -585.083 1347.07ZM83.8252 745.476C80.7374 742.482 76.6644 740.693 72.3587 740.459L-534.879 707.138C-539.656 706.878 -544.263 708.488 -547.836 711.687C-551.41 714.886 -553.534 719.271 -553.81 724.049L-588.756 1331.43C-589.054 1336.62 -587.094 1341.67 -583.361 1345.3C-580.273 1348.29 -576.208 1350.07 -571.894 1350.32L35.3446 1383.65C45.2163 1384.19 53.7115 1376.61 54.2743 1366.73L89.2209 759.347C89.5264 754.158 87.5587 749.103 83.8252 745.476Z" fill="#48917E"/>
<path opacity="0.8" d="M-610.141 1330.47C-614.43 1326.31 -616.58 1320.51 -616.058 1314.55L-564.3 727.56C-563.34 716.693 -553.711 708.602 -542.846 709.531L43.9726 759.734C48.4951 760.117 52.7858 762.07 56.0217 765.225C60.3106 769.39 62.4605 775.19 61.938 781.146L10.1956 1368.14C9.23578 1379.01 -0.393354 1387.1 -11.2506 1386.18L-598.084 1335.97C-602.615 1335.58 -606.89 1333.63 -610.141 1330.47ZM54.3144 766.997C51.4714 764.235 47.7191 762.528 43.7612 762.182L-543.064 711.986C-552.575 711.17 -560.999 718.251 -561.845 727.779L-613.602 1314.77C-614.06 1319.99 -612.176 1325.07 -608.426 1328.71C-605.583 1331.47 -601.839 1333.17 -597.866 1333.52L-11.0401 1383.71C-1.52986 1384.53 6.89464 1377.45 7.73289 1367.93L59.4897 780.919C59.956 775.714 58.0642 770.639 54.3144 766.997Z" fill="#48917E"/>
<path opacity="0.8" d="M-635.222 1313.89C-639.552 1309.69 -641.628 1303.82 -640.893 1297.82L-572.325 731.196C-571.052 720.681 -561.46 713.138 -550.946 714.381L15.4674 781.451C19.6808 781.952 23.509 783.77 26.5399 786.714C30.8776 790.922 32.9462 796.781 32.2258 802.779L-36.3565 1369.42C-37.6297 1379.94 -47.2217 1387.48 -57.7283 1386.23L-624.141 1319.16C-628.355 1318.66 -632.183 1316.84 -635.222 1313.89ZM24.8173 788.487C22.1783 785.921 18.8335 784.329 15.1711 783.896L-551.242 716.825C-560.406 715.735 -568.76 722.311 -569.873 731.484L-638.448 1298.12C-639.082 1303.35 -637.274 1308.45 -633.5 1312.11C-630.861 1314.68 -627.524 1316.26 -623.846 1316.7L-57.4401 1383.77C-48.2759 1384.87 -39.9221 1378.29 -38.8093 1369.12L29.7658 802.484C30.401 797.268 28.5915 792.15 24.8173 788.487Z" fill="#48917E"/>
<path opacity="0.8" d="M-660.31 1297.32C-664.64 1293.12 -666.667 1287.05 -665.729 1281.09L-580.35 734.832C-578.764 724.668 -569.209 717.675 -559.054 719.239L-13.0684 803.185C-9.22717 803.777 -5.72785 805.506 -2.95796 808.203C1.37165 812.404 3.39856 818.473 2.46043 824.438L-82.9178 1370.69C-84.5125 1380.85 -94.0591 1387.85 -104.214 1386.29L-650.207 1302.35C-654.041 1301.75 -657.54 1300.02 -660.31 1297.32ZM-4.67333 809.968C-7.07566 807.627 -10.107 806.124 -13.4505 805.611L-559.436 721.666C-568.246 720.308 -576.537 726.387 -577.909 735.198L-663.303 1281.45C-664.11 1286.63 -662.345 1291.9 -658.596 1295.54C-656.186 1297.87 -653.155 1299.38 -649.827 1299.89L-103.833 1383.84C-95.0311 1385.19 -86.7398 1379.13 -85.3597 1370.31L0.0338889 824.056C0.848857 818.884 -0.915427 813.616 -4.67333 809.968Z" fill="#48917E"/>
<path opacity="0.8" d="M-685.419 1280.77C-689.815 1276.49 -691.745 1270.36 -690.571 1264.35L-588.367 738.46C-586.459 728.655 -576.942 722.212 -567.146 724.097L-41.5721 824.917C-38.104 825.585 -34.9336 827.226 -32.4093 829.675C-28.0138 833.949 -26.0908 840.086 -27.2575 846.095L-129.469 1371.97C-131.37 1381.77 -140.895 1388.22 -150.691 1386.34L-676.272 1285.53C-679.732 1284.86 -682.903 1283.21 -685.419 1280.77ZM-34.14 831.44C-36.3129 829.333 -39.0472 827.905 -42.0473 827.333L-567.621 726.514C-576.084 724.897 -584.304 730.456 -585.952 738.92L-688.155 1264.81C-689.169 1270 -687.502 1275.32 -683.704 1279C-681.523 1281.12 -678.797 1282.54 -675.797 1283.11L-150.216 1383.92C-141.753 1385.54 -133.532 1379.98 -131.893 1371.51L-29.6894 845.621C-28.6756 840.422 -30.3415 835.125 -34.14 831.44Z" fill="#48917E"/>
<path opacity="0.8" d="M-710.551 1264.23C-714.954 1259.95 -716.821 1253.59 -715.414 1247.6L-596.385 742.088C-594.163 732.65 -584.675 726.748 -575.238 728.955L-70.0849 846.641C-66.9754 847.369 -64.1419 848.914 -61.8706 851.124C-57.4669 855.405 -55.6072 861.777 -57.007 867.753L-176.029 1373.26C-178.251 1382.7 -187.732 1388.59 -197.176 1386.4L-702.329 1268.71C-705.439 1267.98 -708.28 1266.43 -710.551 1264.23ZM-63.5859 852.888C-65.5385 850.991 -67.9818 849.662 -70.6458 849.04L-575.814 731.354C-583.931 729.463 -592.08 734.532 -594.002 742.65L-713.009 1248.16C-714.237 1253.38 -712.668 1258.73 -708.828 1262.46C-706.876 1264.36 -704.432 1265.69 -701.76 1266.32L-196.6 1384C-188.491 1385.88 -180.334 1380.82 -178.428 1372.7L-59.4055 867.192C-58.1776 861.965 -59.7458 856.625 -63.5859 852.888Z" fill="#48917E"/>
<path opacity="0.8" d="M-735.705 1247.71C-740.198 1243.35 -741.932 1236.89 -740.25 1230.86L-604.411 745.709C-601.867 736.63 -592.416 731.292 -583.338 733.805L-98.5901 868.358C-95.8484 869.122 -93.3211 870.57 -91.2954 872.532C-86.8023 876.893 -85.0529 883.356 -86.7571 889.396L-222.597 1374.54C-225.141 1383.62 -234.583 1388.97 -243.662 1386.44L-728.402 1251.89C-731.144 1251.13 -733.671 1249.68 -735.705 1247.71ZM-93.0252 874.313C-94.7574 872.626 -96.9252 871.397 -99.2749 870.748L-584.007 736.194C-591.77 734.036 -599.856 738.608 -602.037 746.38L-737.862 1231.51C-739.309 1236.67 -737.822 1242.2 -733.975 1245.93C-732.243 1247.62 -730.082 1248.86 -727.733 1249.5L-242.992 1384.07C-235.229 1386.22 -227.144 1381.65 -224.963 1373.88L-89.1221 888.748C-87.6829 883.579 -89.177 878.056 -93.0252 874.313Z" fill="#48917E"/>
</g>
</g>
<defs>
<clipPath id="clip0_71_677">
<rect width="1458.86" height="1514.35" fill="white" transform="translate(-913 1090.02) rotate(-48.3456)"/>
</clipPath>
</defs>
</svg>
