<svg width="776" height="1341" viewBox="0 0 776 1341" fill="none" xmlns="http://www.w3.org/2000/svg">
<g clip-path="url(#clip0_71_604)">
<g opacity="0.8">
<path opacity="0.8" d="M-109.153 1028.11C-111.904 1025.58 -113.877 1022.34 -114.854 1018.72L-271.185 437.912C-272.558 432.821 -271.863 427.499 -269.226 422.922C-266.59 418.345 -262.335 415.06 -257.245 413.678L323.847 255.768C330.411 253.983 337.329 255.661 342.34 260.254C345.091 262.779 347.065 266.025 348.041 269.646L504.372 850.451C505.745 855.542 505.05 860.864 502.414 865.441C499.782 870.023 495.522 873.303 490.432 874.686L-90.6603 1032.59C-97.2244 1034.37 -104.137 1032.7 -109.153 1028.11ZM341.264 261.408C336.651 257.186 330.285 255.642 324.248 257.286L-256.844 415.196C-261.529 416.464 -265.445 419.486 -267.866 423.698C-270.287 427.91 -270.926 432.806 -269.663 437.486L-113.337 1018.3C-112.44 1021.63 -110.628 1024.62 -108.094 1026.93C-103.476 1031.16 -97.1141 1032.7 -91.0763 1031.06L490.01 873.149C494.699 871.876 498.606 868.855 501.037 864.642C503.458 860.43 504.096 855.534 502.838 850.848L346.507 270.043C345.615 266.712 343.799 263.724 341.264 261.408Z" fill="#48917E"/>
<path opacity="0.8" d="M-125.46 1017.87C-128.21 1015.35 -130.154 1012.1 -131.082 1008.47L-276.261 440.397C-277.536 435.417 -276.789 430.229 -274.165 425.796C-271.54 421.363 -267.349 418.209 -262.359 416.924L305.968 270.203C312.297 268.567 318.957 270.229 323.779 274.635C326.524 277.155 328.478 280.404 329.406 284.039L474.585 852.11C477.217 862.396 470.977 872.932 460.688 875.588L-107.648 1022.31C-113.978 1023.95 -120.642 1022.29 -125.46 1017.87ZM322.704 275.809C318.279 271.753 312.167 270.232 306.35 271.733L-261.971 418.458C-266.545 419.638 -270.398 422.53 -272.807 426.597C-275.221 430.67 -275.901 435.431 -274.732 440.006L-129.553 1008.08C-128.7 1011.41 -126.914 1014.39 -124.394 1016.71C-119.969 1020.76 -113.857 1022.28 -108.045 1020.78L460.287 874.06C469.733 871.616 475.46 861.951 473.047 852.512L327.868 284.441C327.015 281.106 325.233 278.12 322.704 275.809Z" fill="#48917E"/>
<path opacity="0.8" d="M-141.771 1007.64C-144.521 1005.13 -146.441 1001.87 -147.316 998.226L-281.338 442.893C-283.767 432.822 -277.546 422.634 -267.478 420.175L288.084 284.643C294.183 283.151 300.584 284.796 305.213 289.031C307.963 291.546 309.882 294.802 310.761 298.442L444.784 853.775C445.96 858.655 445.167 863.704 442.545 867.993C439.928 872.286 435.798 875.302 430.924 876.493L-124.647 1012.04C-130.742 1013.52 -137.147 1011.88 -141.771 1007.64ZM304.143 290.209C299.907 286.33 294.038 284.822 288.457 286.184L-267.105 421.716C-276.331 423.962 -282.023 433.302 -279.801 442.525L-145.779 997.858C-144.976 1001.2 -143.219 1004.18 -140.7 1006.48C-136.464 1010.36 -130.601 1011.87 -125.014 1010.5L430.548 874.977C435.02 873.886 438.796 871.119 441.197 867.191C443.599 863.263 444.32 858.636 443.244 854.167L309.222 298.835C308.419 295.495 306.662 292.512 304.143 290.209Z" fill="#48917E"/>
<path opacity="0.8" d="M-158.082 997.415C-160.832 994.9 -162.722 991.641 -163.549 987.982L-286.419 445.393C-287.496 440.623 -286.656 435.714 -284.046 431.569C-281.436 427.425 -277.369 424.538 -272.595 423.446L270.207 299.107C276.072 297.765 282.218 299.387 286.648 303.447C289.394 305.967 291.289 309.221 292.115 312.88L414.986 855.479C417.213 865.325 411.016 875.179 401.168 877.431L-141.64 1001.76C-147.5 1003.1 -153.646 1001.48 -158.082 997.415ZM285.587 304.604C281.535 300.897 275.916 299.417 270.559 300.64L-272.242 424.979C-276.603 425.981 -280.321 428.614 -282.706 432.402C-285.09 436.19 -285.858 440.677 -284.871 445.034L-162.005 987.639C-161.246 990.977 -159.524 993.959 -157.011 996.257C-152.958 999.964 -147.344 1001.45 -141.983 1000.22L400.819 875.883C409.818 873.819 415.486 864.823 413.448 855.827L290.577 313.228C289.823 309.884 288.096 306.908 285.587 304.604Z" fill="#48917E"/>
<path opacity="0.8" d="M-174.397 987.194C-177.143 984.674 -179.009 981.408 -179.786 977.745L-291.495 447.889C-292.479 443.224 -291.587 438.449 -288.984 434.454C-286.381 430.448 -282.376 427.701 -277.708 426.702L252.324 313.557C257.954 312.354 263.846 313.955 268.087 317.838C270.838 320.353 272.699 323.624 273.476 327.288L385.19 857.148C386.174 861.813 385.283 866.588 382.675 870.589C380.072 874.594 376.073 877.346 371.409 878.34L-158.633 991.485C-164.259 992.682 -170.15 991.082 -174.397 987.194ZM267.022 319.001C263.152 315.456 257.777 313.998 252.647 315.093L-277.385 428.237C-281.64 429.146 -285.29 431.654 -287.657 435.302C-290.033 438.951 -290.844 443.303 -289.95 447.555L-178.231 977.42C-177.527 980.758 -175.829 983.737 -173.321 986.031C-169.457 989.571 -164.082 991.029 -158.947 989.939L371.089 876.789C375.345 875.88 378.989 873.367 381.361 869.724C383.738 866.075 384.548 861.723 383.655 857.471L271.941 327.611C271.227 324.273 269.53 321.295 267.022 319.001Z" fill="#48917E"/>
<path opacity="0.8" d="M-190.717 976.978C-193.473 974.459 -195.3 971.18 -196.014 967.506L-296.577 450.379C-298.408 440.973 -292.236 431.809 -282.827 429.953L234.449 327.996C239.839 326.929 245.477 328.517 249.53 332.224C252.285 334.743 254.117 338.017 254.831 341.69L355.384 858.818C356.275 863.377 355.326 868.014 352.73 871.87C350.13 875.731 346.193 878.354 341.634 879.245L-175.627 981.205C-181.022 982.268 -186.659 980.69 -190.717 976.978ZM248.469 333.391C244.783 330.018 239.657 328.578 234.754 329.543L-282.523 431.5C-291.08 433.187 -296.688 441.515 -295.025 450.07L-194.462 967.206C-193.812 970.544 -192.15 973.521 -189.647 975.81C-185.96 979.183 -180.835 980.623 -175.931 979.658L341.345 877.701C345.495 876.886 349.077 874.502 351.431 870.999C353.791 867.491 354.652 863.272 353.843 859.137L253.285 342.005C252.64 338.661 250.972 335.68 248.469 333.391Z" fill="#48917E"/>
<path opacity="0.8" d="M-207.033 966.757C-209.788 964.238 -211.586 960.956 -212.248 957.263L-301.653 452.875C-302.441 448.42 -301.45 443.928 -298.862 440.212C-296.273 436.495 -292.389 434.01 -287.941 433.209L216.57 342.441C221.808 341.501 227.059 343.019 230.983 346.608C233.744 349.132 235.542 352.414 236.193 356.108L325.599 860.496C327.228 869.687 321.074 878.503 311.886 880.162L-192.625 970.93C-197.863 971.87 -203.114 970.352 -207.033 966.757ZM229.918 347.781C226.36 344.525 221.602 343.147 216.856 344L-287.66 434.763C-291.699 435.489 -295.213 437.748 -297.56 441.112C-299.912 444.481 -300.806 448.554 -300.089 452.594L-210.693 956.983C-210.097 960.33 -208.47 963.305 -205.972 965.59C-202.415 968.846 -197.646 970.223 -192.906 969.366L311.61 878.603C319.946 877.103 325.519 869.11 324.044 860.777L234.639 356.388C234.048 353.045 232.415 350.066 229.918 347.781Z" fill="#48917E"/>
<path opacity="0.8" d="M-223.357 956.547C-226.118 954.023 -227.883 950.724 -228.476 947.014L-306.729 455.37C-307.418 451.026 -306.376 446.668 -303.794 443.1C-301.208 439.527 -297.391 437.177 -293.048 436.478L198.694 356.905C203.695 356.094 208.697 357.595 212.432 361.008C215.188 363.537 216.962 366.826 217.556 370.535L295.8 862.19C296.498 866.534 295.452 870.897 292.87 874.465C290.283 878.028 286.467 880.388 282.123 881.086L-209.619 960.65C-214.62 961.46 -219.627 959.965 -223.357 956.547ZM211.371 362.165C207.996 359.072 203.467 357.723 198.953 358.451L-292.798 438.025C-296.731 438.658 -300.177 440.782 -302.516 444.017C-304.85 447.246 -305.796 451.185 -305.168 455.114L-226.919 946.764C-226.382 950.117 -224.784 953.094 -222.287 955.379C-218.912 958.472 -214.383 959.821 -209.869 959.093L281.877 879.524C285.805 878.887 289.256 876.757 291.595 873.532C293.935 870.308 294.871 866.37 294.253 862.44L215.999 370.786C215.466 367.428 213.863 364.446 211.371 362.165Z" fill="#48917E"/>
<path opacity="0.8" d="M-239.681 946.337C-242.41 943.84 -244.193 940.443 -244.709 936.771L-311.806 457.855C-312.401 453.617 -311.308 449.393 -308.728 445.969C-306.149 442.545 -302.395 440.324 -298.157 439.719L180.825 371.339C185.58 370.659 190.342 372.131 193.889 375.378C196.618 377.875 198.401 381.271 198.917 384.943L266.014 863.859C266.604 868.093 265.515 872.311 262.937 875.745C260.357 879.169 256.603 881.39 252.365 881.995L-226.622 950.37C-231.377 951.051 -236.139 949.579 -239.681 946.337ZM192.819 376.546C189.622 373.62 185.328 372.295 181.041 372.904L-297.945 441.289C-301.767 441.833 -305.145 443.833 -307.471 446.922C-309.794 450.007 -310.781 453.811 -310.247 457.634L-243.144 936.555C-242.68 939.864 -241.07 942.925 -238.615 945.174C-235.418 948.1 -231.124 949.425 -226.838 948.815L252.148 880.43C255.966 879.882 259.349 877.887 261.675 874.797C263.997 871.712 264.985 867.909 264.45 864.085L197.353 385.169C196.889 381.86 195.283 378.794 192.819 376.546Z" fill="#48917E"/>
<path opacity="0.8" d="M-256.015 936.137C-258.749 933.635 -260.499 930.221 -260.943 926.528L-316.883 460.35C-317.38 456.222 -316.239 452.138 -313.662 448.857C-311.094 445.578 -307.398 443.491 -303.27 442.985L162.951 385.788C167.475 385.232 171.987 386.677 175.35 389.752C178.084 392.253 179.835 395.668 180.278 399.36L236.218 865.538C237.24 874.065 231.135 881.857 222.605 882.904L-243.615 940.1C-248.139 940.656 -252.657 939.207 -256.015 936.137ZM174.28 390.92C171.261 388.161 167.202 386.86 163.138 387.356L-303.083 444.552C-306.794 445.007 -310.114 446.882 -312.423 449.832C-314.732 452.782 -315.761 456.451 -315.316 460.163L-259.371 926.335C-258.976 929.651 -257.405 932.715 -254.945 934.969C-251.926 937.727 -247.867 939.028 -243.802 938.533L222.418 881.336C230.081 880.4 235.573 873.395 234.652 865.735L178.706 399.553C178.311 396.237 176.74 393.173 174.28 390.92Z" fill="#48917E"/>
<path opacity="0.8" d="M-272.353 925.933C-275.098 923.422 -276.81 919.994 -277.176 916.285L-321.965 462.841C-322.784 454.529 -316.693 447.09 -308.388 446.246L145.073 400.243C149.356 399.812 153.632 401.223 156.808 404.131C159.553 406.641 161.27 410.074 161.636 413.783L206.424 867.227C207.249 875.533 201.158 882.983 192.848 883.822L-260.619 929.821C-264.901 930.252 -269.173 928.835 -272.353 925.933ZM155.742 405.294C152.9 402.693 149.072 401.421 145.235 401.808L-308.221 447.805C-315.662 448.563 -321.119 455.234 -320.386 462.673L-275.602 916.122C-275.275 919.444 -273.738 922.516 -271.283 924.765C-268.436 927.37 -264.613 928.637 -260.772 928.245L192.684 882.248C200.126 881.49 205.582 874.819 204.849 867.38L160.06 413.936C159.734 410.614 158.197 407.543 155.742 405.294Z" fill="#48917E"/>
<path opacity="0.8" d="M-288.691 915.739C-291.447 913.209 -293.121 909.768 -293.41 906.032L-327.041 465.327C-327.658 457.24 -321.577 450.137 -313.491 449.501L127.21 414.691C131.255 414.37 135.287 415.758 138.279 418.494C141.04 421.018 142.714 424.469 142.998 428.201L176.629 868.906C177.246 876.993 171.165 884.096 163.079 884.732L-277.616 919.546C-281.661 919.867 -285.699 918.475 -288.691 915.739ZM137.209 419.662C134.539 417.215 130.941 415.982 127.328 416.265L-313.368 451.069C-320.588 451.639 -326.014 457.981 -325.459 465.198L-291.832 905.908C-291.578 909.242 -290.081 912.317 -287.621 914.57C-284.952 917.008 -281.349 918.246 -277.736 917.963L162.961 883.159C170.181 882.588 175.607 876.247 175.051 869.02L141.419 428.315C141.166 424.991 139.669 421.916 137.209 419.662Z" fill="#48917E"/>
<path opacity="0.8" d="M-305.034 905.55C-307.806 903.007 -309.436 899.547 -309.633 895.788L-332.114 467.817C-332.31 464.003 -331.019 460.336 -328.463 457.493C-325.912 454.646 -322.407 452.972 -318.595 452.756L109.336 429.141C113.202 428.925 116.897 430.248 119.749 432.858C122.522 435.4 124.158 438.864 124.355 442.623L146.829 870.59C147.244 878.453 141.176 885.213 133.315 885.646L-294.62 909.267C-298.482 909.477 -302.181 908.159 -305.034 905.55ZM118.684 434.02C116.144 431.7 112.863 430.523 109.42 430.712L-318.51 454.337C-321.894 454.521 -325.014 456.017 -327.287 458.543C-329.559 461.069 -330.712 464.333 -330.533 467.722L-308.063 895.695C-307.887 899.045 -306.434 902.119 -303.963 904.382C-301.429 906.698 -298.142 907.879 -294.705 907.685L133.231 884.065C140.225 883.678 145.616 877.671 145.253 870.67L122.772 442.698C122.603 439.362 121.144 436.284 118.684 434.02Z" fill="#48917E"/>
<path opacity="0.8" d="M-321.38 895.366C-324.169 892.81 -325.762 889.317 -325.863 885.53L-337.191 470.302C-337.397 462.659 -331.349 456.248 -323.703 456.016L91.4676 443.584C95.0861 443.479 98.5541 444.758 101.224 447.206C104.012 449.762 105.606 453.254 105.711 457.036L117.035 872.279C117.242 879.923 111.188 886.329 103.542 886.561L-311.624 898.987C-315.247 899.098 -318.71 897.814 -321.38 895.366ZM100.154 448.374C97.7856 446.206 94.7163 445.071 91.5075 445.165L-323.663 457.596C-330.44 457.801 -335.801 463.479 -335.621 470.253L-324.288 885.486C-324.196 888.838 -322.786 891.931 -320.31 894.198C-317.947 896.361 -314.872 897.501 -311.664 897.407L103.502 884.981C110.28 884.776 115.636 879.104 115.455 872.319L104.132 457.086C104.04 453.734 102.63 450.641 100.154 448.374Z" fill="#48917E"/>
<path opacity="0.8" d="M-337.735 885.193C-340.508 882.65 -342.097 879.043 -342.096 875.287L-342.267 472.787C-342.267 469.184 -340.867 465.8 -338.33 463.251C-335.788 460.696 -332.407 459.29 -328.81 459.276L73.5956 458.043C76.9799 458.033 80.2177 459.282 82.7043 461.558C85.4758 464.091 87.0658 467.708 87.0698 471.469L87.2361 873.964C87.2409 881.392 81.2006 887.446 73.7793 887.475L-328.627 888.708C-332.011 888.718 -335.243 887.473 -337.735 885.193ZM81.6385 462.721C79.4421 460.707 76.5834 459.602 73.5998 459.612L-328.805 460.854C-331.977 460.861 -334.961 462.108 -337.203 464.359C-339.449 466.616 -340.687 469.6 -340.685 472.777L-340.517 875.282C-340.517 878.603 -339.109 881.785 -336.665 884.025C-334.469 886.039 -331.615 887.139 -328.627 887.134L73.784 885.896C80.3348 885.874 85.6651 880.526 85.6632 873.973L85.4967 471.478C85.4914 468.153 84.0824 464.961 81.6385 462.721Z" fill="#48917E"/>
<path opacity="0.8" d="M-354.101 875.021C-356.899 872.465 -358.437 868.82 -358.325 865.028L-347.34 475.268C-347.241 471.775 -345.789 468.534 -343.254 466.128C-340.718 463.723 -337.401 462.446 -333.909 462.535L55.7367 472.486C58.8815 472.566 61.8882 473.777 64.1976 475.895C66.9914 478.455 68.5339 482.096 68.4262 485.882L57.442 875.652C57.2385 882.852 51.2127 888.563 44.0107 888.385L-345.635 878.434C-348.775 878.349 -351.782 877.138 -354.101 875.021ZM63.1273 477.063C61.093 475.203 58.4501 474.133 55.6874 474.064L-333.953 464.118C-337.018 464.041 -339.939 465.159 -342.168 467.275C-344.397 469.391 -345.676 472.241 -345.763 475.307L-356.748 865.068C-356.841 868.402 -355.49 871.599 -353.031 873.853C-350.996 875.713 -348.359 876.778 -345.591 876.851L44.0502 886.807C50.3845 886.968 55.6843 881.949 55.8594 875.609L66.8445 485.848C66.9427 482.518 65.5872 479.316 63.1273 477.063Z" fill="#48917E"/>
<path opacity="0.8" d="M-370.466 864.859C-373.292 862.271 -374.778 858.596 -374.555 854.77L-352.417 477.753C-352.007 470.773 -345.99 465.409 -339.012 465.8L37.864 486.945C40.7684 487.106 43.5538 488.276 45.686 490.237C48.5119 492.824 49.998 496.5 49.7751 500.325L27.6474 877.341C27.2365 884.321 21.2198 889.686 14.247 889.299L-362.638 868.155C-365.548 867.99 -368.324 866.818 -370.466 864.859ZM44.6256 491.404C42.7524 489.688 40.3165 488.665 37.7745 488.517L-339.106 467.377C-345.213 467.033 -350.478 471.728 -350.84 477.847L-372.978 854.864C-373.173 858.212 -371.871 861.433 -369.4 863.696C-367.527 865.412 -365.096 866.431 -362.544 866.577L14.3356 887.717C20.4435 888.061 25.7075 883.367 26.0658 877.253L48.2024 500.226C48.4033 496.882 47.0962 493.666 44.6256 491.404Z" fill="#48917E"/>
<path opacity="0.8" d="M-386.844 854.702C-389.697 852.092 -391.137 848.374 -390.779 844.516L-357.49 480.233C-356.872 473.472 -350.868 468.461 -344.109 469.059L20.0107 501.393C22.7194 501.635 25.2059 502.727 27.2029 504.556C30.0607 507.171 31.4959 510.885 31.147 514.742L-2.15096 879.036C-2.76918 885.796 -8.77247 890.808 -15.5268 890.204L-379.647 857.871C-382.356 857.629 -384.842 856.536 -386.844 854.702ZM26.1326 505.724C24.3939 504.13 22.2211 503.173 19.8667 502.964L-344.253 470.631C-350.145 470.105 -355.373 474.474 -355.914 480.372L-389.207 844.66C-389.515 848.023 -388.261 851.258 -385.774 853.534C-384.035 855.129 -381.868 856.081 -379.504 856.289L-15.3882 888.628C-9.49688 889.154 -4.26864 884.785 -3.728 878.887L29.5655 514.598C29.8745 511.245 28.6192 508 26.1326 505.724Z" fill="#48917E"/>
<path opacity="0.8" d="M-403.228 844.561C-406.08 841.952 -407.493 838.101 -407.004 834.262L-362.563 482.713C-361.738 476.172 -355.748 471.513 -349.213 472.324L2.13755 515.851C4.60946 516.159 6.88373 517.201 8.70883 518.877C11.5614 521.487 12.9738 525.337 12.4848 529.176L-31.9558 880.725C-32.7867 887.262 -38.7711 891.926 -45.3061 891.114L-396.661 847.592C-399.128 847.279 -401.403 846.237 -403.228 844.561ZM7.64303 520.04C6.0601 518.585 4.08988 517.679 1.93832 517.413L-349.412 473.886C-355.081 473.181 -360.278 477.231 -360.993 482.902L-405.443 834.452C-405.863 837.785 -404.633 841.126 -402.163 843.389C-400.575 844.838 -398.605 845.744 -396.463 846.011L-45.1077 889.543C-39.4437 890.243 -34.2459 886.202 -33.5273 880.527L10.9231 528.977C11.3481 525.648 10.119 522.306 7.64303 520.04Z" fill="#48917E"/>
<path opacity="0.8" d="M-419.624 834.427C-422.52 831.771 -423.872 827.881 -423.233 824.004L-367.631 485.188C-366.593 478.87 -360.616 474.564 -354.305 475.588L-15.7147 530.309C-13.4804 530.672 -11.4185 531.663 -9.75543 533.185C-6.85929 535.841 -5.51213 539.736 -6.14676 543.608L-61.754 882.42C-62.7878 888.732 -68.7684 893.044 -75.0796 892.02L-413.675 837.304C-415.904 836.946 -417.966 835.944 -419.624 834.427ZM-10.831 534.349C-12.2626 533.039 -14.041 532.176 -15.9738 531.866L-354.564 477.145C-360.016 476.268 -365.178 479.983 -366.075 485.437L-421.677 824.253C-422.228 827.603 -421.061 830.975 -418.558 833.264C-417.121 834.578 -415.348 835.437 -413.416 835.747L-74.8206 890.463C-69.3686 891.339 -64.2066 887.624 -63.3155 882.166L-7.7136 543.349C-7.16177 540 -8.32838 536.638 -10.831 534.349Z" fill="#48917E"/>
<path opacity="0.8" d="M-436.034 824.308C-438.935 821.648 -440.251 817.607 -439.462 813.746L-372.699 487.663C-371.452 481.574 -365.485 477.615 -359.398 478.852L-33.5724 544.762C-31.5667 545.169 -29.7225 546.106 -28.2259 547.479C-25.3245 550.139 -24.0135 554.186 -24.798 558.041L-91.5568 884.119C-92.8033 890.207 -98.7659 894.161 -104.858 892.93L-430.683 827.02C-432.689 826.612 -434.538 825.671 -436.034 824.308ZM-29.2917 548.642C-30.5782 547.463 -32.1684 546.658 -33.8867 546.309L-359.722 480.4C-364.957 479.341 -370.083 482.741 -371.161 487.978L-437.91 814.055C-438.599 817.427 -437.494 820.819 -434.964 823.14C-433.677 824.319 -432.087 825.124 -430.363 825.478L-104.534 891.382C-99.3035 892.437 -94.1728 889.041 -93.1038 883.805L-26.345 557.727C-25.6566 554.355 -26.7615 550.963 -29.2917 548.642Z" fill="#48917E"/>
<path opacity="0.8" d="M-452.459 814.196C-455.419 811.487 -456.652 807.378 -455.688 803.482L-377.773 490.133C-376.314 484.269 -370.359 480.672 -364.496 482.111L-51.4266 559.209C-49.6558 559.647 -48.0096 560.527 -46.675 561.746C-43.7147 564.455 -42.4727 568.563 -43.4511 572.465L-121.366 885.814C-122.825 891.679 -128.774 895.28 -134.638 893.831L-447.702 816.737C-449.473 816.299 -451.119 815.419 -452.459 814.196ZM-47.7498 562.92C-48.8911 561.872 -50.303 561.125 -51.8204 560.753L-364.88 483.654C-369.894 482.417 -374.988 485.498 -376.239 490.518L-454.145 803.857C-454.975 807.191 -453.919 810.706 -451.384 813.022C-450.243 814.07 -448.836 814.823 -447.318 815.194L-134.253 892.297C-129.239 893.534 -124.145 890.454 -122.894 885.434L-44.9784 572.094C-44.1534 568.755 -45.2142 565.245 -47.7498 562.92Z" fill="#48917E"/>
</g>
</g>
<defs>
<clipPath id="clip0_71_604">
<rect width="934.992" height="970.551" fill="white" transform="translate(-569 716.499) rotate(-50.0242)"/>
</clipPath>
</defs>
</svg>
