<svg width="772" height="2222" viewBox="0 0 772 2222" fill="none" xmlns="http://www.w3.org/2000/svg">
<g clip-path="url(#clip0_71_653)">
<g opacity="0.8">
<path opacity="0.8" d="M456.811 1491.74C454.644 1485.45 454.307 1478.69 455.849 1472.19L703.694 429.697C705.862 420.557 711.466 412.809 719.48 407.876C727.493 402.942 736.945 401.407 746.091 403.558L1790.38 649.172C1802.17 651.946 1811.59 660.444 1815.54 671.89C1817.71 678.179 1818.04 684.939 1816.5 691.44L1568.66 1733.94C1566.49 1743.08 1560.89 1750.82 1552.87 1755.76C1544.86 1760.7 1535.41 1762.23 1526.26 1760.07L481.984 1514.44C470.187 1511.67 460.777 1503.18 456.811 1491.74ZM1812.88 672.785C1809.23 662.257 1800.57 654.438 1789.71 651.892L745.431 406.278C737.017 404.29 728.318 405.701 720.952 410.245C713.586 414.789 708.431 421.918 706.439 430.321L458.583 1472.82C457.158 1478.81 457.464 1485.02 459.47 1490.8C463.119 1501.34 471.778 1509.14 482.624 1511.71L1526.9 1757.31C1535.33 1759.29 1544.01 1757.87 1551.39 1753.34C1558.76 1748.79 1563.91 1741.66 1565.92 1733.26L1813.76 690.761C1815.19 684.785 1814.88 678.563 1812.88 672.785Z" fill="#CC0033"/>
<path opacity="0.8" d="M439.954 1461.86C437.78 1455.59 437.491 1448.85 439.121 1442.37L693.632 429.284C695.862 420.4 701.433 412.906 709.304 408.188C717.176 403.471 726.419 402.085 735.326 404.305L1750.12 656.617C1761.42 659.425 1770.45 667.678 1774.26 678.672C1776.42 684.949 1776.73 691.695 1775.1 698.177L1520.59 1711.26C1515.98 1729.61 1497.27 1740.82 1478.9 1736.25L464.089 1483.93C452.785 1481.13 443.751 1472.88 439.954 1461.86ZM1771.58 679.598C1768.09 669.491 1759.81 661.922 1749.42 659.339L734.631 407.038C726.466 405.005 717.975 406.267 710.751 410.595C703.515 414.927 698.41 421.81 696.361 429.967L441.85 1443.05C440.356 1449 440.625 1455.19 442.61 1460.95C446.102 1471.05 454.386 1478.62 464.768 1481.19L1479.57 1733.52C1496.44 1737.7 1513.61 1727.42 1517.84 1710.59L1772.35 697.503C1773.84 691.555 1773.58 685.365 1771.58 679.598Z" fill="#CC0033"/>
<path opacity="0.8" d="M423.078 1432.01C420.903 1425.73 420.659 1419 422.381 1412.55L683.563 428.886C688.301 411.048 706.69 400.366 724.549 405.056L1709.85 664.066C1720.67 666.905 1729.31 674.911 1732.96 685.473C1735.14 691.746 1735.38 698.476 1733.67 704.923L1472.49 1688.59C1470.19 1697.23 1464.67 1704.47 1456.92 1708.96C1449.18 1713.47 1440.15 1714.69 1431.5 1712.42L446.177 1453.42C435.367 1450.57 426.724 1442.57 423.078 1432.01ZM1730.29 686.411C1726.94 676.741 1719.03 669.399 1709.13 666.797L723.826 407.786C707.467 403.478 690.627 413.28 686.282 429.613L425.1 1413.28C423.525 1419.19 423.747 1425.36 425.739 1431.1C429.084 1440.77 436.993 1448.1 446.905 1450.7L1432.2 1709.72C1440.13 1711.81 1448.39 1710.68 1455.49 1706.56C1462.58 1702.45 1467.64 1695.81 1469.75 1687.9L1730.93 704.232C1732.5 698.32 1732.28 692.155 1730.29 686.411Z" fill="#CC0033"/>
<path opacity="0.8" d="M406.202 1402.15C404.027 1395.87 403.831 1389.17 405.641 1382.73L673.482 428.492C675.841 420.105 681.322 413.127 688.927 408.85C696.532 404.572 705.352 403.5 713.758 405.838L1669.58 671.559C1679.9 674.432 1688.16 682.188 1691.65 692.307C1693.81 698.584 1694.02 705.288 1692.21 711.722L1424.36 1665.98C1419.5 1683.29 1401.43 1693.47 1384.09 1688.64L428.277 1422.89C417.954 1420.03 409.702 1412.28 406.202 1402.15ZM1689.01 693.219C1685.8 683.974 1678.26 676.887 1668.83 674.259L713.01 408.539C705.327 406.409 697.269 407.379 690.32 411.291C683.372 415.202 678.361 421.579 676.21 429.243L408.35 1383.5C406.707 1389.38 406.875 1395.51 408.863 1401.24C412.066 1410.49 419.601 1417.58 429.041 1420.2L1384.86 1685.92C1400.71 1690.32 1417.22 1681.04 1421.66 1665.22L1689.51 710.962C1691.16 705.084 1690.98 698.957 1689.01 693.219Z" fill="#CC0033"/>
<path opacity="0.8" d="M389.315 1372.29C387.152 1366.02 387 1359.32 388.89 1352.92L663.413 428.095C665.829 419.953 671.277 413.229 678.745 409.179C686.22 405.112 694.825 404.206 702.986 406.601L1629.3 679.024C1639.14 681.917 1647.02 689.422 1650.37 699.104C1652.54 705.377 1652.68 712.081 1650.79 718.479L1376.27 1643.31C1373.86 1651.46 1368.41 1658.18 1360.93 1662.24C1353.45 1666.3 1344.85 1667.22 1336.7 1664.82L410.371 1392.39C400.541 1389.49 392.669 1381.99 389.315 1372.29ZM1647.71 700.022C1644.65 691.185 1637.47 684.342 1628.51 681.704L702.189 409.281C694.752 407.094 686.906 407.927 680.104 411.633C673.285 415.333 668.324 421.464 666.116 428.883L391.602 1353.73C389.873 1359.56 390.004 1365.66 391.987 1371.38C395.038 1380.21 402.221 1387.05 411.19 1389.7L1337.52 1662.12C1344.96 1664.31 1352.8 1663.46 1359.6 1659.77C1366.42 1656.07 1371.38 1649.94 1373.59 1642.52L1648.11 717.683C1649.82 711.849 1649.69 705.743 1647.71 700.022Z" fill="#CC0033"/>
<path opacity="0.8" d="M372.415 1342.44C370.236 1336.16 370.155 1329.47 372.153 1323.11L653.339 427.686C658.449 411.397 675.894 402.278 692.208 407.351L1589.05 686.48C1598.4 689.38 1605.89 696.651 1609.09 705.896C1611.27 712.181 1611.36 718.864 1609.36 725.225L1328.16 1620.64C1325.69 1628.54 1320.27 1635 1312.93 1638.84C1305.58 1642.68 1297.19 1643.45 1289.29 1640.98L392.47 1361.87C383.116 1358.96 375.624 1351.7 372.415 1342.44ZM1606.44 706.825C1603.52 698.414 1596.72 691.809 1588.22 689.162L691.373 410.033C676.535 405.417 660.685 413.705 656.032 428.517L374.84 1323.96C373.026 1329.74 373.105 1335.81 375.083 1341.52C377.997 1349.93 384.804 1356.54 393.306 1359.19L1290.15 1638.31C1297.34 1640.56 1304.97 1639.86 1311.64 1636.37C1318.31 1632.88 1323.24 1627 1325.48 1619.84L1606.67 724.405C1608.5 718.62 1608.42 712.535 1606.44 706.825Z" fill="#CC0033"/>
<path opacity="0.8" d="M355.528 1312.59C353.349 1306.31 353.316 1299.64 355.414 1293.29L643.27 427.288C645.815 419.642 651.179 413.446 658.387 409.819C665.595 406.193 673.788 405.596 681.436 408.114L1548.79 693.941C1557.79 696.911 1564.73 703.744 1567.83 712.696C1570.01 718.992 1570.05 725.658 1567.93 731.998L1280.08 1598C1274.83 1613.78 1257.71 1622.37 1241.91 1617.18L374.559 1331.35C365.556 1328.38 358.618 1321.55 355.528 1312.59ZM1565.17 713.629C1562.36 705.511 1556.07 699.315 1547.91 696.625L680.557 410.786C673.613 408.497 666.193 409.055 659.662 412.334C653.119 415.617 648.264 421.238 645.959 428.175L358.086 1294.17C356.18 1299.92 356.206 1305.96 358.18 1311.66C360.991 1319.78 367.292 1325.98 375.445 1328.66L1242.8 1614.5C1257.13 1619.22 1272.65 1611.43 1277.41 1597.12L1565.26 731.119C1567.17 725.38 1567.14 719.327 1565.17 713.629Z" fill="#CC0033"/>
<path opacity="0.8" d="M338.617 1282.75C336.433 1276.45 336.467 1269.78 338.685 1263.47L633.2 426.89C635.807 419.5 641.137 413.558 648.208 410.159C655.291 406.756 663.264 406.313 670.661 408.903L1508.51 701.433C1517.04 704.406 1523.6 711 1526.55 719.516C1528.73 725.816 1528.71 732.473 1526.5 738.787L1231.96 1575.38C1229.37 1582.77 1224.03 1588.72 1216.95 1592.12C1209.88 1595.51 1201.9 1595.96 1194.5 1593.37L356.658 1300.83C348.135 1297.86 341.56 1291.27 338.617 1282.75ZM1523.91 720.428C1521.25 712.719 1515.3 706.764 1507.61 704.075L669.74 411.539C663.041 409.193 655.84 409.597 649.433 412.68C643.036 415.758 638.214 421.126 635.863 427.814L341.336 1264.4C339.333 1270.11 339.311 1276.13 341.284 1281.82C343.947 1289.53 349.897 1295.49 357.586 1298.18L1195.44 1590.72C1202.14 1593.05 1209.35 1592.64 1215.75 1589.58C1222.15 1586.51 1226.96 1581.14 1229.32 1574.45L1523.85 737.859C1525.86 732.146 1525.88 726.115 1523.91 720.428Z" fill="#CC0033"/>
<path opacity="0.8" d="M321.707 1252.9C319.55 1246.67 319.638 1239.84 321.945 1233.65L623.139 426.476C625.802 419.331 631.099 413.642 638.044 410.467C644.99 407.291 652.755 406.998 659.908 409.645L1468.27 708.885C1476.3 711.853 1482.51 718.199 1485.31 726.295C1487.47 732.521 1487.38 739.355 1485.08 745.545L1183.88 1552.72C1181.21 1559.85 1175.93 1565.54 1168.98 1568.73C1162.03 1571.9 1154.26 1572.2 1147.11 1569.55L338.743 1270.3C330.715 1267.33 324.504 1260.99 321.707 1252.9ZM1482.65 727.216C1480.12 719.92 1474.52 714.202 1467.29 711.52L658.908 412.285C652.458 409.894 645.471 410.16 639.204 413.027C632.95 415.889 628.176 421.01 625.769 427.453L324.58 1234.64C322.499 1240.22 322.426 1246.38 324.363 1251.98C326.889 1259.28 332.491 1265 339.724 1267.68L1148.1 1566.92C1154.55 1569.3 1161.54 1569.04 1167.8 1566.17C1174.06 1563.31 1178.83 1558.19 1181.24 1551.75L1482.43 744.573C1484.51 738.994 1484.6 732.829 1482.65 727.216Z" fill="#CC0033"/>
<path opacity="0.8" d="M304.773 1223.07C302.612 1216.83 302.766 1209.99 305.205 1203.83L613.069 426.079C615.794 419.19 621.046 413.759 627.866 410.807C634.67 407.848 642.232 407.715 649.128 410.423L1428.01 716.357C1435.57 719.324 1441.42 725.414 1444.08 733.085C1446.24 739.323 1446.08 746.157 1443.65 752.318L1135.78 1530.07C1130.15 1544.3 1113.97 1551.32 1099.72 1545.73L320.835 1239.79C313.276 1236.83 307.429 1230.73 304.773 1223.07ZM1441.41 734.007C1439.02 727.124 1433.77 721.642 1426.98 718.971L648.091 413.037C641.891 410.601 635.1 410.723 628.98 413.385C622.859 416.047 618.135 420.922 615.683 427.115L307.83 1204.86C305.637 1210.39 305.498 1216.53 307.44 1222.14C309.829 1229.03 315.084 1234.51 321.872 1237.18L1100.76 1543.11C1113.56 1548.15 1128.1 1541.83 1133.16 1529.05L1441.02 751.286C1443.21 745.756 1443.35 739.624 1441.41 734.007Z" fill="#CC0033"/>
<path opacity="0.8" d="M287.834 1193.22C285.664 1186.96 285.891 1180.14 288.465 1174.01L602.996 425.67C608.763 411.953 624.618 405.466 638.344 411.19L1387.75 723.833C1394.82 726.792 1400.32 732.63 1402.83 739.88C1405 746.141 1404.78 752.975 1402.2 759.096L1087.67 1507.44C1081.92 1521.15 1066.06 1527.66 1052.33 1521.92L302.919 1209.27C295.845 1206.31 290.354 1200.46 287.834 1193.22ZM1400.17 740.797C1397.93 734.311 1393.01 729.071 1386.67 726.422L637.282 413.774C624.982 408.649 610.774 414.47 605.612 426.745L291.07 1175.09C288.763 1180.58 288.565 1186.69 290.502 1192.3C292.752 1198.79 297.666 1204.02 304.016 1206.67L1053.41 1519.32C1065.71 1524.44 1079.91 1518.62 1085.08 1506.34L1399.61 758C1401.91 752.519 1402.11 746.402 1400.17 740.797Z" fill="#CC0033"/>
<path opacity="0.8" d="M270.889 1163.39C268.716 1157.09 269.014 1150.28 271.731 1144.18L592.933 425.256C598.828 412.063 614.381 406.097 627.587 411.959L1347.5 731.313C1354.11 734.241 1359.25 739.836 1361.62 746.661C1363.8 752.957 1363.5 759.783 1360.77 765.87L1039.57 1484.79C1033.68 1497.99 1018.13 1503.95 1004.92 1498.09L285.007 1178.75C278.398 1175.82 273.255 1170.21 270.889 1163.39ZM1358.95 747.583C1356.84 741.483 1352.25 736.5 1346.35 733.878L626.45 414.52C614.655 409.288 600.774 414.62 595.521 426.396L274.308 1145.32C271.877 1150.76 271.614 1156.85 273.556 1162.47C275.669 1168.55 280.264 1173.55 286.164 1176.17L1006.07 1495.53C1017.86 1500.76 1031.74 1495.43 1037 1483.63L1358.2 764.709C1360.63 759.288 1360.89 753.2 1358.95 747.583Z" fill="#CC0033"/>
<path opacity="0.8" d="M253.932 1133.56C251.746 1127.23 252.127 1120.42 255.008 1114.37L582.876 424.854C585.803 418.713 590.936 414.064 597.353 411.779C603.765 409.482 610.676 409.834 616.831 412.729L1307.25 738.785C1313.49 741.726 1318.15 746.934 1320.41 753.442C1322.59 759.777 1322.21 766.592 1319.33 772.648L991.462 1462.15C985.44 1474.82 970.2 1480.26 957.518 1474.27L267.092 1148.22C260.863 1145.27 256.187 1140.07 253.932 1133.56ZM1317.75 754.359C1315.74 748.569 1311.6 743.943 1306.04 741.318L615.622 415.277C610.165 412.694 604.007 412.392 598.305 414.421C592.602 416.45 588.026 420.585 585.432 426.047L257.547 1115.55C254.981 1120.95 254.649 1127 256.6 1132.64C258.605 1138.42 262.751 1143.06 268.301 1145.67L958.727 1471.72C970.012 1477.05 983.554 1472.21 988.924 1460.94L1316.79 771.423C1319.36 766.053 1319.68 759.993 1317.75 754.359Z" fill="#CC0033"/>
<path opacity="0.8" d="M236.964 1103.74C234.764 1097.37 235.23 1090.55 238.286 1084.53L572.813 424.44C578.974 412.291 593.889 407.379 606.063 413.502L1267 746.252C1272.76 749.157 1277.1 754.103 1279.21 760.203C1281.41 766.572 1280.94 773.396 1277.9 779.41L943.354 1439.52C937.194 1451.67 922.274 1456.57 910.1 1450.45L249.176 1117.69C243.406 1114.79 239.07 1109.84 236.964 1103.74ZM1276.54 761.124C1274.67 755.72 1270.83 751.337 1265.72 748.762L604.785 416.012C593.994 410.583 580.779 414.93 575.314 425.695L240.791 1085.8C238.091 1091.13 237.676 1097.17 239.631 1102.82C241.498 1108.21 245.347 1112.61 250.454 1115.18L911.378 1447.94C922.169 1453.37 935.372 1449.02 940.845 1438.24L1275.38 778.148C1278.08 772.818 1278.5 766.776 1276.54 761.124Z" fill="#CC0033"/>
<path opacity="0.8" d="M219.972 1073.93C217.786 1067.59 218.356 1060.6 221.546 1054.71L562.751 424.026C565.808 418.382 570.872 414.267 577.01 412.427C583.16 410.581 589.648 411.247 595.295 414.276L1226.73 753.741C1232.04 756.595 1236.06 761.3 1238.02 766.975C1240.21 773.294 1239.64 780.308 1236.45 786.204L895.242 1416.88C888.947 1428.52 874.348 1432.88 862.698 1426.63L231.259 1087.16C225.948 1084.31 221.941 1079.62 219.972 1073.93ZM1235.37 767.892C1233.63 762.873 1230.09 758.717 1225.41 756.201L593.964 416.753C588.989 414.073 583.257 413.495 577.835 415.119C572.401 416.748 567.931 420.374 565.239 425.353L224.023 1056.04C221.205 1061.24 220.711 1067.42 222.639 1073.01C224.371 1078.03 227.908 1082.17 232.595 1084.7L864.045 1424.16C874.326 1429.68 887.214 1425.82 892.77 1415.56L1233.98 784.884C1236.79 779.67 1237.29 773.474 1235.37 767.892Z" fill="#CC0033"/>
<path opacity="0.8" d="M202.964 1044.11C200.748 1037.73 201.432 1030.72 204.824 1024.87L552.7 423.608C555.818 418.219 560.843 414.375 566.855 412.757C572.868 411.14 579.148 411.955 584.543 415.057L1186.5 761.215C1191.36 764.008 1195.05 768.455 1196.87 773.732C1199.07 780.114 1198.4 787.126 1195.02 792.965L847.135 1394.25C840.708 1405.35 826.423 1409.19 815.292 1402.8L213.331 1056.64C208.484 1053.84 204.801 1049.39 202.964 1044.11ZM1194.2 774.654C1192.59 770.014 1189.36 766.097 1185.09 763.645L583.132 417.499C578.395 414.777 572.871 414.051 567.583 415.475C562.296 416.899 557.875 420.278 555.138 425.008L207.262 1026.27C204.287 1031.42 203.69 1037.57 205.632 1043.19C207.24 1047.83 210.469 1051.73 214.743 1054.2L816.692 1400.36C826.479 1405.98 839.039 1402.62 844.693 1392.83L1192.57 791.569C1195.55 786.437 1196.14 780.271 1194.2 774.654Z" fill="#CC0033"/>
<path opacity="0.8" d="M185.95 1014.31C183.718 1007.86 184.508 1000.84 188.103 995.033L542.638 423.194C549.204 412.608 563.18 409.309 573.78 415.842L1146.24 768.703C1150.65 771.419 1154.02 775.615 1155.7 780.496C1157.93 786.946 1157.14 793.965 1153.55 799.769L799.028 1371.61C792.463 1382.2 778.486 1385.5 767.891 1378.98L195.416 1026.11C190.997 1023.38 187.643 1019.19 185.95 1014.31ZM1153.05 781.424C1151.57 777.147 1148.62 773.478 1144.77 771.09L572.295 418.233C563.018 412.513 550.789 415.401 545.029 424.679L190.494 996.518C187.347 1001.6 186.655 1007.75 188.606 1013.39C190.084 1017.67 193.028 1021.32 196.901 1023.72L769.371 1376.58C778.648 1382.3 790.877 1379.41 796.625 1370.13L1151.17 798.279C1154.32 793.211 1155 787.065 1153.05 781.424Z" fill="#CC0033"/>
<path opacity="0.8" d="M168.907 984.5C166.652 977.991 167.551 970.943 171.385 965.205L532.587 422.775C539.291 412.709 552.947 409.951 563.028 416.623L1106.01 776.189C1110.05 778.866 1113.02 782.688 1114.6 787.247C1116.85 793.767 1115.95 800.803 1112.13 806.549L750.908 1348.99C744.204 1359.05 730.548 1361.81 720.479 1355.14L177.494 995.569C173.456 992.892 170.488 989.071 168.907 984.5ZM1111.93 788.169C1110.56 784.196 1107.96 780.853 1104.45 778.529L561.469 418.963C552.686 413.14 540.789 415.549 534.938 424.33L173.725 966.764C170.389 971.771 169.61 977.903 171.574 983.578C172.946 987.551 175.533 990.882 179.06 993.213L722.034 1352.78C730.816 1358.61 742.713 1356.2 748.564 1347.42L1109.78 804.983C1113.11 799.992 1113.89 793.843 1111.93 788.169Z" fill="#CC0033"/>
<path opacity="0.8" d="M151.846 954.715C149.591 948.206 150.645 940.977 154.668 935.377L522.536 422.357C529.379 412.81 542.715 410.593 552.264 417.408L1065.75 783.677C1069.36 786.255 1072.04 789.818 1073.48 793.991C1075.73 800.5 1074.68 807.729 1070.65 813.329L702.785 1326.35C695.938 1335.88 682.606 1338.11 673.057 1331.3L159.562 965.034C155.962 962.451 153.283 958.888 151.846 954.715ZM1070.82 794.908C1069.57 791.287 1067.26 788.197 1064.11 785.954L550.627 419.685C542.343 413.772 530.766 415.708 524.837 423.985L156.952 936.998C153.467 941.864 152.558 948.141 154.509 953.781C155.766 957.398 158.084 960.489 161.213 962.724L674.701 1329C682.98 1334.91 694.551 1332.99 700.491 1324.71L1068.38 811.691C1071.87 806.838 1072.77 800.56 1070.82 794.908Z" fill="#CC0033"/>
<path opacity="0.8" d="M134.758 924.927C132.474 918.31 133.656 911.07 137.947 905.538L512.497 421.934C519.483 412.918 532.499 411.242 541.517 418.2L1025.52 791.179C1028.71 793.643 1031.1 796.946 1032.41 800.741C1034.69 807.358 1033.5 814.603 1029.22 820.13L654.666 1303.72C647.692 1312.73 634.665 1314.41 625.646 1307.46L141.637 934.482C138.449 932.03 136.067 928.711 134.758 924.927ZM1029.74 801.651C1028.61 798.385 1026.55 795.524 1023.79 793.399L539.79 420.42C531.994 414.421 520.755 415.862 514.724 423.645L140.173 907.249C136.467 912.028 135.435 918.301 137.414 924.01C138.55 927.288 140.599 930.137 143.364 932.263L627.373 1305.24C635.17 1311.24 646.409 1309.79 652.435 1302L1026.99 818.396C1030.69 813.617 1031.72 807.36 1029.74 801.651Z" fill="#CC0033"/>
<path opacity="0.8" d="M117.634 895.154C115.346 888.525 116.714 881.078 121.225 875.699L502.458 421.511C509.576 413.031 522.283 411.891 530.77 418.993L985.278 798.67C988.074 801.01 990.168 804.042 991.348 807.463C993.637 814.091 992.257 821.543 987.757 826.917L606.536 1281.1C599.418 1289.58 586.722 1290.72 578.224 1283.62L123.716 903.942C120.92 901.602 118.821 898.558 117.634 895.154ZM988.692 808.38C987.676 805.442 985.869 802.831 983.473 800.827L528.949 421.142C521.646 415.042 510.732 416.02 504.599 423.309L123.393 877.5C119.454 882.197 118.308 888.449 120.302 894.232C121.317 897.17 123.125 899.781 125.526 901.797L580.045 1281.47C587.343 1287.56 598.262 1286.59 604.379 1279.3L985.6 825.112C989.539 820.414 990.686 814.163 988.692 808.38Z" fill="#CC0033"/>
<path opacity="0.8" d="M100.483 865.378C98.1444 858.622 99.6995 851.141 104.515 845.856L492.414 421.077C499.675 413.128 512.055 412.544 520.018 419.773L945.052 806.156C947.454 808.345 949.287 811.12 950.343 814.161C952.682 820.917 951.143 828.405 946.3 833.688L558.401 1258.47C551.14 1266.42 538.765 1267.01 530.808 1259.77L105.779 873.395C103.377 871.206 101.544 868.431 100.483 865.378ZM947.664 815.088C946.765 812.478 945.187 810.11 943.125 808.241L518.107 421.865C511.303 415.674 500.709 416.178 494.49 422.98L106.614 847.75C102.484 852.27 101.157 858.673 103.162 864.451C104.061 867.061 105.628 869.434 107.69 871.303L532.712 1257.69C539.517 1263.88 550.111 1263.38 556.33 1256.57L944.222 831.812C948.347 827.281 949.663 820.883 947.664 815.088Z" fill="#CC0033"/>
</g>
</g>
<defs>
<clipPath id="clip0_71_653">
<rect width="1665.72" height="1729.07" fill="white" transform="translate(0.798828 613.458) rotate(-21.586)"/>
</clipPath>
</defs>
</svg>
