<svg width="852" height="1693" viewBox="0 0 852 1693" fill="none" xmlns="http://www.w3.org/2000/svg">
<g clip-path="url(#clip0_109_5489)">
<g opacity="0.8">
<path opacity="0.8" d="M1372.7 600.577C1373.85 605.807 1373.5 611.244 1371.66 616.301L1077.19 1427.14C1074.61 1434.25 1069.42 1439.93 1062.55 1443.14C1055.69 1446.34 1047.99 1446.7 1040.87 1444.13L228.389 1151.28C219.21 1147.97 212.467 1140.31 210.361 1130.79C209.208 1125.56 209.563 1120.12 211.397 1115.06L505.869 304.221C508.446 297.111 513.644 291.433 520.508 288.227C527.37 285.011 535.073 284.666 542.189 287.231L1354.66 580.097C1363.84 583.404 1370.58 591.06 1372.7 600.577ZM212.575 1130.32C214.517 1139.08 220.725 1146.13 229.169 1149.17L1041.65 1442.02C1048.19 1444.39 1055.28 1444.06 1061.59 1441.11C1067.9 1438.15 1072.68 1432.93 1075.05 1426.39L1369.53 615.546C1371.23 610.889 1371.56 605.894 1370.48 601.087C1368.54 592.322 1362.34 585.278 1353.9 582.227L541.42 289.384C534.865 287.02 527.79 287.352 521.467 290.299C515.157 293.253 510.376 298.478 507.997 305.017L213.525 1115.86C211.83 1120.51 211.505 1125.51 212.575 1130.32Z" fill="url(#paint0_linear_109_5489)"/>
<path opacity="0.8" d="M1383.42 626.028C1384.58 631.246 1384.19 636.662 1382.29 641.695L1085.2 1428.4C1082.6 1435.3 1077.45 1440.78 1070.72 1443.83C1063.99 1446.87 1056.47 1447.13 1049.55 1444.53L261.271 1149.04C252.49 1145.75 246.037 1138.32 244 1129.18C242.85 1123.96 243.23 1118.53 245.132 1113.5L542.219 326.791C547.595 312.544 563.597 305.306 577.868 310.655L1366.16 606.149C1374.94 609.438 1381.4 616.869 1383.42 626.028ZM246.229 1128.68C248.087 1137.09 254.014 1143.91 262.082 1146.93L1050.36 1442.41C1056.7 1444.79 1063.61 1444.56 1069.78 1441.77C1075.97 1438.97 1080.69 1433.94 1083.08 1427.61L1380.17 640.897C1381.91 636.278 1382.27 631.306 1381.21 626.516C1379.35 618.111 1373.43 611.293 1365.36 608.277L577.081 312.781C563.975 307.876 549.292 314.512 544.358 327.585L247.27 1114.29C245.526 1118.91 245.161 1123.89 246.229 1128.68Z" fill="url(#paint1_linear_109_5489)"/>
<path opacity="0.8" d="M1394.16 651.466C1395.32 656.683 1394.89 662.088 1392.92 667.089L1093.22 1429.65C1087.78 1443.48 1072.09 1450.33 1058.24 1444.93L294.162 1146.8C285.77 1143.54 279.606 1136.34 277.656 1127.55C276.496 1122.33 276.922 1116.93 278.885 1111.93L578.591 349.367C581.227 342.667 586.315 337.39 592.925 334.511C599.532 331.623 606.865 331.48 613.57 334.093L1377.66 632.209C1386.05 635.481 1392.22 642.679 1394.16 651.466ZM279.882 1127.05C281.664 1135.09 287.315 1141.69 294.992 1144.69L1059.07 1442.81C1071.75 1447.76 1086.12 1441.48 1091.11 1428.82L1390.81 666.256C1392.62 661.673 1393.01 656.722 1391.95 651.945C1390.17 643.902 1384.52 637.309 1376.83 634.317L612.763 336.183C606.613 333.784 599.901 333.926 593.847 336.562C587.793 339.199 583.137 344.039 580.722 350.173L281.016 1112.74C279.211 1117.32 278.819 1122.27 279.882 1127.05Z" fill="url(#paint2_linear_109_5489)"/>
<path opacity="0.8" d="M1404.9 676.903C1406.06 682.12 1405.6 687.503 1403.56 692.481L1101.24 1430.9C1098.58 1437.39 1093.55 1442.46 1087.08 1445.18C1080.6 1447.9 1073.45 1447.94 1066.94 1445.3L327.065 1144.53C319.071 1141.28 313.188 1134.31 311.326 1125.9C310.176 1120.68 310.629 1115.3 312.67 1110.32L614.992 371.893C620.481 358.496 635.87 352.022 649.292 357.485L1389.16 658.271C1397.15 661.514 1403.04 668.478 1404.9 676.903ZM313.525 1125.41C315.234 1133.1 320.614 1139.47 327.912 1142.44L1067.79 1443.21C1073.73 1445.62 1080.27 1445.59 1086.19 1443.1C1092.1 1440.61 1096.7 1435.98 1099.13 1430.04L1401.46 691.614C1403.32 687.069 1403.75 682.15 1402.69 677.381C1400.98 669.692 1395.61 663.325 1388.3 660.355L648.427 359.59C636.159 354.606 622.097 360.506 617.085 372.751L314.763 1111.18C312.897 1115.73 312.475 1120.64 313.525 1125.41Z" fill="url(#paint3_linear_109_5489)"/>
<path opacity="0.8" d="M1415.65 702.337C1416.8 707.557 1416.3 712.929 1414.2 717.871L1109.26 1432.14C1106.57 1438.43 1101.6 1443.31 1095.25 1445.86C1088.9 1448.42 1081.93 1448.35 1075.62 1445.68L359.963 1142.28C352.36 1139.06 346.758 1132.33 344.973 1124.28C343.813 1119.06 344.319 1113.68 346.422 1108.74L651.362 394.459C654.046 388.17 659.024 383.295 665.38 380.743C671.733 378.181 678.696 378.241 684.992 380.913L1400.67 684.321C1408.26 687.546 1413.86 694.275 1415.65 702.337ZM347.182 1123.79C348.809 1131.14 353.922 1137.27 360.848 1140.21L1076.51 1443.61C1082.26 1446.05 1088.61 1446.11 1094.39 1443.77C1100.18 1441.44 1104.72 1436.99 1107.17 1431.27L1412.11 716.973C1414.03 712.472 1414.49 707.577 1413.43 702.818C1411.8 695.479 1406.69 689.343 1399.76 686.396L684.091 382.997C678.345 380.561 671.996 380.513 666.211 382.839C660.416 385.169 655.882 389.614 653.432 395.343L348.491 1109.63C346.583 1114.13 346.124 1119.03 347.182 1123.79Z" fill="url(#paint4_linear_109_5489)"/>
<path opacity="0.8" d="M1426.41 727.769C1427.57 732.996 1427.02 738.352 1424.83 743.255L1117.28 1433.4C1111.68 1445.96 1096.89 1451.64 1084.31 1446.08L392.842 1140.03C385.633 1136.85 380.318 1130.34 378.609 1122.66C377.447 1117.43 377.99 1112.07 380.175 1107.17L687.744 417.032C690.45 410.944 695.381 406.278 701.604 403.886C707.836 401.492 714.619 401.652 720.707 404.358L1412.16 710.384C1419.37 713.576 1424.7 720.07 1426.41 727.769ZM380.815 1122.16C382.369 1129.15 387.203 1135.06 393.758 1137.97L1085.23 1444.01C1096.67 1449.07 1110.11 1443.91 1115.2 1432.49L1422.76 742.329C1424.75 737.874 1425.24 733.009 1424.19 728.26C1422.64 721.264 1417.8 715.354 1411.25 712.451L719.776 406.409C714.231 403.951 708.062 403.802 702.413 405.978C696.754 408.157 692.27 412.402 689.816 417.926L382.25 1108.08C380.256 1112.53 379.76 1117.41 380.815 1122.16Z" fill="url(#paint5_linear_109_5489)"/>
<path opacity="0.8" d="M1437.16 753.204C1438.32 758.431 1437.73 763.765 1435.47 768.647L1125.29 1434.65C1122.55 1440.53 1117.69 1444.99 1111.59 1447.22C1105.49 1449.46 1098.88 1449.18 1093 1446.46L425.731 1137.78C418.805 1134.58 413.887 1128.47 412.233 1121.03C411.068 1115.79 411.658 1110.46 413.934 1105.58L724.108 439.578C729.76 427.441 744.244 422.152 756.402 427.767L1423.67 736.443C1430.6 739.65 1435.51 745.755 1437.16 753.204ZM414.449 1120.53C415.948 1127.28 420.403 1132.81 426.678 1135.72L1093.95 1444.4C1099.29 1446.88 1105.28 1447.12 1110.8 1445.1C1116.34 1443.07 1120.74 1439.03 1123.22 1433.69L1433.41 767.697C1435.47 763.274 1436 758.441 1434.95 753.702C1433.45 746.949 1428.99 741.407 1422.71 738.512L755.442 429.826C744.416 424.726 731.291 429.526 726.164 440.528L415.99 1106.53C413.932 1110.94 413.397 1115.79 414.449 1120.53Z" fill="url(#paint6_linear_109_5489)"/>
<path opacity="0.8" d="M1447.93 778.633C1449.09 783.87 1448.45 789.198 1446.09 794.043L1133.31 1435.9C1130.54 1441.57 1125.73 1445.83 1119.76 1447.89C1113.78 1449.96 1107.36 1449.58 1101.69 1446.82L458.633 1135.51C452.091 1132.35 447.451 1126.47 445.874 1119.38C444.719 1114.14 445.343 1108.82 447.699 1103.98L760.502 462.117C763.257 456.44 768.077 452.177 774.046 450.112C780.018 448.057 786.442 448.426 792.119 451.181L1435.17 762.506C1441.71 765.671 1446.36 771.547 1447.93 778.633ZM448.074 1118.9C449.491 1125.31 453.7 1130.62 459.601 1133.48L1102.67 1444.8C1107.81 1447.3 1113.61 1447.64 1119.01 1445.76C1124.41 1443.89 1128.77 1440.04 1131.26 1434.91L1444.06 793.056C1446.19 788.676 1446.76 783.863 1445.71 779.124C1444.29 772.713 1440.08 767.401 1434.18 764.541L791.122 453.218C785.984 450.734 780.178 450.395 774.776 452.256C769.374 454.118 765.034 457.973 762.524 463.097L449.734 1104.96C447.595 1109.35 447.024 1114.17 448.074 1118.9Z" fill="url(#paint7_linear_109_5489)"/>
<path opacity="0.8" d="M1458.69 804.063C1459.84 809.241 1459.14 814.699 1456.73 819.436L1141.32 1437.16C1138.53 1442.63 1133.77 1446.69 1127.92 1448.59C1122.07 1450.48 1115.83 1450 1110.36 1447.22L491.503 1133.27C485.357 1130.15 480.976 1124.5 479.482 1117.77C478.333 1112.59 479.034 1107.13 481.451 1102.4L796.86 484.675C799.652 479.216 804.404 475.158 810.259 473.248C816.107 471.35 822.344 471.832 827.819 474.609L1446.68 788.575C1452.82 791.691 1457.2 797.339 1458.69 804.063ZM481.701 1117.28C483.047 1123.35 487 1128.44 492.536 1131.25L1111.4 1445.21C1116.34 1447.71 1121.95 1448.14 1127.23 1446.43C1132.49 1444.72 1136.78 1441.06 1139.3 1436.13L1454.71 818.402C1456.89 814.133 1457.52 809.213 1456.49 804.551C1455.14 798.483 1451.19 793.392 1445.65 790.579L826.786 476.625C821.851 474.127 816.236 473.686 810.959 475.4C805.693 477.111 801.403 480.766 798.883 485.696L483.474 1103.42C481.295 1107.69 480.657 1112.61 481.701 1117.28Z" fill="url(#paint8_linear_109_5489)"/>
<path opacity="0.8" d="M1469.48 829.487C1470.63 834.675 1469.88 840.126 1467.36 844.829L1149.33 1438.41C1146.52 1443.66 1141.82 1447.52 1136.09 1449.25C1130.37 1450.99 1124.31 1450.4 1119.05 1447.6L524.388 1131.01C518.617 1127.94 514.506 1122.53 513.087 1116.15C511.935 1110.96 512.69 1105.51 515.208 1100.81L833.236 507.229C839.054 496.373 852.639 492.246 863.519 498.038L1458.18 814.625C1463.95 817.696 1468.06 823.116 1469.48 829.487ZM515.305 1115.66C516.581 1121.38 520.277 1126.25 525.458 1129.01L1120.12 1445.6C1124.85 1448.12 1130.3 1448.65 1135.44 1447.09C1140.58 1445.52 1144.81 1442.06 1147.34 1437.34L1465.36 843.761C1467.62 839.541 1468.3 834.649 1467.26 829.978C1465.99 824.253 1462.29 819.383 1457.11 816.62L862.449 500.033C852.678 494.824 840.461 498.532 835.238 508.287L517.213 1101.87C514.948 1106.09 514.271 1110.99 515.305 1115.66Z" fill="url(#paint9_linear_109_5489)"/>
<path opacity="0.8" d="M1480.27 854.921C1481.43 860.129 1480.62 865.564 1477.99 870.222L1157.35 1439.66C1151.47 1450.1 1138.19 1453.82 1127.75 1447.98L557.284 1128.75C551.899 1125.73 548.038 1120.55 546.702 1114.52C545.544 1109.31 546.353 1103.87 548.976 1099.21L869.62 529.77C875.489 519.336 888.775 515.6 899.226 521.454L1469.69 840.695C1475.07 843.714 1478.93 848.894 1480.27 854.921ZM548.911 1114.03C550.107 1119.43 553.557 1124.07 558.381 1126.78L1128.83 1446.01C1138.2 1451.25 1150.1 1447.9 1155.36 1438.56L1476.01 869.117C1478.36 864.947 1479.09 860.074 1478.05 855.412C1476.85 850.008 1473.41 845.372 1468.57 842.671L898.122 523.438C888.758 518.203 876.858 521.547 871.596 530.887L550.953 1100.33C548.602 1104.5 547.879 1109.37 548.911 1114.03Z" fill="url(#paint10_linear_109_5489)"/>
<path opacity="0.8" d="M1491.07 880.343C1492.23 885.582 1491.36 891.001 1488.62 895.627L1165.36 1440.92C1159.43 1450.93 1146.44 1454.27 1136.42 1448.36L590.158 1126.48C585.143 1123.53 581.549 1118.58 580.287 1112.9C579.122 1107.67 579.996 1102.24 582.735 1097.62L905.996 552.324C911.929 542.317 924.918 538.982 934.938 544.89L1481.2 866.755C1486.21 869.707 1489.81 874.666 1491.07 880.343ZM582.506 1112.41C583.627 1117.49 586.837 1121.9 591.314 1124.54L1137.56 1446.41C1146.51 1451.69 1158.11 1448.71 1163.4 1439.77L1486.67 894.474C1489.11 890.35 1489.89 885.505 1488.85 880.833C1487.72 875.773 1484.51 871.354 1480.03 868.713L933.783 546.835C924.833 541.562 913.24 544.544 907.944 553.489L584.683 1098.79C582.244 1102.9 581.471 1107.74 582.506 1112.41Z" fill="url(#paint11_linear_109_5489)"/>
<path opacity="0.8" d="M1501.88 905.761C1503.04 911.03 1502.11 916.435 1499.25 921.012L1173.37 1442.17C1170.46 1446.81 1165.92 1450.06 1160.58 1451.29C1155.24 1452.54 1149.75 1451.62 1145.09 1448.74L623.044 1124.22C618.326 1121.3 615.075 1116.7 613.873 1111.29C612.71 1106.02 613.64 1100.6 616.503 1096.03L942.383 574.874C948.369 565.299 961.059 562.354 970.649 568.315L1492.71 892.824C1497.42 895.755 1500.68 900.348 1501.88 905.761ZM616.082 1110.8C617.155 1115.61 620.04 1119.7 624.239 1122.31L1146.29 1446.81C1150.42 1449.38 1155.32 1450.19 1160.06 1449.09C1164.81 1448 1168.85 1445.11 1171.43 1440.98L1497.32 919.829C1499.87 915.75 1500.7 910.943 1499.66 906.252C1498.59 901.446 1495.7 897.353 1491.5 894.751L969.446 570.242C960.913 564.94 949.637 567.558 944.3 576.079L618.423 1097.24C615.876 1101.3 615.055 1106.11 616.082 1110.8Z" fill="url(#paint12_linear_109_5489)"/>
<path opacity="0.8" d="M1512.69 931.178C1513.86 936.475 1512.86 941.889 1509.86 946.42L1181.38 1443.43C1175.33 1452.58 1162.95 1455.13 1153.77 1449.11L655.92 1121.97C651.583 1119.11 648.563 1114.76 647.442 1109.68C646.271 1104.39 647.274 1098.97 650.264 1094.44L978.766 597.416C984.815 588.269 997.199 585.727 1006.37 591.748L1504.22 918.894C1508.56 921.746 1511.57 926.105 1512.69 931.178ZM649.66 1109.19C650.658 1113.69 653.328 1117.55 657.174 1120.08L1155.03 1447.22C1163.16 1452.56 1174.13 1450.3 1179.49 1442.2L1507.98 945.176C1510.63 941.163 1511.52 936.369 1510.48 931.669C1509.48 927.183 1506.81 923.313 1502.96 920.783L1005.12 593.637C996.988 588.299 986.028 590.553 980.655 598.67L652.159 1095.69C649.508 1099.7 648.618 1104.49 649.66 1109.19Z" fill="url(#paint13_linear_109_5489)"/>
<path opacity="0.8" d="M1523.53 956.589C1524.69 961.858 1523.59 967.402 1520.5 971.813L1189.39 1444.69C1186.42 1448.93 1181.99 1451.75 1176.91 1452.65C1171.82 1453.56 1166.69 1452.43 1162.46 1449.49L688.813 1119.7C684.83 1116.92 682.055 1112.79 681.008 1108.07C679.838 1102.82 680.947 1097.26 684.039 1092.84L1015.15 619.967C1021.26 611.238 1033.34 609.099 1042.08 615.174L1515.72 944.963C1519.71 947.737 1522.48 951.86 1523.53 956.589ZM683.217 1107.58C684.139 1111.76 686.587 1115.41 690.099 1117.85L1163.75 1447.63C1167.48 1450.23 1172.01 1451.22 1176.5 1450.42C1180.99 1449.62 1184.9 1447.14 1187.52 1443.4L1518.64 970.52C1521.37 966.619 1522.34 961.723 1521.31 957.08C1520.39 952.906 1517.94 949.265 1514.43 946.811L1040.77 617.025C1033.06 611.658 1022.4 613.552 1017.01 621.25L685.894 1094.12C683.163 1098.03 682.19 1102.94 683.217 1107.58Z" fill="url(#paint14_linear_109_5489)"/>
<path opacity="0.8" d="M1534.38 982.007C1535.56 987.312 1534.37 992.86 1531.11 997.221L1197.38 1445.96C1194.39 1449.98 1190.02 1452.59 1185.06 1453.33C1180.1 1454.07 1175.16 1452.83 1171.13 1449.85L721.677 1117.43C718.049 1114.75 715.514 1110.86 714.546 1106.47C713.372 1101.16 714.557 1095.61 717.8 1091.26L1051.54 642.508C1057.7 634.22 1069.48 632.472 1077.79 638.61L1527.24 971.03C1530.86 973.715 1533.4 977.612 1534.38 982.007ZM716.764 1105.98C717.622 1109.84 719.846 1113.27 723.034 1115.62L1172.48 1448.03C1176.02 1450.65 1180.37 1451.74 1184.73 1451.09C1189.09 1450.44 1192.94 1448.14 1195.56 1444.61L1529.29 995.876C1532.15 992.036 1533.19 987.17 1532.16 982.498C1531.3 978.639 1529.08 975.217 1525.89 972.853L1076.45 640.43C1069.14 635.027 1058.78 636.559 1053.36 643.862L719.629 1092.6C716.773 1096.43 715.73 1101.3 716.764 1105.98Z" fill="url(#paint15_linear_109_5489)"/>
<path opacity="0.8" d="M1545.23 1007.41C1546.42 1012.78 1545.14 1018.32 1541.73 1022.63L1205.39 1447.22C1199.17 1455.08 1187.68 1456.42 1179.81 1450.22L754.57 1115.16C751.291 1112.58 748.983 1108.92 748.093 1104.86C746.904 1099.49 748.183 1093.95 751.594 1089.64L1087.92 665.049C1094.15 657.189 1105.63 655.841 1113.5 662.035L1538.75 997.099C1542.04 999.688 1544.33 1003.35 1545.23 1007.41ZM750.299 1104.36C751.086 1107.92 753.105 1111.13 755.969 1113.39L1181.22 1448.45C1188.11 1453.88 1198.16 1452.7 1203.62 1445.81L1539.96 1021.22C1542.94 1017.45 1544.06 1012.59 1543.02 1007.9C1542.24 1004.34 1540.22 1001.15 1537.34 998.874L1112.1 663.82C1105.21 658.388 1095.16 659.569 1089.71 666.455L753.36 1091.06C750.371 1094.82 749.259 1099.67 750.299 1104.36Z" fill="url(#paint16_linear_109_5489)"/>
<path opacity="0.8" d="M1556.11 1032.82C1557.31 1038.24 1555.94 1043.79 1552.35 1048.03L1213.39 1448.48C1207.1 1455.91 1195.93 1456.86 1188.48 1450.59L787.432 1112.89C784.45 1110.38 782.429 1107.05 781.589 1103.26C780.385 1097.83 781.757 1092.29 785.341 1088.05L1124.31 687.588C1130.61 680.156 1141.78 679.212 1149.22 685.481L1550.27 1023.18C1553.25 1025.69 1555.27 1029.02 1556.11 1032.82ZM783.808 1102.76C784.538 1106.07 786.302 1108.98 788.895 1111.16L1189.94 1448.86C1196.43 1454.33 1206.17 1453.5 1211.66 1447.02L1550.62 1046.56C1553.75 1042.87 1554.94 1038.03 1553.89 1033.32C1553.16 1030.01 1551.4 1027.11 1548.8 1024.92L1147.76 687.218C1141.27 681.75 1131.53 682.579 1126.04 689.06L787.08 1089.52C783.957 1093.2 782.761 1098.04 783.808 1102.76Z" fill="url(#paint17_linear_109_5489)"/>
<path opacity="0.8" d="M1567.01 1058.22C1568.21 1063.63 1566.7 1069.32 1562.96 1073.42L1221.39 1449.74C1215.04 1456.75 1204.17 1457.29 1197.16 1450.96L820.326 1110.62C817.675 1108.23 815.862 1105.13 815.098 1101.66C813.896 1096.25 815.406 1090.56 819.141 1086.45L1160.71 710.136C1167.07 703.143 1177.94 702.591 1184.94 708.923L1561.79 1049.26C1564.43 1051.65 1566.24 1054.75 1567.01 1058.22ZM817.307 1101.17C817.969 1104.18 819.537 1106.87 821.845 1108.95L1198.68 1449.29C1204.76 1454.78 1214.2 1454.3 1219.7 1448.23L1561.29 1071.92C1564.52 1068.35 1565.83 1063.41 1564.79 1058.72C1564.12 1055.71 1562.55 1053.03 1560.25 1050.95L1183.42 710.606C1177.34 705.122 1167.91 705.588 1162.39 711.663L820.811 1087.97C817.572 1091.53 816.265 1096.47 817.307 1101.17Z" fill="url(#paint18_linear_109_5489)"/>
<path opacity="0.8" d="M1577.92 1083.62C1579.14 1089.12 1577.52 1094.8 1573.58 1098.83L1229.38 1451.01C1222.96 1457.57 1212.4 1457.71 1205.83 1451.31L853.194 1108.34C850.868 1106.07 849.263 1103.21 848.562 1100.05C847.346 1094.55 848.971 1088.87 852.903 1084.84L1197.1 732.675C1203.51 726.112 1214.09 725.971 1220.66 732.368L1573.3 1075.34C1575.62 1077.6 1577.22 1080.47 1577.92 1083.62ZM850.783 1099.57C851.387 1102.29 852.765 1104.76 854.78 1106.72L1207.41 1449.7C1213.1 1455.22 1222.22 1455.1 1227.76 1449.43L1571.96 1097.26C1575.36 1093.78 1576.77 1088.86 1575.71 1084.11C1575.11 1081.38 1573.73 1078.91 1571.72 1076.96L1219.07 733.984C1213.39 728.466 1204.27 728.581 1198.73 734.258L854.531 1086.43C851.125 1089.91 849.728 1094.82 850.783 1099.57Z" fill="url(#paint19_linear_109_5489)"/>
<path opacity="0.8" d="M1588.87 1109.01C1590.08 1114.53 1588.3 1120.36 1584.2 1124.24L1237.37 1452.27C1230.9 1458.4 1220.63 1458.14 1214.5 1451.67L886.065 1106.06C884.045 1103.93 882.649 1101.31 882.022 1098.47C880.804 1092.96 882.595 1087.12 886.69 1083.24L1233.51 755.211C1239.98 749.086 1250.24 749.35 1256.38 755.811L1584.81 1101.42C1586.83 1103.55 1588.23 1106.18 1588.87 1109.01ZM884.231 1097.98C884.771 1100.42 885.976 1102.68 887.707 1104.5L1216.15 1450.12C1221.43 1455.67 1230.25 1455.9 1235.83 1450.64L1582.63 1122.6C1586.21 1119.21 1587.71 1114.31 1586.65 1109.5C1586.11 1107.06 1584.9 1104.81 1583.17 1102.97L1254.73 757.362C1249.45 751.818 1240.63 751.584 1235.07 756.854L888.248 1084.88C884.664 1088.28 883.17 1093.17 884.231 1097.98Z" fill="url(#paint20_linear_109_5489)"/>
</g>
</g>
<defs>
<linearGradient id="paint0_linear_109_5489" x1="954.163" y1="1472.64" x2="628.894" y2="258.722" gradientUnits="userSpaceOnUse">
<stop stop-color="#48917E"/>
<stop offset="1" stop-color="#48917E"/>
</linearGradient>
<linearGradient id="paint1_linear_109_5489" x1="972.582" y1="1470.51" x2="654.843" y2="284.694" gradientUnits="userSpaceOnUse">
<stop stop-color="#48917E"/>
<stop offset="1" stop-color="#48917E"/>
</linearGradient>
<linearGradient id="paint2_linear_109_5489" x1="991.012" y1="1468.36" x2="680.802" y2="310.643" gradientUnits="userSpaceOnUse">
<stop stop-color="#48917E"/>
<stop offset="1" stop-color="#48917E"/>
</linearGradient>
<linearGradient id="paint3_linear_109_5489" x1="1009.46" y1="1466.23" x2="706.767" y2="336.569" gradientUnits="userSpaceOnUse">
<stop stop-color="#48917E"/>
<stop offset="1" stop-color="#48917E"/>
</linearGradient>
<linearGradient id="paint4_linear_109_5489" x1="1027.9" y1="1464.1" x2="732.723" y2="362.499" gradientUnits="userSpaceOnUse">
<stop stop-color="#48917E"/>
<stop offset="1" stop-color="#48917E"/>
</linearGradient>
<linearGradient id="paint5_linear_109_5489" x1="1046.33" y1="1461.97" x2="758.682" y2="388.446" gradientUnits="userSpaceOnUse">
<stop stop-color="#48917E"/>
<stop offset="1" stop-color="#48917E"/>
</linearGradient>
<linearGradient id="paint6_linear_109_5489" x1="1064.77" y1="1459.87" x2="784.627" y2="414.372" gradientUnits="userSpaceOnUse">
<stop stop-color="#48917E"/>
<stop offset="1" stop-color="#48917E"/>
</linearGradient>
<linearGradient id="paint7_linear_109_5489" x1="1083.22" y1="1457.75" x2="810.582" y2="440.261" gradientUnits="userSpaceOnUse">
<stop stop-color="#48917E"/>
<stop offset="1" stop-color="#48917E"/>
</linearGradient>
<linearGradient id="paint8_linear_109_5489" x1="1101.65" y1="1455.66" x2="836.524" y2="466.177" gradientUnits="userSpaceOnUse">
<stop stop-color="#48917E"/>
<stop offset="1" stop-color="#48917E"/>
</linearGradient>
<linearGradient id="paint9_linear_109_5489" x1="1120.1" y1="1453.55" x2="862.474" y2="492.092" gradientUnits="userSpaceOnUse">
<stop stop-color="#48917E"/>
<stop offset="1" stop-color="#48917E"/>
</linearGradient>
<linearGradient id="paint10_linear_109_5489" x1="1138.55" y1="1451.46" x2="888.421" y2="517.971" gradientUnits="userSpaceOnUse">
<stop stop-color="#48917E"/>
<stop offset="1" stop-color="#48917E"/>
</linearGradient>
<linearGradient id="paint11_linear_109_5489" x1="1157" y1="1449.38" x2="914.362" y2="543.863" gradientUnits="userSpaceOnUse">
<stop stop-color="#48917E"/>
<stop offset="1" stop-color="#48917E"/>
</linearGradient>
<linearGradient id="paint12_linear_109_5489" x1="1175.45" y1="1447.32" x2="940.303" y2="569.738" gradientUnits="userSpaceOnUse">
<stop stop-color="#48917E"/>
<stop offset="1" stop-color="#48917E"/>
</linearGradient>
<linearGradient id="paint13_linear_109_5489" x1="1193.9" y1="1445.26" x2="966.234" y2="595.599" gradientUnits="userSpaceOnUse">
<stop stop-color="#48917E"/>
<stop offset="1" stop-color="#48917E"/>
</linearGradient>
<linearGradient id="paint14_linear_109_5489" x1="1212.37" y1="1443.23" x2="992.173" y2="621.445" gradientUnits="userSpaceOnUse">
<stop stop-color="#48917E"/>
<stop offset="1" stop-color="#48917E"/>
</linearGradient>
<linearGradient id="paint15_linear_109_5489" x1="1230.83" y1="1441.19" x2="1018.1" y2="647.282" gradientUnits="userSpaceOnUse">
<stop stop-color="#48917E"/>
<stop offset="1" stop-color="#48917E"/>
</linearGradient>
<linearGradient id="paint16_linear_109_5489" x1="1249.3" y1="1439.17" x2="1044.03" y2="673.096" gradientUnits="userSpaceOnUse">
<stop stop-color="#48917E"/>
<stop offset="1" stop-color="#48917E"/>
</linearGradient>
<linearGradient id="paint17_linear_109_5489" x1="1267.76" y1="1437.17" x2="1069.94" y2="698.898" gradientUnits="userSpaceOnUse">
<stop stop-color="#48917E"/>
<stop offset="1" stop-color="#48917E"/>
</linearGradient>
<linearGradient id="paint18_linear_109_5489" x1="1286.24" y1="1435.19" x2="1095.86" y2="724.689" gradientUnits="userSpaceOnUse">
<stop stop-color="#48917E"/>
<stop offset="1" stop-color="#48917E"/>
</linearGradient>
<linearGradient id="paint19_linear_109_5489" x1="1304.72" y1="1433.23" x2="1121.77" y2="750.451" gradientUnits="userSpaceOnUse">
<stop stop-color="#48917E"/>
<stop offset="1" stop-color="#48917E"/>
</linearGradient>
<linearGradient id="paint20_linear_109_5489" x1="1323.21" y1="1431.29" x2="1147.68" y2="776.192" gradientUnits="userSpaceOnUse">
<stop stop-color="#48917E"/>
<stop offset="1" stop-color="#48917E"/>
</linearGradient>
<clipPath id="clip0_109_5489">
<rect width="1341" height="1392" fill="white" transform="translate(1656.29 1345.08) rotate(165)"/>
</clipPath>
</defs>
</svg>
