<svg width="1057" height="1326" viewBox="0 0 1057 1326" fill="none" xmlns="http://www.w3.org/2000/svg">
<g clip-path="url(#clip0_109_5513)">
<path opacity="0.8" d="M-180.054 553.323C-178.733 548.827 -176.168 544.807 -172.63 541.702L395.067 44.0474C400.041 39.6823 406.421 37.5188 413.037 37.9545C419.653 38.3902 425.708 41.3646 430.083 46.3325L929.676 613.478C935.32 619.884 937.26 628.606 934.861 636.794C933.54 641.291 930.975 645.311 927.437 648.416L359.74 1146.07C354.766 1150.44 348.386 1152.6 341.77 1152.16C335.152 1151.74 329.1 1148.75 324.724 1143.79L-174.858 576.633C-180.502 570.227 -182.444 561.513 -180.054 553.323ZM932.965 636.22C935.167 628.687 933.381 620.66 928.187 614.77L428.594 47.6249C424.573 43.0503 419 40.3116 412.916 39.9162C406.831 39.5208 400.962 41.5124 396.389 45.5257L-171.316 543.178C-174.577 546.036 -176.935 549.728 -178.141 553.865C-180.345 561.407 -178.557 569.425 -173.373 575.322L326.221 1142.46C330.252 1147.04 335.817 1149.76 341.908 1150.17C347.993 1150.56 353.862 1148.57 358.443 1144.56L926.14 646.908C929.4 644.059 931.759 640.358 932.965 636.22Z" fill="#DA4067"/>
<path opacity="0.8" d="M-177.546 529.285C-176.235 524.794 -173.651 520.806 -170.07 517.748L389.456 39.705C394.361 35.512 400.619 33.4807 407.065 33.9828C413.511 34.485 419.385 37.4602 423.595 42.3694L903.516 601.33C908.863 607.555 910.678 615.976 908.384 623.847C907.065 628.335 904.488 632.334 900.907 635.393L341.38 1113.44C331.251 1122.09 315.928 1120.9 307.239 1110.78L-172.689 551.808C-178.035 545.584 -179.859 537.16 -177.546 529.285ZM906.467 623.286C908.586 616.057 906.916 608.329 902.004 602.608L422.081 43.6554C418.221 39.1566 412.829 36.4172 406.914 35.9553C400.99 35.4913 395.25 37.3614 390.744 41.2109L-168.782 519.254C-172.067 522.061 -174.436 525.723 -175.646 529.842C-177.764 537.071 -176.094 544.799 -171.18 550.512L308.739 1109.48C316.721 1118.77 330.779 1119.87 340.075 1111.93L899.602 633.882C902.887 631.076 905.264 627.415 906.467 623.286Z" fill="#DA4067"/>
<path opacity="0.8" d="M-175.056 505.249C-173.746 500.759 -171.141 496.794 -167.519 493.791L383.835 35.3678C393.834 27.0555 408.755 28.423 417.099 38.403L877.349 589.179C882.407 595.225 884.097 603.345 881.889 610.904C880.579 615.394 877.973 619.359 874.361 622.364L323.006 1080.79C318.16 1084.81 312.033 1086.72 305.751 1086.14C299.466 1085.57 293.782 1082.58 289.742 1077.75L-170.525 526.972C-175.574 520.928 -177.273 512.806 -175.056 505.249ZM879.97 610.351C881.994 603.432 880.444 595.986 875.82 590.452L415.57 39.6764C407.932 30.5276 394.26 29.2866 385.1 36.8951L-166.254 495.318C-169.571 498.072 -171.959 501.702 -173.158 505.814C-175.183 512.734 -173.63 520.171 -168.998 525.707L291.242 1076.49C294.947 1080.92 300.154 1083.64 305.908 1084.17C311.662 1084.7 317.273 1082.96 321.712 1079.27L873.066 620.848C876.383 618.094 878.771 614.463 879.97 610.351Z" fill="#DA4067"/>
<path opacity="0.8" d="M-172.567 481.214C-171.257 476.724 -168.633 472.791 -164.968 469.834L378.205 31.0292C382.982 27.1742 388.977 25.4029 395.091 26.0487C401.204 26.6944 406.707 29.6774 410.581 34.45L851.158 577.05C855.918 582.914 857.493 590.735 855.372 597.973C854.053 602.462 851.437 606.397 847.773 609.354L304.589 1048.16C294.73 1056.12 280.2 1054.6 272.211 1044.75L-168.354 502.138C-173.115 496.282 -174.69 488.461 -172.567 481.214ZM853.481 597.419C855.413 590.801 853.97 583.652 849.627 578.296L409.05 35.6958C405.506 31.3379 400.482 28.6076 394.895 28.0192C389.308 27.4307 383.828 29.0492 379.466 32.5735L-163.727 471.383C-167.067 474.085 -169.472 477.676 -170.67 481.78C-172.602 488.397 -171.167 495.544 -166.816 500.903L273.761 1043.5C281.068 1052.5 294.339 1053.9 303.345 1046.62L846.53 607.814C849.878 605.113 852.275 601.52 853.481 597.419Z" fill="#DA4067"/>
<path opacity="0.8" d="M-170.086 457.177C-168.767 452.689 -166.121 448.779 -162.425 445.875L372.585 26.6925C377.294 23.0013 383.167 21.362 389.109 22.0828C395.061 22.7971 400.373 25.7873 404.084 30.4926L824.981 564.905C829.453 570.582 830.912 578.105 828.886 585.032C827.576 589.523 824.921 593.43 821.225 596.334L286.213 1015.53C281.504 1019.22 275.631 1020.86 269.681 1020.13C263.728 1019.42 258.414 1016.44 254.712 1011.73L-166.192 477.31C-170.655 471.636 -172.114 464.113 -170.086 457.177ZM826.986 584.475C828.837 578.153 827.503 571.292 823.43 566.12L402.533 31.7067C399.153 27.416 394.307 24.6935 388.888 24.047C383.462 23.39 378.111 24.887 373.816 28.2475L-161.198 447.447C-164.569 450.089 -166.984 453.649 -168.18 457.744C-170.028 464.058 -168.695 470.919 -164.624 476.1L256.282 1010.52C259.662 1014.81 264.51 1017.52 269.927 1018.17C275.353 1018.83 280.704 1017.33 284.999 1013.97L820.011 594.783C823.375 592.131 825.791 588.57 826.986 584.475Z" fill="#DA4067"/>
<path opacity="0.8" d="M-167.614 433.138C-166.302 428.639 -163.62 424.765 -159.877 421.927L366.965 22.3472C376.546 15.0766 390.287 16.9562 397.587 26.5266L798.82 552.765C803.006 558.246 804.339 565.476 802.407 572.093C801.095 576.592 798.421 580.468 794.678 583.306L267.83 982.875C263.187 986.403 257.439 987.901 251.659 987.112C245.869 986.321 240.735 983.338 237.208 978.696L-164.02 452.476C-168.205 446.987 -169.548 439.764 -167.614 433.138ZM800.505 571.545C802.264 565.525 801.048 558.954 797.245 553.965L396.013 27.7259C389.374 19.0209 376.889 17.3145 368.173 23.9236L-158.68 423.509C-162.08 426.089 -164.513 429.61 -165.706 433.697C-167.464 439.717 -166.249 446.288 -162.446 451.277L238.787 977.516C242.002 981.739 246.67 984.454 251.92 985.167C257.178 985.882 262.407 984.517 266.618 981.316L793.468 581.738C796.877 579.161 799.312 575.631 800.505 571.545Z" fill="#DA4067"/>
<path opacity="0.8" d="M-165.133 409.101C-163.821 404.602 -161.12 400.76 -157.326 397.97L361.344 18.0107C365.926 14.6575 371.534 13.2868 377.154 14.1446C382.774 15.0025 387.723 18.0027 391.089 22.5693L772.65 540.623C776.61 546.003 777.807 552.758 775.935 559.165C774.621 563.672 771.92 567.514 768.119 570.294L249.449 950.253C239.998 957.177 226.66 955.126 219.705 945.694L-161.857 427.64C-165.816 422.261 -167.013 415.506 -165.133 409.101ZM774.025 558.615C775.723 552.805 774.641 546.681 771.053 541.808L389.493 23.7454C386.439 19.5977 381.949 16.8907 376.861 16.1092C371.763 15.3256 366.681 16.5732 362.527 19.6169L-156.15 399.566C-159.59 402.091 -162.04 405.571 -163.232 409.649C-164.929 415.459 -163.841 421.593 -160.251 426.458L221.309 944.52C227.614 953.08 239.703 954.933 248.273 948.657L766.943 568.698C770.382 566.181 772.834 562.693 774.025 558.615Z" fill="#DA4067"/>
<path opacity="0.8" d="M-162.67 385.059C-161.355 380.552 -158.616 376.737 -154.766 374.015L355.723 13.6736C360.235 10.4926 365.721 9.25394 371.169 10.1868C376.626 11.1218 381.386 14.1206 384.578 18.6264L746.46 528.493C750.142 533.679 751.222 540.144 749.444 546.24C748.121 550.746 745.399 554.565 741.549 557.287L231.043 917.624C226.537 920.815 221.043 922.052 215.595 921.119C210.149 920.177 205.378 917.185 202.186 912.679L-159.685 402.806C-163.368 397.621 -164.455 391.154 -162.67 385.059ZM747.553 545.686C749.169 540.171 748.182 534.323 744.862 529.642L382.974 19.7643C380.083 15.6839 375.782 12.9782 370.844 12.1345C365.914 11.2929 360.954 12.4084 356.876 15.2905L-153.622 375.63C-157.101 378.091 -159.57 381.54 -160.761 385.618C-162.377 391.132 -161.39 396.98 -158.07 401.662L203.81 911.537C206.702 915.609 211.012 918.317 215.939 919.167C220.867 920.017 225.821 918.891 229.905 916.019L740.405 555.672C743.893 553.212 746.364 549.755 747.553 545.686Z" fill="#DA4067"/>
<path opacity="0.8" d="M-160.206 361.018C-158.904 356.561 -156.065 352.672 -152.215 350.058L350.113 9.33057C354.558 6.31328 359.921 5.20674 365.206 6.2167C370.491 7.22666 375.071 10.2262 378.099 14.6648L720.308 516.356C723.707 521.336 724.685 527.515 722.992 533.308C721.69 537.764 718.851 541.654 715.001 544.267L212.673 884.995C208.23 888.004 202.876 889.112 197.58 888.109C192.295 887.099 187.715 884.099 184.687 879.661L-157.519 377.961C-160.919 372.981 -161.897 366.802 -160.206 361.018ZM721.083 532.749C722.609 527.528 721.725 521.957 718.665 517.466L376.448 15.7731C373.719 11.7684 369.596 9.07056 364.828 8.16037C360.067 7.25228 355.236 8.24625 351.225 10.9646L-151.104 351.701C-154.576 354.056 -157.132 357.564 -158.306 361.574C-159.832 366.796 -158.947 372.366 -155.887 376.857L186.33 878.55C189.061 882.547 193.181 885.253 197.95 886.163C202.71 887.071 207.541 886.077 211.552 883.359L713.88 542.631C717.351 540.276 719.915 536.77 721.083 532.749Z" fill="#DA4067"/>
<path opacity="0.8" d="M-157.759 336.972C-156.455 332.507 -153.578 328.645 -149.664 326.101L344.491 4.99369C348.867 2.1486 354.099 1.17208 359.221 2.25912C364.336 3.33556 368.734 6.34432 371.589 10.7136L694.136 504.222C697.267 509.01 698.138 514.892 696.536 520.383C695.232 524.848 692.355 528.71 688.441 531.254L194.286 852.362C185.247 858.233 173.089 855.67 167.188 846.642L-155.359 353.134C-158.49 348.345 -159.359 342.455 -157.759 336.972ZM694.628 519.824C696.064 514.896 695.282 509.604 692.474 505.3L369.928 11.7922C367.36 7.86331 363.41 5.16261 358.809 4.19443C354.207 3.22625 349.505 4.09871 345.57 6.65546L-148.577 327.765C-152.093 330.046 -154.675 333.512 -155.851 337.531C-157.287 342.459 -156.505 347.751 -153.697 352.055L168.849 845.563C174.146 853.677 185.078 855.984 193.197 850.706L687.354 529.59C690.87 527.309 693.452 523.843 694.628 519.824Z" fill="#DA4067"/>
<path opacity="0.8" d="M-155.311 312.918C-154.002 308.436 -151.089 304.61 -147.113 302.145L338.872 0.648661C347.781 -4.8766 359.534 -2.13349 365.083 6.75423L667.956 492.086C670.812 496.672 671.591 502.27 670.073 507.457C668.765 511.939 665.849 515.774 661.873 518.239L175.888 819.735C166.988 825.262 155.224 822.526 149.678 813.63L-153.193 328.289C-156.05 323.704 -156.82 318.107 -155.311 312.918ZM668.173 506.9C669.53 502.259 668.843 497.242 666.283 493.135L363.419 7.80531C358.445 -0.15721 347.909 -2.61026 339.936 2.33385L-146.057 303.828C-149.618 306.035 -152.228 309.467 -153.402 313.477C-154.761 318.127 -154.072 323.135 -151.504 327.244L151.361 812.574C156.335 820.537 166.87 822.99 174.843 818.046L660.828 516.55C664.389 514.343 666.999 510.91 668.173 506.9Z" fill="#DA4067"/>
<path opacity="0.8" d="M-152.872 288.871C-151.549 284.366 -148.6 280.575 -144.551 278.182L333.261 -3.6941C342.03 -8.86644 353.397 -5.94771 358.591 2.80774L641.79 479.963C644.391 484.342 645.06 489.652 643.635 494.538C642.32 499.045 639.36 502.841 635.314 505.227L157.501 787.102C148.733 792.275 137.365 789.356 132.172 780.601L-151.03 303.454C-153.631 299.075 -154.298 293.756 -152.872 288.871ZM641.727 493.979C643.006 489.616 642.403 484.881 640.084 480.968L356.892 3.8144C352.253 -4.00303 342.105 -6.60414 334.283 -1.98327L-143.538 279.89C-147.153 282.021 -149.788 285.411 -150.964 289.43C-152.233 293.786 -151.632 298.53 -149.313 302.443L133.879 779.596C138.519 787.413 148.666 790.015 156.499 785.387L634.311 503.511C637.915 501.387 640.55 497.997 641.727 493.979Z" fill="#DA4067"/>
<path opacity="0.8" d="M-150.443 264.821C-149.114 260.29 -146.119 256.538 -141.994 254.235L327.648 -8.02902C331.835 -10.3618 336.68 -10.9377 341.298 -9.63211C345.918 -8.33501 349.744 -5.31331 352.098 -1.13942L615.618 467.829C618.002 472.065 618.557 476.959 617.197 481.617C615.867 486.148 612.871 489.908 608.746 492.211L139.105 754.467C130.478 759.286 119.504 756.194 114.664 747.579L-148.865 278.609C-151.24 274.375 -151.804 269.479 -150.443 264.821ZM615.297 481.06C616.505 476.914 616.013 472.567 613.895 468.794L350.364 -0.168694C348.284 -3.87886 344.87 -6.56479 340.767 -7.72603C336.663 -8.88727 332.348 -8.37933 328.63 -6.30104L-141.019 255.953C-144.696 258.005 -147.354 261.344 -148.535 265.38C-149.741 269.517 -149.252 273.873 -147.131 277.638L116.398 746.609C120.706 754.273 130.458 757.02 138.143 752.735L607.785 490.47C611.449 488.433 614.11 485.085 615.297 481.06Z" fill="#DA4067"/>
<path opacity="0.8" d="M-148.022 240.77C-146.686 236.213 -143.634 232.484 -139.424 230.275L322.038 -12.3716C330.533 -16.8361 341.104 -13.5723 345.598 -5.08783L589.456 455.698C591.578 459.716 592.057 464.33 590.778 468.693C589.442 473.249 586.391 476.978 582.188 479.19L120.708 721.841C112.212 726.305 101.644 723.033 97.1496 714.549L-146.699 253.765C-148.83 249.745 -149.301 245.132 -148.022 240.77ZM588.87 468.134C590 464.267 589.58 460.18 587.698 456.618L343.84 -4.16797C339.857 -11.6888 330.493 -14.5839 322.962 -10.6307L-138.502 232.024C-142.227 233.983 -144.931 237.284 -146.113 241.328C-147.242 245.188 -146.824 249.282 -144.941 252.845L98.9076 713.629C102.89 721.15 112.246 724.042 119.788 720.083L581.258 477.439C584.984 475.479 587.687 472.178 588.87 468.134Z" fill="#DA4067"/>
<path opacity="0.8" d="M-145.617 216.713C-144.288 212.183 -141.105 208.396 -136.873 206.318L316.427 -16.7149C320.486 -18.7097 325.074 -19.0065 329.35 -17.5594C333.635 -16.1103 337.09 -13.0807 339.098 -9.03696L563.274 443.571C565.159 447.377 565.544 451.716 564.357 455.777C563.038 460.301 559.845 464.095 555.61 466.182L102.312 689.205C93.9471 693.323 83.7831 689.871 79.6419 681.527L-144.534 228.92C-146.419 225.113 -146.806 220.783 -145.617 216.713ZM562.457 455.22C563.51 451.631 563.172 447.799 561.509 444.444L337.323 -8.15735C335.559 -11.7266 332.502 -14.397 328.725 -15.6763C324.94 -16.9577 320.893 -16.6992 317.315 -14.9377L-135.993 208.093C-139.734 209.931 -142.539 213.279 -143.709 217.272C-144.762 220.862 -144.422 224.685 -142.761 228.049L81.4234 680.658C85.0745 688.026 94.0504 691.069 101.431 687.439L554.728 464.415C558.471 462.568 561.287 459.213 562.457 455.22Z" fill="#DA4067"/>
<path opacity="0.8" d="M-143.22 192.647C-141.891 188.08 -138.635 184.329 -134.303 182.356L310.825 -21.0561C314.814 -22.8787 319.269 -23.037 323.382 -21.5128C327.495 -19.9887 330.77 -16.9583 332.603 -12.9755L537.117 431.449C538.768 435.036 539.069 439.093 537.961 442.867C536.624 447.432 533.377 451.185 529.053 453.16L83.9143 656.579C75.6921 660.335 65.9221 656.709 62.1359 648.498L-142.377 204.073C-144.02 200.488 -144.321 196.431 -143.22 192.647ZM536.053 442.308C537.022 438.987 536.763 435.418 535.312 432.268L330.796 -12.1488C329.186 -15.6444 326.309 -18.3155 322.691 -19.6549C319.073 -20.9943 315.156 -20.8573 311.654 -19.2575L-133.474 184.155C-137.281 185.896 -140.135 189.187 -141.312 193.206C-142.281 196.527 -142.02 200.088 -140.57 203.246L63.9346 647.669C67.2604 654.893 75.8484 658.085 83.0876 654.771L528.215 451.359C532.02 449.626 534.877 446.327 536.053 442.308Z" fill="#DA4067"/>
<path opacity="0.8" d="M-140.833 168.587C-139.483 163.971 -136.165 160.262 -131.733 158.395L305.214 -25.3989C313.304 -28.8005 322.678 -24.9927 326.101 -16.9156L510.935 419.322C512.362 422.683 512.585 426.469 511.557 429.956C510.207 434.572 506.89 438.28 502.457 440.147L65.5167 623.952C57.4268 627.354 48.053 623.546 44.6282 615.477L-140.212 179.229C-141.637 175.86 -141.854 172.085 -140.833 168.587ZM509.656 429.408C510.551 426.348 510.355 423.037 509.114 420.092L324.272 -16.1483C321.278 -23.2189 313.076 -26.5496 305.982 -23.5703L-130.965 160.224C-134.845 161.857 -137.752 165.108 -138.933 169.144C-139.829 172.204 -139.631 175.506 -138.383 178.461L46.4589 614.702C49.4529 621.772 57.6553 625.103 64.7409 622.122L501.698 438.321C505.576 436.696 508.475 433.443 509.656 429.408Z" fill="#DA4067"/>
<path opacity="0.8" d="M-138.46 144.513C-137.1 139.855 -133.708 136.174 -129.164 134.442L299.613 -29.7405C307.57 -32.787 316.539 -28.7994 319.607 -20.8545L484.776 407.209C486.003 410.394 486.149 413.801 485.194 417.063C483.831 421.729 480.442 425.402 475.905 427.144L47.1107 591.323C39.153 594.369 30.1839 590.382 27.1247 582.439L-138.044 154.375C-139.271 151.19 -139.417 147.784 -138.46 144.513ZM483.286 416.504C484.119 413.662 483.994 410.685 482.926 407.917L317.757 -20.1465C315.088 -27.0742 307.272 -30.5444 300.329 -27.8884L-128.456 136.292C-132.415 137.807 -135.365 141.011 -136.552 145.072C-137.385 147.914 -137.258 150.882 -136.184 153.661L28.9769 581.722C31.6456 588.65 39.4623 592.12 46.4048 589.464L475.19 425.284C479.138 423.775 482.099 420.565 483.286 416.504Z" fill="#DA4067"/>
<path opacity="0.8" d="M-136.107 120.445C-134.747 115.787 -131.192 112.064 -126.597 110.489L294.01 -34.0817C301.835 -36.7732 310.4 -32.6056 313.104 -24.7951L458.593 395.082C459.616 398.037 459.701 401.175 458.824 404.159C457.463 408.817 453.908 412.54 449.313 414.114L28.7062 558.686C20.8829 561.369 12.3164 557.209 9.61222 549.399L-135.886 129.52C-136.9 126.567 -136.985 123.428 -136.107 120.445ZM456.924 403.602C457.686 401.014 457.615 398.293 456.724 395.722L311.235 -24.1549C308.889 -30.9311 301.45 -34.543 294.667 -32.2081L-125.946 112.353C-129.933 113.725 -133.016 116.96 -134.197 120.995C-134.95 123.586 -134.88 126.306 -133.995 128.867L11.4923 548.752C13.8398 555.52 21.2686 559.138 28.0597 556.805L448.673 412.245C452.658 410.881 455.741 407.646 456.924 403.602Z" fill="#DA4067"/>
<path opacity="0.8" d="M-133.769 96.364C-132.381 91.6314 -128.747 87.9552 -124.026 86.5287L288.417 -38.4203C296.108 -40.7483 304.268 -36.4007 306.608 -28.7246L432.424 382.976C433.253 385.694 433.277 388.566 432.484 391.281C431.096 396.014 427.454 399.688 422.741 401.117L10.3004 526.057C2.61788 528.387 -5.55043 524.038 -7.8911 516.362L-133.716 104.659C-134.546 101.949 -134.56 99.0713 -133.769 96.364ZM430.578 390.714C431.26 388.376 431.248 385.895 430.527 383.546L304.711 -28.1543C302.68 -34.7811 295.637 -38.5389 288.998 -36.5293L-123.445 88.4196C-127.524 89.6525 -130.676 92.8343 -131.869 96.9208C-132.553 99.2669 -132.539 101.74 -131.818 104.088L-5.99375 515.791C-3.96301 522.418 3.08005 526.176 9.72169 524.158L422.165 399.209C426.243 397.976 429.384 394.801 430.578 390.714Z" fill="#DA4067"/>
<path opacity="0.8" d="M-131.456 72.2763C-130.066 67.5352 -126.242 63.8158 -121.456 62.5673L282.823 -42.7594C290.371 -44.726 298.135 -40.1964 300.112 -32.6546L406.257 370.861C406.908 373.346 406.874 375.942 406.156 378.388C404.766 383.129 400.933 386.847 396.156 388.097L-8.11469 493.426C-15.6629 495.393 -23.418 490.865 -25.4037 483.321L-131.549 79.8053C-132.2 77.3203 -132.164 74.7158 -131.456 72.2763ZM404.256 377.831C404.871 375.73 404.898 373.492 404.34 371.364L298.189 -32.1628C296.483 -38.6466 289.815 -42.5375 283.319 -40.8533L-120.946 64.4861C-125.125 65.5772 -128.334 68.6998 -129.548 72.8352C-130.163 74.9369 -130.19 77.1742 -129.634 79.3114L-23.4805 482.829C-21.773 489.305 -15.1072 493.204 -8.61707 491.509L395.654 386.181C399.833 385.089 403.042 381.967 404.256 377.831Z" fill="#DA4067"/>
<path opacity="0.8" d="M-129.158 48.1763C-127.745 43.3418 -123.799 39.6792 -118.877 38.6084L277.232 -47.1067C284.645 -48.7098 291.994 -43.9939 293.618 -36.5929L380.098 358.749C380.585 360.986 380.505 363.328 379.871 365.506C378.458 370.34 374.519 374.014 369.582 375.072L-26.5269 460.787C-33.9407 462.39 -41.2912 457.682 -42.9049 450.275L-129.387 54.9418C-129.874 52.7045 -129.794 50.363 -129.158 48.1763ZM377.954 364.945C378.503 363.079 378.563 361.075 378.141 359.16L291.667 -36.171C290.285 -42.5032 283.994 -46.5358 277.647 -45.1663L-118.445 40.553C-122.661 41.4638 -126.036 44.5998 -127.241 48.7373C-127.79 50.6031 -127.858 52.605 -127.436 54.5199L-40.9645 449.86C-39.5823 456.192 -33.2916 460.224 -26.9445 458.855L369.154 373.146C373.372 372.227 376.738 369.089 377.954 364.945Z" fill="#DA4067"/>
</g>
<defs>
<clipPath id="clip0_109_5513">
<rect width="1173.56" height="1218.19" fill="white" transform="translate(-83.6299 -137.19) rotate(13.8022)"/>
</clipPath>
</defs>
</svg>
