<svg width="697" height="639" viewBox="0 0 697 639" fill="none" xmlns="http://www.w3.org/2000/svg">
<g clip-path="url(#clip0_109_5465)">
<g opacity="0.8">
<path opacity="0.8" d="M-135.206 522.492C-135.048 518.966 -133.893 515.565 -131.86 512.658L194.356 46.6808C197.214 42.5945 201.497 39.8658 206.42 38.9958C211.343 38.1258 216.313 39.2133 220.411 42.0606L688.319 367.098C693.606 370.769 696.595 376.8 696.311 383.219C696.153 386.745 694.998 390.146 692.965 393.053L366.75 859.03C363.892 863.117 359.609 865.845 354.686 866.715C349.762 867.592 344.793 866.498 340.694 863.65L-127.207 538.606C-132.494 534.935 -135.483 528.911 -135.206 522.492ZM694.82 383.14C695.077 377.235 692.325 371.685 687.461 368.311L219.553 43.2733C215.785 40.6501 211.211 39.6483 206.684 40.4524C202.157 41.2565 198.217 43.7676 195.59 47.5245L-130.632 513.502C-132.507 516.178 -133.569 519.302 -133.708 522.544C-133.965 528.456 -131.213 533.999 -126.356 537.381L341.552 862.411C345.327 865.034 349.894 866.03 354.428 865.232C358.955 864.428 362.895 861.917 365.529 858.16L691.745 392.183C693.619 389.514 694.681 386.383 694.82 383.14Z" fill="#CC0033"/>
<path opacity="0.8" d="M-137.694 504.459C-137.542 500.94 -136.367 497.559 -134.295 494.678L189.466 44.5126C192.304 40.5646 196.521 37.9546 201.332 37.1637C206.143 36.3728 210.98 37.4933 214.947 40.3274L666.976 362.913C672.012 366.505 674.856 372.338 674.592 378.507C674.434 382.026 673.266 385.414 671.193 388.294L347.433 838.46C341.572 846.613 330.135 848.492 321.952 842.652L-130.085 520.06C-135.12 516.468 -137.971 510.635 -137.694 504.459ZM673.088 378.441C673.338 372.773 670.725 367.421 666.099 364.119L214.069 41.5401C210.432 38.9433 205.991 37.9085 201.576 38.6335C197.154 39.3585 193.287 41.7576 190.68 45.3826L-133.081 495.548C-134.981 498.191 -136.057 501.296 -136.202 504.525C-136.453 510.193 -133.84 515.545 -129.213 518.841L322.816 841.433C330.333 846.791 340.826 845.071 346.205 837.59L669.966 387.424C671.867 384.781 672.949 381.677 673.088 378.441Z" fill="#CC0033"/>
<path opacity="0.8" d="M-140.196 486.432C-140.044 482.913 -138.849 479.545 -136.738 476.697L184.568 42.35C190.396 34.4739 201.569 32.7932 209.475 38.5932L645.626 358.727C650.418 362.24 653.117 367.875 652.859 373.8C652.708 377.32 651.513 380.688 649.408 383.535L328.102 817.882C325.277 821.699 321.133 824.19 316.427 824.895C311.722 825.607 307.023 824.447 303.195 821.639L-132.969 501.506C-137.754 497.993 -140.46 492.358 -140.196 486.432ZM651.355 373.741C651.592 368.317 649.117 363.149 644.735 359.933L208.584 39.7993C201.344 34.4804 191.108 36.0293 185.769 43.2398L-135.536 477.587C-137.47 480.197 -138.566 483.282 -138.704 486.505C-138.942 491.929 -136.467 497.09 -132.078 500.306L304.066 820.446C307.577 823.023 311.88 824.078 316.19 823.432C320.499 822.786 324.294 820.499 326.881 817.006L648.187 382.658C650.121 380.048 651.216 376.964 651.355 373.741Z" fill="#CC0033"/>
<path opacity="0.8" d="M-142.697 468.406C-142.545 464.886 -141.33 461.538 -139.179 458.717L179.665 40.188C182.47 36.5103 186.542 34.1375 191.135 33.5114C195.729 32.8853 200.295 34.0782 203.991 36.8728L624.264 354.561C628.804 357.995 631.365 363.433 631.114 369.107C630.956 372.627 629.748 375.975 627.597 378.796L308.746 797.332C302.958 804.925 292.042 806.421 284.42 800.654L-135.846 482.952C-140.387 479.525 -142.947 474.087 -142.697 468.406ZM629.629 369.041C629.854 363.854 627.511 358.885 623.366 355.748L203.094 38.0591C199.715 35.5084 195.544 34.4144 191.346 34.9878C187.149 35.5612 183.427 37.7296 180.866 41.0909L-137.991 459.627C-139.951 462.204 -141.066 465.262 -141.205 468.478C-141.429 473.665 -139.093 478.635 -134.942 481.772L285.331 799.461C292.3 804.727 302.272 803.369 307.558 796.429L626.409 377.893C628.375 375.316 629.484 372.258 629.629 369.041Z" fill="#CC0033"/>
<path opacity="0.8" d="M-145.204 450.381C-145.046 446.861 -143.812 443.526 -141.627 440.738L174.768 38.027C177.553 34.4811 181.559 32.227 186.041 31.6866C190.528 31.1395 194.956 32.372 198.52 35.1468L602.908 350.383C607.204 353.732 609.626 358.971 609.389 364.402C609.237 367.922 607.996 371.257 605.812 374.045L289.416 776.762C286.631 780.308 282.625 782.562 278.137 783.103C273.65 783.65 269.221 782.424 265.664 779.649L-138.73 464.406C-143.02 461.058 -145.442 455.818 -145.204 450.381ZM607.897 364.336C608.115 359.38 605.904 354.602 601.991 351.55L197.603 36.3134C194.356 33.7825 190.317 32.662 186.232 33.1629C182.14 33.6573 178.491 35.7136 175.95 38.9432L-140.446 441.667C-142.439 444.205 -143.568 447.243 -143.706 450.453C-143.924 455.403 -141.713 460.181 -137.8 463.24L266.595 778.476C269.842 781.007 273.881 782.121 277.966 781.627C282.057 781.132 285.707 779.076 288.248 775.846L604.644 373.129C606.63 370.585 607.758 367.546 607.897 364.336Z" fill="#CC0033"/>
<path opacity="0.8" d="M-147.719 432.354C-147.567 428.828 -146.3 425.513 -144.07 422.764L169.871 35.8582C175.58 28.8192 185.98 27.7251 193.049 33.413L581.564 346.204C585.616 349.46 587.893 354.509 587.669 359.696C587.517 363.222 586.257 366.537 584.026 369.286L270.079 756.185C267.313 759.599 263.373 761.728 258.998 762.19C254.616 762.651 250.32 761.392 246.901 758.631L-141.608 445.852C-145.66 442.59 -147.944 437.548 -147.719 432.354ZM586.177 359.637C586.382 354.918 584.31 350.33 580.627 347.364L192.112 34.573C185.684 29.3992 176.233 30.3944 171.039 36.7942L-142.908 423.707C-144.934 426.205 -146.083 429.217 -146.221 432.42C-146.426 437.139 -144.353 441.726 -140.671 444.692L247.845 757.484C250.96 759.995 254.867 761.142 258.84 760.72C262.819 760.298 266.403 758.36 268.91 755.263L582.858 368.356C584.89 365.858 586.039 362.84 586.177 359.637Z" fill="#CC0033"/>
<path opacity="0.8" d="M-150.227 414.328C-150.075 410.802 -148.788 407.507 -146.511 404.785L164.974 33.6969C167.726 30.4212 171.587 28.411 175.857 28.0287C180.127 27.6464 184.291 28.9514 187.578 31.6867L560.215 342.026C564.082 345.249 566.174 349.975 565.957 354.997C565.805 358.53 564.518 361.825 562.235 364.541L250.749 735.629C245.073 742.391 234.936 743.287 228.145 737.639L-144.492 427.299C-148.359 424.076 -150.451 419.351 -150.227 414.328ZM564.459 354.938C564.657 350.384 562.763 346.099 559.258 343.18L186.621 32.8335C183.638 30.3487 179.863 29.1755 175.996 29.5183C172.122 29.861 168.624 31.6867 166.129 34.6592L-145.363 405.741C-147.429 408.206 -148.597 411.191 -148.735 414.388C-148.933 418.942 -147.033 423.233 -143.528 426.146L229.109 736.492C235.266 741.62 244.453 740.803 249.6 734.673L561.086 363.585C563.152 361.127 564.32 358.134 564.459 354.938Z" fill="#CC0033"/>
<path opacity="0.8" d="M-152.748 396.302C-152.596 392.77 -151.276 389.487 -148.946 386.805L160.078 31.5349C162.81 28.3977 166.605 26.5061 170.762 26.2095C174.927 25.9129 178.952 27.2509 182.1 29.9729L538.852 337.861C542.482 340.991 544.436 345.526 544.231 350.304C544.073 353.837 542.766 357.119 540.436 359.802L231.399 715.071C228.673 718.215 224.872 720.107 220.714 720.404C216.557 720.693 212.524 719.362 209.376 716.64L-147.369 408.746C-150.999 405.615 -152.959 401.081 -152.748 396.302ZM542.746 350.238C542.938 345.915 541.162 341.815 537.889 338.988L181.13 31.0934C178.279 28.6284 174.643 27.4222 170.875 27.6925C167.113 27.9627 163.681 29.6697 161.213 32.5104L-147.818 387.78C-149.923 390.206 -151.111 393.172 -151.25 396.368C-151.441 400.692 -149.666 404.791 -146.392 407.619L210.36 715.513C213.211 717.971 216.854 719.178 220.615 718.914C224.377 718.65 227.802 716.937 230.277 714.103L539.308 358.826C541.42 356.401 542.608 353.428 542.746 350.238Z" fill="#CC0033"/>
<path opacity="0.8" d="M-155.268 378.276C-155.116 374.783 -153.737 371.428 -151.388 368.825L155.188 29.3664C157.9 26.361 161.629 24.588 165.681 24.3771C169.733 24.1662 173.627 25.5371 176.643 28.2394L517.517 333.682C520.902 336.714 522.73 341.057 522.532 345.598C522.381 349.091 521.001 352.446 518.652 355.05L212.076 694.508C209.364 697.507 205.642 699.28 201.583 699.497C197.531 699.708 193.637 698.337 190.621 695.635L-150.252 390.186C-153.638 387.154 -155.466 382.811 -155.268 378.276ZM521.034 345.532C521.212 341.439 519.563 337.524 516.514 334.789L175.633 29.3467C172.914 26.908 169.41 25.6755 165.754 25.8667C162.104 26.0578 158.745 27.6528 156.297 30.3617L-150.279 369.826C-152.397 372.173 -153.638 375.198 -153.777 378.342C-153.955 382.435 -152.305 386.35 -149.256 389.085L191.624 694.528C194.343 696.96 197.848 698.199 201.504 698.008C205.153 697.816 208.512 696.221 210.961 693.513L517.537 354.054C519.655 351.708 520.902 348.683 521.034 345.532Z" fill="#CC0033"/>
<path opacity="0.8" d="M-157.803 360.25C-157.651 356.75 -156.239 353.409 -153.83 350.845L150.29 27.2049C152.983 24.3378 156.639 22.6835 160.586 22.5583C164.526 22.4265 168.287 23.8369 171.165 26.5194L496.166 329.51C499.321 332.45 501.017 336.595 500.832 340.899C500.68 344.399 499.268 347.741 496.859 350.304L192.739 673.944C187.175 679.863 177.81 680.173 171.864 674.63L-153.137 371.639C-156.292 368.7 -157.988 364.547 -157.803 360.25ZM499.334 340.833C499.499 336.971 497.974 333.241 495.143 330.598L170.142 27.6069C167.555 25.1946 164.176 23.9292 160.632 24.0478C157.088 24.1665 153.801 25.6494 151.379 28.2265L-152.735 351.866C-154.899 354.167 -156.167 357.166 -156.305 360.316C-156.47 364.178 -154.946 367.909 -152.114 370.552L172.887 673.542C178.226 678.525 186.647 678.248 191.643 672.929L495.764 349.283C497.928 346.983 499.195 343.984 499.334 340.833Z" fill="#CC0033"/>
<path opacity="0.8" d="M-160.337 342.217C-160.185 338.704 -158.74 335.382 -156.272 332.865L145.394 25.0363C150.924 19.3945 160.025 19.289 165.688 24.7924L474.811 325.338C477.728 328.179 479.305 332.133 479.127 336.2C478.975 339.713 477.53 343.041 475.061 345.559L173.396 653.387C167.872 659.029 158.765 659.141 153.102 653.631L-156.021 353.079C-158.938 350.238 -160.508 346.284 -160.337 342.217ZM477.635 336.134C477.794 332.496 476.388 328.95 473.775 326.406L164.658 25.8602C159.583 20.9302 151.426 21.029 146.476 26.0777L-155.196 333.906C-157.407 336.16 -158.7 339.139 -158.839 342.283C-158.997 345.928 -157.591 349.467 -154.971 352.011L154.145 652.557C159.22 657.487 167.377 657.388 172.327 652.339L473.992 344.511C476.203 342.257 477.497 339.278 477.635 336.134Z" fill="#CC0033"/>
<path opacity="0.8" d="M-162.878 324.191C-162.72 320.658 -161.241 317.356 -158.707 314.878L140.504 22.8676C145.994 17.5092 154.844 17.6015 160.223 23.0719L453.467 321.172C456.16 323.907 457.605 327.671 457.44 331.5C457.289 335.033 455.804 338.342 453.269 340.813L154.059 632.823C148.568 638.182 139.718 638.089 134.34 632.619L-158.905 334.525C-161.598 331.79 -163.043 328.02 -162.878 324.191ZM455.942 331.434C456.094 328.014 454.801 324.659 452.398 322.214L159.16 24.1133C154.356 19.2294 146.456 19.1504 141.559 23.9354L-157.658 315.946C-159.921 318.154 -161.241 321.106 -161.38 324.257C-161.525 327.671 -160.231 331.032 -157.829 333.477L135.409 631.578C140.213 636.461 148.113 636.541 153.016 631.749L452.227 339.739C454.484 337.537 455.804 334.585 455.942 331.434Z" fill="#CC0033"/>
<path opacity="0.8" d="M-165.425 306.165C-165.267 302.612 -163.749 299.33 -161.142 296.905L135.614 20.7061C138.26 18.2477 141.705 16.9558 145.322 17.0811C148.938 17.1997 152.284 18.7222 154.759 21.352L432.118 317C434.626 319.67 435.913 323.15 435.755 326.801C435.596 330.354 434.078 333.642 431.472 336.068L134.716 612.26C129.265 617.335 120.672 617.045 115.577 611.614L-161.789 315.966C-164.29 313.296 -165.583 309.816 -165.425 306.165ZM434.263 326.735C434.402 323.486 433.26 320.395 431.029 318.015L153.663 22.3736C151.472 20.0338 148.489 18.6827 145.275 18.5706C142.061 18.4586 138.993 19.6054 136.643 21.7936L-160.119 297.986C-162.442 300.147 -163.788 303.067 -163.927 306.231C-164.065 309.474 -162.924 312.571 -160.693 314.944L116.673 610.592C121.207 615.424 128.842 615.681 133.7 611.166L430.455 334.967C432.772 332.819 434.118 329.892 434.263 326.735Z" fill="#CC0033"/>
<path opacity="0.8" d="M-167.979 288.139C-167.821 284.567 -166.257 281.291 -163.571 278.918L130.723 18.5378C136.141 13.7462 144.47 14.2339 149.288 19.6318L410.775 312.828C413.052 315.386 414.233 318.675 414.082 322.095C413.923 325.668 412.359 328.943 409.68 331.316L115.373 591.703C109.954 596.495 101.626 596 96.8081 590.602L-164.673 297.406C-166.956 294.848 -168.131 291.56 -167.979 288.139ZM412.584 322.029C412.716 318.998 411.673 316.084 409.653 313.817L148.166 20.6205C143.896 15.8355 136.518 15.4005 131.713 19.645L-162.581 280.032C-164.957 282.135 -166.342 285.035 -166.481 288.205C-166.613 291.23 -165.57 294.15 -163.551 296.417L97.9301 589.614C102.2 594.399 109.572 594.834 114.383 590.582L408.683 330.202C411.059 328.1 412.445 325.2 412.584 322.029Z" fill="#CC0033"/>
<path opacity="0.8" d="M-170.547 270.112C-170.388 266.56 -168.738 263.218 -166.013 260.938L125.833 16.369C128.446 14.1808 131.753 13.1395 135.145 13.4295C138.543 13.7195 141.619 15.3145 143.816 17.9113L389.419 308.663C391.484 311.108 392.547 314.212 392.408 317.396C392.257 320.941 390.6 324.29 387.875 326.577L96.0291 571.139C90.6439 575.654 82.5792 574.955 78.0453 569.597L-167.557 278.845C-169.623 276.4 -170.685 273.302 -170.547 270.112ZM390.917 317.33C391.042 314.515 390.105 311.774 388.284 309.618L142.675 18.8735C140.741 16.5799 138.022 15.176 135.026 14.919C132.023 14.662 129.106 15.5781 126.803 17.5092L-165.049 262.078C-167.458 264.095 -168.91 267.048 -169.048 270.178C-169.174 272.993 -168.237 275.728 -166.415 277.89L79.1937 568.641C83.193 573.373 90.3139 573.986 95.0656 570.005L386.911 325.443C389.32 323.42 390.778 320.46 390.917 317.33Z" fill="#CC0033"/>
<path opacity="0.8" d="M-173.12 252.08C-172.969 248.501 -171.259 245.172 -168.441 242.951L120.949 14.2005C123.543 12.1507 126.776 11.2346 130.063 11.6103C133.35 11.9859 136.293 13.6139 138.352 16.1975L368.083 304.497C369.937 306.824 370.887 309.737 370.755 312.696C370.597 316.275 368.894 319.603 366.083 321.825L76.6859 550.582C71.3402 554.807 63.533 553.91 59.2829 548.585L-170.448 260.285C-172.295 257.959 -173.246 255.045 -173.12 252.08ZM369.257 312.63C369.369 310.027 368.538 307.463 366.908 305.42L137.177 17.1269C135.369 14.8596 132.782 13.4228 129.891 13.0932C127.001 12.7637 124.156 13.5678 121.88 15.3671L-167.511 244.118C-169.986 246.075 -171.484 248.995 -171.622 252.145C-171.734 254.749 -170.903 257.306 -169.273 259.356L60.451 547.655C64.1863 552.342 71.0499 553.133 75.7553 549.409L365.146 320.658C367.621 318.707 369.119 315.781 369.257 312.63Z" fill="#CC0033"/>
<path opacity="0.8" d="M-175.701 234.054C-175.542 230.435 -173.78 227.126 -170.87 224.965L116.059 12.0321C121.371 8.09078 128.921 9.19146 132.881 14.484L346.726 300.332C348.376 302.533 349.221 305.262 349.096 307.997C348.937 311.615 347.175 314.924 344.265 317.086L57.3426 530.025C52.0299 533.966 44.4801 532.866 40.5203 527.58L-173.332 241.725C-174.981 239.517 -175.82 236.795 -175.701 234.054ZM347.604 307.938C347.71 305.539 346.971 303.153 345.532 301.221L131.68 15.3737C128.215 10.7403 121.609 9.77805 116.95 13.2317L-169.979 226.164C-172.526 228.056 -174.071 230.956 -174.209 234.119C-174.315 236.519 -173.576 238.898 -172.13 240.836L41.7214 526.683C45.1862 531.317 51.7924 532.279 56.4451 528.825L343.38 315.886C345.928 314.001 347.466 311.101 347.604 307.938Z" fill="#CC0033"/>
<path opacity="0.8" d="M-178.294 216.021C-178.136 212.37 -176.314 209.068 -173.298 206.985L111.175 9.86419C116.455 6.20623 123.741 7.51123 127.417 12.7708L325.39 296.173C326.862 298.282 327.581 300.747 327.469 303.305C327.311 306.963 325.489 310.258 322.48 312.347L37.9928 509.468C32.7132 513.126 25.4273 511.821 21.7579 506.562L-176.215 223.159C-177.687 221.05 -178.406 218.585 -178.294 216.021ZM325.971 303.239C326.07 301.011 325.443 298.856 324.163 297.024L126.189 13.621C122.988 9.03373 116.64 7.9001 112.033 11.0901L-172.447 208.211C-175.074 210.03 -176.658 212.904 -176.796 216.087C-176.895 218.315 -176.268 220.464 -174.981 222.302L22.9855 505.705C26.1862 510.292 32.535 511.426 37.1415 508.236L321.622 311.115C324.242 309.302 325.832 306.422 325.971 303.239Z" fill="#CC0033"/>
<path opacity="0.8" d="M-180.901 197.995C-180.743 194.344 -178.809 190.982 -175.727 189.005L106.292 7.69561C111.538 4.32107 118.56 5.83039 121.946 11.057L304.034 292.008C305.314 293.985 305.941 296.265 305.836 298.605C305.677 302.257 303.744 305.618 300.662 307.595L18.6429 488.904C13.3963 492.272 6.37437 490.77 2.9888 485.543L-179.106 204.592C-180.38 202.615 -181.007 200.335 -180.901 197.995ZM304.344 298.539C304.437 296.509 303.895 294.532 302.78 292.812L120.692 11.8611C117.755 7.32652 111.657 6.02152 107.11 8.94789L-174.915 190.251C-177.588 191.971 -179.264 194.891 -179.403 198.054C-179.489 200.084 -178.948 202.062 -177.839 203.775L4.2493 484.732C7.1861 489.26 13.2775 490.572 17.8312 487.646L299.856 306.343C302.529 304.629 304.206 301.71 304.344 298.539Z" fill="#CC0033"/>
<path opacity="0.8" d="M-183.522 179.962C-183.357 176.252 -181.357 172.91 -178.156 171.018L101.414 5.52732C106.627 2.44277 113.385 4.15641 116.481 9.35004L282.69 287.855C283.786 289.694 284.32 291.79 284.228 293.919C284.063 297.63 282.057 300.971 278.863 302.863L-0.707657 468.348C-5.91472 471.432 -12.6793 469.719 -15.7744 464.525L-181.991 186.019C-183.086 184.187 -183.614 182.085 -183.522 179.962ZM282.73 293.847C282.809 292.014 282.354 290.202 281.403 288.613L115.194 10.108C112.514 5.62618 106.68 4.14322 102.179 6.80595L-177.391 172.297C-180.156 173.932 -181.892 176.825 -182.03 180.028C-182.11 181.867 -181.654 183.673 -180.704 185.261L-14.4875 463.767C-11.8081 468.249 -5.97411 469.732 -1.47322 467.062L278.097 301.571C280.862 299.937 282.591 297.05 282.73 293.847Z" fill="#CC0033"/>
<path opacity="0.8" d="M-186.161 161.93C-185.996 158.212 -183.864 154.805 -180.584 153.032L96.5375 3.35884C101.712 0.564296 108.212 2.48225 111.017 7.64293L261.348 283.697C262.272 285.397 262.714 287.302 262.628 289.22C262.463 292.937 260.325 296.345 257.052 298.117L-20.0634 447.79C-25.2374 450.585 -31.7314 448.667 -34.5428 443.506L-184.874 167.453C-185.798 165.752 -186.24 163.841 -186.161 161.93ZM261.137 289.154C261.21 287.506 260.827 285.865 260.035 284.408L109.697 8.34816C107.282 3.91248 101.698 2.26475 97.2437 4.66384L-179.865 154.343C-182.729 155.892 -184.518 158.753 -184.663 161.995C-184.735 163.643 -184.353 165.284 -183.561 166.747L-33.2229 442.801C-30.8074 447.23 -25.2242 448.885 -20.7761 446.479L256.339 296.806C259.203 295.257 260.992 292.397 261.137 289.154Z" fill="#CC0033"/>
<path opacity="0.8" d="M-188.814 143.89C-188.649 140.1 -186.419 136.712 -183.007 135.045L91.6602 1.18363C96.8013 -1.32091 103.031 0.807952 105.552 5.92909L240.012 279.537C240.771 281.086 241.134 282.813 241.061 284.52C240.896 288.31 238.672 291.704 235.247 293.365L-39.4201 427.227C-44.5611 429.731 -50.7911 427.609 -53.3055 422.481L-187.765 148.879C-188.524 147.33 -188.887 145.604 -188.814 143.89ZM239.556 284.454C239.622 282.991 239.305 281.515 238.652 280.19L104.199 6.58818C102.048 2.20522 96.7155 0.386134 92.3136 2.52818L-182.34 136.39C-185.264 137.813 -187.171 140.713 -187.309 143.956C-187.375 145.419 -187.065 146.895 -186.412 148.22L-51.9592 421.829C-49.8078 426.212 -44.4753 428.031 -40.0734 425.889L234.587 292.034C237.51 290.604 239.411 287.704 239.556 284.454Z" fill="#CC0033"/>
</g>
</g>
<defs>
<clipPath id="clip0_109_5465">
<rect width="885" height="638" fill="white" transform="translate(-188.82 0.135742)"/>
</clipPath>
</defs>
</svg>
